<?xml version="1.0" encoding="UTF-8" standalone="no"?>
<!DOCTYPE svg PUBLIC "-//W3C//DTD SVG 1.1//EN" "http://www.w3.org/Graphics/SVG/1.1/DTD/svg11.dtd">
<svg width="100%" height="100%" viewBox="0 0 2550 3300" version="1.1" xmlns="http://www.w3.org/2000/svg" xmlns:xlink="http://www.w3.org/1999/xlink" xml:space="preserve" xmlns:serif="http://www.serif.com/" style="fill-rule:evenodd;clip-rule:evenodd;stroke-linejoin:round;stroke-miterlimit:1.41421;">
    <rect id="Artboard1" x="0" y="0" width="2550" height="3300" style="fill:none;"/>
    <clipPath id="_clip1">
        <rect id="Artboard11" serif:id="Artboard1" x="0" y="0" width="2550" height="3300"/>
    </clipPath>
    <g clip-path="url(#_clip1)">
        <g id="Layer-1" serif:id="Layer 1" transform="matrix(4.16667,0,0,4.16667,0,0)">
            <rect x="0" y="0" width="612" height="792" style="fill:rgb(198,200,202);"/>
            <rect x="0" y="0" width="611.396" height="792" style="fill:white;"/>
            <g transform="matrix(0.979567,0.20112,0.20112,-0.979567,205.333,-41.2552)">
                <path d="M-4.37,-43.013L423.365,-43.013L421.186,-32.399L47.321,-32.4L-4.37,-43.013Z" style="fill:rgb(35,31,32);fill-rule:nonzero;"/>
            </g>
            <g transform="matrix(0.979567,0.201118,0.201118,-0.979567,295.811,-32.0624)">
                <path d="M-3.396,-33.429L329.031,-33.429L324.673,-12.203L99.985,-12.203L-3.396,-33.429Z" style="fill:rgb(35,31,32);fill-rule:nonzero;"/>
            </g>
            <g transform="matrix(1,0,0,1,434.249,36.371)">
                <path d="M0,-36.371L177.147,0L177.147,-36.371L0,-36.371Z" style="fill:rgb(35,31,32);fill-rule:nonzero;"/>
            </g>
            <g transform="matrix(0.979567,0.201119,0.201119,-0.979567,10.6351,676.487)">
                <path d="M-2.151,-42.401L367.834,-42.401L419.524,-31.788L-4.33,-31.789L-2.151,-42.401Z" style="fill:rgb(35,31,32);fill-rule:nonzero;"/>
            </g>
            <g transform="matrix(0.979567,0.20112,0.20112,-0.979567,5.57491,715.46)">
                <path d="M1.001,-32.596L221.81,-32.596L325.192,-11.37L-3.357,-11.371L1.001,-32.596Z" style="fill:rgb(35,31,32);fill-rule:nonzero;"/>
            </g>
            <g transform="matrix(1,0,0,1,0,756.41)">
                <path d="M0,35.59L173.346,35.59L0,0L0,35.59Z" style="fill:rgb(35,31,32);fill-rule:nonzero;"/>
            </g>
            <g transform="matrix(1,0,0,1,529.351,737.716)">
                <path d="M0,-6.409L1.208,-1.202L2.657,-6.409L3.595,-6.409L5.048,-1.192L6.255,-6.409L7.207,-6.409L5.523,0L4.611,0L3.132,-5.314L1.645,0L0.733,0L-0.942,-6.409L0,-6.409Z" style="fill:rgb(35,31,32);fill-rule:nonzero;"/>
            </g>
            <g transform="matrix(1,0,0,1,537.778,733.794)">
                <path d="M0,3.215C0.166,3.346 0.362,3.411 0.589,3.411C0.865,3.411 1.133,3.347 1.392,3.219C1.828,3.008 2.046,2.661 2.046,2.179L2.046,1.547C1.95,1.608 1.827,1.66 1.676,1.7C1.525,1.74 1.378,1.77 1.232,1.787L0.757,1.848C0.473,1.887 0.258,1.945 0.116,2.027C-0.128,2.164 -0.249,2.381 -0.249,2.679C-0.249,2.906 -0.166,3.084 0,3.215M1.653,1.094C1.833,1.071 1.954,0.995 2.016,0.868C2.05,0.797 2.068,0.697 2.068,0.565C2.068,0.296 1.973,0.102 1.782,-0.02C1.592,-0.141 1.321,-0.201 0.966,-0.201C0.557,-0.201 0.267,-0.09 0.096,0.132C0,0.255 -0.062,0.437 -0.092,0.68L-0.825,0.68C-0.81,0.102 -0.624,-0.299 -0.265,-0.525C0.094,-0.752 0.51,-0.864 0.984,-0.864C1.532,-0.864 1.979,-0.759 2.322,-0.55C2.661,-0.341 2.831,-0.016 2.831,0.427L2.831,3.119C2.831,3.201 2.848,3.266 2.882,3.315C2.915,3.364 2.985,3.389 3.093,3.389C3.128,3.389 3.167,3.387 3.211,3.383C3.255,3.379 3.302,3.372 3.351,3.363L3.351,3.944C3.228,3.978 3.136,4 3.071,4.009C3.007,4.018 2.92,4.022 2.81,4.022C2.539,4.022 2.343,3.926 2.221,3.734C2.156,3.633 2.112,3.489 2.085,3.302C1.925,3.512 1.696,3.694 1.396,3.848C1.096,4.001 0.767,4.079 0.406,4.079C-0.027,4.079 -0.382,3.947 -0.657,3.684C-0.931,3.421 -1.069,3.093 -1.069,2.697C-1.069,2.265 -0.934,1.929 -0.663,1.691C-0.393,1.452 -0.038,1.306 0.401,1.251L1.653,1.094Z" style="fill:rgb(35,31,32);fill-rule:nonzero;"/>
            </g>
            <g transform="matrix(1,0,0,1,0,677.023)">
                <rect x="541.918" y="54.284" width="0.785" height="6.409" style="fill:rgb(35,31,32);"/>
            </g>
            <g transform="matrix(1,0,0,1,546.968,737.467)">
                <path d="M0,-4.175C0.331,-3.92 0.529,-3.479 0.596,-2.853L-0.168,-2.853C-0.215,-3.141 -0.321,-3.381 -0.486,-3.571C-0.652,-3.762 -0.918,-3.857 -1.285,-3.857C-1.785,-3.857 -2.143,-3.612 -2.358,-3.125C-2.498,-2.808 -2.567,-2.417 -2.567,-1.952C-2.567,-1.485 -2.468,-1.092 -2.271,-0.772C-2.073,-0.453 -1.761,-0.292 -1.337,-0.292C-1.011,-0.292 -0.754,-0.391 -0.563,-0.59C-0.372,-0.788 -0.241,-1.06 -0.168,-1.405L0.596,-1.405C0.508,-0.785 0.29,-0.333 -0.059,-0.046C-0.408,0.24 -0.854,0.384 -1.398,0.384C-2.009,0.384 -2.497,0.16 -2.86,-0.286C-3.223,-0.733 -3.405,-1.29 -3.405,-1.959C-3.405,-2.779 -3.206,-3.418 -2.807,-3.874C-2.409,-4.331 -1.901,-4.559 -1.285,-4.559C-0.758,-4.559 -0.33,-4.431 0,-4.175" style="fill:rgb(35,31,32);fill-rule:nonzero;"/>
            </g>
            <g transform="matrix(1,0,0,1,548.348,737.716)">
                <path d="M0,-6.431L0.785,-6.431L0.785,-4.04C0.972,-4.276 1.139,-4.442 1.287,-4.538C1.54,-4.703 1.855,-4.786 2.234,-4.786C2.911,-4.786 3.371,-4.55 3.612,-4.075C3.743,-3.817 3.809,-3.458 3.809,-2.998L3.809,0L3.002,0L3.002,-2.945C3.002,-3.289 2.958,-3.541 2.871,-3.7C2.728,-3.956 2.461,-4.084 2.068,-4.084C1.742,-4.084 1.447,-3.973 1.182,-3.748C0.917,-3.524 0.785,-3.101 0.785,-2.478L0.785,0L0,0L0,-6.431Z" style="fill:rgb(35,31,32);fill-rule:nonzero;"/>
            </g>
            <g transform="matrix(1,0,0,1,556.485,735.814)">
                <path d="M0,-0.807C-0.032,-1.147 -0.106,-1.42 -0.22,-1.623C-0.434,-2.001 -0.791,-2.19 -1.289,-2.19C-1.647,-2.19 -1.947,-2.06 -2.189,-1.8C-2.431,-1.54 -2.56,-1.208 -2.574,-0.807L0,-0.807ZM-0.281,-2.642C0.028,-2.487 0.264,-2.285 0.425,-2.037C0.581,-1.802 0.686,-1.527 0.737,-1.213C0.784,-0.998 0.807,-0.654 0.807,-0.183L-2.591,-0.183C-2.577,0.292 -2.466,0.673 -2.258,0.961C-2.05,1.248 -1.729,1.392 -1.292,1.392C-0.886,1.392 -0.562,1.255 -0.318,0.984C-0.183,0.826 -0.087,0.644 -0.031,0.436L0.742,0.436C0.721,0.608 0.653,0.798 0.539,1.01C0.424,1.221 0.296,1.393 0.155,1.527C-0.083,1.759 -0.375,1.916 -0.724,1.998C-0.912,2.045 -1.124,2.068 -1.361,2.068C-1.939,2.068 -2.429,1.856 -2.831,1.433C-3.233,1.01 -3.433,0.417 -3.433,-0.345C-3.433,-1.095 -3.231,-1.705 -2.826,-2.173C-2.421,-2.642 -1.892,-2.875 -1.239,-2.875C-0.91,-2.875 -0.591,-2.797 -0.281,-2.642" style="fill:rgb(35,31,32);fill-rule:nonzero;"/>
            </g>
            <g transform="matrix(1,0,0,1,558.754,734.566)">
                <path d="M0,1.684C0.024,1.946 0.091,2.146 0.201,2.286C0.402,2.539 0.753,2.666 1.251,2.666C1.548,2.666 1.809,2.602 2.035,2.476C2.261,2.349 2.373,2.153 2.373,1.889C2.373,1.688 2.283,1.536 2.103,1.431C1.987,1.367 1.76,1.292 1.42,1.208L0.786,1.051C0.381,0.952 0.083,0.842 -0.109,0.72C-0.453,0.507 -0.624,0.214 -0.624,-0.161C-0.624,-0.604 -0.462,-0.962 -0.14,-1.235C0.183,-1.508 0.617,-1.645 1.163,-1.645C1.876,-1.645 2.39,-1.439 2.705,-1.025C2.902,-0.763 2.998,-0.482 2.993,-0.179L2.251,-0.179C2.236,-0.356 2.173,-0.516 2.059,-0.661C1.875,-0.866 1.554,-0.969 1.099,-0.969C0.795,-0.969 0.565,-0.912 0.409,-0.799C0.253,-0.686 0.174,-0.537 0.174,-0.351C0.174,-0.148 0.277,0.014 0.482,0.135C0.601,0.208 0.776,0.272 1.007,0.327L1.536,0.454C2.11,0.59 2.497,0.722 2.692,0.851C2.997,1.051 3.15,1.367 3.15,1.797C3.15,2.213 2.991,2.572 2.671,2.875C2.352,3.177 1.865,3.329 1.211,3.329C0.507,3.329 0.009,3.171 -0.285,2.855C-0.577,2.539 -0.734,2.149 -0.755,1.684L0,1.684Z" style="fill:rgb(35,31,32);fill-rule:nonzero;"/>
            </g>
            <g transform="matrix(1,0,0,1,562.911,737.79)">
                <path d="M0,-6.051L0.794,-6.051L0.794,-4.747L1.54,-4.747L1.54,-4.105L0.794,-4.105L0.794,-1.056C0.794,-0.893 0.85,-0.784 0.96,-0.728C1.021,-0.697 1.122,-0.68 1.265,-0.68C1.303,-0.68 1.344,-0.682 1.387,-0.684C1.431,-0.686 1.482,-0.69 1.54,-0.698L1.54,-0.074C1.449,-0.048 1.356,-0.029 1.259,-0.017C1.162,-0.005 1.056,0 0.942,0C0.576,0 0.327,-0.094 0.196,-0.281C0.065,-0.469 0,-0.713 0,-1.012L0,-4.105L-0.633,-4.105L-0.633,-4.747L0,-4.747L0,-6.051Z" style="fill:rgb(35,31,32);fill-rule:nonzero;"/>
            </g>
            <g transform="matrix(1,0,0,1,565.258,737.611)">
                <path d="M0,-4.567L0.746,-4.567L0.746,-3.76C0.807,-3.917 0.957,-4.109 1.195,-4.334C1.434,-4.559 1.709,-4.672 2.02,-4.672C2.034,-4.672 2.059,-4.671 2.094,-4.667C2.129,-4.665 2.189,-4.659 2.273,-4.65L2.273,-3.821C2.226,-3.83 2.184,-3.836 2.144,-3.838C2.105,-3.842 2.063,-3.843 2.016,-3.843C1.62,-3.843 1.316,-3.716 1.104,-3.461C0.891,-3.207 0.785,-2.914 0.785,-2.582L0.785,0.105L0,0.105L0,-4.567Z" style="fill:rgb(35,31,32);fill-rule:nonzero;"/>
            </g>
            <g transform="matrix(1,0,0,1,569.063,733.794)">
                <path d="M0,3.215C0.166,3.346 0.362,3.411 0.589,3.411C0.865,3.411 1.133,3.347 1.392,3.219C1.828,3.008 2.046,2.661 2.046,2.179L2.046,1.547C1.95,1.608 1.827,1.66 1.676,1.7C1.525,1.74 1.378,1.77 1.232,1.787L0.757,1.848C0.473,1.887 0.258,1.945 0.116,2.027C-0.128,2.164 -0.249,2.381 -0.249,2.679C-0.249,2.906 -0.166,3.084 0,3.215M1.653,1.094C1.833,1.071 1.954,0.995 2.016,0.868C2.05,0.797 2.068,0.697 2.068,0.565C2.068,0.296 1.973,0.102 1.782,-0.02C1.592,-0.141 1.321,-0.201 0.966,-0.201C0.557,-0.201 0.267,-0.09 0.096,0.132C0,0.255 -0.062,0.437 -0.092,0.68L-0.825,0.68C-0.81,0.102 -0.624,-0.299 -0.265,-0.525C0.094,-0.752 0.51,-0.864 0.984,-0.864C1.532,-0.864 1.978,-0.759 2.322,-0.55C2.661,-0.341 2.831,-0.016 2.831,0.427L2.831,3.119C2.831,3.201 2.848,3.266 2.882,3.315C2.915,3.364 2.985,3.389 3.093,3.389C3.128,3.389 3.167,3.387 3.211,3.383C3.255,3.379 3.301,3.372 3.351,3.363L3.351,3.944C3.228,3.978 3.136,4 3.071,4.009C3.007,4.018 2.92,4.022 2.81,4.022C2.539,4.022 2.343,3.926 2.221,3.734C2.156,3.633 2.112,3.489 2.085,3.302C1.925,3.512 1.696,3.694 1.396,3.848C1.096,4.001 0.767,4.079 0.406,4.079C-0.027,4.079 -0.382,3.947 -0.657,3.684C-0.931,3.421 -1.069,3.093 -1.069,2.697C-1.069,2.265 -0.934,1.929 -0.663,1.691C-0.393,1.452 -0.038,1.306 0.401,1.251L1.653,1.094Z" style="fill:rgb(35,31,32);fill-rule:nonzero;"/>
            </g>
            <g transform="matrix(1,0,0,1,573.648,734.566)">
                <path d="M0,1.684C0.024,1.946 0.091,2.146 0.201,2.286C0.402,2.539 0.753,2.666 1.251,2.666C1.548,2.666 1.809,2.602 2.035,2.476C2.261,2.349 2.373,2.153 2.373,1.889C2.373,1.688 2.283,1.536 2.103,1.431C1.987,1.367 1.76,1.292 1.42,1.208L0.786,1.051C0.381,0.952 0.083,0.842 -0.109,0.72C-0.453,0.507 -0.624,0.214 -0.624,-0.161C-0.624,-0.604 -0.462,-0.962 -0.14,-1.235C0.183,-1.508 0.617,-1.645 1.163,-1.645C1.876,-1.645 2.39,-1.439 2.705,-1.025C2.902,-0.763 2.998,-0.482 2.993,-0.179L2.251,-0.179C2.236,-0.356 2.173,-0.516 2.059,-0.661C1.875,-0.866 1.554,-0.969 1.099,-0.969C0.795,-0.969 0.565,-0.912 0.409,-0.799C0.253,-0.686 0.174,-0.537 0.174,-0.351C0.174,-0.148 0.277,0.014 0.482,0.135C0.601,0.208 0.775,0.272 1.007,0.327L1.536,0.454C2.11,0.59 2.497,0.722 2.692,0.851C2.997,1.051 3.15,1.367 3.15,1.797C3.15,2.213 2.991,2.572 2.671,2.875C2.352,3.177 1.865,3.329 1.211,3.329C0.507,3.329 0.009,3.171 -0.285,2.855C-0.577,2.539 -0.734,2.149 -0.755,1.684L0,1.684Z" style="fill:rgb(35,31,32);fill-rule:nonzero;"/>
            </g>
            <g transform="matrix(1,0,0,1,578.115,734.566)">
                <path d="M0,1.684C0.024,1.946 0.091,2.146 0.201,2.286C0.402,2.539 0.753,2.666 1.251,2.666C1.548,2.666 1.809,2.602 2.035,2.476C2.261,2.349 2.373,2.153 2.373,1.889C2.373,1.688 2.283,1.536 2.103,1.431C1.987,1.367 1.76,1.292 1.42,1.208L0.786,1.051C0.381,0.952 0.083,0.842 -0.109,0.72C-0.453,0.507 -0.624,0.214 -0.624,-0.161C-0.624,-0.604 -0.462,-0.962 -0.14,-1.235C0.183,-1.508 0.617,-1.645 1.163,-1.645C1.876,-1.645 2.39,-1.439 2.705,-1.025C2.902,-0.763 2.998,-0.482 2.993,-0.179L2.251,-0.179C2.236,-0.356 2.173,-0.516 2.059,-0.661C1.875,-0.866 1.554,-0.969 1.099,-0.969C0.795,-0.969 0.565,-0.912 0.409,-0.799C0.253,-0.686 0.175,-0.537 0.175,-0.351C0.175,-0.148 0.277,0.014 0.482,0.135C0.601,0.208 0.776,0.272 1.007,0.327L1.536,0.454C2.11,0.59 2.497,0.722 2.692,0.851C2.997,1.051 3.15,1.367 3.15,1.797C3.15,2.213 2.991,2.572 2.671,2.875C2.352,3.177 1.865,3.329 1.211,3.329C0.507,3.329 0.009,3.171 -0.285,2.855C-0.577,2.539 -0.734,2.149 -0.755,1.684L0,1.684Z" style="fill:rgb(35,31,32);fill-rule:nonzero;"/>
            </g>
            <g transform="matrix(1,0,0,1,585.283,735.814)">
                <path d="M0,-0.807C-0.032,-1.147 -0.106,-1.42 -0.22,-1.623C-0.434,-2.001 -0.791,-2.19 -1.289,-2.19C-1.647,-2.19 -1.947,-2.06 -2.189,-1.8C-2.431,-1.54 -2.56,-1.208 -2.574,-0.807L0,-0.807ZM-0.281,-2.642C0.028,-2.487 0.264,-2.285 0.425,-2.037C0.581,-1.802 0.686,-1.527 0.737,-1.213C0.784,-0.998 0.807,-0.654 0.807,-0.183L-2.591,-0.183C-2.577,0.292 -2.466,0.673 -2.258,0.961C-2.05,1.248 -1.729,1.392 -1.292,1.392C-0.886,1.392 -0.562,1.255 -0.318,0.984C-0.183,0.826 -0.087,0.644 -0.031,0.436L0.742,0.436C0.721,0.608 0.653,0.798 0.539,1.01C0.424,1.221 0.296,1.393 0.155,1.527C-0.083,1.759 -0.375,1.916 -0.724,1.998C-0.912,2.045 -1.125,2.068 -1.361,2.068C-1.939,2.068 -2.429,1.856 -2.831,1.433C-3.233,1.01 -3.433,0.417 -3.433,-0.345C-3.433,-1.095 -3.231,-1.705 -2.826,-2.173C-2.421,-2.642 -1.892,-2.875 -1.239,-2.875C-0.91,-2.875 -0.591,-2.797 -0.281,-2.642" style="fill:rgb(35,31,32);fill-rule:nonzero;"/>
            </g>
            <g transform="matrix(1,0,0,1,592.222,734.734)">
                <path d="M0,-0.122C0.257,-0.326 0.386,-0.685 0.386,-1.195C0.386,-1.654 0.271,-1.996 0.039,-2.222C-0.192,-2.446 -0.486,-2.559 -0.844,-2.559C-1.228,-2.559 -1.532,-2.43 -1.758,-2.174C-1.984,-1.916 -2.096,-1.573 -2.096,-1.143C-2.096,-0.737 -1.997,-0.413 -1.8,-0.174C-1.602,0.066 -1.286,0.186 -0.853,0.186C-0.542,0.186 -0.257,0.083 0,-0.122M-2.044,1.468C-2.021,1.901 -1.853,2.201 -1.542,2.367C-1.382,2.454 -1.202,2.498 -1.001,2.498C-0.626,2.498 -0.306,2.341 -0.041,2.029C0.224,1.716 0.411,1.081 0.521,0.124C0.347,0.4 0.131,0.595 -0.127,0.707C-0.384,0.818 -0.661,0.875 -0.958,0.875C-1.56,0.875 -2.036,0.687 -2.386,0.312C-2.737,-0.062 -2.912,-0.545 -2.912,-1.134C-2.912,-1.701 -2.739,-2.2 -2.393,-2.629C-2.047,-3.059 -1.537,-3.274 -0.862,-3.274C0.049,-3.274 0.677,-2.864 1.023,-2.045C1.215,-1.594 1.311,-1.031 1.311,-0.353C1.311,0.411 1.196,1.089 0.966,1.679C0.586,2.66 -0.06,3.152 -0.971,3.152C-1.581,3.152 -2.045,2.992 -2.362,2.672C-2.68,2.352 -2.838,1.95 -2.838,1.468L-2.044,1.468Z" style="fill:rgb(35,31,32);fill-rule:nonzero;"/>
            </g>
            <g transform="matrix(1,0,0,1,498.868,746.957)">
                <path d="M0,-1.754C0.195,-1.948 0.292,-2.179 0.292,-2.448C0.292,-2.681 0.2,-2.895 0.013,-3.09C-0.172,-3.285 -0.455,-3.383 -0.835,-3.383C-1.213,-3.383 -1.486,-3.285 -1.653,-3.09C-1.823,-2.895 -1.907,-2.666 -1.907,-2.404C-1.907,-2.11 -1.797,-1.879 -1.58,-1.713C-1.362,-1.547 -1.106,-1.464 -0.809,-1.464C-0.464,-1.464 -0.194,-1.561 0,-1.754M0.146,1.335C0.386,1.138 0.506,0.846 0.506,0.456C0.506,0.052 0.383,-0.255 0.135,-0.465C-0.112,-0.674 -0.429,-0.779 -0.816,-0.779C-1.191,-0.779 -1.497,-0.672 -1.734,-0.458C-1.971,-0.244 -2.09,0.052 -2.09,0.43C-2.09,0.756 -1.982,1.037 -1.765,1.274C-1.548,1.512 -1.213,1.629 -0.759,1.629C-0.396,1.629 -0.094,1.531 0.146,1.335M-2.386,-1.49C-2.617,-1.722 -2.731,-2.024 -2.731,-2.397C-2.731,-2.862 -2.563,-3.262 -2.226,-3.597C-1.889,-3.931 -1.41,-4.099 -0.792,-4.099C-0.193,-4.099 0.276,-3.941 0.615,-3.626C0.955,-3.309 1.126,-2.941 1.126,-2.52C1.126,-2.129 1.026,-1.814 0.829,-1.573C0.719,-1.436 0.548,-1.302 0.314,-1.172C0.575,-1.052 0.779,-0.915 0.928,-0.761C1.205,-0.47 1.344,-0.092 1.344,0.373C1.344,0.923 1.159,1.389 0.79,1.771C0.42,2.154 -0.101,2.345 -0.777,2.345C-1.384,2.345 -1.899,2.18 -2.319,1.85C-2.739,1.52 -2.949,1.04 -2.949,0.412C-2.949,0.043 -2.859,-0.276 -2.679,-0.546C-2.499,-0.814 -2.23,-1.02 -1.876,-1.163C-2.094,-1.256 -2.264,-1.365 -2.386,-1.49" style="fill:rgb(35,31,32);fill-rule:nonzero;"/>
            </g>
            <g transform="matrix(1,0,0,1,503.979,744.132)">
                <path d="M0,3.905C0.242,3.545 0.363,2.873 0.363,1.889C0.363,1.18 0.276,0.596 0.101,0.138C-0.074,-0.32 -0.413,-0.549 -0.917,-0.549C-1.381,-0.549 -1.719,-0.331 -1.934,0.103C-2.148,0.538 -2.254,1.178 -2.254,2.025C-2.254,2.662 -2.186,3.174 -2.049,3.56C-1.839,4.151 -1.481,4.446 -0.974,4.446C-0.566,4.446 -0.241,4.266 0,3.905M0.791,-0.257C1.07,0.258 1.21,0.963 1.21,1.859C1.21,2.709 1.083,3.411 0.83,3.966C0.464,4.763 -0.135,5.161 -0.967,5.161C-1.718,5.161 -2.276,4.836 -2.643,4.184C-2.948,3.641 -3.101,2.91 -3.101,1.994C-3.101,1.285 -3.009,0.675 -2.826,0.166C-2.482,-0.782 -1.862,-1.256 -0.963,-1.256C-0.155,-1.256 0.43,-0.922 0.791,-0.257" style="fill:rgb(35,31,32);fill-rule:nonzero;"/>
            </g>
            <g transform="matrix(1,0,0,1,508.949,744.132)">
                <path d="M0,3.905C0.242,3.545 0.363,2.873 0.363,1.889C0.363,1.18 0.276,0.596 0.101,0.138C-0.074,-0.32 -0.413,-0.549 -0.917,-0.549C-1.381,-0.549 -1.719,-0.331 -1.934,0.103C-2.148,0.538 -2.254,1.178 -2.254,2.025C-2.254,2.662 -2.186,3.174 -2.049,3.56C-1.839,4.151 -1.481,4.446 -0.974,4.446C-0.566,4.446 -0.241,4.266 0,3.905M0.791,-0.257C1.07,0.258 1.21,0.963 1.21,1.859C1.21,2.709 1.083,3.411 0.83,3.966C0.464,4.763 -0.135,5.161 -0.967,5.161C-1.718,5.161 -2.276,4.836 -2.643,4.184C-2.948,3.641 -3.101,2.91 -3.101,1.994C-3.101,1.285 -3.009,0.675 -2.826,0.166C-2.482,-0.782 -1.862,-1.256 -0.963,-1.256C-0.155,-1.256 0.43,-0.922 0.791,-0.257" style="fill:rgb(35,31,32);fill-rule:nonzero;"/>
            </g>
            <g transform="matrix(1,0,0,1,514.021,743.965)">
                <path d="M0,4.205C0.205,3.928 0.308,3.6 0.308,3.221C0.308,2.902 0.216,2.597 0.033,2.307C-0.151,2.018 -0.483,1.873 -0.966,1.873C-1.303,1.873 -1.6,1.985 -1.854,2.209C-2.108,2.434 -2.236,2.771 -2.236,3.221C-2.236,3.617 -2.12,3.95 -1.889,4.218C-1.658,4.488 -1.337,4.622 -0.927,4.622C-0.514,4.622 -0.205,4.483 0,4.205M0.589,-0.572C0.864,-0.21 1.001,0.163 1.001,0.547L0.225,0.547C0.178,0.3 0.104,0.106 0.002,-0.033C-0.187,-0.295 -0.473,-0.426 -0.857,-0.426C-1.297,-0.426 -1.646,-0.223 -1.904,0.183C-2.163,0.588 -2.307,1.17 -2.336,1.925C-2.156,1.662 -1.929,1.463 -1.656,1.332C-1.406,1.217 -1.127,1.158 -0.818,1.158C-0.294,1.158 0.162,1.326 0.552,1.659C0.941,1.994 1.136,2.493 1.136,3.156C1.136,3.723 0.952,4.226 0.582,4.663C0.213,5.102 -0.313,5.32 -0.997,5.32C-1.581,5.32 -2.086,5.098 -2.511,4.654C-2.935,4.212 -3.148,3.464 -3.148,2.414C-3.148,1.638 -3.053,0.979 -2.864,0.438C-2.501,-0.597 -1.836,-1.115 -0.87,-1.115C-0.172,-1.115 0.314,-0.934 0.589,-0.572" style="fill:rgb(35,31,32);fill-rule:nonzero;"/>
            </g>
            <g transform="matrix(1,0,0,1,518.194,743.434)">
                <path d="M0,4.969L3.941,0.043L0.288,0.043L0.288,-0.72L5.061,-0.72L5.061,0.026L1.096,4.925L5.061,4.925L5.061,5.689L0,5.689L0,4.969Z" style="fill:rgb(35,31,32);fill-rule:nonzero;"/>
            </g>
            <g transform="matrix(1,0,0,1,0,700.069)">
                <path d="M526.252,42.75L527.068,42.75L527.068,43.657L526.252,43.657L526.252,42.75ZM524.813,42.75L525.629,42.75L525.629,43.657L524.813,43.657L524.813,42.75ZM524.808,44.382L524.808,47.484C524.808,47.722 524.845,47.918 524.918,48.068C525.055,48.347 525.308,48.487 525.68,48.487C526.212,48.487 526.574,48.243 526.767,47.754C526.872,47.492 526.924,47.133 526.924,46.676L526.924,44.382L527.709,44.382L527.709,49.054L526.968,49.054L526.977,48.365C526.876,48.543 526.752,48.692 526.604,48.814C526.31,49.059 525.953,49.181 525.534,49.181C524.88,49.181 524.435,48.958 524.199,48.513C524.07,48.275 524.005,47.957 524.005,47.558L524.005,44.382L524.808,44.382Z" style="fill:rgb(35,31,32);fill-rule:nonzero;"/>
            </g>
            <g transform="matrix(1,0,0,1,529.014,749.018)">
                <path d="M0,-4.567L0.746,-4.567L0.746,-3.76C0.807,-3.917 0.957,-4.108 1.195,-4.334C1.434,-4.558 1.709,-4.672 2.02,-4.672C2.034,-4.672 2.059,-4.67 2.094,-4.667C2.129,-4.664 2.189,-4.659 2.273,-4.65L2.273,-3.821C2.226,-3.83 2.184,-3.835 2.144,-3.838C2.105,-3.841 2.062,-3.843 2.016,-3.843C1.62,-3.843 1.316,-3.715 1.104,-3.461C0.891,-3.206 0.785,-2.914 0.785,-2.582L0.785,0.105L0,0.105L0,-4.567Z" style="fill:rgb(35,31,32);fill-rule:nonzero;"/>
            </g>
            <g transform="matrix(1,0,0,1,0,699.837)">
                <path d="M531.967,44.635L532.765,44.635L532.765,49.286L531.967,49.286L531.967,44.635ZM531.967,42.877L532.765,42.877L532.765,43.767L531.967,43.767L531.967,42.877Z" style="fill:rgb(35,31,32);fill-rule:nonzero;"/>
            </g>
            <g transform="matrix(1,0,0,1,537.039,748.874)">
                <path d="M0,-4.175C0.331,-3.919 0.529,-3.478 0.596,-2.853L-0.168,-2.853C-0.215,-3.141 -0.321,-3.38 -0.486,-3.571C-0.652,-3.761 -0.918,-3.857 -1.285,-3.857C-1.785,-3.857 -2.143,-3.612 -2.358,-3.125C-2.498,-2.807 -2.567,-2.417 -2.567,-1.952C-2.567,-1.484 -2.468,-1.091 -2.271,-0.771C-2.073,-0.451 -1.761,-0.292 -1.337,-0.292C-1.011,-0.292 -0.754,-0.391 -0.563,-0.59C-0.372,-0.788 -0.241,-1.06 -0.168,-1.405L0.596,-1.405C0.508,-0.785 0.29,-0.331 -0.059,-0.046C-0.408,0.241 -0.854,0.384 -1.398,0.384C-2.009,0.384 -2.497,0.162 -2.86,-0.286C-3.223,-0.732 -3.405,-1.289 -3.405,-1.959C-3.405,-2.779 -3.206,-3.417 -2.807,-3.874C-2.409,-4.33 -1.901,-4.559 -1.285,-4.559C-0.758,-4.559 -0.33,-4.43 0,-4.175" style="fill:rgb(35,31,32);fill-rule:nonzero;"/>
            </g>
            <g transform="matrix(1,0,0,1,538.42,749.124)">
                <path d="M0,-6.431L0.785,-6.431L0.785,-4.04C0.972,-4.276 1.139,-4.442 1.287,-4.538C1.54,-4.703 1.855,-4.786 2.234,-4.786C2.911,-4.786 3.371,-4.548 3.612,-4.075C3.743,-3.816 3.809,-3.457 3.809,-2.998L3.809,0L3.002,0L3.002,-2.945C3.002,-3.288 2.958,-3.54 2.871,-3.7C2.728,-3.955 2.461,-4.084 2.068,-4.084C1.742,-4.084 1.447,-3.972 1.182,-3.748C0.917,-3.523 0.785,-3.1 0.785,-2.478L0.785,0L0,0L0,-6.431Z" style="fill:rgb(35,31,32);fill-rule:nonzero;"/>
            </g>
            <g transform="matrix(1,0,0,1,543.555,748.582)">
                <path d="M0,1.457C0.201,1.422 0.341,1.28 0.423,1.032C0.467,0.901 0.489,0.773 0.489,0.65C0.489,0.63 0.488,0.612 0.486,0.595C0.485,0.58 0.481,0.562 0.476,0.541L0,0.541L0,-0.41L0.934,-0.41L0.934,0.471C0.934,0.817 0.864,1.121 0.724,1.383C0.585,1.645 0.344,1.806 0,1.867L0,1.457Z" style="fill:rgb(35,31,32);fill-rule:nonzero;"/>
            </g>
            <g transform="matrix(1,0,0,1,549.026,744.809)">
                <path d="M0,2.246C0.02,2.61 0.103,2.905 0.248,3.132C0.526,3.557 1.014,3.769 1.715,3.769C2.029,3.769 2.314,3.723 2.572,3.629C3.07,3.449 3.32,3.126 3.32,2.66C3.32,2.311 3.214,2.063 3.003,1.914C2.789,1.769 2.454,1.643 1.997,1.535L1.156,1.339C0.606,1.211 0.218,1.07 -0.011,0.915C-0.405,0.648 -0.602,0.248 -0.602,-0.284C-0.602,-0.86 -0.408,-1.333 -0.021,-1.702C0.368,-2.071 0.916,-2.256 1.627,-2.256C2.281,-2.256 2.836,-2.094 3.293,-1.77C3.75,-1.445 3.979,-0.927 3.979,-0.215L3.163,-0.215C3.122,-0.557 3.032,-0.821 2.896,-1.004C2.642,-1.338 2.211,-1.506 1.603,-1.506C1.112,-1.506 0.759,-1.398 0.544,-1.183C0.329,-0.967 0.223,-0.717 0.223,-0.433C0.223,-0.119 0.349,0.112 0.603,0.257C0.769,0.35 1.145,0.466 1.732,0.606L2.602,0.811C3.022,0.91 3.346,1.045 3.574,1.216C3.969,1.516 4.166,1.952 4.166,2.521C4.166,3.231 3.914,3.738 3.412,4.043C2.908,4.349 2.323,4.502 1.656,4.502C0.879,4.502 0.271,4.299 -0.169,3.891C-0.609,3.487 -0.825,2.939 -0.816,2.246L0,2.246Z" style="fill:rgb(35,31,32);fill-rule:nonzero;"/>
            </g>
            <g transform="matrix(1,0,0,1,554.678,749.123)">
                <path d="M0,-4.672L0.899,-0.99L1.811,-4.672L2.692,-4.672L3.608,-1.012L4.563,-4.672L5.349,-4.672L3.992,0L3.176,0L2.225,-3.616L1.304,0L0.489,0L-0.859,-4.672L0,-4.672Z" style="fill:rgb(35,31,32);fill-rule:nonzero;"/>
            </g>
            <g transform="matrix(1,0,0,1,0,699.837)">
                <path d="M560.766,44.635L561.564,44.635L561.564,49.286L560.766,49.286L560.766,44.635ZM560.766,42.877L561.564,42.877L561.564,43.767L560.766,43.767L560.766,42.877Z" style="fill:rgb(35,31,32);fill-rule:nonzero;"/>
            </g>
            <g transform="matrix(1,0,0,1,562.908,749.197)">
                <path d="M0,-6.051L0.794,-6.051L0.794,-4.747L1.54,-4.747L1.54,-4.105L0.794,-4.105L0.794,-1.056C0.794,-0.892 0.85,-0.783 0.96,-0.728C1.021,-0.696 1.122,-0.68 1.265,-0.68C1.303,-0.68 1.344,-0.682 1.387,-0.683C1.431,-0.685 1.482,-0.69 1.54,-0.698L1.54,-0.074C1.45,-0.048 1.356,-0.029 1.259,-0.017C1.162,-0.005 1.056,0 0.942,0C0.576,0 0.327,-0.094 0.196,-0.281C0.065,-0.469 0,-0.712 0,-1.012L0,-4.105L-0.633,-4.105L-0.633,-4.747L0,-4.747L0,-6.051Z" style="fill:rgb(35,31,32);fill-rule:nonzero;"/>
            </g>
            <g transform="matrix(1,0,0,1,564.884,745.071)">
                <path d="M0,3.433L2.775,0.082L0.205,0.082L0.205,-0.62L3.83,-0.62L3.83,0.021L1.073,3.35L3.913,3.35L3.913,4.053L0,4.053L0,3.433Z" style="fill:rgb(35,31,32);fill-rule:nonzero;"/>
            </g>
            <g transform="matrix(1,0,0,1,572.868,747.221)">
                <path d="M0,-0.807C-0.032,-1.147 -0.106,-1.419 -0.22,-1.623C-0.434,-2 -0.791,-2.19 -1.289,-2.19C-1.647,-2.19 -1.947,-2.059 -2.189,-1.8C-2.431,-1.539 -2.56,-1.208 -2.574,-0.807L0,-0.807ZM-0.281,-2.642C0.028,-2.486 0.264,-2.284 0.425,-2.037C0.581,-1.802 0.686,-1.527 0.737,-1.213C0.784,-0.997 0.807,-0.654 0.807,-0.183L-2.591,-0.183C-2.577,0.292 -2.466,0.674 -2.258,0.961C-2.05,1.249 -1.729,1.392 -1.292,1.392C-0.886,1.392 -0.562,1.257 -0.318,0.985C-0.183,0.827 -0.087,0.644 -0.031,0.436L0.742,0.436C0.721,0.609 0.653,0.8 0.539,1.01C0.424,1.222 0.296,1.394 0.155,1.527C-0.083,1.76 -0.375,1.916 -0.724,1.998C-0.912,2.045 -1.124,2.068 -1.361,2.068C-1.939,2.068 -2.429,1.856 -2.831,1.433C-3.233,1.01 -3.433,0.418 -3.433,-0.345C-3.433,-1.095 -3.231,-1.704 -2.826,-2.173C-2.421,-2.64 -1.892,-2.875 -1.239,-2.875C-0.91,-2.875 -0.591,-2.796 -0.281,-2.642" style="fill:rgb(35,31,32);fill-rule:nonzero;"/>
            </g>
            <g transform="matrix(1,0,0,1,574.692,749.018)">
                <path d="M0,-4.567L0.746,-4.567L0.746,-3.76C0.807,-3.917 0.957,-4.108 1.195,-4.334C1.434,-4.558 1.709,-4.672 2.02,-4.672C2.034,-4.672 2.059,-4.67 2.094,-4.667C2.129,-4.664 2.189,-4.659 2.273,-4.65L2.273,-3.821C2.226,-3.83 2.184,-3.835 2.144,-3.838C2.105,-3.841 2.063,-3.843 2.016,-3.843C1.62,-3.843 1.316,-3.715 1.104,-3.461C0.891,-3.206 0.785,-2.914 0.785,-2.582L0.785,0.105L0,0.105L0,-4.567Z" style="fill:rgb(35,31,32);fill-rule:nonzero;"/>
            </g>
            <g transform="matrix(1,0,0,1,0,699.837)">
                <rect x="577.667" y="42.877" width="0.785" height="6.409" style="fill:rgb(35,31,32);"/>
            </g>
            <g transform="matrix(1,0,0,1,580.481,745.201)">
                <path d="M0,3.217C0.166,3.347 0.362,3.412 0.589,3.412C0.865,3.412 1.133,3.349 1.392,3.221C1.828,3.009 2.046,2.662 2.046,2.18L2.046,1.548C1.95,1.609 1.827,1.661 1.676,1.701C1.525,1.742 1.378,1.772 1.232,1.789L0.757,1.849C0.473,1.887 0.258,1.947 0.116,2.028C-0.128,2.164 -0.249,2.383 -0.249,2.681C-0.249,2.907 -0.166,3.086 0,3.217M1.653,1.096C1.833,1.072 1.954,0.996 2.016,0.869C2.05,0.799 2.068,0.698 2.068,0.567C2.068,0.298 1.973,0.103 1.782,-0.018C1.592,-0.139 1.321,-0.2 0.966,-0.2C0.557,-0.2 0.267,-0.089 0.096,0.134C0,0.256 -0.062,0.439 -0.092,0.681L-0.825,0.681C-0.81,0.104 -0.624,-0.298 -0.265,-0.524C0.094,-0.75 0.51,-0.863 0.984,-0.863C1.532,-0.863 1.978,-0.759 2.322,-0.549C2.661,-0.34 2.831,-0.014 2.831,0.428L2.831,3.12C2.831,3.202 2.848,3.267 2.882,3.316C2.915,3.366 2.985,3.39 3.093,3.39C3.128,3.39 3.167,3.388 3.211,3.384C3.255,3.38 3.301,3.373 3.351,3.364L3.351,3.944C3.228,3.979 3.136,4.001 3.071,4.01C3.007,4.019 2.92,4.023 2.81,4.023C2.539,4.023 2.343,3.927 2.221,3.735C2.156,3.634 2.112,3.49 2.085,3.303C1.925,3.513 1.696,3.695 1.396,3.849C1.096,4.002 0.767,4.08 0.406,4.08C-0.027,4.08 -0.382,3.948 -0.657,3.686C-0.931,3.423 -1.069,3.094 -1.069,2.699C-1.069,2.266 -0.934,1.93 -0.663,1.692C-0.393,1.454 -0.038,1.307 0.401,1.252L1.653,1.096Z" style="fill:rgb(35,31,32);fill-rule:nonzero;"/>
            </g>
            <g transform="matrix(1,0,0,1,584.599,749.018)">
                <path d="M0,-4.567L0.746,-4.567L0.746,-3.904C0.967,-4.177 1.201,-4.373 1.448,-4.493C1.696,-4.612 1.971,-4.672 2.273,-4.672C2.936,-4.672 3.384,-4.44 3.617,-3.978C3.744,-3.725 3.809,-3.363 3.809,-2.892L3.809,0.105L3.01,0.105L3.01,-2.839C3.01,-3.124 2.968,-3.354 2.884,-3.529C2.744,-3.819 2.491,-3.965 2.125,-3.965C1.938,-3.965 1.785,-3.945 1.667,-3.908C1.452,-3.844 1.262,-3.716 1.099,-3.524C0.969,-3.369 0.883,-3.21 0.844,-3.047C0.805,-2.882 0.785,-2.647 0.785,-2.342L0.785,0.105L0,0.105L0,-4.567Z" style="fill:rgb(35,31,32);fill-rule:nonzero;"/>
            </g>
            <g transform="matrix(1,0,0,1,590.382,743.884)">
                <path d="M0,4.214C0.212,4.552 0.551,4.72 1.017,4.72C1.378,4.72 1.675,4.564 1.909,4.251C2.141,3.939 2.258,3.49 2.258,2.905C2.258,2.315 2.138,1.878 1.898,1.594C1.657,1.311 1.361,1.169 1.008,1.169C0.614,1.169 0.294,1.32 0.05,1.623C-0.194,1.926 -0.316,2.371 -0.316,2.958C-0.316,3.458 -0.211,3.877 0,4.214M1.754,0.711C1.892,0.798 2.05,0.951 2.227,1.169L2.227,-1.191L2.982,-1.191L2.982,5.239L2.275,5.239L2.275,4.589C2.093,4.877 1.877,5.085 1.627,5.213C1.379,5.341 1.093,5.405 0.771,5.405C0.253,5.405 -0.196,5.187 -0.576,4.748C-0.955,4.311 -1.145,3.729 -1.145,3.001C-1.145,2.321 -0.972,1.732 -0.626,1.232C-0.279,0.734 0.215,0.484 0.858,0.484C1.215,0.484 1.513,0.56 1.754,0.711" style="fill:rgb(35,31,32);fill-rule:nonzero;"/>
            </g>
            <g transform="matrix(1,0,0,1,530.536,762.581)">
                <path d="M0,-8.337C-0.457,-7.45 -0.754,-6.797 -0.89,-6.378C-1.096,-5.741 -1.2,-5.005 -1.2,-4.171C-1.2,-3.328 -1.082,-2.556 -0.846,-1.858C-0.701,-1.428 -0.414,-0.808 0.013,0L-0.515,0C-0.939,-0.663 -1.203,-1.086 -1.304,-1.269C-1.406,-1.453 -1.517,-1.701 -1.636,-2.015C-1.799,-2.446 -1.912,-2.905 -1.976,-3.394C-2.008,-3.647 -2.024,-3.888 -2.024,-4.118C-2.024,-4.979 -1.889,-5.746 -1.619,-6.417C-1.447,-6.845 -1.09,-7.485 -0.545,-8.337L0,-8.337Z" style="fill:rgb(35,31,32);fill-rule:nonzero;"/>
            </g>
            <g transform="matrix(1,0,0,1,533.822,756.704)">
                <path d="M0,1.841L0,-0.997L-2.002,1.841L0,1.841ZM0.013,4.053L0.013,2.526L-2.727,2.526L-2.727,1.758L0.135,-2.212L0.798,-2.212L0.798,1.841L1.719,1.841L1.719,2.526L0.798,2.526L0.798,4.053L0.013,4.053Z" style="fill:rgb(35,31,32);fill-rule:nonzero;"/>
            </g>
            <g transform="matrix(1,0,0,1,536.692,758.96)">
                <path d="M0,-2.627L0,-3.229C0.567,-3.285 0.963,-3.376 1.187,-3.506C1.41,-3.636 1.578,-3.941 1.688,-4.424L2.308,-4.424L2.308,1.797L1.47,1.797L1.47,-2.627L0,-2.627Z" style="fill:rgb(35,31,32);fill-rule:nonzero;"/>
            </g>
            <g transform="matrix(1,0,0,1,543.76,756.704)">
                <path d="M0,1.841L0,-0.997L-2.002,1.841L0,1.841ZM0.013,4.053L0.013,2.526L-2.727,2.526L-2.727,1.758L0.135,-2.212L0.798,-2.212L0.798,1.841L1.719,1.841L1.719,2.526L0.798,2.526L0.798,4.053L0.013,4.053Z" style="fill:rgb(35,31,32);fill-rule:nonzero;"/>
            </g>
            <g transform="matrix(1,0,0,1,546.085,754.244)">
                <path d="M0,8.337C0.462,7.435 0.76,6.778 0.894,6.365C1.098,5.74 1.2,5.007 1.2,4.166C1.2,3.325 1.082,2.556 0.846,1.858C0.701,1.428 0.414,0.808 -0.013,0L0.515,0C0.963,0.715 1.234,1.157 1.328,1.324C1.423,1.491 1.526,1.722 1.636,2.015C1.776,2.379 1.875,2.739 1.935,3.093C1.995,3.447 2.024,3.79 2.024,4.118C2.024,4.979 1.888,5.747 1.614,6.422C1.443,6.855 1.086,7.494 0.545,8.337L0,8.337Z" style="fill:rgb(35,31,32);fill-rule:nonzero;"/>
            </g>
            <g transform="matrix(1,0,0,1,554.187,756.704)">
                <path d="M0,1.841L0,-0.997L-2.003,1.841L0,1.841ZM0.013,4.053L0.013,2.526L-2.727,2.526L-2.727,1.758L0.135,-2.212L0.798,-2.212L0.798,1.841L1.719,1.841L1.719,2.526L0.798,2.526L0.798,4.053L0.013,4.053Z" style="fill:rgb(35,31,32);fill-rule:nonzero;"/>
            </g>
            <g transform="matrix(1,0,0,1,557.306,756.364)">
                <path d="M0,2.801C0.052,3.249 0.261,3.559 0.624,3.73C0.81,3.818 1.025,3.861 1.27,3.861C1.735,3.861 2.08,3.713 2.304,3.416C2.527,3.119 2.639,2.791 2.639,2.43C2.639,1.994 2.506,1.657 2.24,1.418C1.974,1.179 1.655,1.06 1.283,1.06C1.012,1.06 0.78,1.113 0.587,1.217C0.394,1.322 0.228,1.467 0.092,1.654L-0.589,1.614L-0.113,-1.749L3.132,-1.749L3.132,-0.99L0.476,-0.99L0.209,0.746C0.354,0.636 0.493,0.553 0.624,0.497C0.856,0.401 1.126,0.354 1.431,0.354C2.004,0.354 2.49,0.538 2.888,0.908C3.286,1.277 3.486,1.745 3.486,2.312C3.486,2.902 3.304,3.424 2.938,3.874C2.573,4.325 1.99,4.55 1.191,4.55C0.682,4.55 0.232,4.408 -0.159,4.121C-0.551,3.834 -0.769,3.394 -0.816,2.801L0,2.801Z" style="fill:rgb(35,31,32);fill-rule:nonzero;"/>
            </g>
            <g transform="matrix(1,0,0,1,564.125,756.704)">
                <path d="M0,1.841L0,-0.997L-2.003,1.841L0,1.841ZM0.013,4.053L0.013,2.526L-2.727,2.526L-2.727,1.758L0.135,-2.212L0.798,-2.212L0.798,1.841L1.719,1.841L1.719,2.526L0.798,2.526L0.798,4.053L0.013,4.053Z" style="fill:rgb(35,31,32);fill-rule:nonzero;"/>
            </g>
            <g transform="matrix(1,0,0,1,0,724.537)">
                <rect x="566.512" y="33.328" width="2.19" height="0.807" style="fill:rgb(35,31,32);"/>
            </g>
            <g transform="matrix(1,0,0,1,572.496,755.766)">
                <path d="M0,3.905C0.242,3.544 0.363,2.872 0.363,1.889C0.363,1.179 0.276,0.596 0.101,0.138C-0.074,-0.32 -0.413,-0.549 -0.917,-0.549C-1.381,-0.549 -1.719,-0.332 -1.934,0.103C-2.148,0.538 -2.254,1.178 -2.254,2.025C-2.254,2.662 -2.186,3.173 -2.049,3.56C-1.839,4.15 -1.481,4.446 -0.974,4.446C-0.566,4.446 -0.241,4.266 0,3.905M0.791,-0.257C1.07,0.258 1.21,0.963 1.21,1.859C1.21,2.709 1.083,3.411 0.83,3.966C0.464,4.763 -0.135,5.161 -0.967,5.161C-1.718,5.161 -2.276,4.835 -2.643,4.184C-2.948,3.64 -3.101,2.91 -3.101,1.994C-3.101,1.284 -3.009,0.675 -2.826,0.166C-2.482,-0.782 -1.862,-1.256 -0.963,-1.256C-0.155,-1.256 0.43,-0.923 0.791,-0.257" style="fill:rgb(35,31,32);fill-rule:nonzero;"/>
            </g>
            <g transform="matrix(1,0,0,1,577.039,756.704)">
                <path d="M0,1.841L0,-0.997L-2.003,1.841L0,1.841ZM0.013,4.053L0.013,2.526L-2.727,2.526L-2.727,1.758L0.135,-2.212L0.798,-2.212L0.798,1.841L1.719,1.841L1.719,2.526L0.798,2.526L0.798,4.053L0.013,4.053Z" style="fill:rgb(35,31,32);fill-rule:nonzero;"/>
            </g>
            <g transform="matrix(1,0,0,1,583.727,760.757)">
                <path d="M0,-6.143L0,-5.458C-0.201,-5.263 -0.468,-4.925 -0.801,-4.442C-1.133,-3.958 -1.428,-3.438 -1.684,-2.88C-1.937,-2.335 -2.129,-1.84 -2.26,-1.392C-2.344,-1.104 -2.453,-0.641 -2.587,0L-3.455,0C-3.258,-1.192 -2.822,-2.379 -2.146,-3.56C-1.748,-4.253 -1.33,-4.851 -0.89,-5.353L-4.345,-5.353L-4.345,-6.143L0,-6.143Z" style="fill:rgb(35,31,32);fill-rule:nonzero;"/>
            </g>
            <g transform="matrix(1,0,0,1,587.404,755.766)">
                <path d="M0,3.905C0.242,3.544 0.363,2.872 0.363,1.889C0.363,1.179 0.276,0.596 0.101,0.138C-0.074,-0.32 -0.413,-0.549 -0.917,-0.549C-1.381,-0.549 -1.719,-0.332 -1.934,0.103C-2.148,0.538 -2.254,1.178 -2.254,2.025C-2.254,2.662 -2.186,3.173 -2.049,3.56C-1.839,4.15 -1.481,4.446 -0.974,4.446C-0.566,4.446 -0.241,4.266 0,3.905M0.791,-0.257C1.07,0.258 1.21,0.963 1.21,1.859C1.21,2.709 1.083,3.411 0.83,3.966C0.464,4.763 -0.135,5.161 -0.967,5.161C-1.718,5.161 -2.276,4.835 -2.643,4.184C-2.948,3.64 -3.101,2.91 -3.101,1.994C-3.101,1.284 -3.009,0.675 -2.826,0.166C-2.482,-0.782 -1.862,-1.256 -0.963,-1.256C-0.155,-1.256 0.43,-0.923 0.791,-0.257" style="fill:rgb(35,31,32);fill-rule:nonzero;"/>
            </g>
            <g transform="matrix(1,0,0,1,592.373,755.766)">
                <path d="M0,3.905C0.242,3.544 0.363,2.872 0.363,1.889C0.363,1.179 0.276,0.596 0.101,0.138C-0.074,-0.32 -0.413,-0.549 -0.917,-0.549C-1.381,-0.549 -1.719,-0.332 -1.934,0.103C-2.148,0.538 -2.254,1.178 -2.254,2.025C-2.254,2.662 -2.186,3.173 -2.049,3.56C-1.839,4.15 -1.481,4.446 -0.974,4.446C-0.566,4.446 -0.241,4.266 0,3.905M0.791,-0.257C1.07,0.258 1.21,0.963 1.21,1.859C1.21,2.709 1.083,3.411 0.83,3.966C0.464,4.763 -0.135,5.161 -0.967,5.161C-1.718,5.161 -2.276,4.835 -2.643,4.184C-2.948,3.64 -3.101,2.91 -3.101,1.994C-3.101,1.284 -3.009,0.675 -2.826,0.166C-2.482,-0.782 -1.862,-1.256 -0.963,-1.256C-0.155,-1.256 0.43,-0.923 0.791,-0.257" style="fill:rgb(35,31,32);fill-rule:nonzero;"/>
            </g>
            <g transform="matrix(1,0,0,1,0,748.821)">
                <path d="M466.09,18.35L465.305,18.35L465.305,17.443L466.09,17.443L466.09,18.35ZM464.563,25.034C464.915,25.022 465.127,24.991 465.198,24.94C465.269,24.888 465.305,24.729 465.305,24.462L465.305,19.201L466.09,19.201L466.09,24.545C466.09,24.885 466.034,25.139 465.924,25.308C465.741,25.593 465.393,25.736 464.881,25.736C464.843,25.736 464.804,25.735 464.761,25.732C464.719,25.728 464.653,25.723 464.563,25.714L464.563,25.034Z" style="fill:rgb(35,31,32);fill-rule:nonzero;"/>
            </g>
            <g transform="matrix(1,0,0,1,467.29,772.567)">
                <path d="M0,-4.567L0.777,-4.567L0.777,-3.904C0.963,-4.134 1.131,-4.301 1.283,-4.406C1.541,-4.583 1.836,-4.672 2.164,-4.672C2.536,-4.672 2.836,-4.58 3.063,-4.397C3.19,-4.292 3.307,-4.138 3.412,-3.934C3.586,-4.184 3.791,-4.37 4.027,-4.491C4.262,-4.612 4.527,-4.672 4.821,-4.672C5.449,-4.672 5.877,-4.445 6.103,-3.991C6.226,-3.747 6.287,-3.419 6.287,-3.005L6.287,0.105L5.471,0.105L5.471,-3.14C5.471,-3.451 5.393,-3.665 5.237,-3.782C5.081,-3.898 4.892,-3.956 4.668,-3.956C4.359,-3.956 4.094,-3.853 3.872,-3.646C3.649,-3.44 3.538,-3.096 3.538,-2.613L3.538,0.105L2.74,0.105L2.74,-2.944C2.74,-3.261 2.702,-3.493 2.626,-3.638C2.507,-3.856 2.285,-3.965 1.959,-3.965C1.662,-3.965 1.393,-3.85 1.15,-3.62C0.906,-3.39 0.785,-2.975 0.785,-2.373L0.785,0.105L0,0.105L0,-4.567Z" style="fill:rgb(35,31,32);fill-rule:nonzero;"/>
            </g>
            <g transform="matrix(1,0,0,1,477.67,767.442)">
                <path d="M0,4.179C0.212,3.842 0.317,3.397 0.317,2.844C0.317,2.352 0.212,1.945 0,1.622C-0.212,1.3 -0.524,1.138 -0.935,1.138C-1.294,1.138 -1.608,1.27 -1.878,1.535C-2.148,1.8 -2.283,2.236 -2.283,2.844C-2.283,3.284 -2.227,3.639 -2.117,3.913C-1.91,4.428 -1.523,4.685 -0.957,4.685C-0.53,4.685 -0.212,4.516 0,4.179M-3.003,-1.2L-2.239,-1.2L-2.239,1.125C-2.067,0.902 -1.861,0.73 -1.622,0.612C-1.382,0.495 -1.122,0.436 -0.842,0.436C-0.258,0.436 0.216,0.635 0.579,1.036C0.942,1.436 1.125,2.025 1.125,2.805C1.125,3.543 0.945,4.157 0.586,4.646C0.227,5.134 -0.272,5.379 -0.907,5.379C-1.264,5.379 -1.565,5.293 -1.809,5.121C-1.956,5.02 -2.112,4.856 -2.278,4.633L-2.278,5.23L-3.003,5.23L-3.003,-1.2Z" style="fill:rgb(35,31,32);fill-rule:nonzero;"/>
            </g>
            <g transform="matrix(1,0,0,1,479.723,772.567)">
                <path d="M0,-4.567L0.746,-4.567L0.746,-3.76C0.807,-3.917 0.957,-4.108 1.195,-4.334C1.434,-4.559 1.709,-4.672 2.02,-4.672C2.034,-4.672 2.059,-4.671 2.094,-4.667C2.129,-4.664 2.189,-4.659 2.273,-4.65L2.273,-3.821C2.226,-3.83 2.184,-3.835 2.144,-3.838C2.105,-3.842 2.062,-3.843 2.016,-3.843C1.62,-3.843 1.316,-3.715 1.104,-3.461C0.891,-3.207 0.785,-2.914 0.785,-2.582L0.785,0.105L0,0.105L0,-4.567Z" style="fill:rgb(35,31,32);fill-rule:nonzero;"/>
            </g>
            <g transform="matrix(1,0,0,1,485.575,769.131)">
                <path d="M0,2.441C0.191,2.047 0.287,1.609 0.287,1.127C0.287,0.692 0.218,0.337 0.08,0.063C-0.139,-0.366 -0.516,-0.581 -1.05,-0.581C-1.525,-0.581 -1.871,-0.398 -2.086,-0.033C-2.302,0.334 -2.41,0.776 -2.41,1.293C-2.41,1.789 -2.302,2.203 -2.086,2.535C-1.871,2.865 -1.528,3.031 -1.059,3.031C-0.544,3.031 -0.191,2.835 0,2.441M0.488,-0.664C0.901,-0.264 1.107,0.326 1.107,1.105C1.107,1.857 0.925,2.479 0.562,2.971C0.197,3.462 -0.368,3.707 -1.133,3.707C-1.771,3.707 -2.278,3.49 -2.654,3.056C-3.029,2.621 -3.217,2.037 -3.217,1.306C-3.217,0.521 -3.02,-0.104 -2.624,-0.569C-2.228,-1.034 -1.696,-1.266 -1.029,-1.266C-0.431,-1.266 0.074,-1.066 0.488,-0.664" style="fill:rgb(35,31,32);fill-rule:nonzero;"/>
            </g>
            <g transform="matrix(1,0,0,1,490.733,772.423)">
                <path d="M0,-4.175C0.33,-3.919 0.529,-3.478 0.596,-2.853L-0.168,-2.853C-0.215,-3.141 -0.321,-3.38 -0.486,-3.571C-0.652,-3.762 -0.918,-3.857 -1.285,-3.857C-1.785,-3.857 -2.143,-3.612 -2.358,-3.125C-2.498,-2.807 -2.567,-2.417 -2.567,-1.952C-2.567,-1.484 -2.468,-1.091 -2.271,-0.771C-2.073,-0.451 -1.761,-0.292 -1.337,-0.292C-1.011,-0.292 -0.754,-0.391 -0.563,-0.59C-0.372,-0.788 -0.241,-1.06 -0.168,-1.405L0.596,-1.405C0.508,-0.785 0.29,-0.333 -0.059,-0.046C-0.408,0.241 -0.854,0.384 -1.398,0.384C-2.009,0.384 -2.497,0.16 -2.86,-0.286C-3.223,-0.732 -3.405,-1.29 -3.405,-1.959C-3.405,-2.779 -3.206,-3.417 -2.807,-3.874C-2.409,-4.331 -1.901,-4.559 -1.285,-4.559C-0.758,-4.559 -0.33,-4.431 0,-4.175" style="fill:rgb(35,31,32);fill-rule:nonzero;"/>
            </g>
            <g transform="matrix(1,0,0,1,492.097,772.672)">
                <path d="M0,-6.409L0.755,-6.409L0.755,-2.688L2.768,-4.673L3.772,-4.673L1.976,-2.935L3.872,0L2.87,0L1.399,-2.378L0.755,-1.754L0.755,0L0,0L0,-6.409Z" style="fill:rgb(35,31,32);fill-rule:nonzero;"/>
            </g>
            <g transform="matrix(1,0,0,1,496.581,772.567)">
                <path d="M0,-4.567L0.777,-4.567L0.777,-3.904C0.963,-4.134 1.131,-4.301 1.283,-4.406C1.541,-4.583 1.836,-4.672 2.164,-4.672C2.536,-4.672 2.836,-4.58 3.063,-4.397C3.19,-4.292 3.307,-4.138 3.412,-3.934C3.586,-4.184 3.791,-4.37 4.027,-4.491C4.262,-4.612 4.527,-4.672 4.821,-4.672C5.449,-4.672 5.877,-4.445 6.103,-3.991C6.226,-3.747 6.287,-3.419 6.287,-3.005L6.287,0.105L5.471,0.105L5.471,-3.14C5.471,-3.451 5.393,-3.665 5.237,-3.782C5.081,-3.898 4.892,-3.956 4.668,-3.956C4.359,-3.956 4.094,-3.853 3.872,-3.646C3.649,-3.44 3.538,-3.096 3.538,-2.613L3.538,0.105L2.74,0.105L2.74,-2.944C2.74,-3.261 2.702,-3.493 2.626,-3.638C2.507,-3.856 2.285,-3.965 1.959,-3.965C1.662,-3.965 1.393,-3.85 1.15,-3.62C0.906,-3.39 0.785,-2.975 0.785,-2.373L0.785,0.105L0,0.105L0,-4.567Z" style="fill:rgb(35,31,32);fill-rule:nonzero;"/>
            </g>
            <g transform="matrix(1,0,0,1,504.875,768.75)">
                <path d="M0,3.215C0.166,3.346 0.362,3.411 0.589,3.411C0.865,3.411 1.133,3.347 1.392,3.219C1.828,3.008 2.046,2.661 2.046,2.179L2.046,1.547C1.95,1.608 1.827,1.66 1.676,1.7C1.525,1.741 1.378,1.77 1.232,1.787L0.757,1.848C0.473,1.887 0.258,1.945 0.116,2.027C-0.128,2.164 -0.249,2.382 -0.249,2.681C-0.249,2.906 -0.166,3.085 0,3.215M1.653,1.094C1.833,1.071 1.954,0.995 2.016,0.868C2.05,0.798 2.068,0.697 2.068,0.566C2.068,0.296 1.973,0.102 1.782,-0.019C1.592,-0.14 1.321,-0.201 0.966,-0.201C0.557,-0.201 0.267,-0.09 0.096,0.133C0,0.255 -0.062,0.438 -0.092,0.68L-0.825,0.68C-0.81,0.102 -0.624,-0.299 -0.265,-0.525C0.094,-0.751 0.51,-0.864 0.984,-0.864C1.532,-0.864 1.978,-0.759 2.322,-0.55C2.661,-0.341 2.831,-0.015 2.831,0.427L2.831,3.119C2.831,3.201 2.848,3.266 2.882,3.315C2.915,3.364 2.985,3.389 3.093,3.389C3.128,3.389 3.167,3.387 3.211,3.383C3.255,3.379 3.301,3.372 3.351,3.363L3.351,3.944C3.228,3.978 3.136,4 3.071,4.009C3.007,4.018 2.92,4.022 2.81,4.022C2.539,4.022 2.343,3.926 2.221,3.734C2.156,3.633 2.112,3.489 2.085,3.302C1.925,3.512 1.696,3.694 1.396,3.848C1.096,4.001 0.767,4.079 0.406,4.079C-0.027,4.079 -0.382,3.947 -0.657,3.684C-0.931,3.421 -1.069,3.093 -1.069,2.698C-1.069,2.265 -0.934,1.929 -0.663,1.691C-0.393,1.452 -0.038,1.306 0.401,1.251L1.653,1.094Z" style="fill:rgb(35,31,32);fill-rule:nonzero;"/>
            </g>
            <g transform="matrix(1,0,0,1,508.993,772.567)">
                <path d="M0,-4.567L0.746,-4.567L0.746,-3.904C0.967,-4.178 1.201,-4.374 1.448,-4.493C1.696,-4.612 1.971,-4.672 2.273,-4.672C2.936,-4.672 3.384,-4.44 3.617,-3.978C3.744,-3.725 3.809,-3.363 3.809,-2.892L3.809,0.105L3.01,0.105L3.01,-2.839C3.01,-3.124 2.968,-3.354 2.884,-3.529C2.744,-3.82 2.491,-3.965 2.125,-3.965C1.938,-3.965 1.785,-3.946 1.667,-3.908C1.452,-3.844 1.262,-3.716 1.099,-3.524C0.969,-3.371 0.883,-3.211 0.844,-3.047C0.805,-2.882 0.785,-2.647 0.785,-2.342L0.785,0.105L0,0.105L0,-4.567Z" style="fill:rgb(35,31,32);fill-rule:nonzero;"/>
            </g>
            <g transform="matrix(1,0,0,1,513.962,772.567)">
                <path d="M0,-4.567L0.746,-4.567L0.746,-3.904C0.967,-4.178 1.201,-4.374 1.448,-4.493C1.696,-4.612 1.971,-4.672 2.273,-4.672C2.936,-4.672 3.384,-4.44 3.617,-3.978C3.744,-3.725 3.809,-3.363 3.809,-2.892L3.809,0.105L3.01,0.105L3.01,-2.839C3.01,-3.124 2.968,-3.354 2.884,-3.529C2.744,-3.82 2.491,-3.965 2.125,-3.965C1.938,-3.965 1.785,-3.946 1.667,-3.908C1.452,-3.844 1.262,-3.716 1.099,-3.524C0.969,-3.371 0.883,-3.211 0.844,-3.047C0.805,-2.882 0.785,-2.647 0.785,-2.342L0.785,0.105L0,0.105L0,-4.567Z" style="fill:rgb(35,31,32);fill-rule:nonzero;"/>
            </g>
            <g transform="matrix(1,0,0,1,523.622,770.659)">
                <path d="M0,-2.369C-0.12,-2.513 -0.287,-2.585 -0.498,-2.585C-0.83,-2.585 -1.117,-2.39 -1.359,-1.998C-1.602,-1.607 -1.723,-1.218 -1.723,-0.831C-1.723,-0.546 -1.661,-0.328 -1.536,-0.179C-1.411,-0.029 -1.254,0.046 -1.066,0.046C-0.673,0.046 -0.368,-0.183 -0.148,-0.641C0.071,-1.099 0.181,-1.513 0.181,-1.883C0.181,-2.063 0.121,-2.225 0,-2.369M-3.495,1.062C-4.021,0.455 -4.284,-0.248 -4.284,-1.045C-4.284,-1.993 -3.965,-2.799 -3.324,-3.462C-2.614,-4.2 -1.662,-4.57 -0.467,-4.57C0.568,-4.57 1.383,-4.308 1.976,-3.785C2.531,-3.291 2.81,-2.649 2.81,-1.861C2.81,-1.198 2.611,-0.632 2.214,-0.161C1.817,0.309 1.373,0.543 0.881,0.543C0.593,0.543 0.381,0.474 0.244,0.336C0.108,0.197 0.039,0.032 0.039,-0.164C0.039,-0.195 0.043,-0.229 0.048,-0.264C0.053,-0.299 0.061,-0.335 0.07,-0.373C-0.084,-0.038 -0.279,0.197 -0.515,0.336C-0.75,0.474 -0.994,0.543 -1.243,0.543C-1.601,0.543 -1.891,0.413 -2.114,0.155C-2.336,-0.104 -2.448,-0.437 -2.448,-0.844C-2.448,-1.423 -2.258,-1.934 -1.878,-2.376C-1.499,-2.817 -1.091,-3.039 -0.654,-3.039C-0.358,-3.039 -0.112,-2.953 0.081,-2.781C0.274,-2.61 0.376,-2.403 0.388,-2.162L0.606,-2.895L1.248,-2.895L0.667,-0.984C0.624,-0.836 0.592,-0.717 0.572,-0.626C0.551,-0.536 0.541,-0.456 0.541,-0.386C0.541,-0.255 0.581,-0.16 0.661,-0.1C0.741,-0.04 0.832,-0.011 0.934,-0.011C1.265,-0.011 1.563,-0.184 1.826,-0.53C2.089,-0.876 2.221,-1.328 2.221,-1.887C2.221,-2.562 1.985,-3.092 1.514,-3.477C1.043,-3.862 0.409,-4.055 -0.388,-4.055C-1.493,-4.055 -2.338,-3.732 -2.923,-3.087C-3.424,-2.537 -3.673,-1.847 -3.673,-1.014C-3.673,-0.287 -3.435,0.324 -2.958,0.818C-2.399,1.403 -1.604,1.695 -0.572,1.695C-0.088,1.695 0.361,1.619 0.777,1.466C1.192,1.313 1.574,1.107 1.92,0.849L2.208,1.241C1.946,1.473 1.554,1.692 1.034,1.896C0.514,2.1 -0.06,2.201 -0.685,2.201C-1.901,2.201 -2.837,1.821 -3.495,1.062" style="fill:rgb(35,31,32);fill-rule:nonzero;"/>
            </g>
            <g transform="matrix(1,0,0,1,527.653,768.62)">
                <path d="M0,3.433L2.775,0.082L0.205,0.082L0.205,-0.62L3.831,-0.62L3.831,0.021L1.073,3.35L3.913,3.35L3.913,4.053L0,4.053L0,3.433Z" style="fill:rgb(35,31,32);fill-rule:nonzero;"/>
            </g>
            <g transform="matrix(1,0,0,1,533.255,772.799)">
                <path d="M0,-4.799L0,-1.697C0,-1.458 0.037,-1.264 0.11,-1.113C0.247,-0.833 0.5,-0.694 0.871,-0.694C1.404,-0.694 1.766,-0.938 1.959,-1.427C2.064,-1.688 2.116,-2.047 2.116,-2.504L2.116,-4.799L2.901,-4.799L2.901,-0.127L2.16,-0.127L2.168,-0.816C2.068,-0.638 1.944,-0.489 1.795,-0.366C1.502,-0.122 1.145,0 0.725,0C0.072,0 -0.373,-0.223 -0.61,-0.667C-0.738,-0.906 -0.803,-1.225 -0.803,-1.623L-0.803,-4.799L0,-4.799Z" style="fill:rgb(35,31,32);fill-rule:nonzero;"/>
            </g>
            <g transform="matrix(1,0,0,1,537.46,772.567)">
                <path d="M0,-4.567L0.746,-4.567L0.746,-3.76C0.807,-3.917 0.957,-4.108 1.195,-4.334C1.434,-4.559 1.709,-4.672 2.02,-4.672C2.034,-4.672 2.059,-4.671 2.094,-4.667C2.129,-4.664 2.189,-4.659 2.273,-4.65L2.273,-3.821C2.226,-3.83 2.184,-3.835 2.144,-3.838C2.105,-3.842 2.062,-3.843 2.016,-3.843C1.62,-3.843 1.316,-3.715 1.104,-3.461C0.891,-3.207 0.785,-2.914 0.785,-2.582L0.785,0.105L0,0.105L0,-4.567Z" style="fill:rgb(35,31,32);fill-rule:nonzero;"/>
            </g>
            <g transform="matrix(1,0,0,1,0,746.936)">
                <path d="M540.414,21.086L541.212,21.086L541.212,25.737L540.414,25.737L540.414,21.086ZM540.414,19.327L541.212,19.327L541.212,20.217L540.414,20.217L540.414,19.327Z" style="fill:rgb(35,31,32);fill-rule:nonzero;"/>
            </g>
            <g transform="matrix(1,0,0,1,545.485,772.423)">
                <path d="M0,-4.175C0.331,-3.919 0.529,-3.478 0.596,-2.853L-0.168,-2.853C-0.215,-3.141 -0.321,-3.38 -0.486,-3.571C-0.652,-3.762 -0.918,-3.857 -1.285,-3.857C-1.785,-3.857 -2.143,-3.612 -2.358,-3.125C-2.498,-2.807 -2.567,-2.417 -2.567,-1.952C-2.567,-1.484 -2.468,-1.091 -2.271,-0.771C-2.073,-0.451 -1.761,-0.292 -1.337,-0.292C-1.011,-0.292 -0.754,-0.391 -0.563,-0.59C-0.372,-0.788 -0.241,-1.06 -0.168,-1.405L0.596,-1.405C0.508,-0.785 0.29,-0.333 -0.059,-0.046C-0.408,0.241 -0.854,0.384 -1.398,0.384C-2.009,0.384 -2.497,0.16 -2.86,-0.286C-3.223,-0.732 -3.405,-1.29 -3.405,-1.959C-3.405,-2.779 -3.206,-3.417 -2.807,-3.874C-2.409,-4.331 -1.901,-4.559 -1.285,-4.559C-0.758,-4.559 -0.33,-4.431 0,-4.175" style="fill:rgb(35,31,32);fill-rule:nonzero;"/>
            </g>
            <g transform="matrix(1,0,0,1,546.849,772.672)">
                <path d="M0,-6.409L0.755,-6.409L0.755,-2.688L2.768,-4.673L3.772,-4.673L1.976,-2.935L3.872,0L2.87,0L1.399,-2.378L0.755,-1.754L0.755,0L0,0L0,-6.409Z" style="fill:rgb(35,31,32);fill-rule:nonzero;"/>
            </g>
            <g transform="matrix(1,0,0,1,551.8,769.522)">
                <path d="M0,1.684C0.024,1.946 0.091,2.146 0.201,2.286C0.402,2.539 0.753,2.666 1.251,2.666C1.548,2.666 1.809,2.602 2.035,2.476C2.261,2.349 2.373,2.154 2.373,1.889C2.373,1.688 2.283,1.536 2.103,1.431C1.987,1.367 1.76,1.292 1.42,1.208L0.786,1.051C0.381,0.952 0.083,0.842 -0.109,0.72C-0.453,0.507 -0.624,0.214 -0.624,-0.161C-0.624,-0.603 -0.462,-0.961 -0.14,-1.235C0.183,-1.508 0.617,-1.645 1.163,-1.645C1.876,-1.645 2.39,-1.439 2.705,-1.025C2.902,-0.763 2.998,-0.481 2.993,-0.179L2.251,-0.179C2.236,-0.356 2.173,-0.516 2.059,-0.661C1.875,-0.866 1.554,-0.969 1.099,-0.969C0.795,-0.969 0.565,-0.912 0.409,-0.799C0.253,-0.686 0.174,-0.537 0.174,-0.351C0.174,-0.148 0.277,0.014 0.482,0.135C0.601,0.208 0.775,0.272 1.007,0.327L1.536,0.454C2.11,0.59 2.497,0.723 2.692,0.851C2.997,1.051 3.15,1.367 3.15,1.797C3.15,2.213 2.991,2.573 2.671,2.875C2.352,3.177 1.865,3.329 1.211,3.329C0.507,3.329 0.009,3.171 -0.285,2.855C-0.577,2.54 -0.734,2.15 -0.755,1.684L0,1.684Z" style="fill:rgb(35,31,32);fill-rule:nonzero;"/>
            </g>
            <g transform="matrix(1,0,0,1,555.958,772.746)">
                <path d="M0,-6.051L0.794,-6.051L0.794,-4.747L1.54,-4.747L1.54,-4.105L0.794,-4.105L0.794,-1.056C0.794,-0.893 0.85,-0.784 0.96,-0.728C1.021,-0.697 1.122,-0.68 1.265,-0.68C1.303,-0.68 1.344,-0.682 1.387,-0.684C1.431,-0.685 1.482,-0.69 1.54,-0.698L1.54,-0.074C1.45,-0.048 1.356,-0.029 1.259,-0.017C1.162,-0.005 1.056,0 0.942,0C0.576,0 0.327,-0.094 0.196,-0.281C0.065,-0.469 0,-0.712 0,-1.012L0,-4.105L-0.633,-4.105L-0.633,-4.747L0,-4.747L0,-6.051Z" style="fill:rgb(35,31,32);fill-rule:nonzero;"/>
            </g>
            <g transform="matrix(1,0,0,1,559.069,772.799)">
                <path d="M0,-4.799L0,-1.697C0,-1.458 0.037,-1.264 0.11,-1.113C0.246,-0.833 0.5,-0.694 0.871,-0.694C1.404,-0.694 1.766,-0.938 1.959,-1.427C2.064,-1.688 2.116,-2.047 2.116,-2.504L2.116,-4.799L2.901,-4.799L2.901,-0.127L2.16,-0.127L2.168,-0.816C2.068,-0.638 1.944,-0.489 1.795,-0.366C1.502,-0.122 1.145,0 0.725,0C0.072,0 -0.373,-0.223 -0.61,-0.667C-0.738,-0.906 -0.803,-1.225 -0.803,-1.623L-0.803,-4.799L0,-4.799Z" style="fill:rgb(35,31,32);fill-rule:nonzero;"/>
            </g>
            <g transform="matrix(1,0,0,1,564.066,767.433)">
                <path d="M0,4.214C0.212,4.551 0.551,4.72 1.016,4.72C1.378,4.72 1.675,4.564 1.909,4.251C2.141,3.938 2.258,3.49 2.258,2.905C2.258,2.315 2.138,1.878 1.898,1.594C1.657,1.311 1.361,1.169 1.008,1.169C0.614,1.169 0.294,1.32 0.05,1.623C-0.194,1.925 -0.316,2.37 -0.316,2.958C-0.316,3.458 -0.211,3.877 0,4.214M1.754,0.711C1.892,0.798 2.05,0.951 2.227,1.169L2.227,-1.191L2.982,-1.191L2.982,5.239L2.275,5.239L2.275,4.589C2.093,4.877 1.877,5.085 1.627,5.213C1.379,5.341 1.093,5.405 0.771,5.405C0.253,5.405 -0.196,5.186 -0.576,4.748C-0.955,4.311 -1.145,3.729 -1.145,3.001C-1.145,2.321 -0.972,1.731 -0.626,1.232C-0.279,0.734 0.215,0.484 0.858,0.484C1.215,0.484 1.513,0.559 1.754,0.711" style="fill:rgb(35,31,32);fill-rule:nonzero;"/>
            </g>
            <g transform="matrix(1,0,0,1,0,746.936)">
                <path d="M568.222,21.086L569.02,21.086L569.02,25.737L568.222,25.737L568.222,21.086ZM568.222,19.327L569.02,19.327L569.02,20.217L568.222,20.217L568.222,19.327Z" style="fill:rgb(35,31,32);fill-rule:nonzero;"/>
            </g>
            <g transform="matrix(1,0,0,1,573.105,769.131)">
                <path d="M0,2.441C0.191,2.047 0.287,1.609 0.287,1.127C0.287,0.692 0.218,0.337 0.08,0.063C-0.139,-0.366 -0.516,-0.581 -1.05,-0.581C-1.525,-0.581 -1.871,-0.398 -2.085,-0.033C-2.301,0.334 -2.409,0.776 -2.409,1.293C-2.409,1.789 -2.301,2.203 -2.085,2.535C-1.871,2.865 -1.528,3.031 -1.059,3.031C-0.544,3.031 -0.191,2.835 0,2.441M0.488,-0.664C0.901,-0.264 1.107,0.326 1.107,1.105C1.107,1.857 0.925,2.479 0.562,2.971C0.197,3.462 -0.368,3.707 -1.133,3.707C-1.771,3.707 -2.277,3.49 -2.654,3.056C-3.029,2.621 -3.216,2.037 -3.216,1.306C-3.216,0.521 -3.019,-0.104 -2.623,-0.569C-2.227,-1.034 -1.696,-1.266 -1.029,-1.266C-0.431,-1.266 0.074,-1.066 0.488,-0.664" style="fill:rgb(35,31,32);fill-rule:nonzero;"/>
            </g>
            <g transform="matrix(1,0,0,1,0,752.393)">
                <rect x="575.363" y="19.328" width="0.912" height="0.951" style="fill:rgb(35,31,32);"/>
            </g>
            <g transform="matrix(1,0,0,1,580.745,772.423)">
                <path d="M0,-4.175C0.331,-3.919 0.529,-3.478 0.596,-2.853L-0.168,-2.853C-0.215,-3.141 -0.321,-3.38 -0.486,-3.571C-0.652,-3.762 -0.918,-3.857 -1.285,-3.857C-1.785,-3.857 -2.143,-3.612 -2.358,-3.125C-2.498,-2.807 -2.567,-2.417 -2.567,-1.952C-2.567,-1.484 -2.468,-1.091 -2.271,-0.771C-2.073,-0.451 -1.761,-0.292 -1.337,-0.292C-1.011,-0.292 -0.754,-0.391 -0.563,-0.59C-0.372,-0.788 -0.241,-1.06 -0.168,-1.405L0.596,-1.405C0.508,-0.785 0.29,-0.333 -0.059,-0.046C-0.408,0.241 -0.854,0.384 -1.398,0.384C-2.009,0.384 -2.497,0.16 -2.86,-0.286C-3.223,-0.732 -3.405,-1.29 -3.405,-1.959C-3.405,-2.779 -3.206,-3.417 -2.807,-3.874C-2.409,-4.331 -1.901,-4.559 -1.285,-4.559C-0.758,-4.559 -0.33,-4.431 0,-4.175" style="fill:rgb(35,31,32);fill-rule:nonzero;"/>
            </g>
            <g transform="matrix(1,0,0,1,585.024,769.131)">
                <path d="M0,2.441C0.191,2.047 0.287,1.609 0.287,1.127C0.287,0.692 0.218,0.337 0.08,0.063C-0.138,-0.366 -0.516,-0.581 -1.05,-0.581C-1.525,-0.581 -1.87,-0.398 -2.085,-0.033C-2.301,0.334 -2.409,0.776 -2.409,1.293C-2.409,1.789 -2.301,2.203 -2.085,2.535C-1.87,2.865 -1.528,3.031 -1.059,3.031C-0.544,3.031 -0.191,2.835 0,2.441M0.488,-0.664C0.901,-0.264 1.107,0.326 1.107,1.105C1.107,1.857 0.925,2.479 0.562,2.971C0.197,3.462 -0.368,3.707 -1.133,3.707C-1.771,3.707 -2.277,3.49 -2.654,3.056C-3.029,2.621 -3.216,2.037 -3.216,1.306C-3.216,0.521 -3.019,-0.104 -2.623,-0.569C-2.227,-1.034 -1.696,-1.266 -1.029,-1.266C-0.431,-1.266 0.074,-1.066 0.488,-0.664" style="fill:rgb(35,31,32);fill-rule:nonzero;"/>
            </g>
            <g transform="matrix(1,0,0,1,587.095,772.567)">
                <path d="M0,-4.567L0.777,-4.567L0.777,-3.904C0.963,-4.134 1.131,-4.301 1.283,-4.406C1.541,-4.583 1.836,-4.672 2.164,-4.672C2.536,-4.672 2.836,-4.58 3.063,-4.397C3.19,-4.292 3.307,-4.138 3.412,-3.934C3.586,-4.184 3.791,-4.37 4.027,-4.491C4.262,-4.612 4.527,-4.672 4.821,-4.672C5.449,-4.672 5.877,-4.445 6.103,-3.991C6.226,-3.747 6.287,-3.419 6.287,-3.005L6.287,0.105L5.471,0.105L5.471,-3.14C5.471,-3.451 5.393,-3.665 5.237,-3.782C5.081,-3.898 4.892,-3.956 4.668,-3.956C4.359,-3.956 4.094,-3.853 3.872,-3.646C3.649,-3.44 3.538,-3.096 3.538,-2.613L3.538,0.105L2.74,0.105L2.74,-2.944C2.74,-3.261 2.702,-3.493 2.626,-3.638C2.507,-3.856 2.285,-3.965 1.959,-3.965C1.662,-3.965 1.393,-3.85 1.15,-3.62C0.906,-3.39 0.785,-2.975 0.785,-2.373L0.785,0.105L0,0.105L0,-4.567Z" style="fill:rgb(35,31,32);fill-rule:nonzero;"/>
            </g>
            <g transform="matrix(1,0,0,1,0,-740.158)">
                <rect x="13.233" y="765.601" width="37.889" height="0.956"/>
            </g>
            <g transform="matrix(1,0,0,1,0,-750.188)">
                <rect x="51.105" y="765.601" width="0.775" height="10.986" style="fill:rgb(35,31,32);"/>
            </g>
            <g transform="matrix(1,0,0,1,0,-762.05)">
                <rect x="13.233" y="776.547" width="38.647" height="0.956"/>
            </g>
            <g transform="matrix(1,7.91954e-05,7.91954e-05,-1,13.2583,28.5497)">
                <rect x="0" y="-0.001" width="37.881" height="0.955"/>
            </g>
            <g transform="matrix(1,0,0,1,0,-725.037)">
                <rect x="51.139" y="752.635" width="0.74" height="11.767" style="fill:rgb(35,31,32);"/>
            </g>
            <g transform="matrix(1,7.76779e-05,7.76779e-05,-1,13.2583,39.705)">
                <rect x="0" y="-0.001" width="38.621" height="0.955"/>
            </g>
            <g transform="matrix(1,0,0,1,13.2583,18.1395)">
                <path d="M0,4.555L3.598,0.004L0.091,0.004L0.091,-1.242L5.424,-1.242L5.424,-0.062L1.78,4.555L5.434,4.555L5.434,5.797L0,5.797L0,4.555Z" style="fill:rgb(35,31,32);fill-rule:nonzero;"/>
            </g>
            <g transform="matrix(1,0,0,1,19.7284,24.1176)">
                <path d="M0,-7.22L1.495,-7.22L1.495,-2.898C1.495,-2.414 1.552,-2.06 1.666,-1.838C1.843,-1.444 2.231,-1.246 2.827,-1.246C3.42,-1.246 3.805,-1.444 3.983,-1.838C4.097,-2.06 4.154,-2.414 4.154,-2.898L4.154,-7.22L5.649,-7.22L5.649,-2.894C5.649,-2.146 5.533,-1.564 5.301,-1.146C4.868,-0.382 4.044,0 2.827,0C1.61,0 0.783,-0.382 0.348,-1.146C0.116,-1.564 0,-2.146 0,-2.894L0,-7.22Z" style="fill:rgb(35,31,32);fill-rule:nonzero;"/>
            </g>
            <g transform="matrix(1,0,0,1,28.2614,22.714)">
                <path d="M0,-4.594L0,-2.703L1.583,-2.703C1.897,-2.703 2.133,-2.741 2.29,-2.818C2.568,-2.951 2.707,-3.216 2.707,-3.61C2.707,-4.037 2.573,-4.324 2.304,-4.47C2.153,-4.553 1.926,-4.594 1.624,-4.594L0,-4.594ZM3.04,-5.635C3.299,-5.523 3.519,-5.359 3.699,-5.144C3.847,-4.965 3.965,-4.767 4.053,-4.552C4.139,-4.335 4.183,-4.088 4.183,-3.811C4.183,-3.477 4.098,-3.148 3.93,-2.825C3.761,-2.501 3.482,-2.273 3.094,-2.14C3.419,-2.009 3.649,-1.823 3.785,-1.583C3.92,-1.343 3.987,-0.976 3.987,-0.483L3.987,-0.01C3.987,0.312 4,0.529 4.026,0.643C4.065,0.826 4.155,0.96 4.298,1.045L4.298,1.222L2.674,1.222C2.63,1.066 2.598,0.941 2.579,0.845C2.54,0.648 2.52,0.446 2.516,0.238L2.507,-0.415C2.501,-0.865 2.423,-1.164 2.274,-1.313C2.125,-1.463 1.846,-1.538 1.437,-1.538L0,-1.538L0,1.222L-1.437,1.222L-1.437,-5.816L1.929,-5.816C2.41,-5.807 2.78,-5.747 3.04,-5.635" style="fill:rgb(35,31,32);fill-rule:nonzero;"/>
            </g>
            <g transform="matrix(-1,0,0,1,68.929,-751.166)">
                <rect x="33.734" y="768.064" width="1.461" height="7.038" style="fill:rgb(35,31,32);"/>
            </g>
            <g transform="matrix(1,0,0,1,37.2426,23.2639)">
                <path d="M0,-5.631C0.567,-6.211 1.288,-6.5 2.163,-6.5C3.335,-6.5 4.191,-6.111 4.733,-5.335C5.032,-4.898 5.193,-4.46 5.215,-4.021L3.744,-4.021C3.651,-4.36 3.531,-4.613 3.384,-4.785C3.122,-5.091 2.734,-5.244 2.219,-5.244C1.695,-5.244 1.282,-5.028 0.98,-4.597C0.677,-4.166 0.526,-3.556 0.526,-2.766C0.526,-1.976 0.686,-1.385 1.005,-0.992C1.324,-0.6 1.729,-0.403 2.222,-0.403C2.726,-0.403 3.111,-0.571 3.375,-0.908C3.521,-1.091 3.643,-1.362 3.74,-1.725L5.201,-1.725C5.074,-0.958 4.753,-0.333 4.235,0.147C3.716,0.627 3.053,0.869 2.244,0.869C1.242,0.869 0.455,0.544 -0.119,-0.106C-0.692,-0.759 -0.978,-1.653 -0.978,-2.791C-0.978,-4.018 -0.652,-4.965 0,-5.631" style="fill:rgb(35,31,32);fill-rule:nonzero;"/>
            </g>
            <g transform="matrix(1,0,0,1,43.6561,23.9356)">
                <path d="M0,-7.038L1.447,-7.038L1.447,-4.138L4.166,-7.038L6.066,-7.038L3.178,-4.143L6.215,0L4.323,0L2.155,-3.072L1.447,-2.354L1.447,0L0,0L0,-7.038Z" style="fill:rgb(35,31,32);fill-rule:nonzero;"/>
            </g>
            <g transform="matrix(1,0,0,1,14.8149,32.2915)">
                <path d="M0,2.719C0.046,3.04 0.135,3.28 0.268,3.439C0.512,3.729 0.93,3.873 1.521,3.873C1.875,3.873 2.163,3.835 2.384,3.759C2.804,3.613 3.013,3.341 3.013,2.943C3.013,2.711 2.91,2.531 2.705,2.402C2.499,2.28 2.174,2.169 1.728,2.074L0.966,1.906C0.217,1.741 -0.297,1.561 -0.578,1.367C-1.052,1.042 -1.289,0.535 -1.289,-0.157C-1.289,-0.787 -1.057,-1.31 -0.593,-1.727C-0.129,-2.145 0.553,-2.353 1.452,-2.353C2.203,-2.353 2.842,-2.156 3.373,-1.763C3.903,-1.37 4.181,-0.799 4.207,-0.051L2.793,-0.051C2.767,-0.475 2.578,-0.775 2.226,-0.954C1.991,-1.071 1.699,-1.131 1.349,-1.131C0.961,-1.131 0.651,-1.055 0.419,-0.902C0.188,-0.749 0.072,-0.535 0.072,-0.261C0.072,-0.01 0.186,0.179 0.414,0.301C0.561,0.385 0.872,0.482 1.349,0.593L2.585,0.885C3.126,1.012 3.531,1.183 3.802,1.396C4.221,1.727 4.431,2.206 4.431,2.834C4.431,3.476 4.183,4.01 3.686,4.435C3.188,4.86 2.486,5.072 1.578,5.072C0.652,5.072 -0.076,4.864 -0.608,4.445C-1.139,4.026 -1.404,3.45 -1.404,2.719L0,2.719Z" style="fill:rgb(35,31,32);fill-rule:nonzero;"/>
            </g>
            <g transform="matrix(1,0,0,1,25.3916,37.182)">
                <path d="M0,-7.038L0,-5.792L-2.106,-5.792L-2.106,0L-3.586,0L-3.586,-5.792L-5.701,-5.792L-5.701,-7.038L0,-7.038Z" style="fill:rgb(35,31,32);fill-rule:nonzero;"/>
            </g>
            <g transform="matrix(1,0,0,1,26.2511,37.364)">
                <path d="M0,-7.22L1.495,-7.22L1.495,-2.898C1.495,-2.414 1.552,-2.06 1.666,-1.838C1.843,-1.444 2.231,-1.246 2.827,-1.246C3.42,-1.246 3.805,-1.444 3.983,-1.838C4.097,-2.06 4.154,-2.414 4.154,-2.898L4.154,-7.22L5.649,-7.22L5.649,-2.894C5.649,-2.146 5.533,-1.564 5.301,-1.146C4.868,-0.382 4.044,0 2.827,0C1.61,0 0.783,-0.382 0.348,-1.146C0.116,-1.564 0,-2.146 0,-2.894L0,-7.22Z" style="fill:rgb(35,31,32);fill-rule:nonzero;"/>
            </g>
            <g transform="matrix(1,0,0,1,34.7411,35.9605)">
                <path d="M0,-4.594L0,0L1.358,0C2.053,0 2.538,-0.343 2.812,-1.026C2.962,-1.403 3.037,-1.85 3.037,-2.369C3.037,-3.085 2.924,-3.635 2.7,-4.018C2.475,-4.402 2.028,-4.594 1.358,-4.594L0,-4.594ZM2.697,-5.664C3.19,-5.501 3.59,-5.204 3.896,-4.77C4.141,-4.421 4.308,-4.041 4.398,-3.635C4.487,-3.227 4.531,-2.838 4.531,-2.47C4.531,-1.534 4.343,-0.74 3.967,-0.09C3.458,0.784 2.671,1.222 1.607,1.222L-1.428,1.222L-1.428,-5.816L1.607,-5.816C2.043,-5.81 2.407,-5.759 2.697,-5.664" style="fill:rgb(35,31,32);fill-rule:nonzero;"/>
            </g>
            <g transform="matrix(-1,0,0,1,81.973,-724.674)">
                <rect x="40.256" y="754.818" width="1.461" height="7.038" style="fill:rgb(35,31,32);"/>
            </g>
            <g transform="matrix(1,0,0,1,47.5935,31.821)">
                <path d="M0,3.667C0.342,3.236 0.513,2.625 0.513,1.833C0.513,1.043 0.342,0.432 0,0.001C-0.342,-0.43 -0.805,-0.645 -1.387,-0.645C-1.97,-0.645 -2.435,-0.431 -2.782,0C-3.129,0.428 -3.302,1.039 -3.302,1.833C-3.302,2.625 -3.129,3.236 -2.782,3.667C-2.435,4.095 -1.97,4.311 -1.387,4.311C-0.805,4.311 -0.342,4.095 0,3.667M0.919,4.737C0.387,5.284 -0.381,5.558 -1.387,5.558C-2.394,5.558 -3.162,5.284 -3.694,4.737C-4.407,4.064 -4.763,3.097 -4.763,1.833C-4.763,0.543 -4.407,-0.424 -3.694,-1.07C-3.162,-1.618 -2.394,-1.891 -1.387,-1.891C-0.381,-1.891 0.387,-1.618 0.919,-1.07C1.629,-0.424 1.984,0.543 1.984,1.833C1.984,3.097 1.629,4.064 0.919,4.737" style="fill:rgb(35,31,32);fill-rule:nonzero;"/>
            </g>
            <g transform="matrix(1,0,0,1,15.8779,56.2279)">
                <path d="M0,-8.216L1.822,-8.216L1.822,-3.107C1.822,-0.804 0.72,0 -1.056,0C-1.476,0 -2.027,-0.072 -2.387,-0.193L-2.184,-1.667C-1.932,-1.583 -1.607,-1.523 -1.248,-1.523C-0.48,-1.523 0,-1.871 0,-3.13L0,-8.216Z" style="fill:rgb(35,31,32);fill-rule:nonzero;"/>
            </g>
            <g transform="matrix(1,0,0,1,20.7851,52.0303)">
                <path d="M0,0.048C0,1.631 0.744,2.746 1.967,2.746C3.202,2.746 3.91,1.571 3.91,-0.001C3.91,-1.452 3.214,-2.698 1.955,-2.698C0.72,-2.698 0,-1.523 0,0.048M5.841,-0.06C5.841,2.591 4.233,4.197 1.871,4.197C-0.527,4.197 -1.931,2.386 -1.931,0.083C-1.931,-2.339 -0.384,-4.149 2.003,-4.149C4.485,-4.149 5.841,-2.291 5.841,-0.06" style="fill:rgb(35,31,32);fill-rule:nonzero;"/>
            </g>
            <g transform="matrix(1,0,0,1,27.8906,49.8841)">
                <path d="M0,4.329C0.491,4.581 1.247,4.833 2.026,4.833C2.866,4.833 3.311,4.485 3.311,3.957C3.311,3.454 2.927,3.165 1.955,2.817C0.611,2.35 -0.264,1.606 -0.264,0.431C-0.264,-0.948 0.888,-2.003 2.794,-2.003C3.706,-2.003 4.378,-1.812 4.857,-1.596L4.449,-0.12C4.126,-0.276 3.55,-0.505 2.759,-0.505C1.967,-0.505 1.583,-0.145 1.583,0.275C1.583,0.791 2.039,1.018 3.082,1.415C4.51,1.942 5.181,2.686 5.181,3.825C5.181,5.181 4.138,6.332 1.919,6.332C0.995,6.332 0.084,6.092 -0.372,5.841L0,4.329Z" style="fill:rgb(35,31,32);fill-rule:nonzero;"/>
            </g>
            <g transform="matrix(1,0,0,1,39.1186,51.4299)">
                <path d="M0,1.248L-2.974,1.248L-2.974,3.167L0.349,3.167L0.349,4.666L-4.808,4.666L-4.808,-3.418L0.181,-3.418L0.181,-1.918L-2.974,-1.918L-2.974,-0.239L0,-0.239L0,1.248Z" style="fill:rgb(35,31,32);fill-rule:nonzero;"/>
            </g>
            <g transform="matrix(1,0,0,1,40.7182,56.0959)">
                <path d="M0,-8.084L4.94,-8.084L4.94,-6.584L1.835,-6.584L1.835,-4.737L4.737,-4.737L4.737,-3.25L1.835,-3.25L1.835,0L0,0L0,-8.084Z" style="fill:rgb(35,31,32);fill-rule:nonzero;"/>
            </g>
            <g transform="matrix(1,0,0,1,20.5068,62.8733)">
                <path d="M0,1.894C-0.036,0.923 -0.072,-0.252 -0.072,-1.427L-0.108,-1.427C-0.36,-0.396 -0.696,0.755 -1.007,1.703L-1.991,4.857L-3.418,4.857L-4.282,1.726C-4.545,0.779 -4.821,-0.373 -5.013,-1.427L-5.038,-1.427C-5.085,-0.336 -5.121,0.911 -5.181,1.918L-5.325,4.989L-7.016,4.989L-6.5,-3.095L-4.066,-3.095L-3.274,-0.396C-3.022,0.54 -2.771,1.546 -2.591,2.494L-2.555,2.494C-2.327,1.559 -2.051,0.492 -1.787,-0.409L-0.924,-3.095L1.463,-3.095L1.907,4.989L0.12,4.989L0,1.894Z" style="fill:rgb(35,31,32);fill-rule:nonzero;"/>
            </g>
            <g transform="matrix(1,0,0,1,27.624,67.1669)">
                <path d="M0,-8.672C0,-9.14 0.348,-9.499 0.816,-9.499C1.271,-9.499 1.619,-9.14 1.619,-8.672C1.619,-8.228 1.284,-7.857 0.816,-7.857C0.336,-7.857 0,-8.228 0,-8.672M-2.495,-8.672C-2.495,-9.14 -2.135,-9.499 -1.667,-9.499C-1.223,-9.499 -0.875,-9.14 -0.875,-8.672C-0.875,-8.228 -1.211,-7.857 -1.667,-7.857C-2.146,-7.857 -2.495,-8.228 -2.495,-8.672M-1.979,-7.389L-1.979,-2.735C-1.979,-1.344 -1.451,-0.636 -0.516,-0.636C0.444,-0.636 0.972,-1.308 0.972,-2.735L0.972,-7.389L2.794,-7.389L2.794,-2.855C2.794,-0.36 1.535,0.827 -0.576,0.827C-2.614,0.827 -3.813,-0.3 -3.813,-2.879L-3.813,-7.389L-1.979,-7.389Z" style="fill:rgb(35,31,32);fill-rule:nonzero;"/>
            </g>
            <g transform="matrix(1,0,0,1,32.0063,67.8621)">
                <path d="M0,-8.084L1.835,-8.084L1.835,-1.535L5.049,-1.535L5.049,0L0,0L0,-8.084Z" style="fill:rgb(35,31,32);fill-rule:nonzero;"/>
            </g>
            <g transform="matrix(1,0,0,1,38.1382,67.8621)">
                <path d="M0,-8.084L1.835,-8.084L1.835,-1.535L5.049,-1.535L5.049,0L0,0L0,-8.084Z" style="fill:rgb(35,31,32);fill-rule:nonzero;"/>
            </g>
            <g transform="matrix(1,0,0,1,49.0801,63.1961)">
                <path d="M0,1.248L-2.975,1.248L-2.975,3.167L0.348,3.167L0.348,4.666L-4.81,4.666L-4.81,-3.418L0.18,-3.418L0.18,-1.918L-2.975,-1.918L-2.975,-0.239L0,-0.239L0,1.248Z" style="fill:rgb(35,31,32);fill-rule:nonzero;"/>
            </g>
            <g transform="matrix(1,0,0,1,52.4892,64.216)">
                <path d="M0,-0.851L0.72,-0.851C1.631,-0.851 2.171,-1.307 2.171,-2.015C2.171,-2.758 1.667,-3.13 0.827,-3.142C0.384,-3.142 0.132,-3.106 0,-3.082L0,-0.851ZM-1.812,-4.33C-1.224,-4.425 -0.348,-4.497 0.624,-4.497C1.823,-4.497 2.662,-4.318 3.238,-3.862C3.718,-3.478 3.981,-2.914 3.981,-2.17C3.981,-1.139 3.25,-0.432 2.555,-0.18L2.555,-0.144C3.118,0.084 3.43,0.624 3.634,1.368C3.886,2.279 4.138,3.335 4.294,3.646L2.423,3.646C2.291,3.419 2.099,2.758 1.859,1.763C1.644,0.755 1.295,0.48 0.552,0.467L0,0.467L0,3.646L-1.812,3.646L-1.812,-4.33Z" style="fill:rgb(35,31,32);fill-rule:nonzero;"/>
            </g>
            <g transform="matrix(1,0,0,1,15.3017,72.3248)">
                <path d="M0,5.47C0.18,5.493 0.396,5.493 0.708,5.493C1.535,5.493 2.267,5.182 2.267,4.33C2.267,3.515 1.535,3.191 0.624,3.191L0,3.191L0,5.47ZM0,1.884L0.6,1.884C1.559,1.884 2.075,1.488 2.075,0.888C2.075,0.277 1.607,-0.048 0.78,-0.048C0.384,-0.048 0.156,-0.023 0,0L0,1.884ZM-1.811,-1.211C-1.331,-1.306 -0.36,-1.379 0.552,-1.379C1.667,-1.379 2.351,-1.27 2.938,-0.923C3.502,-0.623 3.91,-0.071 3.91,0.66C3.91,1.38 3.49,2.051 2.579,2.387L2.579,2.411C3.502,2.663 4.186,3.359 4.186,4.403C4.186,5.134 3.85,5.709 3.346,6.117C2.758,6.585 1.775,6.849 0.168,6.849C-0.731,6.849 -1.403,6.789 -1.811,6.729L-1.811,-1.211Z" style="fill:rgb(35,31,32);fill-rule:nonzero;"/>
            </g>
            <g transform="matrix(1,0,0,1,22.5498,75.4437)">
                <path d="M0,-0.851L0.72,-0.851C1.631,-0.851 2.171,-1.307 2.171,-2.015C2.171,-2.758 1.667,-3.13 0.828,-3.142C0.384,-3.142 0.132,-3.106 0,-3.082L0,-0.851ZM-1.811,-4.33C-1.223,-4.425 -0.348,-4.497 0.624,-4.497C1.823,-4.497 2.663,-4.318 3.238,-3.862C3.718,-3.478 3.982,-2.914 3.982,-2.17C3.982,-1.139 3.25,-0.432 2.555,-0.18L2.555,-0.144C3.118,0.084 3.43,0.624 3.634,1.368C3.886,2.279 4.138,3.335 4.293,3.646L2.423,3.646C2.291,3.419 2.099,2.758 1.859,1.763C1.643,0.755 1.295,0.48 0.552,0.467L0,0.467L0,3.646L-1.811,3.646L-1.811,-4.33Z" style="fill:rgb(35,31,32);fill-rule:nonzero;"/>
            </g>
            <g transform="matrix(1,0,0,1,29.3657,75.0231)">
                <path d="M0,0.049C0,1.632 0.744,2.747 1.967,2.747C3.202,2.747 3.91,1.572 3.91,0.001C3.91,-1.45 3.214,-2.698 1.955,-2.698C0.72,-2.698 0,-1.522 0,0.049M5.841,-0.059C5.841,2.591 4.234,4.198 1.871,4.198C-0.527,4.198 -1.931,2.388 -1.931,0.085C-1.931,-2.338 -0.384,-4.149 2.003,-4.149C4.486,-4.149 5.841,-2.29 5.841,-0.059" style="fill:rgb(35,31,32);fill-rule:nonzero;"/>
            </g>
            <g transform="matrix(1,0,0,1,42.3472,71.2222)">
                <path d="M0,7.64C-0.336,7.808 -1.092,7.988 -2.075,7.988C-4.87,7.988 -6.309,6.248 -6.309,3.946C-6.309,1.187 -4.342,-0.348 -1.895,-0.348C-0.948,-0.348 -0.228,-0.156 0.096,0.012L-0.276,1.463C-0.648,1.307 -1.164,1.163 -1.811,1.163C-3.262,1.163 -4.39,2.038 -4.39,3.838C-4.39,5.456 -3.43,6.476 -1.799,6.476C-1.248,6.476 -0.636,6.357 -0.276,6.212L0,7.64Z" style="fill:rgb(35,31,32);fill-rule:nonzero;"/>
            </g>
            <g transform="matrix(1,0,0,1,43.5503,79.0897)">
                <path d="M0,-8.084L1.811,-8.084L1.811,-4.51L1.847,-4.51C2.027,-4.821 2.219,-5.109 2.399,-5.397L4.234,-8.084L6.477,-8.084L3.802,-4.642L6.621,0L4.485,0L2.507,-3.49L1.811,-2.639L1.811,0L0,0L0,-8.084Z" style="fill:rgb(35,31,32);fill-rule:nonzero;"/>
            </g>
            <g transform="matrix(1,0,0,1,57.7544,74.101)">
                <path d="M0,1.894C-0.036,0.923 -0.072,-0.252 -0.072,-1.427L-0.108,-1.427C-0.36,-0.396 -0.696,0.755 -1.008,1.703L-1.991,4.857L-3.418,4.857L-4.282,1.727C-4.545,0.779 -4.821,-0.373 -5.013,-1.427L-5.037,-1.427C-5.085,-0.336 -5.121,0.911 -5.181,1.918L-5.325,4.989L-7.016,4.989L-6.5,-3.095L-4.066,-3.095L-3.274,-0.396C-3.022,0.54 -2.771,1.546 -2.591,2.495L-2.555,2.495C-2.327,1.559 -2.051,0.492 -1.787,-0.409L-0.924,-3.095L1.463,-3.095L1.907,4.989L0.12,4.989L0,1.894Z" style="fill:rgb(35,31,32);fill-rule:nonzero;"/>
            </g>
            <g transform="matrix(1,0,0,1,64.9682,74.4473)">
                <path d="M0,1.2L-0.504,-0.515C-0.648,-0.994 -0.792,-1.594 -0.912,-2.074L-0.936,-2.074C-1.056,-1.594 -1.176,-0.983 -1.308,-0.515L-1.787,1.2L0,1.2ZM-2.051,2.567L-2.627,4.642L-4.521,4.642L-2.051,-3.442L0.348,-3.442L2.854,4.642L0.887,4.642L0.264,2.567L-2.051,2.567Z" style="fill:rgb(35,31,32);fill-rule:nonzero;"/>
            </g>
            <g transform="matrix(1,0,0,1,68.9062,71.0057)">
                <path d="M0,8.084L0,0L2.135,0L3.814,2.963C4.293,3.814 4.773,4.822 5.133,5.733L5.169,5.733C5.049,4.666 5.013,3.574 5.013,2.363L5.013,0L6.692,0L6.692,8.084L4.773,8.084L3.046,4.966C2.567,4.103 2.039,3.059 1.643,2.111L1.607,2.123C1.655,3.19 1.679,4.33 1.679,5.649L1.679,8.084L0,8.084Z" style="fill:rgb(35,31,32);fill-rule:nonzero;"/>
            </g>
            <g transform="matrix(1,0,0,1,77.186,71.0057)">
                <path d="M0,8.084L0,0L2.135,0L3.814,2.963C4.294,3.814 4.773,4.822 5.133,5.733L5.169,5.733C5.049,4.666 5.013,3.574 5.013,2.363L5.013,0L6.692,0L6.692,8.084L4.773,8.084L3.046,4.966C2.566,4.103 2.039,3.059 1.643,2.111L1.607,2.123C1.655,3.19 1.679,4.33 1.679,5.649L1.679,8.084L0,8.084Z" style="fill:rgb(35,31,32);fill-rule:nonzero;"/>
            </g>
        </g>
    </g>
</svg>
