<?xml version="1.0" encoding="UTF-8" standalone="no"?>
<!DOCTYPE svg PUBLIC "-//W3C//DTD SVG 1.1//EN" "http://www.w3.org/Graphics/SVG/1.1/DTD/svg11.dtd">
<svg width="100%" height="100%" viewBox="0 0 1050 600" version="1.1" xmlns="http://www.w3.org/2000/svg" xmlns:xlink="http://www.w3.org/1999/xlink" xml:space="preserve" xmlns:serif="http://www.serif.com/" style="fill-rule:evenodd;clip-rule:evenodd;stroke-miterlimit:10;">
    <g id="Layer-1" serif:id="Layer 1" transform="matrix(4.16667,0,0,4.16667,0,0)">
        <rect x="0" y="0" width="252" height="144" style="fill:rgb(198,200,202);"/>
        <rect x="0" y="0" width="252" height="144" style="fill:white;"/>
        <g transform="matrix(1,0,0,1,0,-95.822)">
            <rect x="11.754" y="119.403" width="40.289" height="1.016"/>
        </g>
        <g transform="matrix(1,0,0,1,0,-106.488)">
            <rect x="52.025" y="119.403" width="0.824" height="11.682" style="fill:rgb(35,31,32);"/>
        </g>
        <g transform="matrix(1,0,0,1,0,-119.1)">
            <rect x="11.754" y="131.042" width="41.095" height="1.016"/>
        </g>
        <g transform="matrix(1,-0.000223281,-0.000223281,-1,11.7543,26.84)">
            <rect x="0" y="0.005" width="40.308" height="1.017"/>
        </g>
        <g transform="matrix(1,0,0,1,0,-79.868)">
            <rect x="52.062" y="105.678" width="0.787" height="12.512" style="fill:rgb(35,31,32);"/>
        </g>
        <g transform="matrix(1,-0.000219005,-0.000219005,-1,11.7543,38.7019)">
            <rect x="0" y="0.005" width="41.095" height="1.017"/>
        </g>
        <g transform="matrix(1,0,0,1,170.519,95.2265)">
            <path d="M0,-6.312L1.19,-1.184L2.617,-6.312L3.541,-6.312L4.971,-1.174L6.161,-6.312L7.098,-6.312L5.44,0L4.542,0L3.085,-5.233L1.62,0L0.722,0L-0.928,-6.312L0,-6.312Z" style="fill:rgb(35,31,32);fill-rule:nonzero;"/>
        </g>
        <g transform="matrix(1,0,0,1,178.818,91.3635)">
            <path d="M0,3.167C0.163,3.296 0.357,3.36 0.58,3.36C0.852,3.36 1.116,3.297 1.371,3.171C1.8,2.963 2.015,2.621 2.015,2.146L2.015,1.525C1.921,1.585 1.799,1.635 1.651,1.675C1.502,1.715 1.357,1.744 1.214,1.761L0.746,1.821C0.466,1.859 0.255,1.917 0.114,1.997C-0.126,2.131 -0.245,2.345 -0.245,2.64C-0.245,2.863 -0.163,3.038 0,3.167M1.629,1.078C1.806,1.055 1.925,0.981 1.985,0.855C2.02,0.785 2.037,0.687 2.037,0.557C2.037,0.292 1.943,0.101 1.755,-0.019C1.568,-0.138 1.301,-0.197 0.952,-0.197C0.549,-0.197 0.263,-0.088 0.095,0.13C0,0.252 -0.061,0.431 -0.09,0.671L-0.812,0.671C-0.798,0.101 -0.614,-0.294 -0.261,-0.516C0.092,-0.74 0.503,-0.851 0.969,-0.851C1.509,-0.851 1.949,-0.747 2.287,-0.541C2.621,-0.335 2.789,-0.015 2.789,0.421L2.789,3.072C2.789,3.153 2.805,3.217 2.838,3.266C2.871,3.314 2.94,3.339 3.046,3.339C3.081,3.339 3.12,3.337 3.163,3.332C3.205,3.328 3.252,3.322 3.3,3.313L3.3,3.885C3.18,3.919 3.088,3.94 3.025,3.949C2.962,3.958 2.876,3.962 2.767,3.962C2.501,3.962 2.307,3.867 2.187,3.678C2.124,3.578 2.08,3.437 2.054,3.253C1.896,3.459 1.67,3.639 1.375,3.79C1.08,3.942 0.755,4.018 0.4,4.018C-0.027,4.018 -0.376,3.888 -0.647,3.629C-0.917,3.37 -1.053,3.047 -1.053,2.657C-1.053,2.231 -0.92,1.901 -0.653,1.666C-0.387,1.431 -0.038,1.287 0.395,1.232L1.629,1.078Z" style="fill:rgb(35,31,32);fill-rule:nonzero;"/>
        </g>
        <g transform="matrix(1,0,0,1,0,40.142)">
            <rect x="182.896" y="48.773" width="0.773" height="6.312" style="fill:rgb(35,31,32);"/>
        </g>
        <g transform="matrix(1,0,0,1,187.87,94.9816)">
            <path d="M0,-4.112C0.326,-3.861 0.521,-3.427 0.587,-2.81L-0.165,-2.81C-0.212,-3.094 -0.316,-3.33 -0.479,-3.517C-0.642,-3.705 -0.904,-3.798 -1.265,-3.798C-1.758,-3.798 -2.111,-3.558 -2.322,-3.078C-2.46,-2.766 -2.529,-2.38 -2.529,-1.923C-2.529,-1.463 -2.431,-1.075 -2.237,-0.76C-2.042,-0.446 -1.735,-0.288 -1.317,-0.288C-0.996,-0.288 -0.742,-0.386 -0.554,-0.581C-0.366,-0.777 -0.237,-1.044 -0.165,-1.383L0.587,-1.383C0.501,-0.773 0.286,-0.328 -0.058,-0.045C-0.402,0.236 -0.841,0.378 -1.377,0.378C-1.979,0.378 -2.459,0.158 -2.817,-0.281C-3.174,-0.722 -3.354,-1.271 -3.354,-1.929C-3.354,-2.737 -3.157,-3.366 -2.765,-3.816C-2.373,-4.266 -1.872,-4.49 -1.265,-4.49C-0.747,-4.49 -0.325,-4.364 0,-4.112" style="fill:rgb(35,31,32);fill-rule:nonzero;"/>
        </g>
        <g transform="matrix(1,0,0,1,189.23,95.2271)">
            <path d="M0,-6.334L0.773,-6.334L0.773,-3.979C0.957,-4.211 1.121,-4.375 1.268,-4.469C1.517,-4.632 1.827,-4.714 2.2,-4.714C2.867,-4.714 3.32,-4.481 3.558,-4.014C3.687,-3.759 3.751,-3.406 3.751,-2.952L3.751,0L2.956,0L2.956,-2.901C2.956,-3.239 2.913,-3.487 2.827,-3.644C2.687,-3.897 2.423,-4.022 2.037,-4.022C1.716,-4.022 1.425,-3.913 1.164,-3.691C0.903,-3.471 0.773,-3.054 0.773,-2.441L0.773,0L0,0L0,-6.334Z" style="fill:rgb(35,31,32);fill-rule:nonzero;"/>
        </g>
        <g transform="matrix(1,0,0,1,197.243,93.3533)">
            <path d="M0,-0.795C-0.031,-1.13 -0.104,-1.399 -0.217,-1.599C-0.428,-1.971 -0.779,-2.157 -1.27,-2.157C-1.622,-2.157 -1.917,-2.029 -2.156,-1.773C-2.394,-1.517 -2.521,-1.19 -2.535,-0.795L0,-0.795ZM-0.277,-2.602C0.028,-2.449 0.26,-2.251 0.419,-2.007C0.573,-1.775 0.676,-1.504 0.726,-1.195C0.772,-0.983 0.795,-0.645 0.795,-0.181L-2.552,-0.181C-2.538,0.288 -2.429,0.663 -2.224,0.946C-2.02,1.229 -1.703,1.371 -1.273,1.371C-0.872,1.371 -0.553,1.236 -0.314,0.969C-0.18,0.813 -0.086,0.634 -0.03,0.43L0.73,0.43C0.71,0.598 0.643,0.786 0.531,0.995C0.418,1.202 0.291,1.372 0.153,1.504C-0.082,1.733 -0.37,1.887 -0.713,1.968C-0.898,2.014 -1.108,2.037 -1.341,2.037C-1.91,2.037 -2.392,1.828 -2.789,1.411C-3.184,0.995 -3.382,0.41 -3.382,-0.34C-3.382,-1.079 -3.182,-1.679 -2.783,-2.14C-2.385,-2.602 -1.864,-2.832 -1.22,-2.832C-0.896,-2.832 -0.582,-2.755 -0.277,-2.602" style="fill:rgb(35,31,32);fill-rule:nonzero;"/>
        </g>
        <g transform="matrix(1,0,0,1,199.478,92.1239)">
            <path d="M0,1.659C0.024,1.917 0.089,2.114 0.198,2.252C0.396,2.501 0.741,2.626 1.232,2.626C1.524,2.626 1.782,2.563 2.004,2.439C2.227,2.314 2.337,2.121 2.337,1.861C2.337,1.663 2.248,1.513 2.071,1.41C1.957,1.346 1.734,1.273 1.399,1.191L0.775,1.036C0.375,0.938 0.082,0.83 -0.107,0.709C-0.446,0.5 -0.614,0.211 -0.614,-0.159C-0.614,-0.595 -0.455,-0.947 -0.137,-1.216C0.18,-1.485 0.608,-1.62 1.145,-1.62C1.848,-1.62 2.354,-1.416 2.664,-1.009C2.858,-0.752 2.953,-0.474 2.948,-0.176L2.217,-0.176C2.202,-0.35 2.14,-0.508 2.028,-0.651C1.847,-0.853 1.531,-0.954 1.083,-0.954C0.783,-0.954 0.556,-0.898 0.403,-0.787C0.249,-0.675 0.172,-0.528 0.172,-0.345C0.172,-0.146 0.273,0.014 0.475,0.134C0.592,0.206 0.764,0.268 0.992,0.323L1.512,0.447C2.079,0.582 2.459,0.712 2.651,0.838C2.952,1.036 3.102,1.346 3.102,1.771C3.102,2.18 2.946,2.533 2.631,2.832C2.316,3.13 1.837,3.279 1.192,3.279C0.5,3.279 0.009,3.123 -0.28,2.813C-0.568,2.501 -0.723,2.117 -0.743,1.659L0,1.659Z" style="fill:rgb(35,31,32);fill-rule:nonzero;"/>
        </g>
        <g transform="matrix(1,0,0,1,203.573,95.2999)">
            <path d="M0,-5.96L0.782,-5.96L0.782,-4.675L1.517,-4.675L1.517,-4.044L0.782,-4.044L0.782,-1.04C0.782,-0.88 0.837,-0.773 0.945,-0.718C1.005,-0.687 1.105,-0.671 1.246,-0.671C1.284,-0.671 1.323,-0.672 1.366,-0.674C1.409,-0.676 1.46,-0.68 1.517,-0.688L1.517,-0.073C1.428,-0.048 1.335,-0.029 1.24,-0.017C1.144,-0.006 1.04,0 0.928,0C0.567,0 0.322,-0.093 0.193,-0.277C0.064,-0.462 0,-0.703 0,-0.997L0,-4.044L-0.623,-4.044L-0.623,-4.675L0,-4.675L0,-5.96Z" style="fill:rgb(35,31,32);fill-rule:nonzero;"/>
        </g>
        <g transform="matrix(1,0,0,1,205.884,95.1237)">
            <path d="M0,-4.499L0.735,-4.499L0.735,-3.704C0.795,-3.859 0.942,-4.048 1.177,-4.269C1.413,-4.491 1.683,-4.602 1.989,-4.602C2.003,-4.602 2.028,-4.601 2.063,-4.598C2.097,-4.596 2.156,-4.589 2.239,-4.581L2.239,-3.764C2.192,-3.773 2.151,-3.779 2.112,-3.781C2.073,-3.785 2.031,-3.786 1.985,-3.786C1.595,-3.786 1.297,-3.661 1.087,-3.41C0.878,-3.159 0.773,-2.87 0.773,-2.544L0.773,0.103L0,0.103L0,-4.499Z" style="fill:rgb(35,31,32);fill-rule:nonzero;"/>
        </g>
        <g transform="matrix(1,0,0,1,209.631,91.3635)">
            <path d="M0,3.167C0.163,3.296 0.357,3.36 0.58,3.36C0.852,3.36 1.116,3.297 1.371,3.171C1.8,2.963 2.015,2.621 2.015,2.146L2.015,1.525C1.921,1.585 1.799,1.635 1.651,1.675C1.502,1.715 1.357,1.744 1.214,1.761L0.745,1.821C0.466,1.859 0.255,1.917 0.114,1.997C-0.126,2.131 -0.245,2.345 -0.245,2.64C-0.245,2.863 -0.163,3.038 0,3.167M1.629,1.078C1.806,1.055 1.925,0.981 1.985,0.855C2.02,0.785 2.037,0.687 2.037,0.557C2.037,0.292 1.943,0.101 1.755,-0.019C1.568,-0.138 1.301,-0.197 0.952,-0.197C0.549,-0.197 0.263,-0.088 0.095,0.13C0,0.252 -0.061,0.431 -0.09,0.671L-0.812,0.671C-0.798,0.101 -0.614,-0.294 -0.261,-0.516C0.092,-0.74 0.503,-0.851 0.969,-0.851C1.509,-0.851 1.949,-0.747 2.287,-0.541C2.621,-0.335 2.789,-0.015 2.789,0.421L2.789,3.072C2.789,3.153 2.805,3.217 2.838,3.266C2.871,3.314 2.94,3.339 3.046,3.339C3.081,3.339 3.12,3.337 3.162,3.332C3.205,3.328 3.252,3.322 3.3,3.313L3.3,3.885C3.18,3.919 3.088,3.94 3.025,3.949C2.962,3.958 2.876,3.962 2.767,3.962C2.501,3.962 2.307,3.867 2.187,3.678C2.124,3.578 2.08,3.437 2.054,3.253C1.896,3.459 1.67,3.639 1.375,3.79C1.08,3.942 0.755,4.018 0.4,4.018C-0.027,4.018 -0.376,3.888 -0.647,3.629C-0.917,3.37 -1.053,3.047 -1.053,2.657C-1.053,2.231 -0.92,1.901 -0.653,1.666C-0.387,1.431 -0.038,1.287 0.395,1.232L1.629,1.078Z" style="fill:rgb(35,31,32);fill-rule:nonzero;"/>
        </g>
        <g transform="matrix(1,0,0,1,214.147,92.1239)">
            <path d="M0,1.659C0.024,1.917 0.089,2.114 0.198,2.252C0.396,2.501 0.741,2.626 1.232,2.626C1.524,2.626 1.782,2.563 2.005,2.439C2.227,2.314 2.338,2.121 2.338,1.861C2.338,1.663 2.248,1.513 2.071,1.41C1.957,1.346 1.734,1.273 1.399,1.191L0.775,1.036C0.375,0.938 0.082,0.83 -0.107,0.709C-0.446,0.5 -0.614,0.211 -0.614,-0.159C-0.614,-0.595 -0.455,-0.947 -0.137,-1.216C0.18,-1.485 0.608,-1.62 1.145,-1.62C1.848,-1.62 2.354,-1.416 2.664,-1.009C2.859,-0.752 2.953,-0.474 2.948,-0.176L2.217,-0.176C2.202,-0.35 2.14,-0.508 2.028,-0.651C1.847,-0.853 1.531,-0.954 1.083,-0.954C0.783,-0.954 0.556,-0.898 0.403,-0.787C0.249,-0.675 0.172,-0.528 0.172,-0.345C0.172,-0.146 0.273,0.014 0.475,0.134C0.592,0.206 0.764,0.268 0.992,0.323L1.512,0.447C2.079,0.582 2.459,0.712 2.651,0.838C2.952,1.036 3.102,1.346 3.102,1.771C3.102,2.18 2.946,2.533 2.631,2.832C2.316,3.13 1.837,3.279 1.192,3.279C0.5,3.279 0.009,3.123 -0.28,2.813C-0.568,2.501 -0.723,2.117 -0.743,1.659L0,1.659Z" style="fill:rgb(35,31,32);fill-rule:nonzero;"/>
        </g>
        <g transform="matrix(1,0,0,1,218.547,92.1239)">
            <path d="M0,1.659C0.024,1.917 0.089,2.114 0.198,2.252C0.396,2.501 0.741,2.626 1.232,2.626C1.524,2.626 1.782,2.563 2.004,2.439C2.227,2.314 2.337,2.121 2.337,1.861C2.337,1.663 2.248,1.513 2.071,1.41C1.957,1.346 1.734,1.273 1.399,1.191L0.775,1.036C0.375,0.938 0.082,0.83 -0.107,0.709C-0.446,0.5 -0.614,0.211 -0.614,-0.159C-0.614,-0.595 -0.455,-0.947 -0.138,-1.216C0.18,-1.485 0.608,-1.62 1.145,-1.62C1.848,-1.62 2.354,-1.416 2.664,-1.009C2.858,-0.752 2.953,-0.474 2.948,-0.176L2.217,-0.176C2.202,-0.35 2.14,-0.508 2.028,-0.651C1.847,-0.853 1.531,-0.954 1.083,-0.954C0.783,-0.954 0.556,-0.898 0.403,-0.787C0.249,-0.675 0.172,-0.528 0.172,-0.345C0.172,-0.146 0.273,0.014 0.475,0.134C0.592,0.206 0.764,0.268 0.992,0.323L1.512,0.447C2.079,0.582 2.459,0.712 2.651,0.838C2.952,1.036 3.102,1.346 3.102,1.771C3.102,2.18 2.945,2.533 2.631,2.832C2.316,3.13 1.837,3.279 1.192,3.279C0.5,3.279 0.009,3.123 -0.28,2.813C-0.568,2.501 -0.723,2.117 -0.743,1.659L0,1.659Z" style="fill:rgb(35,31,32);fill-rule:nonzero;"/>
        </g>
        <g transform="matrix(1,0,0,1,225.607,93.3533)">
            <path d="M0,-0.795C-0.031,-1.13 -0.104,-1.399 -0.217,-1.599C-0.428,-1.971 -0.779,-2.157 -1.27,-2.157C-1.622,-2.157 -1.917,-2.029 -2.156,-1.773C-2.394,-1.517 -2.521,-1.19 -2.535,-0.795L0,-0.795ZM-0.277,-2.602C0.028,-2.449 0.26,-2.251 0.419,-2.007C0.573,-1.775 0.676,-1.504 0.726,-1.195C0.772,-0.983 0.795,-0.645 0.795,-0.181L-2.552,-0.181C-2.538,0.288 -2.429,0.663 -2.224,0.946C-2.02,1.229 -1.703,1.371 -1.273,1.371C-0.872,1.371 -0.553,1.236 -0.314,0.969C-0.18,0.813 -0.086,0.634 -0.03,0.43L0.73,0.43C0.71,0.598 0.643,0.786 0.531,0.995C0.418,1.202 0.291,1.372 0.153,1.504C-0.082,1.733 -0.37,1.887 -0.713,1.968C-0.898,2.014 -1.108,2.037 -1.341,2.037C-1.91,2.037 -2.392,1.828 -2.789,1.411C-3.184,0.995 -3.382,0.41 -3.382,-0.34C-3.382,-1.079 -3.182,-1.679 -2.783,-2.14C-2.385,-2.602 -1.864,-2.832 -1.22,-2.832C-0.896,-2.832 -0.582,-2.755 -0.277,-2.602" style="fill:rgb(35,31,32);fill-rule:nonzero;"/>
        </g>
        <g transform="matrix(1,0,0,1,232.441,92.2904)">
            <path d="M0,-0.121C0.254,-0.322 0.38,-0.675 0.38,-1.178C0.38,-1.63 0.266,-1.967 0.039,-2.189C-0.189,-2.41 -0.479,-2.521 -0.831,-2.521C-1.21,-2.521 -1.509,-2.394 -1.732,-2.142C-1.954,-1.888 -2.065,-1.55 -2.065,-1.126C-2.065,-0.727 -1.967,-0.408 -1.772,-0.173C-1.578,0.064 -1.266,0.182 -0.84,0.182C-0.534,0.182 -0.254,0.081 0,-0.121M-2.013,1.445C-1.991,1.872 -1.825,2.167 -1.519,2.33C-1.361,2.416 -1.184,2.459 -0.986,2.459C-0.617,2.459 -0.302,2.305 -0.041,1.997C0.22,1.689 0.405,1.064 0.513,0.122C0.342,0.394 0.129,0.585 -0.125,0.695C-0.378,0.805 -0.651,0.861 -0.943,0.861C-1.536,0.861 -2.006,0.676 -2.35,0.307C-2.695,-0.062 -2.868,-0.538 -2.868,-1.118C-2.868,-1.676 -2.697,-2.167 -2.357,-2.591C-2.016,-3.014 -1.514,-3.225 -0.849,-3.225C0.048,-3.225 0.667,-2.822 1.008,-2.015C1.197,-1.571 1.291,-1.016 1.291,-0.349C1.291,0.404 1.178,1.071 0.952,1.653C0.577,2.619 -0.059,3.104 -0.956,3.104C-1.558,3.104 -2.014,2.946 -2.327,2.631C-2.639,2.315 -2.795,1.92 -2.795,1.445L-2.013,1.445Z" style="fill:rgb(35,31,32);fill-rule:nonzero;"/>
        </g>
        <g transform="matrix(1,0,0,1,140.496,104.328)">
            <path d="M0,-1.727C0.192,-1.918 0.288,-2.146 0.288,-2.41C0.288,-2.64 0.197,-2.851 0.013,-3.043C-0.17,-3.235 -0.448,-3.332 -0.823,-3.332C-1.195,-3.332 -1.463,-3.235 -1.629,-3.043C-1.795,-2.851 -1.878,-2.625 -1.878,-2.367C-1.878,-2.077 -1.77,-1.851 -1.557,-1.686C-1.342,-1.523 -1.089,-1.441 -0.797,-1.441C-0.457,-1.441 -0.191,-1.537 0,-1.727M0.144,1.315C0.38,1.122 0.498,0.834 0.498,0.449C0.498,0.052 0.377,-0.251 0.133,-0.457C-0.111,-0.664 -0.422,-0.767 -0.804,-0.767C-1.173,-0.767 -1.475,-0.661 -1.708,-0.451C-1.941,-0.24 -2.058,0.052 -2.058,0.424C-2.058,0.745 -1.952,1.022 -1.738,1.255C-1.524,1.489 -1.195,1.605 -0.748,1.605C-0.39,1.605 -0.092,1.509 0.144,1.315M-2.35,-1.467C-2.577,-1.696 -2.69,-1.993 -2.69,-2.361C-2.69,-2.818 -2.524,-3.213 -2.192,-3.542C-1.861,-3.871 -1.389,-4.037 -0.78,-4.037C-0.19,-4.037 0.272,-3.881 0.606,-3.57C0.941,-3.259 1.109,-2.896 1.109,-2.481C1.109,-2.097 1.011,-1.786 0.816,-1.549C0.708,-1.413 0.539,-1.282 0.309,-1.153C0.566,-1.035 0.767,-0.901 0.914,-0.749C1.187,-0.463 1.323,-0.09 1.323,0.368C1.323,0.909 1.142,1.369 0.778,1.745C0.414,2.122 -0.1,2.31 -0.765,2.31C-1.363,2.31 -1.87,2.148 -2.284,1.822C-2.697,1.498 -2.905,1.025 -2.905,0.406C-2.905,0.043 -2.816,-0.271 -2.638,-0.537C-2.461,-0.801 -2.197,-1.004 -1.848,-1.145C-2.063,-1.236 -2.23,-1.344 -2.35,-1.467" style="fill:rgb(35,31,32);fill-rule:nonzero;"/>
        </g>
        <g transform="matrix(1,0,0,1,145.53,101.547)">
            <path d="M0,3.845C0.238,3.491 0.358,2.829 0.358,1.86C0.358,1.162 0.272,0.586 0.1,0.135C-0.073,-0.317 -0.407,-0.542 -0.903,-0.542C-1.36,-0.542 -1.693,-0.327 -1.905,0.1C-2.115,0.529 -2.22,1.159 -2.22,1.993C-2.22,2.62 -2.153,3.125 -2.018,3.506C-1.811,4.088 -1.459,4.378 -0.959,4.378C-0.558,4.378 -0.237,4.201 0,3.845M0.779,-0.254C1.054,0.253 1.191,0.948 1.191,1.83C1.191,2.667 1.067,3.358 0.817,3.905C0.457,4.69 -0.133,5.083 -0.953,5.083C-1.692,5.083 -2.242,4.762 -2.603,4.12C-2.904,3.585 -3.054,2.865 -3.054,1.963C-3.054,1.265 -2.964,0.664 -2.783,0.163C-2.445,-0.771 -1.834,-1.238 -0.949,-1.238C-0.153,-1.238 0.423,-0.909 0.779,-0.254" style="fill:rgb(35,31,32);fill-rule:nonzero;"/>
        </g>
        <g transform="matrix(1,0,0,1,150.425,101.547)">
            <path d="M0,3.845C0.238,3.491 0.358,2.829 0.358,1.86C0.358,1.162 0.272,0.586 0.1,0.135C-0.073,-0.317 -0.407,-0.542 -0.903,-0.542C-1.36,-0.542 -1.693,-0.327 -1.905,0.1C-2.115,0.529 -2.22,1.159 -2.22,1.993C-2.22,2.62 -2.153,3.125 -2.018,3.506C-1.811,4.088 -1.459,4.378 -0.959,4.378C-0.558,4.378 -0.237,4.201 0,3.845M0.779,-0.254C1.054,0.253 1.191,0.948 1.191,1.83C1.191,2.667 1.067,3.358 0.817,3.905C0.457,4.69 -0.133,5.083 -0.953,5.083C-1.692,5.083 -2.242,4.762 -2.603,4.12C-2.904,3.585 -3.054,2.865 -3.054,1.963C-3.054,1.265 -2.964,0.664 -2.783,0.163C-2.445,-0.771 -1.834,-1.238 -0.949,-1.238C-0.153,-1.238 0.423,-0.909 0.779,-0.254" style="fill:rgb(35,31,32);fill-rule:nonzero;"/>
        </g>
        <g transform="matrix(1,0,0,1,155.421,101.381)">
            <path d="M0,4.142C0.202,3.869 0.303,3.546 0.303,3.173C0.303,2.858 0.213,2.559 0.032,2.273C-0.148,1.988 -0.476,1.845 -0.952,1.845C-1.284,1.845 -1.576,1.956 -1.826,2.176C-2.076,2.397 -2.202,2.729 -2.202,3.173C-2.202,3.563 -2.088,3.891 -1.861,4.155C-1.633,4.42 -1.317,4.552 -0.913,4.552C-0.506,4.552 -0.202,4.416 0,4.142M0.58,-0.563C0.851,-0.206 0.986,0.161 0.986,0.539L0.221,0.539C0.175,0.296 0.102,0.105 0.002,-0.032C-0.184,-0.29 -0.466,-0.419 -0.844,-0.419C-1.277,-0.419 -1.621,-0.219 -1.876,0.18C-2.13,0.58 -2.272,1.152 -2.301,1.897C-2.124,1.637 -1.9,1.441 -1.631,1.313C-1.385,1.199 -1.11,1.141 -0.806,1.141C-0.29,1.141 0.16,1.306 0.544,1.635C0.927,1.965 1.119,2.455 1.119,3.109C1.119,3.667 0.938,4.162 0.574,4.593C0.209,5.025 -0.308,5.24 -0.982,5.24C-1.558,5.24 -2.055,5.022 -2.473,4.585C-2.891,4.148 -3.1,3.413 -3.1,2.378C-3.1,1.613 -3.007,0.964 -2.821,0.432C-2.463,-0.588 -1.808,-1.098 -0.857,-1.098C-0.17,-1.098 0.309,-0.92 0.58,-0.563" style="fill:rgb(35,31,32);fill-rule:nonzero;"/>
        </g>
        <g transform="matrix(1,0,0,1,159.531,100.858)">
            <path d="M0,4.894L3.881,0.043L0.284,0.043L0.284,-0.709L4.984,-0.709L4.984,0.026L1.08,4.851L4.984,4.851L4.984,5.603L0,5.603L0,4.894Z" style="fill:rgb(35,31,32);fill-rule:nonzero;"/>
        </g>
        <g transform="matrix(1,0,0,1,0,62.839)">
            <path d="M167.467,37.414L168.271,37.414L168.271,38.308L167.467,38.308L167.467,37.414ZM166.049,37.414L166.853,37.414L166.853,38.308L166.049,38.308L166.049,37.414ZM166.045,39.021L166.045,42.076C166.045,42.311 166.081,42.503 166.153,42.651C166.288,42.926 166.537,43.064 166.903,43.064C167.427,43.064 167.784,42.823 167.974,42.342C168.077,42.084 168.129,41.731 168.129,41.281L168.129,39.021L168.902,39.021L168.902,43.622L168.172,43.622L168.18,42.944C168.082,43.119 167.959,43.266 167.813,43.386C167.524,43.627 167.173,43.747 166.759,43.747C166.116,43.747 165.678,43.528 165.444,43.09C165.318,42.855 165.254,42.542 165.254,42.149L165.254,39.021L166.045,39.021Z" style="fill:rgb(35,31,32);fill-rule:nonzero;"/>
        </g>
        <g transform="matrix(1,0,0,1,170.187,106.358)">
            <path d="M0,-4.499L0.735,-4.499L0.735,-3.704C0.795,-3.859 0.942,-4.047 1.177,-4.269C1.413,-4.49 1.683,-4.602 1.989,-4.602C2.003,-4.602 2.028,-4.6 2.063,-4.598C2.097,-4.595 2.156,-4.589 2.239,-4.581L2.239,-3.764C2.192,-3.773 2.151,-3.778 2.112,-3.781C2.073,-3.784 2.031,-3.786 1.985,-3.786C1.595,-3.786 1.297,-3.66 1.087,-3.41C0.878,-3.158 0.773,-2.87 0.773,-2.544L0.773,0.103L0,0.103L0,-4.499Z" style="fill:rgb(35,31,32);fill-rule:nonzero;"/>
        </g>
        <g transform="matrix(1,0,0,1,0,62.61)">
            <path d="M173.096,39.271L173.882,39.271L173.882,43.851L173.096,43.851L173.096,39.271ZM173.096,37.539L173.882,37.539L173.882,38.416L173.096,38.416L173.096,37.539Z" style="fill:rgb(35,31,32);fill-rule:nonzero;"/>
        </g>
        <g transform="matrix(1,0,0,1,178.091,106.216)">
            <path d="M0,-4.112C0.325,-3.86 0.521,-3.426 0.587,-2.81L-0.165,-2.81C-0.212,-3.094 -0.316,-3.329 -0.479,-3.517C-0.642,-3.704 -0.904,-3.798 -1.265,-3.798C-1.758,-3.798 -2.111,-3.558 -2.322,-3.078C-2.46,-2.765 -2.529,-2.38 -2.529,-1.923C-2.529,-1.462 -2.431,-1.074 -2.237,-0.759C-2.042,-0.445 -1.735,-0.288 -1.317,-0.288C-0.996,-0.288 -0.742,-0.386 -0.554,-0.581C-0.366,-0.777 -0.237,-1.044 -0.165,-1.383L0.587,-1.383C0.501,-0.773 0.286,-0.326 -0.058,-0.045C-0.402,0.238 -0.841,0.378 -1.377,0.378C-1.979,0.378 -2.459,0.159 -2.817,-0.281C-3.174,-0.721 -3.354,-1.27 -3.354,-1.929C-3.354,-2.737 -3.157,-3.365 -2.765,-3.816C-2.373,-4.265 -1.872,-4.49 -1.265,-4.49C-0.747,-4.49 -0.325,-4.363 0,-4.112" style="fill:rgb(35,31,32);fill-rule:nonzero;"/>
        </g>
        <g transform="matrix(1,0,0,1,179.451,106.462)">
            <path d="M0,-6.334L0.773,-6.334L0.773,-3.979C0.957,-4.211 1.121,-4.375 1.268,-4.469C1.517,-4.632 1.827,-4.714 2.2,-4.714C2.867,-4.714 3.32,-4.48 3.558,-4.014C3.687,-3.758 3.751,-3.405 3.751,-2.952L3.751,0L2.956,0L2.956,-2.901C2.956,-3.238 2.913,-3.486 2.827,-3.644C2.687,-3.896 2.423,-4.022 2.037,-4.022C1.716,-4.022 1.425,-3.912 1.164,-3.691C0.903,-3.47 0.773,-3.053 0.773,-2.441L0.773,0L0,0L0,-6.334Z" style="fill:rgb(35,31,32);fill-rule:nonzero;"/>
        </g>
        <g transform="matrix(1,0,0,1,184.509,105.929)">
            <path d="M0,1.435C0.198,1.401 0.336,1.261 0.417,1.016C0.46,0.887 0.481,0.761 0.481,0.64C0.481,0.621 0.48,0.602 0.479,0.586C0.478,0.571 0.474,0.553 0.468,0.533L0,0.533L0,-0.404L0.92,-0.404L0.92,0.464C0.92,0.804 0.851,1.104 0.713,1.362C0.576,1.62 0.338,1.779 0,1.839L0,1.435Z" style="fill:rgb(35,31,32);fill-rule:nonzero;"/>
        </g>
        <g transform="matrix(1,0,0,1,189.897,102.212)">
            <path d="M0,2.213C0.019,2.572 0.101,2.862 0.244,3.085C0.518,3.504 0.999,3.713 1.689,3.713C1.998,3.713 2.279,3.667 2.533,3.575C3.024,3.398 3.27,3.08 3.27,2.621C3.27,2.277 3.166,2.033 2.957,1.886C2.747,1.744 2.417,1.619 1.967,1.513L1.139,1.319C0.597,1.194 0.215,1.055 -0.011,0.902C-0.399,0.639 -0.593,0.245 -0.593,-0.279C-0.593,-0.846 -0.402,-1.312 -0.02,-1.676C0.362,-2.039 0.902,-2.221 1.603,-2.221C2.246,-2.221 2.793,-2.061 3.243,-1.742C3.693,-1.422 3.919,-0.912 3.919,-0.21L3.115,-0.21C3.074,-0.548 2.986,-0.808 2.852,-0.988C2.602,-1.317 2.177,-1.482 1.579,-1.482C1.096,-1.482 0.748,-1.376 0.536,-1.164C0.324,-0.952 0.219,-0.706 0.219,-0.425C0.219,-0.116 0.344,0.111 0.594,0.254C0.757,0.346 1.128,0.46 1.706,0.597L2.563,0.799C2.977,0.897 3.296,1.03 3.52,1.199C3.909,1.494 4.104,1.923 4.104,2.484C4.104,3.183 3.855,3.683 3.36,3.983C2.864,4.284 2.288,4.434 1.631,4.434C0.866,4.434 0.266,4.235 -0.167,3.833C-0.599,3.435 -0.812,2.895 -0.804,2.213L0,2.213Z" style="fill:rgb(35,31,32);fill-rule:nonzero;"/>
        </g>
        <g transform="matrix(1,0,0,1,195.463,106.462)">
            <path d="M0,-4.602L0.885,-0.975L1.783,-4.602L2.651,-4.602L3.554,-0.997L4.495,-4.602L5.268,-4.602L3.932,0L3.128,0L2.191,-3.562L1.285,0L0.481,0L-0.846,-4.602L0,-4.602Z" style="fill:rgb(35,31,32);fill-rule:nonzero;"/>
        </g>
        <g transform="matrix(1,0,0,1,0,62.61)">
            <path d="M201.46,39.271L202.246,39.271L202.246,43.851L201.46,43.851L201.46,39.271ZM201.46,37.539L202.246,37.539L202.246,38.416L201.46,38.416L201.46,37.539Z" style="fill:rgb(35,31,32);fill-rule:nonzero;"/>
        </g>
        <g transform="matrix(1,0,0,1,203.569,106.535)">
            <path d="M0,-5.96L0.782,-5.96L0.782,-4.675L1.517,-4.675L1.517,-4.044L0.782,-4.044L0.782,-1.04C0.782,-0.879 0.837,-0.772 0.945,-0.718C1.005,-0.686 1.105,-0.671 1.246,-0.671C1.284,-0.671 1.323,-0.672 1.366,-0.673C1.409,-0.675 1.46,-0.68 1.517,-0.688L1.517,-0.073C1.428,-0.048 1.335,-0.029 1.24,-0.017C1.144,-0.006 1.04,0 0.928,0C0.567,0 0.322,-0.093 0.193,-0.277C0.064,-0.462 0,-0.702 0,-0.997L0,-4.044L-0.623,-4.044L-0.623,-4.675L0,-4.675L0,-5.96Z" style="fill:rgb(35,31,32);fill-rule:nonzero;"/>
        </g>
        <g transform="matrix(1,0,0,1,205.516,102.469)">
            <path d="M0,3.382L2.733,0.082L0.202,0.082L0.202,-0.61L3.773,-0.61L3.773,0.022L1.057,3.3L3.854,3.3L3.854,3.992L0,3.992L0,3.382Z" style="fill:rgb(35,31,32);fill-rule:nonzero;"/>
        </g>
        <g transform="matrix(1,0,0,1,213.379,104.588)">
            <path d="M0,-0.795C-0.031,-1.13 -0.104,-1.398 -0.217,-1.599C-0.428,-1.97 -0.779,-2.157 -1.27,-2.157C-1.622,-2.157 -1.917,-2.028 -2.156,-1.773C-2.394,-1.516 -2.521,-1.19 -2.535,-0.795L0,-0.795ZM-0.277,-2.602C0.028,-2.448 0.26,-2.249 0.419,-2.007C0.573,-1.775 0.676,-1.504 0.726,-1.195C0.772,-0.982 0.795,-0.645 0.795,-0.181L-2.552,-0.181C-2.538,0.288 -2.429,0.664 -2.224,0.946C-2.02,1.23 -1.703,1.371 -1.273,1.371C-0.872,1.371 -0.553,1.237 -0.314,0.97C-0.18,0.814 -0.086,0.634 -0.03,0.43L0.73,0.43C0.71,0.599 0.643,0.787 0.531,0.995C0.418,1.203 0.291,1.373 0.153,1.504C-0.082,1.734 -0.37,1.887 -0.713,1.968C-0.898,2.014 -1.108,2.037 -1.341,2.037C-1.91,2.037 -2.392,1.828 -2.789,1.411C-3.184,0.995 -3.382,0.411 -3.382,-0.34C-3.382,-1.079 -3.182,-1.678 -2.783,-2.14C-2.385,-2.601 -1.864,-2.832 -1.22,-2.832C-0.896,-2.832 -0.582,-2.754 -0.277,-2.602" style="fill:rgb(35,31,32);fill-rule:nonzero;"/>
        </g>
        <g transform="matrix(1,0,0,1,215.175,106.358)">
            <path d="M0,-4.499L0.735,-4.499L0.735,-3.704C0.795,-3.859 0.942,-4.047 1.177,-4.269C1.413,-4.49 1.683,-4.602 1.989,-4.602C2.003,-4.602 2.028,-4.6 2.063,-4.598C2.097,-4.595 2.156,-4.589 2.239,-4.581L2.239,-3.764C2.192,-3.773 2.151,-3.778 2.112,-3.781C2.073,-3.784 2.031,-3.786 1.985,-3.786C1.595,-3.786 1.297,-3.66 1.087,-3.41C0.878,-3.158 0.773,-2.87 0.773,-2.544L0.773,0.103L0,0.103L0,-4.499Z" style="fill:rgb(35,31,32);fill-rule:nonzero;"/>
        </g>
        <g transform="matrix(1,0,0,1,0,62.61)">
            <rect x="218.106" y="37.539" width="0.773" height="6.312" style="fill:rgb(35,31,32);"/>
        </g>
        <g transform="matrix(1,0,0,1,220.877,102.597)">
            <path d="M0,3.169C0.163,3.297 0.357,3.361 0.58,3.361C0.852,3.361 1.116,3.299 1.371,3.173C1.8,2.964 2.015,2.622 2.015,2.147L2.015,1.525C1.921,1.586 1.799,1.636 1.651,1.676C1.502,1.717 1.357,1.746 1.214,1.763L0.746,1.822C0.466,1.86 0.255,1.919 0.114,1.998C-0.126,2.132 -0.245,2.347 -0.245,2.642C-0.245,2.864 -0.163,3.04 0,3.169M1.629,1.08C1.806,1.056 1.925,0.982 1.985,0.856C2.02,0.787 2.037,0.688 2.037,0.559C2.037,0.294 1.943,0.102 1.755,-0.017C1.568,-0.136 1.301,-0.197 0.952,-0.197C0.549,-0.197 0.263,-0.087 0.095,0.132C0,0.252 -0.061,0.433 -0.09,0.671L-0.812,0.671C-0.798,0.103 -0.614,-0.293 -0.261,-0.516C0.092,-0.738 0.503,-0.85 0.969,-0.85C1.509,-0.85 1.949,-0.747 2.287,-0.54C2.621,-0.334 2.789,-0.013 2.789,0.422L2.789,3.073C2.789,3.154 2.805,3.218 2.838,3.267C2.871,3.316 2.94,3.34 3.046,3.34C3.081,3.34 3.12,3.338 3.163,3.333C3.205,3.329 3.252,3.323 3.3,3.314L3.3,3.886C3.18,3.92 3.088,3.941 3.025,3.95C2.962,3.959 2.876,3.963 2.767,3.963C2.501,3.963 2.307,3.868 2.187,3.679C2.124,3.579 2.08,3.438 2.054,3.254C1.896,3.46 1.67,3.64 1.375,3.791C1.08,3.942 0.755,4.019 0.4,4.019C-0.027,4.019 -0.376,3.889 -0.647,3.631C-0.917,3.372 -1.053,3.048 -1.053,2.659C-1.053,2.232 -0.92,1.901 -0.653,1.667C-0.387,1.433 -0.038,1.288 0.395,1.233L1.629,1.08Z" style="fill:rgb(35,31,32);fill-rule:nonzero;"/>
        </g>
        <g transform="matrix(1,0,0,1,224.934,106.358)">
            <path d="M0,-4.499L0.735,-4.499L0.735,-3.846C0.953,-4.114 1.183,-4.308 1.427,-4.426C1.67,-4.543 1.941,-4.602 2.239,-4.602C2.892,-4.602 3.333,-4.374 3.562,-3.919C3.688,-3.67 3.751,-3.313 3.751,-2.849L3.751,0.103L2.965,0.103L2.965,-2.797C2.965,-3.078 2.923,-3.304 2.84,-3.476C2.703,-3.762 2.454,-3.906 2.093,-3.906C1.909,-3.906 1.758,-3.887 1.641,-3.85C1.43,-3.787 1.243,-3.661 1.083,-3.472C0.954,-3.32 0.87,-3.163 0.831,-3.002C0.793,-2.839 0.773,-2.608 0.773,-2.308L0.773,0.103L0,0.103L0,-4.499Z" style="fill:rgb(35,31,32);fill-rule:nonzero;"/>
        </g>
        <g transform="matrix(1,0,0,1,230.629,101.301)">
            <path d="M0,4.151C0.208,4.484 0.542,4.649 1.001,4.649C1.357,4.649 1.65,4.496 1.88,4.188C2.109,3.88 2.224,3.438 2.224,2.862C2.224,2.281 2.105,1.85 1.869,1.571C1.632,1.291 1.341,1.152 0.993,1.152C0.605,1.152 0.29,1.301 0.049,1.599C-0.191,1.897 -0.312,2.336 -0.312,2.913C-0.312,3.407 -0.207,3.819 0,4.151M1.727,0.701C1.864,0.787 2.02,0.937 2.194,1.152L2.194,-1.173L2.937,-1.173L2.937,5.161L2.241,5.161L2.241,4.521C2.061,4.804 1.849,5.009 1.603,5.135C1.358,5.261 1.076,5.324 0.759,5.324C0.249,5.324 -0.193,5.109 -0.567,4.677C-0.941,4.247 -1.128,3.673 -1.128,2.956C-1.128,2.286 -0.957,1.706 -0.617,1.214C-0.275,0.723 0.212,0.477 0.845,0.477C1.197,0.477 1.49,0.552 1.727,0.701" style="fill:rgb(35,31,32);fill-rule:nonzero;"/>
        </g>
        <g transform="matrix(1,0,0,1,171.687,119.715)">
            <path d="M0,-8.211C-0.45,-7.338 -0.742,-6.694 -0.877,-6.282C-1.08,-5.654 -1.182,-4.929 -1.182,-4.107C-1.182,-3.277 -1.066,-2.518 -0.834,-1.83C-0.691,-1.406 -0.408,-0.796 0.013,0L-0.507,0C-0.925,-0.653 -1.185,-1.07 -1.285,-1.25C-1.385,-1.431 -1.494,-1.675 -1.611,-1.985C-1.771,-2.409 -1.883,-2.861 -1.946,-3.343C-1.978,-3.592 -1.994,-3.829 -1.994,-4.056C-1.994,-4.903 -1.861,-5.659 -1.594,-6.32C-1.425,-6.741 -1.073,-7.372 -0.537,-8.211L0,-8.211Z" style="fill:rgb(35,31,32);fill-rule:nonzero;"/>
        </g>
        <g transform="matrix(1,0,0,1,174.922,113.928)">
            <path d="M0,1.813L0,-0.982L-1.972,1.813L0,1.813ZM0.013,3.992L0.013,2.488L-2.686,2.488L-2.686,1.731L0.133,-2.179L0.786,-2.179L0.786,1.813L1.693,1.813L1.693,2.488L0.786,2.488L0.786,3.992L0.013,3.992Z" style="fill:rgb(35,31,32);fill-rule:nonzero;"/>
        </g>
        <g transform="matrix(1,0,0,1,177.75,116.15)">
            <path d="M0,-2.587L0,-3.18C0.559,-3.235 0.949,-3.325 1.169,-3.453C1.389,-3.581 1.554,-3.881 1.663,-4.357L2.273,-4.357L2.273,1.77L1.448,1.77L1.448,-2.587L0,-2.587Z" style="fill:rgb(35,31,32);fill-rule:nonzero;"/>
        </g>
        <g transform="matrix(1,0,0,1,184.71,113.928)">
            <path d="M0,1.813L0,-0.982L-1.972,1.813L0,1.813ZM0.013,3.992L0.013,2.488L-2.686,2.488L-2.686,1.731L0.133,-2.179L0.786,-2.179L0.786,1.813L1.693,1.813L1.693,2.488L0.786,2.488L0.786,3.992L0.013,3.992Z" style="fill:rgb(35,31,32);fill-rule:nonzero;"/>
        </g>
        <g transform="matrix(1,0,0,1,187.001,111.505)">
            <path d="M0,8.211C0.455,7.323 0.749,6.676 0.881,6.269C1.082,5.653 1.182,4.931 1.182,4.103C1.182,3.275 1.066,2.518 0.834,1.83C0.691,1.406 0.408,0.796 -0.013,0L0.507,0C0.949,0.704 1.215,1.139 1.308,1.304C1.402,1.468 1.503,1.696 1.611,1.985C1.749,2.343 1.847,2.697 1.906,3.046C1.965,3.395 1.994,3.733 1.994,4.056C1.994,4.903 1.859,5.66 1.59,6.325C1.421,6.751 1.07,7.381 0.537,8.211L0,8.211Z" style="fill:rgb(35,31,32);fill-rule:nonzero;"/>
        </g>
        <g transform="matrix(1,0,0,1,194.98,113.928)">
            <path d="M0,1.813L0,-0.982L-1.972,1.813L0,1.813ZM0.013,3.992L0.013,2.488L-2.686,2.488L-2.686,1.731L0.133,-2.179L0.786,-2.179L0.786,1.813L1.693,1.813L1.693,2.488L0.786,2.488L0.786,3.992L0.013,3.992Z" style="fill:rgb(35,31,32);fill-rule:nonzero;"/>
        </g>
        <g transform="matrix(1,0,0,1,198.052,113.592)">
            <path d="M0,2.759C0.052,3.2 0.257,3.506 0.614,3.674C0.798,3.76 1.01,3.803 1.25,3.803C1.709,3.803 2.049,3.657 2.269,3.365C2.489,3.073 2.6,2.749 2.6,2.394C2.6,1.964 2.469,1.632 2.206,1.397C1.944,1.162 1.63,1.045 1.263,1.045C0.997,1.045 0.768,1.096 0.578,1.199C0.388,1.302 0.225,1.445 0.09,1.629L-0.58,1.59L-0.112,-1.723L3.085,-1.723L3.085,-0.975L0.468,-0.975L0.206,0.735C0.349,0.627 0.486,0.545 0.614,0.49C0.843,0.396 1.109,0.348 1.409,0.348C1.973,0.348 2.452,0.53 2.845,0.894C3.237,1.258 3.433,1.719 3.433,2.278C3.433,2.859 3.254,3.372 2.894,3.816C2.534,4.26 1.96,4.482 1.173,4.482C0.671,4.482 0.229,4.341 -0.157,4.059C-0.542,3.776 -0.757,3.343 -0.804,2.759L0,2.759Z" style="fill:rgb(35,31,32);fill-rule:nonzero;"/>
        </g>
        <g transform="matrix(1,0,0,1,204.768,113.928)">
            <path d="M0,1.813L0,-0.982L-1.972,1.813L0,1.813ZM0.013,3.992L0.013,2.488L-2.686,2.488L-2.686,1.731L0.133,-2.179L0.786,-2.179L0.786,1.813L1.693,1.813L1.693,2.488L0.786,2.488L0.786,3.992L0.013,3.992Z" style="fill:rgb(35,31,32);fill-rule:nonzero;"/>
        </g>
        <g transform="matrix(1,0,0,1,0,86.937)">
            <rect x="207.119" y="28.134" width="2.157" height="0.795" style="fill:rgb(35,31,32);"/>
        </g>
        <g transform="matrix(1,0,0,1,213.013,113.005)">
            <path d="M0,3.845C0.238,3.489 0.358,2.828 0.358,1.86C0.358,1.161 0.272,0.586 0.1,0.135C-0.073,-0.317 -0.407,-0.542 -0.903,-0.542C-1.36,-0.542 -1.693,-0.328 -1.905,0.1C-2.115,0.529 -2.22,1.159 -2.22,1.993C-2.22,2.62 -2.153,3.124 -2.018,3.506C-1.811,4.087 -1.459,4.378 -0.959,4.378C-0.558,4.378 -0.237,4.201 0,3.845M0.779,-0.254C1.054,0.253 1.191,0.948 1.191,1.83C1.191,2.667 1.067,3.358 0.817,3.905C0.457,4.69 -0.133,5.083 -0.953,5.083C-1.692,5.083 -2.242,4.761 -2.603,4.12C-2.904,3.584 -3.054,2.865 -3.054,1.963C-3.054,1.264 -2.964,0.664 -2.783,0.163C-2.445,-0.771 -1.834,-1.238 -0.949,-1.238C-0.153,-1.238 0.423,-0.911 0.779,-0.254" style="fill:rgb(35,31,32);fill-rule:nonzero;"/>
        </g>
        <g transform="matrix(1,0,0,1,217.487,113.928)">
            <path d="M0,1.813L0,-0.982L-1.972,1.813L0,1.813ZM0.013,3.992L0.013,2.488L-2.686,2.488L-2.686,1.731L0.133,-2.179L0.786,-2.179L0.786,1.813L1.693,1.813L1.693,2.488L0.786,2.488L0.786,3.992L0.013,3.992Z" style="fill:rgb(35,31,32);fill-rule:nonzero;"/>
        </g>
        <g transform="matrix(1,0,0,1,224.074,117.92)">
            <path d="M0,-6.05L0,-5.375C-0.198,-5.183 -0.461,-4.85 -0.788,-4.374C-1.116,-3.898 -1.406,-3.386 -1.659,-2.836C-1.908,-2.3 -2.097,-1.812 -2.226,-1.371C-2.309,-1.087 -2.416,-0.631 -2.548,0L-3.403,0C-3.209,-1.174 -2.779,-2.343 -2.114,-3.506C-1.722,-4.188 -1.309,-4.777 -0.877,-5.272L-4.28,-5.272L-4.28,-6.05L0,-6.05Z" style="fill:rgb(35,31,32);fill-rule:nonzero;"/>
        </g>
        <g transform="matrix(1,0,0,1,227.695,113.005)">
            <path d="M0,3.845C0.238,3.489 0.358,2.828 0.358,1.86C0.358,1.161 0.272,0.586 0.1,0.135C-0.073,-0.317 -0.407,-0.542 -0.903,-0.542C-1.36,-0.542 -1.693,-0.328 -1.905,0.1C-2.115,0.529 -2.22,1.159 -2.22,1.993C-2.22,2.62 -2.153,3.124 -2.018,3.506C-1.811,4.087 -1.459,4.378 -0.959,4.378C-0.558,4.378 -0.237,4.201 0,3.845M0.779,-0.254C1.054,0.253 1.191,0.948 1.191,1.83C1.191,2.667 1.067,3.358 0.817,3.905C0.457,4.69 -0.133,5.083 -0.953,5.083C-1.692,5.083 -2.242,4.761 -2.603,4.12C-2.904,3.584 -3.054,2.865 -3.054,1.963C-3.054,1.264 -2.964,0.664 -2.783,0.163C-2.445,-0.771 -1.834,-1.238 -0.949,-1.238C-0.153,-1.238 0.423,-0.911 0.779,-0.254" style="fill:rgb(35,31,32);fill-rule:nonzero;"/>
        </g>
        <g transform="matrix(1,0,0,1,232.589,113.005)">
            <path d="M0,3.845C0.238,3.489 0.358,2.828 0.358,1.86C0.358,1.161 0.272,0.586 0.1,0.135C-0.073,-0.317 -0.407,-0.542 -0.903,-0.542C-1.36,-0.542 -1.693,-0.328 -1.905,0.1C-2.115,0.529 -2.22,1.159 -2.22,1.993C-2.22,2.62 -2.153,3.124 -2.018,3.506C-1.811,4.087 -1.459,4.378 -0.959,4.378C-0.558,4.378 -0.237,4.201 0,3.845M0.779,-0.254C1.054,0.253 1.191,0.948 1.191,1.83C1.191,2.667 1.067,3.358 0.817,3.905C0.457,4.69 -0.133,5.083 -0.953,5.083C-1.692,5.083 -2.242,4.761 -2.603,4.12C-2.904,3.584 -3.054,2.865 -3.054,1.963C-3.054,1.264 -2.964,0.664 -2.783,0.163C-2.445,-0.771 -1.834,-1.238 -0.949,-1.238C-0.153,-1.238 0.423,-0.911 0.779,-0.254" style="fill:rgb(35,31,32);fill-rule:nonzero;"/>
        </g>
        <g transform="matrix(1,0,0,1,0,110.854)">
            <path d="M108.213,13.383L107.44,13.383L107.44,12.489L108.213,12.489L108.213,13.383ZM106.709,19.966C107.056,19.954 107.264,19.924 107.334,19.873C107.404,19.823 107.439,19.666 107.439,19.403L107.439,14.221L108.213,14.221L108.213,19.484C108.213,19.82 108.158,20.07 108.049,20.236C107.869,20.517 107.526,20.657 107.022,20.657C106.985,20.657 106.946,20.656 106.904,20.653C106.862,20.65 106.798,20.645 106.709,20.636L106.709,19.966Z" style="fill:rgb(35,31,32);fill-rule:nonzero;"/>
        </g>
        <g transform="matrix(1,0,0,1,109.394,129.552)">
            <path d="M0,-4.499L0.765,-4.499L0.765,-3.846C0.949,-4.073 1.114,-4.237 1.263,-4.34C1.518,-4.515 1.808,-4.602 2.131,-4.602C2.498,-4.602 2.793,-4.512 3.016,-4.331C3.142,-4.228 3.257,-4.077 3.36,-3.876C3.532,-4.122 3.734,-4.305 3.966,-4.424C4.198,-4.543 4.459,-4.602 4.748,-4.602C5.367,-4.602 5.788,-4.379 6.011,-3.932C6.132,-3.691 6.192,-3.368 6.192,-2.961L6.192,0.103L5.388,0.103L5.388,-3.094C5.388,-3.4 5.312,-3.611 5.158,-3.726C5.005,-3.84 4.818,-3.897 4.598,-3.897C4.294,-3.897 4.033,-3.795 3.813,-3.592C3.594,-3.389 3.485,-3.05 3.485,-2.574L3.485,0.103L2.698,0.103L2.698,-2.901C2.698,-3.213 2.661,-3.441 2.587,-3.584C2.47,-3.799 2.25,-3.906 1.929,-3.906C1.637,-3.906 1.372,-3.793 1.132,-3.567C0.893,-3.34 0.773,-2.931 0.773,-2.338L0.773,0.103L0,0.103L0,-4.499Z" style="fill:rgb(35,31,32);fill-rule:nonzero;"/>
        </g>
        <g transform="matrix(1,0,0,1,119.618,124.504)">
            <path d="M0,4.116C0.208,3.784 0.313,3.346 0.313,2.801C0.313,2.317 0.208,1.916 0,1.598C-0.208,1.28 -0.516,1.121 -0.921,1.121C-1.274,1.121 -1.583,1.251 -1.85,1.512C-2.115,1.773 -2.248,2.203 -2.248,2.801C-2.248,3.234 -2.194,3.584 -2.085,3.854C-1.881,4.361 -1.5,4.614 -0.942,4.614C-0.522,4.614 -0.208,4.448 0,4.116M-2.957,-1.182L-2.205,-1.182L-2.205,1.108C-2.036,0.888 -1.833,0.719 -1.597,0.603C-1.361,0.487 -1.105,0.429 -0.829,0.429C-0.255,0.429 0.213,0.626 0.57,1.02C0.928,1.414 1.108,1.994 1.108,2.762C1.108,3.49 0.93,4.095 0.577,4.576C0.223,5.057 -0.267,5.298 -0.894,5.298C-1.245,5.298 -1.542,5.213 -1.782,5.044C-1.926,4.944 -2.08,4.783 -2.244,4.563L-2.244,5.152L-2.957,5.152L-2.957,-1.182Z" style="fill:rgb(35,31,32);fill-rule:nonzero;"/>
        </g>
        <g transform="matrix(1,0,0,1,121.641,129.552)">
            <path d="M0,-4.499L0.735,-4.499L0.735,-3.704C0.795,-3.859 0.942,-4.047 1.177,-4.269C1.413,-4.491 1.683,-4.602 1.989,-4.602C2.003,-4.602 2.028,-4.601 2.063,-4.598C2.097,-4.595 2.156,-4.589 2.239,-4.581L2.239,-3.764C2.192,-3.773 2.151,-3.778 2.112,-3.781C2.073,-3.785 2.031,-3.786 1.985,-3.786C1.595,-3.786 1.297,-3.66 1.087,-3.41C0.878,-3.159 0.773,-2.87 0.773,-2.544L0.773,0.103L0,0.103L0,-4.499Z" style="fill:rgb(35,31,32);fill-rule:nonzero;"/>
        </g>
        <g transform="matrix(1,0,0,1,127.404,126.167)">
            <path d="M0,2.404C0.188,2.016 0.283,1.584 0.283,1.11C0.283,0.681 0.215,0.332 0.078,0.062C-0.136,-0.361 -0.508,-0.573 -1.034,-0.573C-1.502,-0.573 -1.842,-0.392 -2.054,-0.032C-2.267,0.329 -2.373,0.764 -2.373,1.273C-2.373,1.762 -2.267,2.17 -2.054,2.496C-1.842,2.822 -1.505,2.985 -1.043,2.985C-0.536,2.985 -0.188,2.792 0,2.404M0.48,-0.654C0.887,-0.26 1.09,0.321 1.09,1.088C1.09,1.829 0.911,2.442 0.553,2.926C0.194,3.409 -0.362,3.651 -1.116,3.651C-1.745,3.651 -2.244,3.437 -2.614,3.01C-2.984,2.581 -3.168,2.007 -3.168,1.286C-3.168,0.513 -2.974,-0.102 -2.584,-0.561C-2.194,-1.018 -1.67,-1.247 -1.013,-1.247C-0.424,-1.247 0.073,-1.05 0.48,-0.654" style="fill:rgb(35,31,32);fill-rule:nonzero;"/>
        </g>
        <g transform="matrix(1,0,0,1,132.484,129.41)">
            <path d="M0,-4.112C0.325,-3.86 0.521,-3.426 0.587,-2.81L-0.165,-2.81C-0.212,-3.094 -0.316,-3.329 -0.479,-3.517C-0.642,-3.705 -0.904,-3.798 -1.265,-3.798C-1.758,-3.798 -2.111,-3.558 -2.322,-3.078C-2.46,-2.765 -2.529,-2.38 -2.529,-1.923C-2.529,-1.462 -2.431,-1.074 -2.237,-0.759C-2.042,-0.445 -1.735,-0.288 -1.317,-0.288C-0.996,-0.288 -0.742,-0.386 -0.554,-0.581C-0.366,-0.777 -0.237,-1.044 -0.165,-1.383L0.587,-1.383C0.501,-0.773 0.286,-0.328 -0.058,-0.045C-0.402,0.238 -0.841,0.378 -1.377,0.378C-1.979,0.378 -2.459,0.158 -2.817,-0.281C-3.174,-0.721 -3.354,-1.271 -3.354,-1.929C-3.354,-2.737 -3.157,-3.365 -2.765,-3.816C-2.373,-4.266 -1.872,-4.49 -1.265,-4.49C-0.747,-4.49 -0.325,-4.364 0,-4.112" style="fill:rgb(35,31,32);fill-rule:nonzero;"/>
        </g>
        <g transform="matrix(1,0,0,1,133.827,129.655)">
            <path d="M0,-6.312L0.743,-6.312L0.743,-2.647L2.726,-4.602L3.715,-4.602L1.946,-2.891L3.813,0L2.826,0L1.378,-2.342L0.743,-1.727L0.743,0L0,0L0,-6.312Z" style="fill:rgb(35,31,32);fill-rule:nonzero;"/>
        </g>
        <g transform="matrix(1,0,0,1,138.244,129.552)">
            <path d="M0,-4.499L0.765,-4.499L0.765,-3.846C0.949,-4.073 1.114,-4.237 1.263,-4.34C1.518,-4.515 1.808,-4.602 2.131,-4.602C2.498,-4.602 2.793,-4.512 3.016,-4.331C3.142,-4.228 3.257,-4.077 3.36,-3.876C3.532,-4.122 3.734,-4.305 3.966,-4.424C4.198,-4.543 4.459,-4.602 4.748,-4.602C5.367,-4.602 5.788,-4.379 6.011,-3.932C6.132,-3.691 6.192,-3.368 6.192,-2.961L6.192,0.103L5.388,0.103L5.388,-3.094C5.388,-3.4 5.312,-3.611 5.158,-3.726C5.005,-3.84 4.818,-3.897 4.598,-3.897C4.294,-3.897 4.033,-3.795 3.813,-3.592C3.594,-3.389 3.485,-3.05 3.485,-2.574L3.485,0.103L2.698,0.103L2.698,-2.901C2.698,-3.213 2.661,-3.441 2.587,-3.584C2.47,-3.799 2.25,-3.906 1.929,-3.906C1.637,-3.906 1.372,-3.793 1.132,-3.567C0.893,-3.34 0.773,-2.931 0.773,-2.338L0.773,0.103L0,0.103L0,-4.499Z" style="fill:rgb(35,31,32);fill-rule:nonzero;"/>
        </g>
        <g transform="matrix(1,0,0,1,146.412,125.792)">
            <path d="M0,3.167C0.163,3.296 0.357,3.36 0.58,3.36C0.852,3.36 1.116,3.297 1.371,3.171C1.8,2.963 2.015,2.621 2.015,2.146L2.015,1.525C1.921,1.585 1.799,1.635 1.651,1.675C1.502,1.716 1.357,1.744 1.214,1.761L0.746,1.821C0.466,1.859 0.255,1.917 0.114,1.997C-0.126,2.131 -0.245,2.346 -0.245,2.641C-0.245,2.863 -0.163,3.039 0,3.167M1.629,1.078C1.806,1.055 1.925,0.981 1.985,0.855C2.02,0.787 2.037,0.687 2.037,0.558C2.037,0.292 1.943,0.101 1.755,-0.018C1.568,-0.137 1.301,-0.197 0.952,-0.197C0.549,-0.197 0.263,-0.088 0.095,0.131C0,0.252 -0.061,0.432 -0.09,0.671L-0.812,0.671C-0.798,0.101 -0.614,-0.294 -0.261,-0.517C0.092,-0.739 0.503,-0.851 0.969,-0.851C1.509,-0.851 1.949,-0.747 2.287,-0.541C2.621,-0.335 2.789,-0.014 2.789,0.421L2.789,3.072C2.789,3.153 2.805,3.217 2.838,3.266C2.871,3.314 2.94,3.339 3.046,3.339C3.081,3.339 3.12,3.337 3.163,3.332C3.205,3.328 3.252,3.322 3.3,3.313L3.3,3.885C3.18,3.919 3.088,3.94 3.025,3.949C2.962,3.958 2.876,3.962 2.767,3.962C2.501,3.962 2.307,3.867 2.187,3.678C2.124,3.578 2.08,3.437 2.054,3.253C1.896,3.459 1.67,3.639 1.375,3.79C1.08,3.942 0.755,4.018 0.4,4.018C-0.027,4.018 -0.376,3.888 -0.647,3.629C-0.917,3.37 -1.053,3.047 -1.053,2.658C-1.053,2.231 -0.92,1.9 -0.653,1.666C-0.387,1.431 -0.038,1.287 0.395,1.232L1.629,1.078Z" style="fill:rgb(35,31,32);fill-rule:nonzero;"/>
        </g>
        <g transform="matrix(1,0,0,1,150.469,129.552)">
            <path d="M0,-4.499L0.735,-4.499L0.735,-3.846C0.953,-4.116 1.183,-4.309 1.427,-4.426C1.67,-4.543 1.941,-4.602 2.239,-4.602C2.892,-4.602 3.333,-4.374 3.562,-3.919C3.688,-3.67 3.751,-3.313 3.751,-2.849L3.751,0.103L2.965,0.103L2.965,-2.797C2.965,-3.078 2.923,-3.304 2.84,-3.476C2.703,-3.763 2.454,-3.906 2.093,-3.906C1.909,-3.906 1.758,-3.888 1.641,-3.85C1.43,-3.787 1.243,-3.661 1.083,-3.472C0.954,-3.321 0.87,-3.164 0.831,-3.002C0.793,-2.839 0.773,-2.608 0.773,-2.308L0.773,0.103L0,0.103L0,-4.499Z" style="fill:rgb(35,31,32);fill-rule:nonzero;"/>
        </g>
        <g transform="matrix(1,0,0,1,155.363,129.552)">
            <path d="M0,-4.499L0.735,-4.499L0.735,-3.846C0.953,-4.116 1.183,-4.309 1.427,-4.426C1.67,-4.543 1.941,-4.602 2.239,-4.602C2.892,-4.602 3.333,-4.374 3.562,-3.919C3.688,-3.67 3.751,-3.313 3.751,-2.849L3.751,0.103L2.965,0.103L2.965,-2.797C2.965,-3.078 2.923,-3.304 2.84,-3.476C2.703,-3.763 2.454,-3.906 2.093,-3.906C1.909,-3.906 1.758,-3.888 1.641,-3.85C1.43,-3.787 1.243,-3.661 1.083,-3.472C0.954,-3.321 0.87,-3.164 0.831,-3.002C0.793,-2.839 0.773,-2.608 0.773,-2.308L0.773,0.103L0,0.103L0,-4.499Z" style="fill:rgb(35,31,32);fill-rule:nonzero;"/>
        </g>
        <g transform="matrix(1,0,0,1,164.876,127.672)">
            <path d="M0,-2.333C-0.118,-2.475 -0.283,-2.546 -0.491,-2.546C-0.817,-2.546 -1.1,-2.353 -1.338,-1.968C-1.578,-1.582 -1.697,-1.2 -1.697,-0.818C-1.697,-0.538 -1.636,-0.323 -1.512,-0.176C-1.39,-0.029 -1.235,0.045 -1.049,0.045C-0.663,0.045 -0.362,-0.18 -0.146,-0.631C0.07,-1.083 0.178,-1.49 0.178,-1.854C0.178,-2.031 0.119,-2.191 0,-2.333M-3.442,1.046C-3.961,0.448 -4.22,-0.244 -4.22,-1.029C-4.22,-1.962 -3.905,-2.756 -3.274,-3.409C-2.575,-4.137 -1.637,-4.501 -0.46,-4.501C0.56,-4.501 1.362,-4.243 1.946,-3.727C2.493,-3.241 2.767,-2.609 2.767,-1.832C2.767,-1.179 2.572,-0.622 2.181,-0.159C1.79,0.304 1.352,0.535 0.868,0.535C0.584,0.535 0.375,0.467 0.241,0.331C0.106,0.195 0.039,0.031 0.039,-0.161C0.039,-0.192 0.042,-0.225 0.047,-0.26C0.053,-0.294 0.06,-0.33 0.069,-0.367C-0.083,-0.037 -0.275,0.195 -0.507,0.331C-0.739,0.467 -0.979,0.535 -1.225,0.535C-1.577,0.535 -1.863,0.407 -2.082,0.153C-2.301,-0.102 -2.411,-0.431 -2.411,-0.831C-2.411,-1.402 -2.224,-1.904 -1.85,-2.339C-1.476,-2.775 -1.074,-2.993 -0.645,-2.993C-0.352,-2.993 -0.111,-2.908 0.079,-2.739C0.27,-2.57 0.371,-2.366 0.382,-2.129L0.597,-2.851L1.229,-2.851L0.657,-0.969C0.614,-0.823 0.583,-0.706 0.563,-0.616C0.542,-0.527 0.533,-0.449 0.533,-0.38C0.533,-0.251 0.573,-0.158 0.651,-0.099C0.729,-0.04 0.82,-0.011 0.92,-0.011C1.246,-0.011 1.539,-0.181 1.798,-0.522C2.057,-0.862 2.187,-1.308 2.187,-1.858C2.187,-2.523 1.955,-3.045 1.491,-3.424C1.027,-3.804 0.403,-3.994 -0.382,-3.994C-1.471,-3.994 -2.303,-3.676 -2.879,-3.04C-3.372,-2.498 -3.618,-1.818 -3.618,-0.999C-3.618,-0.282 -3.383,0.319 -2.913,0.806C-2.363,1.382 -1.58,1.67 -0.563,1.67C-0.087,1.67 0.356,1.594 0.765,1.444C1.174,1.294 1.55,1.091 1.891,0.836L2.174,1.223C1.916,1.451 1.531,1.666 1.018,1.867C0.506,2.068 -0.059,2.168 -0.675,2.168C-1.872,2.168 -2.794,1.794 -3.442,1.046" style="fill:rgb(35,31,32);fill-rule:nonzero;"/>
        </g>
        <g transform="matrix(1,0,0,1,168.846,125.663)">
            <path d="M0,3.382L2.733,0.082L0.202,0.082L0.202,-0.61L3.773,-0.61L3.773,0.022L1.057,3.3L3.854,3.3L3.854,3.992L0,3.992L0,3.382Z" style="fill:rgb(35,31,32);fill-rule:nonzero;"/>
        </g>
        <g transform="matrix(1,0,0,1,174.364,129.78)">
            <path d="M0,-4.727L0,-1.672C0,-1.437 0.037,-1.245 0.109,-1.096C0.243,-0.821 0.492,-0.684 0.858,-0.684C1.383,-0.684 1.739,-0.924 1.929,-1.406C2.032,-1.663 2.084,-2.017 2.084,-2.467L2.084,-4.727L2.857,-4.727L2.857,-0.125L2.127,-0.125L2.136,-0.804C2.037,-0.629 1.914,-0.482 1.768,-0.361C1.479,-0.121 1.128,0 0.714,0C0.071,0 -0.367,-0.22 -0.6,-0.658C-0.727,-0.893 -0.791,-1.207 -0.791,-1.599L-0.791,-4.727L0,-4.727Z" style="fill:rgb(35,31,32);fill-rule:nonzero;"/>
        </g>
        <g transform="matrix(1,0,0,1,178.506,129.552)">
            <path d="M0,-4.499L0.735,-4.499L0.735,-3.704C0.795,-3.859 0.942,-4.047 1.177,-4.269C1.413,-4.491 1.683,-4.602 1.989,-4.602C2.003,-4.602 2.028,-4.601 2.063,-4.598C2.097,-4.595 2.156,-4.589 2.239,-4.581L2.239,-3.764C2.192,-3.773 2.151,-3.778 2.112,-3.781C2.073,-3.785 2.031,-3.786 1.985,-3.786C1.595,-3.786 1.297,-3.66 1.087,-3.41C0.878,-3.159 0.773,-2.87 0.773,-2.544L0.773,0.103L0,0.103L0,-4.499Z" style="fill:rgb(35,31,32);fill-rule:nonzero;"/>
        </g>
        <g transform="matrix(1,0,0,1,0,108.998)">
            <path d="M181.415,16.077L182.201,16.077L182.201,20.657L181.415,20.657L181.415,16.077ZM181.415,14.345L182.201,14.345L182.201,15.222L181.415,15.222L181.415,14.345Z" style="fill:rgb(35,31,32);fill-rule:nonzero;"/>
        </g>
        <g transform="matrix(1,0,0,1,186.41,129.41)">
            <path d="M0,-4.112C0.325,-3.86 0.521,-3.426 0.587,-2.81L-0.165,-2.81C-0.212,-3.094 -0.316,-3.329 -0.479,-3.517C-0.642,-3.705 -0.904,-3.798 -1.265,-3.798C-1.758,-3.798 -2.111,-3.558 -2.322,-3.078C-2.46,-2.765 -2.529,-2.38 -2.529,-1.923C-2.529,-1.462 -2.431,-1.074 -2.237,-0.759C-2.042,-0.445 -1.735,-0.288 -1.317,-0.288C-0.996,-0.288 -0.742,-0.386 -0.554,-0.581C-0.366,-0.777 -0.237,-1.044 -0.165,-1.383L0.587,-1.383C0.501,-0.773 0.286,-0.328 -0.058,-0.045C-0.402,0.238 -0.841,0.378 -1.377,0.378C-1.979,0.378 -2.459,0.158 -2.817,-0.281C-3.174,-0.721 -3.354,-1.271 -3.354,-1.929C-3.354,-2.737 -3.157,-3.365 -2.765,-3.816C-2.373,-4.266 -1.872,-4.49 -1.265,-4.49C-0.747,-4.49 -0.325,-4.364 0,-4.112" style="fill:rgb(35,31,32);fill-rule:nonzero;"/>
        </g>
        <g transform="matrix(1,0,0,1,187.753,129.655)">
            <path d="M0,-6.312L0.743,-6.312L0.743,-2.647L2.726,-4.602L3.715,-4.602L1.946,-2.891L3.813,0L2.826,0L1.378,-2.342L0.743,-1.727L0.743,0L0,0L0,-6.312Z" style="fill:rgb(35,31,32);fill-rule:nonzero;"/>
        </g>
        <g transform="matrix(1,0,0,1,192.63,126.552)">
            <path d="M0,1.659C0.024,1.917 0.089,2.114 0.198,2.252C0.396,2.501 0.741,2.626 1.232,2.626C1.524,2.626 1.782,2.563 2.004,2.439C2.227,2.314 2.337,2.122 2.337,1.861C2.337,1.663 2.248,1.513 2.071,1.41C1.957,1.346 1.734,1.273 1.399,1.191L0.775,1.036C0.375,0.938 0.082,0.83 -0.107,0.709C-0.446,0.5 -0.614,0.211 -0.614,-0.159C-0.614,-0.594 -0.455,-0.946 -0.137,-1.216C0.18,-1.485 0.608,-1.62 1.145,-1.62C1.848,-1.62 2.354,-1.416 2.664,-1.009C2.858,-0.752 2.953,-0.473 2.948,-0.176L2.217,-0.176C2.202,-0.35 2.14,-0.508 2.028,-0.651C1.847,-0.853 1.531,-0.953 1.083,-0.953C0.783,-0.953 0.556,-0.898 0.403,-0.787C0.249,-0.675 0.172,-0.528 0.172,-0.345C0.172,-0.146 0.273,0.014 0.475,0.134C0.592,0.206 0.764,0.268 0.992,0.323L1.512,0.447C2.079,0.582 2.459,0.713 2.651,0.838C2.952,1.036 3.102,1.346 3.102,1.771C3.102,2.18 2.946,2.534 2.631,2.832C2.316,3.13 1.837,3.279 1.192,3.279C0.5,3.279 0.009,3.123 -0.28,2.813C-0.568,2.502 -0.723,2.118 -0.743,1.659L0,1.659Z" style="fill:rgb(35,31,32);fill-rule:nonzero;"/>
        </g>
        <g transform="matrix(1,0,0,1,196.725,129.728)">
            <path d="M0,-5.96L0.782,-5.96L0.782,-4.675L1.517,-4.675L1.517,-4.044L0.782,-4.044L0.782,-1.04C0.782,-0.88 0.837,-0.773 0.945,-0.718C1.005,-0.687 1.105,-0.671 1.246,-0.671C1.284,-0.671 1.323,-0.672 1.366,-0.674C1.409,-0.675 1.46,-0.68 1.517,-0.688L1.517,-0.073C1.428,-0.047 1.335,-0.029 1.24,-0.017C1.144,-0.006 1.04,0 0.928,0C0.567,0 0.322,-0.093 0.193,-0.277C0.064,-0.462 0,-0.702 0,-0.997L0,-4.044L-0.623,-4.044L-0.623,-4.675L0,-4.675L0,-5.96Z" style="fill:rgb(35,31,32);fill-rule:nonzero;"/>
        </g>
        <g transform="matrix(1,0,0,1,199.788,129.78)">
            <path d="M0,-4.727L0,-1.672C0,-1.437 0.037,-1.245 0.109,-1.096C0.243,-0.821 0.492,-0.684 0.858,-0.684C1.383,-0.684 1.739,-0.924 1.929,-1.406C2.032,-1.663 2.084,-2.017 2.084,-2.467L2.084,-4.727L2.857,-4.727L2.857,-0.125L2.127,-0.125L2.136,-0.804C2.037,-0.629 1.914,-0.482 1.768,-0.361C1.479,-0.121 1.128,0 0.714,0C0.071,0 -0.367,-0.22 -0.6,-0.658C-0.727,-0.893 -0.791,-1.207 -0.791,-1.599L-0.791,-4.727L0,-4.727Z" style="fill:rgb(35,31,32);fill-rule:nonzero;"/>
        </g>
        <g transform="matrix(1,0,0,1,204.71,124.494)">
            <path d="M0,4.151C0.208,4.483 0.542,4.649 1.001,4.649C1.357,4.649 1.65,4.496 1.88,4.188C2.109,3.879 2.224,3.438 2.224,2.862C2.224,2.281 2.105,1.85 1.869,1.571C1.632,1.291 1.341,1.152 0.993,1.152C0.605,1.152 0.29,1.301 0.049,1.599C-0.191,1.896 -0.312,2.335 -0.312,2.913C-0.312,3.407 -0.207,3.819 0,4.151M1.727,0.701C1.864,0.787 2.02,0.937 2.194,1.152L2.194,-1.173L2.937,-1.173L2.937,5.161L2.241,5.161L2.241,4.521C2.061,4.804 1.849,5.009 1.603,5.135C1.358,5.261 1.076,5.324 0.759,5.324C0.249,5.324 -0.193,5.108 -0.567,4.677C-0.941,4.247 -1.128,3.673 -1.128,2.956C-1.128,2.286 -0.957,1.705 -0.617,1.214C-0.275,0.723 0.212,0.477 0.845,0.477C1.197,0.477 1.49,0.551 1.727,0.701" style="fill:rgb(35,31,32);fill-rule:nonzero;"/>
        </g>
        <g transform="matrix(1,0,0,1,0,108.998)">
            <path d="M208.803,16.077L209.589,16.077L209.589,20.657L208.803,20.657L208.803,16.077ZM208.803,14.345L209.589,14.345L209.589,15.222L208.803,15.222L208.803,14.345Z" style="fill:rgb(35,31,32);fill-rule:nonzero;"/>
        </g>
        <g transform="matrix(1,0,0,1,213.612,126.167)">
            <path d="M0,2.404C0.188,2.016 0.283,1.584 0.283,1.11C0.283,0.681 0.215,0.332 0.078,0.062C-0.136,-0.361 -0.508,-0.573 -1.034,-0.573C-1.502,-0.573 -1.842,-0.392 -2.054,-0.032C-2.267,0.329 -2.373,0.764 -2.373,1.273C-2.373,1.762 -2.267,2.17 -2.054,2.496C-1.842,2.822 -1.505,2.985 -1.043,2.985C-0.536,2.985 -0.188,2.792 0,2.404M0.48,-0.654C0.887,-0.26 1.09,0.321 1.09,1.088C1.09,1.829 0.911,2.442 0.553,2.926C0.194,3.409 -0.362,3.651 -1.116,3.651C-1.745,3.651 -2.243,3.437 -2.614,3.01C-2.983,2.581 -3.168,2.007 -3.168,1.286C-3.168,0.513 -2.973,-0.102 -2.583,-0.561C-2.194,-1.018 -1.67,-1.247 -1.013,-1.247C-0.424,-1.247 0.073,-1.05 0.48,-0.654" style="fill:rgb(35,31,32);fill-rule:nonzero;"/>
        </g>
        <g transform="matrix(1,0,0,1,0,114.373)">
            <rect x="215.837" y="14.345" width="0.898" height="0.937" style="fill:rgb(35,31,32);"/>
        </g>
        <g transform="matrix(1,0,0,1,221.137,129.41)">
            <path d="M0,-4.112C0.325,-3.86 0.521,-3.426 0.587,-2.81L-0.165,-2.81C-0.212,-3.094 -0.316,-3.329 -0.479,-3.517C-0.642,-3.705 -0.904,-3.798 -1.265,-3.798C-1.758,-3.798 -2.111,-3.558 -2.322,-3.078C-2.46,-2.765 -2.529,-2.38 -2.529,-1.923C-2.529,-1.462 -2.431,-1.074 -2.237,-0.759C-2.042,-0.445 -1.735,-0.288 -1.317,-0.288C-0.996,-0.288 -0.742,-0.386 -0.554,-0.581C-0.366,-0.777 -0.237,-1.044 -0.165,-1.383L0.587,-1.383C0.501,-0.773 0.286,-0.328 -0.058,-0.045C-0.402,0.238 -0.841,0.378 -1.377,0.378C-1.979,0.378 -2.459,0.158 -2.817,-0.281C-3.174,-0.721 -3.354,-1.271 -3.354,-1.929C-3.354,-2.737 -3.157,-3.365 -2.765,-3.816C-2.373,-4.266 -1.872,-4.49 -1.265,-4.49C-0.747,-4.49 -0.325,-4.364 0,-4.112" style="fill:rgb(35,31,32);fill-rule:nonzero;"/>
        </g>
        <g transform="matrix(1,0,0,1,225.351,126.167)">
            <path d="M0,2.404C0.188,2.016 0.283,1.584 0.283,1.11C0.283,0.681 0.215,0.332 0.078,0.062C-0.136,-0.361 -0.508,-0.573 -1.034,-0.573C-1.502,-0.573 -1.842,-0.392 -2.054,-0.032C-2.267,0.329 -2.373,0.764 -2.373,1.273C-2.373,1.762 -2.267,2.17 -2.054,2.496C-1.842,2.822 -1.505,2.985 -1.043,2.985C-0.536,2.985 -0.188,2.792 0,2.404M0.48,-0.654C0.887,-0.26 1.09,0.321 1.09,1.088C1.09,1.829 0.911,2.442 0.553,2.926C0.194,3.409 -0.362,3.651 -1.116,3.651C-1.745,3.651 -2.243,3.437 -2.614,3.01C-2.983,2.581 -3.168,2.007 -3.168,1.286C-3.168,0.513 -2.973,-0.102 -2.583,-0.561C-2.194,-1.018 -1.67,-1.247 -1.013,-1.247C-0.424,-1.247 0.073,-1.05 0.48,-0.654" style="fill:rgb(35,31,32);fill-rule:nonzero;"/>
        </g>
        <g transform="matrix(1,0,0,1,227.391,129.552)">
            <path d="M0,-4.499L0.765,-4.499L0.765,-3.846C0.949,-4.073 1.114,-4.237 1.263,-4.34C1.518,-4.515 1.808,-4.602 2.131,-4.602C2.498,-4.602 2.793,-4.512 3.016,-4.331C3.142,-4.228 3.257,-4.077 3.36,-3.876C3.532,-4.122 3.734,-4.305 3.966,-4.424C4.198,-4.543 4.459,-4.602 4.748,-4.602C5.367,-4.602 5.788,-4.379 6.011,-3.932C6.132,-3.691 6.192,-3.368 6.192,-2.961L6.192,0.103L5.388,0.103L5.388,-3.094C5.388,-3.4 5.312,-3.611 5.158,-3.726C5.005,-3.84 4.818,-3.897 4.598,-3.897C4.294,-3.897 4.033,-3.795 3.813,-3.592C3.594,-3.389 3.485,-3.05 3.485,-2.574L3.485,0.103L2.698,0.103L2.698,-2.901C2.698,-3.213 2.661,-3.441 2.587,-3.584C2.47,-3.799 2.25,-3.906 1.929,-3.906C1.637,-3.906 1.372,-3.793 1.132,-3.567C0.893,-3.34 0.773,-2.931 0.773,-2.338L0.773,0.103L0,0.103L0,-4.499Z" style="fill:rgb(35,31,32);fill-rule:nonzero;"/>
        </g>
        <g transform="matrix(0,1,1,0,243.712,115.61)">
            <path d="M-4.678,-4.678L4.678,-4.678" style="fill:none;fill-rule:nonzero;stroke:rgb(35,31,32);stroke-width:2px;"/>
        </g>
        <g transform="matrix(0,1,1,0,243.712,127.341)">
            <path d="M-4.678,-4.678L4.678,-4.678" style="fill:none;fill-rule:nonzero;stroke:rgb(35,31,32);stroke-width:2px;"/>
        </g>
        <g transform="matrix(0,1,1,0,243.712,103.879)">
            <path d="M-4.678,-4.678L4.678,-4.678" style="fill:none;fill-rule:nonzero;stroke:rgb(35,31,32);stroke-width:2px;"/>
        </g>
        <g transform="matrix(0,1,1,0,243.712,92.1479)">
            <path d="M-4.678,-4.678L4.678,-4.678" style="fill:none;fill-rule:nonzero;stroke:rgb(35,31,32);stroke-width:2px;"/>
        </g>
        <g transform="matrix(1,0,0,1,11.7815,15.814)">
            <path d="M0,4.844L3.826,0.004L0.096,0.004L0.096,-1.32L5.768,-1.32L5.768,-0.065L1.893,4.844L5.778,4.844L5.778,6.164L0,6.164L0,4.844Z" style="fill:rgb(35,31,32);fill-rule:nonzero;"/>
        </g>
        <g transform="matrix(1,0,0,1,18.6615,22.1709)">
            <path d="M0,-7.677L1.589,-7.677L1.589,-3.081C1.589,-2.566 1.65,-2.19 1.771,-1.954C1.96,-1.535 2.372,-1.324 3.006,-1.324C3.637,-1.324 4.046,-1.535 4.235,-1.954C4.357,-2.19 4.417,-2.566 4.417,-3.081L4.417,-7.677L6.007,-7.677L6.007,-3.077C6.007,-2.282 5.883,-1.662 5.637,-1.218C5.177,-0.406 4.3,0 3.006,0C1.712,0 0.833,-0.406 0.37,-1.218C0.123,-1.662 0,-2.282 0,-3.077L0,-7.677Z" style="fill:rgb(35,31,32);fill-rule:nonzero;"/>
        </g>
        <g transform="matrix(1,0,0,1,27.735,20.6778)">
            <path d="M0,-4.884L0,-2.873L1.683,-2.873C2.017,-2.873 2.268,-2.914 2.435,-2.995C2.731,-3.137 2.879,-3.419 2.879,-3.838C2.879,-4.292 2.736,-4.597 2.45,-4.752C2.289,-4.84 2.048,-4.884 1.726,-4.884L0,-4.884ZM3.232,-5.991C3.508,-5.872 3.741,-5.698 3.933,-5.469C4.091,-5.279 4.217,-5.068 4.309,-4.839C4.401,-4.608 4.448,-4.346 4.448,-4.051C4.448,-3.696 4.358,-3.346 4.179,-3.002C4,-2.659 3.703,-2.416 3.29,-2.274C3.636,-2.135 3.88,-1.938 4.024,-1.682C4.168,-1.427 4.24,-1.037 4.24,-0.513L4.24,-0.01C4.24,0.333 4.254,0.563 4.281,0.685C4.322,0.88 4.418,1.022 4.57,1.112L4.57,1.3L2.843,1.3C2.796,1.135 2.762,1.002 2.742,0.9C2.701,0.69 2.679,0.475 2.676,0.254L2.666,-0.44C2.659,-0.919 2.576,-1.237 2.418,-1.395C2.26,-1.555 1.963,-1.634 1.528,-1.634L0,-1.634L0,1.3L-1.528,1.3L-1.528,-6.184L2.051,-6.184C2.563,-6.174 2.957,-6.11 3.232,-5.991" style="fill:rgb(35,31,32);fill-rule:nonzero;"/>
        </g>
        <g transform="matrix(-1,0,0,1,68.662,-107.528)">
            <rect x="33.554" y="122.022" width="1.554" height="7.484" style="fill:rgb(35,31,32);"/>
        </g>
        <g transform="matrix(1,0,0,1,37.2851,21.2629)">
            <path d="M0,-5.987C0.603,-6.604 1.369,-6.911 2.3,-6.911C3.546,-6.911 4.457,-6.498 5.033,-5.672C5.351,-5.208 5.522,-4.742 5.545,-4.275L3.981,-4.275C3.882,-4.635 3.754,-4.905 3.599,-5.088C3.32,-5.413 2.907,-5.575 2.36,-5.575C1.803,-5.575 1.364,-5.346 1.042,-4.887C0.72,-4.429 0.559,-3.78 0.559,-2.94C0.559,-2.101 0.729,-1.472 1.068,-1.055C1.408,-0.637 1.839,-0.428 2.362,-0.428C2.899,-0.428 3.308,-0.606 3.589,-0.965C3.744,-1.159 3.873,-1.448 3.976,-1.834L5.53,-1.834C5.396,-1.018 5.054,-0.354 4.503,0.157C3.952,0.667 3.246,0.924 2.386,0.924C1.321,0.924 0.484,0.579 -0.126,-0.112C-0.736,-0.806 -1.04,-1.757 -1.04,-2.967C-1.04,-4.272 -0.693,-5.279 0,-5.987" style="fill:rgb(35,31,32);fill-rule:nonzero;"/>
        </g>
        <g transform="matrix(1,0,0,1,44.1049,21.9779)">
            <path d="M0,-7.484L1.538,-7.484L1.538,-4.4L4.43,-7.484L6.451,-7.484L3.379,-4.406L6.609,0L4.597,0L2.291,-3.267L1.538,-2.504L1.538,0L0,0L0,-7.484Z" style="fill:rgb(35,31,32);fill-rule:nonzero;"/>
        </g>
        <g transform="matrix(1,0,0,1,13.4367,30.7989)">
            <path d="M0,2.892C0.049,3.233 0.144,3.488 0.285,3.658C0.544,3.966 0.989,4.119 1.618,4.119C1.994,4.119 2.3,4.079 2.535,3.997C2.981,3.842 3.204,3.554 3.204,3.13C3.204,2.883 3.094,2.692 2.876,2.555C2.658,2.425 2.312,2.307 1.837,2.206L1.027,2.027C0.231,1.852 -0.316,1.66 -0.614,1.454C-1.118,1.109 -1.371,0.569 -1.371,-0.166C-1.371,-0.836 -1.124,-1.392 -0.631,-1.836C-0.137,-2.28 0.588,-2.502 1.544,-2.502C2.342,-2.502 3.023,-2.291 3.587,-1.874C4.151,-1.456 4.446,-0.849 4.473,-0.053L2.97,-0.053C2.943,-0.504 2.741,-0.823 2.367,-1.013C2.117,-1.138 1.806,-1.202 1.435,-1.202C1.022,-1.202 0.692,-1.121 0.445,-0.958C0.199,-0.796 0.076,-0.568 0.076,-0.276C0.076,-0.009 0.197,0.191 0.44,0.321C0.597,0.41 0.928,0.513 1.435,0.632L2.748,0.942C3.324,1.077 3.755,1.258 4.042,1.485C4.489,1.837 4.712,2.347 4.712,3.014C4.712,3.697 4.448,4.264 3.919,4.717C3.39,5.168 2.644,5.394 1.678,5.394C0.693,5.394 -0.081,5.173 -0.646,4.727C-1.211,4.282 -1.493,3.67 -1.493,2.892L0,2.892Z" style="fill:rgb(35,31,32);fill-rule:nonzero;"/>
        </g>
        <g transform="matrix(1,0,0,1,24.6834,36.0002)">
            <path d="M0,-7.484L0,-6.159L-2.239,-6.159L-2.239,0L-3.813,0L-3.813,-6.159L-6.063,-6.159L-6.063,-7.484L0,-7.484Z" style="fill:rgb(35,31,32);fill-rule:nonzero;"/>
        </g>
        <g transform="matrix(1,0,0,1,25.5974,36.1932)">
            <path d="M0,-7.677L1.589,-7.677L1.589,-3.081C1.589,-2.566 1.65,-2.19 1.771,-1.954C1.96,-1.535 2.372,-1.324 3.006,-1.324C3.637,-1.324 4.046,-1.535 4.235,-1.954C4.357,-2.19 4.417,-2.566 4.417,-3.081L4.417,-7.677L6.007,-7.677L6.007,-3.077C6.007,-2.282 5.883,-1.662 5.637,-1.218C5.177,-0.406 4.3,0 3.006,0C1.712,0 0.833,-0.406 0.37,-1.218C0.123,-1.662 0,-2.282 0,-3.077L0,-7.677Z" style="fill:rgb(35,31,32);fill-rule:nonzero;"/>
        </g>
        <g transform="matrix(1,0,0,1,34.6252,34.7)">
            <path d="M0,-4.884L0,0.001L1.444,0.001C2.183,0.001 2.699,-0.364 2.99,-1.09C3.15,-1.491 3.229,-1.967 3.229,-2.518C3.229,-3.28 3.11,-3.864 2.871,-4.272C2.632,-4.679 2.156,-4.884 1.444,-4.884L0,-4.884ZM2.867,-6.021C3.393,-5.849 3.818,-5.532 4.143,-5.071C4.404,-4.7 4.581,-4.296 4.676,-3.864C4.771,-3.43 4.819,-3.017 4.819,-2.625C4.819,-1.63 4.618,-0.786 4.219,-0.095C3.677,0.835 2.84,1.3 1.709,1.3L-1.518,1.3L-1.518,-6.184L1.709,-6.184C2.172,-6.177 2.559,-6.123 2.867,-6.021" style="fill:rgb(35,31,32);fill-rule:nonzero;"/>
        </g>
        <g transform="matrix(-1,0,0,1,82.532,-79.484)">
            <rect x="40.489" y="108" width="1.554" height="7.484" style="fill:rgb(35,31,32);"/>
        </g>
        <g transform="matrix(1,0,0,1,48.2917,30.2996)">
            <path d="M0,3.899C0.363,3.441 0.545,2.791 0.545,1.949C0.545,1.109 0.363,0.459 0,0.001C-0.364,-0.458 -0.856,-0.687 -1.475,-0.687C-2.095,-0.687 -2.589,-0.459 -2.958,-0.001C-3.327,0.455 -3.511,1.105 -3.511,1.949C-3.511,2.791 -3.327,3.441 -2.958,3.899C-2.589,4.355 -2.095,4.584 -1.475,4.584C-0.856,4.584 -0.364,4.355 0,3.899M0.977,5.036C0.412,5.618 -0.405,5.91 -1.475,5.91C-2.545,5.91 -3.363,5.618 -3.928,5.036C-4.686,4.321 -5.065,3.293 -5.065,1.949C-5.065,0.577 -4.686,-0.452 -3.928,-1.138C-3.363,-1.721 -2.545,-2.011 -1.475,-2.011C-0.405,-2.011 0.412,-1.721 0.977,-1.138C1.732,-0.452 2.109,0.577 2.109,1.949C2.109,3.293 1.732,4.321 0.977,5.036" style="fill:rgb(35,31,32);fill-rule:nonzero;"/>
        </g>
        <g transform="matrix(1,0,0,1,209.254,54.4914)">
            <path d="M0,-8.216L1.822,-8.216L1.822,-3.107C1.822,-0.804 0.72,0 -1.056,0C-1.476,0 -2.027,-0.072 -2.387,-0.193L-2.184,-1.667C-1.932,-1.583 -1.607,-1.523 -1.248,-1.523C-0.48,-1.523 0,-1.871 0,-3.13L0,-8.216Z" style="fill:rgb(35,31,32);fill-rule:nonzero;"/>
        </g>
        <g transform="matrix(1,0,0,1,214.161,50.2938)">
            <path d="M0,0.048C0,1.631 0.744,2.746 1.967,2.746C3.202,2.746 3.91,1.571 3.91,-0.001C3.91,-1.452 3.214,-2.698 1.955,-2.698C0.72,-2.698 0,-1.523 0,0.048M5.841,-0.06C5.841,2.591 4.233,4.197 1.871,4.197C-0.527,4.197 -1.931,2.386 -1.931,0.083C-1.931,-2.339 -0.384,-4.149 2.003,-4.149C4.485,-4.149 5.841,-2.291 5.841,-0.06" style="fill:rgb(35,31,32);fill-rule:nonzero;"/>
        </g>
        <g transform="matrix(1,0,0,1,221.267,48.1476)">
            <path d="M0,4.329C0.491,4.581 1.247,4.833 2.026,4.833C2.866,4.833 3.311,4.485 3.311,3.957C3.311,3.454 2.927,3.165 1.955,2.817C0.611,2.35 -0.264,1.606 -0.264,0.431C-0.264,-0.948 0.888,-2.003 2.794,-2.003C3.706,-2.003 4.378,-1.812 4.857,-1.596L4.449,-0.12C4.126,-0.276 3.55,-0.505 2.759,-0.505C1.967,-0.505 1.583,-0.145 1.583,0.275C1.583,0.791 2.039,1.018 3.082,1.415C4.51,1.942 5.181,2.686 5.181,3.825C5.181,5.181 4.138,6.332 1.919,6.332C0.995,6.332 0.084,6.092 -0.372,5.841L0,4.329Z" style="fill:rgb(35,31,32);fill-rule:nonzero;"/>
        </g>
        <g transform="matrix(1,0,0,1,232.495,49.6935)">
            <path d="M0,1.248L-2.974,1.248L-2.974,3.167L0.349,3.167L0.349,4.666L-4.808,4.666L-4.808,-3.418L0.181,-3.418L0.181,-1.918L-2.974,-1.918L-2.974,-0.239L0,-0.239L0,1.248Z" style="fill:rgb(35,31,32);fill-rule:nonzero;"/>
        </g>
        <g transform="matrix(1,0,0,1,234.094,54.3594)">
            <path d="M0,-8.084L4.94,-8.084L4.94,-6.584L1.835,-6.584L1.835,-4.737L4.737,-4.737L4.737,-3.25L1.835,-3.25L1.835,0L0,0L0,-8.084Z" style="fill:rgb(35,31,32);fill-rule:nonzero;"/>
        </g>
        <g transform="matrix(1,0,0,1,208.382,52.7655)">
            <path d="M0,-6.493L0.608,-6.493L0.608,-1.065C0.608,0 -0.204,-0.03 -0.795,-0.03C-0.936,-0.03 -1.12,-0.055 -1.239,-0.094L-1.171,-0.586C-1.087,-0.557 -0.979,-0.538 -0.859,-0.538C-0.604,-0.538 0.025,-0.375 0,-1.073L0,-6.493Z" style="fill:rgb(35,31,32);fill-rule:nonzero;"/>
        </g>
        <g transform="matrix(1,0,0,1,202.758,61.1369)">
            <path d="M0,1.894C-0.036,0.923 -0.072,-0.252 -0.072,-1.427L-0.108,-1.427C-0.36,-0.396 -0.696,0.755 -1.007,1.703L-1.991,4.857L-3.418,4.857L-4.282,1.726C-4.545,0.779 -4.821,-0.373 -5.013,-1.427L-5.038,-1.427C-5.085,-0.336 -5.121,0.911 -5.181,1.918L-5.325,4.989L-7.016,4.989L-6.5,-3.095L-4.066,-3.095L-3.274,-0.396C-3.022,0.54 -2.771,1.546 -2.591,2.494L-2.555,2.494C-2.327,1.559 -2.051,0.492 -1.787,-0.409L-0.924,-3.095L1.463,-3.095L1.907,4.989L0.12,4.989L0,1.894Z" style="fill:rgb(35,31,32);fill-rule:nonzero;"/>
        </g>
        <g transform="matrix(1,0,0,1,209.876,65.4304)">
            <path d="M0,-8.672C0,-9.14 0.348,-9.499 0.816,-9.499C1.271,-9.499 1.619,-9.14 1.619,-8.672C1.619,-8.228 1.284,-7.857 0.816,-7.857C0.336,-7.857 0,-8.228 0,-8.672M-2.495,-8.672C-2.495,-9.14 -2.135,-9.499 -1.667,-9.499C-1.223,-9.499 -0.875,-9.14 -0.875,-8.672C-0.875,-8.228 -1.211,-7.857 -1.667,-7.857C-2.146,-7.857 -2.495,-8.228 -2.495,-8.672M-1.979,-7.389L-1.979,-2.735C-1.979,-1.344 -1.451,-0.636 -0.516,-0.636C0.444,-0.636 0.972,-1.308 0.972,-2.735L0.972,-7.389L2.794,-7.389L2.794,-2.855C2.794,-0.36 1.535,0.827 -0.576,0.827C-2.614,0.827 -3.813,-0.3 -3.813,-2.879L-3.813,-7.389L-1.979,-7.389Z" style="fill:rgb(35,31,32);fill-rule:nonzero;"/>
        </g>
        <g transform="matrix(1,0,0,1,214.258,66.1256)">
            <path d="M0,-8.084L1.835,-8.084L1.835,-1.535L5.049,-1.535L5.049,0L0,0L0,-8.084Z" style="fill:rgb(35,31,32);fill-rule:nonzero;"/>
        </g>
        <g transform="matrix(1,0,0,1,220.39,66.1256)">
            <path d="M0,-8.084L1.835,-8.084L1.835,-1.535L5.049,-1.535L5.049,0L0,0L0,-8.084Z" style="fill:rgb(35,31,32);fill-rule:nonzero;"/>
        </g>
        <g transform="matrix(1,0,0,1,231.332,61.4596)">
            <path d="M0,1.248L-2.975,1.248L-2.975,3.167L0.348,3.167L0.348,4.666L-4.81,4.666L-4.81,-3.418L0.18,-3.418L0.18,-1.918L-2.975,-1.918L-2.975,-0.239L0,-0.239L0,1.248Z" style="fill:rgb(35,31,32);fill-rule:nonzero;"/>
        </g>
        <g transform="matrix(1,0,0,1,234.741,62.4795)">
            <path d="M0,-0.851L0.72,-0.851C1.631,-0.851 2.171,-1.307 2.171,-2.015C2.171,-2.758 1.667,-3.13 0.827,-3.142C0.384,-3.142 0.132,-3.106 0,-3.082L0,-0.851ZM-1.812,-4.33C-1.224,-4.425 -0.348,-4.497 0.624,-4.497C1.823,-4.497 2.662,-4.318 3.238,-3.862C3.718,-3.478 3.981,-2.914 3.981,-2.17C3.981,-1.139 3.25,-0.432 2.555,-0.18L2.555,-0.144C3.118,0.084 3.43,0.624 3.634,1.368C3.886,2.279 4.138,3.335 4.294,3.646L2.423,3.646C2.291,3.419 2.099,2.758 1.859,1.763C1.644,0.755 1.295,0.48 0.552,0.467L0,0.467L0,3.646L-1.812,3.646L-1.812,-4.33Z" style="fill:rgb(35,31,32);fill-rule:nonzero;"/>
        </g>
        <g transform="matrix(-0.998297,-0.0583312,-0.0583312,0.998297,195.589,57.9769)">
            <rect x="-0.348" y="0.01" width="0.586" height="8.15" style="fill:rgb(35,31,32);"/>
        </g>
        <g transform="matrix(1,0,0,1,170.458,70.5883)">
            <path d="M0,5.47C0.18,5.493 0.396,5.493 0.708,5.493C1.535,5.493 2.267,5.182 2.267,4.33C2.267,3.515 1.535,3.191 0.624,3.191L0,3.191L0,5.47ZM0,1.884L0.6,1.884C1.559,1.884 2.075,1.488 2.075,0.888C2.075,0.277 1.607,-0.048 0.78,-0.048C0.384,-0.048 0.156,-0.023 0,0L0,1.884ZM-1.811,-1.211C-1.331,-1.306 -0.36,-1.379 0.552,-1.379C1.667,-1.379 2.351,-1.27 2.938,-0.923C3.502,-0.623 3.91,-0.071 3.91,0.66C3.91,1.38 3.49,2.051 2.579,2.387L2.579,2.411C3.502,2.663 4.186,3.359 4.186,4.403C4.186,5.134 3.85,5.709 3.346,6.117C2.758,6.585 1.775,6.849 0.168,6.849C-0.731,6.849 -1.403,6.789 -1.811,6.729L-1.811,-1.211Z" style="fill:rgb(35,31,32);fill-rule:nonzero;"/>
        </g>
        <g transform="matrix(1,0,0,1,177.706,73.7072)">
            <path d="M0,-0.851L0.72,-0.851C1.631,-0.851 2.171,-1.307 2.171,-2.015C2.171,-2.758 1.667,-3.13 0.828,-3.142C0.384,-3.142 0.132,-3.106 0,-3.082L0,-0.851ZM-1.811,-4.33C-1.223,-4.425 -0.348,-4.497 0.624,-4.497C1.823,-4.497 2.663,-4.318 3.238,-3.862C3.718,-3.478 3.982,-2.914 3.982,-2.17C3.982,-1.139 3.25,-0.432 2.555,-0.18L2.555,-0.144C3.118,0.084 3.43,0.624 3.634,1.368C3.886,2.279 4.138,3.335 4.293,3.646L2.423,3.646C2.291,3.419 2.099,2.758 1.859,1.763C1.643,0.755 1.295,0.48 0.552,0.467L0,0.467L0,3.646L-1.811,3.646L-1.811,-4.33Z" style="fill:rgb(35,31,32);fill-rule:nonzero;"/>
        </g>
        <g transform="matrix(1,0,0,1,184.522,73.2867)">
            <path d="M0,0.049C0,1.632 0.744,2.747 1.967,2.747C3.202,2.747 3.91,1.572 3.91,0.001C3.91,-1.45 3.214,-2.698 1.955,-2.698C0.72,-2.698 0,-1.522 0,0.049M5.841,-0.059C5.841,2.591 4.234,4.198 1.871,4.198C-0.527,4.198 -1.931,2.388 -1.931,0.085C-1.931,-2.338 -0.384,-4.149 2.003,-4.149C4.486,-4.149 5.841,-2.29 5.841,-0.059" style="fill:rgb(35,31,32);fill-rule:nonzero;"/>
        </g>
        <g transform="matrix(1,0,0,1,197.504,69.4857)">
            <path d="M0,7.64C-0.336,7.808 -1.092,7.988 -2.075,7.988C-4.87,7.988 -6.309,6.248 -6.309,3.946C-6.309,1.187 -4.342,-0.348 -1.895,-0.348C-0.948,-0.348 -0.228,-0.156 0.096,0.012L-0.276,1.463C-0.648,1.307 -1.164,1.163 -1.811,1.163C-3.262,1.163 -4.39,2.038 -4.39,3.838C-4.39,5.456 -3.43,6.476 -1.799,6.476C-1.248,6.476 -0.636,6.357 -0.276,6.212L0,7.64Z" style="fill:rgb(35,31,32);fill-rule:nonzero;"/>
        </g>
        <g transform="matrix(1,0,0,1,198.707,77.3533)">
            <path d="M0,-8.084L1.811,-8.084L1.811,-4.51L1.847,-4.51C2.027,-4.821 2.219,-5.109 2.399,-5.397L4.234,-8.084L6.477,-8.084L3.802,-4.642L6.621,0L4.485,0L2.507,-3.49L1.811,-2.639L1.811,0L0,0L0,-8.084Z" style="fill:rgb(35,31,32);fill-rule:nonzero;"/>
        </g>
        <g transform="matrix(1,0,0,1,212.911,72.3645)">
            <path d="M0,1.894C-0.036,0.923 -0.072,-0.252 -0.072,-1.427L-0.108,-1.427C-0.36,-0.396 -0.696,0.755 -1.008,1.703L-1.991,4.857L-3.418,4.857L-4.282,1.727C-4.545,0.779 -4.821,-0.373 -5.013,-1.427L-5.037,-1.427C-5.085,-0.336 -5.121,0.911 -5.181,1.918L-5.325,4.989L-7.016,4.989L-6.5,-3.095L-4.066,-3.095L-3.274,-0.396C-3.022,0.54 -2.771,1.546 -2.591,2.495L-2.555,2.495C-2.327,1.559 -2.051,0.492 -1.787,-0.409L-0.924,-3.095L1.463,-3.095L1.907,4.989L0.12,4.989L0,1.894Z" style="fill:rgb(35,31,32);fill-rule:nonzero;"/>
        </g>
        <g transform="matrix(1,0,0,1,220.125,72.7109)">
            <path d="M0,1.2L-0.504,-0.515C-0.648,-0.994 -0.792,-1.594 -0.912,-2.074L-0.936,-2.074C-1.056,-1.594 -1.176,-0.983 -1.308,-0.515L-1.787,1.2L0,1.2ZM-2.051,2.567L-2.627,4.642L-4.521,4.642L-2.051,-3.442L0.348,-3.442L2.854,4.642L0.887,4.642L0.264,2.567L-2.051,2.567Z" style="fill:rgb(35,31,32);fill-rule:nonzero;"/>
        </g>
        <g transform="matrix(1,0,0,1,224.063,69.2692)">
            <path d="M0,8.084L0,0L2.135,0L3.814,2.963C4.293,3.814 4.773,4.822 5.133,5.733L5.169,5.733C5.049,4.666 5.013,3.574 5.013,2.363L5.013,0L6.692,0L6.692,8.084L4.773,8.084L3.046,4.966C2.567,4.103 2.039,3.059 1.643,2.111L1.607,2.123C1.655,3.19 1.679,4.33 1.679,5.649L1.679,8.084L0,8.084Z" style="fill:rgb(35,31,32);fill-rule:nonzero;"/>
        </g>
        <g transform="matrix(1,0,0,1,232.342,69.2692)">
            <path d="M0,8.084L0,0L2.135,0L3.814,2.963C4.294,3.814 4.773,4.822 5.133,5.733L5.169,5.733C5.049,4.666 5.013,3.574 5.013,2.363L5.013,0L6.692,0L6.692,8.084L4.773,8.084L3.046,4.966C2.566,4.103 2.039,3.059 1.643,2.111L1.607,2.123C1.655,3.19 1.679,4.33 1.679,5.649L1.679,8.084L0,8.084Z" style="fill:rgb(35,31,32);fill-rule:nonzero;"/>
        </g>
        <g transform="matrix(-1,0,0,1,336.276,2.669)">
            <rect x="167.838" y="66.719" width="0.6" height="7.893" style="fill:rgb(35,31,32);"/>
        </g>
        <g transform="matrix(-0.707107,-0.707107,-0.707107,0.707107,21.7418,93.0683)">
            <rect x="-52.301" y="21.664" width="62.931" height="3.999" style="fill:rgb(35,31,32);"/>
        </g>
        <g transform="matrix(-0.707107,-0.707107,-0.707107,0.707107,18.5704,98.2998)">
            <rect x="-50.887" y="21.078" width="62.931" height="8" style="fill:rgb(35,31,32);"/>
        </g>
        <g transform="matrix(-0.707107,-0.707107,-0.707107,0.707107,13.2492,107.62)">
            <rect x="-48.06" y="19.906" width="62.933" height="16" style="fill:rgb(35,31,32);"/>
        </g>
    </g>
</svg>
