<?xml version="1.0" encoding="UTF-8" standalone="no"?>
<!DOCTYPE svg PUBLIC "-//W3C//DTD SVG 1.1//EN" "http://www.w3.org/Graphics/SVG/1.1/DTD/svg11.dtd">
<svg width="100%" height="100%" viewBox="0 0 1050 600" version="1.1" xmlns="http://www.w3.org/2000/svg" xmlns:xlink="http://www.w3.org/1999/xlink" xml:space="preserve" xmlns:serif="http://www.serif.com/" style="fill-rule:evenodd;clip-rule:evenodd;stroke-linejoin:round;stroke-miterlimit:1.41421;">
    <g id="Layer-1" serif:id="Layer 1" transform="matrix(4.16667,0,0,4.16667,0,0)">
        <g transform="matrix(1,0,0,1.02465,0,-0.293049)">
            <rect x="0" y="0.286" width="252" height="143.714" style="fill:rgb(3,4,4);"/>
        </g>
        <g>
            <g transform="matrix(1,0,0,1,237.458,15.0641)">
                <path d="M0,-0.56L1.186,-0.56C1.162,-0.79 1.101,-0.955 0.997,-1.056C0.896,-1.157 0.763,-1.21 0.597,-1.21C0.407,-1.21 0.254,-1.133 0.141,-0.98C0.069,-0.887 0.02,-0.746 0,-0.56M2.409,-0.116L2.409,0.017L0,0.017C0.02,0.211 0.073,0.356 0.153,0.449C0.27,0.586 0.424,0.654 0.609,0.654C0.726,0.654 0.839,0.622 0.948,0.566C1.013,0.525 1.081,0.461 1.158,0.368L2.34,0.477C2.158,0.792 1.941,1.017 1.686,1.155C1.428,1.292 1.061,1.36 0.585,1.36C0.169,1.36 -0.161,1.3 -0.399,1.183C-0.637,1.066 -0.835,0.88 -0.992,0.626C-1.146,0.372 -1.226,0.069 -1.226,-0.274C-1.226,-0.766 -1.069,-1.161 -0.754,-1.464C-0.44,-1.77 -0.004,-1.92 0.549,-1.92C0.997,-1.92 1.352,-1.851 1.61,-1.718C1.872,-1.581 2.07,-1.383 2.207,-1.125C2.34,-0.867 2.409,-0.532 2.409,-0.116" style="fill:rgb(237,28,36);fill-rule:nonzero;"/>
            </g>
            <g transform="matrix(1,0,0,1,234.448,15.9243)">
                <path d="M0,-1.158C0,-1.412 -0.048,-1.598 -0.145,-1.719C-0.246,-1.836 -0.367,-1.896 -0.508,-1.896C-0.662,-1.896 -0.791,-1.836 -0.892,-1.719C-0.992,-1.598 -1.045,-1.4 -1.045,-1.134C-1.045,-0.884 -0.992,-0.698 -0.888,-0.581C-0.783,-0.46 -0.654,-0.4 -0.492,-0.4C-0.351,-0.4 -0.234,-0.456 -0.141,-0.573C-0.048,-0.686 0,-0.884 0,-1.158M0.859,-2.3C1.089,-1.977 1.202,-1.582 1.202,-1.11C1.202,-0.585 1.077,-0.19 0.827,0.089C0.577,0.363 0.262,0.5 -0.121,0.5C-0.307,0.5 -0.476,0.468 -0.625,0.403C-0.779,0.343 -0.916,0.25 -1.037,0.125L-1.037,1.622L-2.251,1.622L-2.251,-2.711L-1.126,-2.711L-1.126,-2.247C-0.968,-2.441 -0.827,-2.574 -0.698,-2.643C-0.52,-2.735 -0.327,-2.78 -0.113,-2.78C0.307,-2.78 0.629,-2.618 0.859,-2.3" style="fill:rgb(237,28,36);fill-rule:nonzero;"/>
            </g>
            <g transform="matrix(1,0,0,1,231.741,21.169)">
                <path d="M0,-1.299L0,2.025L-2.017,2.025L-2.017,-0.851C-2.017,-1.178 -2.078,-1.412 -2.199,-1.549C-2.32,-1.682 -2.489,-1.751 -2.711,-1.751C-2.953,-1.751 -3.151,-1.658 -3.3,-1.477C-3.454,-1.291 -3.526,-0.96 -3.526,-0.484L-3.526,2.025L-5.531,2.025L-5.531,1.965L-5.531,-3.203L-3.667,-3.203L-3.667,-2.352C-3.385,-2.699 -3.103,-2.949 -2.82,-3.098C-2.675,-3.175 -2.518,-3.232 -2.344,-3.268C-2.171,-3.304 -1.981,-3.324 -1.775,-3.324C-1.218,-3.324 -0.787,-3.159 -0.472,-2.828C-0.157,-2.497 0,-1.989 0,-1.299" style="fill:rgb(247,147,29);fill-rule:nonzero;"/>
            </g>
            <g transform="matrix(1,0,0,1,231.616,17.627)">
                <path d="M0,-4.414L-1.247,-1.061C-1.388,-0.678 -1.533,-0.42 -1.678,-0.283C-1.824,-0.154 -2.021,-0.069 -2.271,-0.028C-2.38,-0.008 -2.501,0 -2.635,0C-2.808,0 -3.074,-0.024 -3.437,-0.073L-3.53,-0.912C-3.357,-0.856 -3.163,-0.827 -2.953,-0.827C-2.812,-0.827 -2.695,-0.86 -2.606,-0.924C-2.522,-0.993 -2.445,-1.106 -2.384,-1.275L-3.704,-4.414L-2.433,-4.414L-1.787,-2.324L-1.186,-4.414L0,-4.414Z" style="fill:rgb(237,28,36);fill-rule:nonzero;"/>
            </g>
            <g transform="matrix(1,0,0,1,227.243,12.9466)">
                <path d="M0,2.55L0.089,3.381C-0.206,3.446 -0.484,3.478 -0.742,3.478C-1.041,3.478 -1.263,3.438 -1.404,3.361C-1.545,3.284 -1.65,3.167 -1.719,3.014C-1.787,2.857 -1.824,2.602 -1.824,2.251L-1.824,1.15L-2.263,1.15L-2.263,0.266L-1.824,0.266L-1.824,-0.306L-0.617,-0.928L-0.617,0.266L0.044,0.266L0.044,1.15L-0.617,1.15L-0.617,2.26C-0.617,2.393 -0.605,2.481 -0.577,2.526C-0.537,2.594 -0.468,2.627 -0.371,2.627C-0.282,2.627 -0.157,2.598 0,2.55" style="fill:rgb(237,28,36);fill-rule:nonzero;"/>
            </g>
            <g transform="matrix(1,0,0,1,223.366,21.8305)">
                <path d="M0,-0.5C0.169,-0.69 0.254,-0.972 0.254,-1.355C0.254,-1.735 0.165,-2.025 -0.012,-2.227C-0.19,-2.428 -0.407,-2.529 -0.662,-2.529C-0.92,-2.529 -1.126,-2.437 -1.275,-2.251C-1.428,-2.069 -1.505,-1.759 -1.505,-1.331C-1.505,-0.952 -1.424,-0.673 -1.263,-0.488C-1.101,-0.306 -0.892,-0.218 -0.629,-0.218C-0.379,-0.218 -0.169,-0.31 0,-0.5M2.255,1.073L2.263,1.303C2.263,1.634 2.191,1.945 2.054,2.243C1.912,2.542 1.727,2.78 1.497,2.966C1.267,3.147 0.972,3.28 0.613,3.365C0.258,3.446 -0.149,3.486 -0.609,3.486C-1.658,3.486 -2.38,3.329 -2.772,3.014C-3.167,2.699 -3.361,2.276 -3.361,1.747C-3.361,1.683 -3.361,1.594 -3.353,1.481L-1.408,1.703C-1.356,1.884 -1.283,2.009 -1.182,2.078C-1.033,2.179 -0.847,2.231 -0.625,2.231C-0.335,2.231 -0.121,2.155 0.024,2.001C0.165,1.844 0.238,1.578 0.238,1.19L0.238,0.4C0.04,0.634 -0.157,0.803 -0.351,0.908C-0.662,1.069 -0.997,1.154 -1.352,1.154C-2.054,1.154 -2.618,0.848 -3.046,0.238C-3.353,-0.197 -3.506,-0.77 -3.506,-1.48C-3.506,-2.295 -3.308,-2.917 -2.913,-3.344C-2.522,-3.772 -2.005,-3.986 -1.368,-3.986C-0.96,-3.986 -0.625,-3.913 -0.359,-3.776C-0.097,-3.639 0.149,-3.413 0.379,-3.094L0.379,-3.865L2.255,-3.865L2.255,1.073Z" style="fill:rgb(247,147,29);fill-rule:nonzero;"/>
            </g>
            <g transform="matrix(1,0,0,1,223.023,14.1578)">
                <path d="M0,1.254C0.109,1.125 0.165,0.911 0.165,0.621C0.165,0.346 0.109,0.145 -0.004,0.011C-0.117,-0.122 -0.254,-0.186 -0.42,-0.186C-0.593,-0.186 -0.738,-0.118 -0.855,0.015C-0.968,0.153 -1.025,0.354 -1.025,0.633C-1.025,0.911 -0.968,1.117 -0.855,1.254C-0.742,1.387 -0.601,1.452 -0.428,1.452C-0.254,1.452 -0.113,1.387 0,1.254M1.279,0.023C1.343,0.205 1.376,0.403 1.376,0.617C1.376,1.101 1.214,1.496 0.896,1.803C0.573,2.113 0.133,2.267 -0.436,2.267C-0.94,2.267 -1.348,2.138 -1.658,1.883C-2.009,1.593 -2.195,1.222 -2.227,0.766C-2.231,0.721 -2.231,0.677 -2.231,0.633C-2.231,0.157 -2.07,-0.239 -1.747,-0.549C-1.424,-0.86 -0.988,-1.013 -0.436,-1.013C0.19,-1.013 0.666,-0.832 0.988,-0.469C1.118,-0.319 1.214,-0.158 1.279,0.023" style="fill:rgb(237,28,36);fill-rule:nonzero;"/>
            </g>
            <g transform="matrix(1,0,0,1,217.802,14.9471)">
                <path d="M0,-0.443L1.186,-0.443C1.162,-0.673 1.097,-0.838 0.997,-0.939C0.896,-1.04 0.763,-1.093 0.597,-1.093C0.407,-1.093 0.254,-1.016 0.141,-0.863C0.065,-0.77 0.02,-0.629 0,-0.443M2.409,0.001L2.409,0.134L-0.004,0.134C0.02,0.328 0.073,0.473 0.153,0.566C0.27,0.703 0.424,0.771 0.609,0.771C0.726,0.771 0.839,0.739 0.948,0.683C1.013,0.642 1.081,0.578 1.158,0.485L2.34,0.594C2.158,0.909 1.941,1.134 1.686,1.272C1.622,1.304 1.553,1.332 1.477,1.36L1.477,1.03L-0.529,1.03L-0.529,1.223C-0.706,1.11 -0.863,0.949 -0.992,0.743C-1.146,0.489 -1.226,0.186 -1.226,-0.157C-1.226,-0.403 -1.186,-0.625 -1.109,-0.822C-1.029,-1.02 -0.912,-1.197 -0.754,-1.347C-0.44,-1.653 -0.008,-1.803 0.549,-1.803C0.997,-1.803 1.352,-1.734 1.61,-1.601C1.872,-1.464 2.07,-1.266 2.207,-1.008C2.34,-0.75 2.409,-0.415 2.409,0.001" style="fill:rgb(237,28,36);fill-rule:nonzero;"/>
            </g>
            <g transform="matrix(1,0,0,1,219.279,20.8101)">
                <path d="M0,-0.46L0,2.384L-2.005,2.384L-2.005,0.686L-2.005,-2.844L0,-2.844L0,-0.46Z" style="fill:rgb(247,147,29);fill-rule:nonzero;"/>
            </g>
            <g transform="matrix(1,0,0,1,219.279,17.2035)">
                <path d="M0,-0.896L0,0.137L-2.005,0.137L-2.005,-1.033C-1.961,-1.005 -1.92,-0.977 -1.876,-0.957C-1.638,-0.84 -1.311,-0.779 -0.896,-0.779C-0.533,-0.779 -0.234,-0.819 0,-0.896" style="fill:rgb(247,147,29);fill-rule:nonzero;"/>
            </g>
            <g transform="matrix(1,0,0,1,219.279,16.4247)">
                <path d="M0,-0.448L0,-0.117C-0.234,-0.041 -0.533,0 -0.896,0C-1.311,0 -1.638,-0.061 -1.876,-0.178C-1.92,-0.198 -1.961,-0.226 -2.005,-0.254L-2.005,-0.448L0,-0.448Z" style="fill:rgb(248,237,47);fill-rule:nonzero;"/>
            </g>
            <g transform="matrix(1,0,0,1,216.519,21.9116)">
                <path d="M0,-2.667L-1.904,-2.477C-1.953,-2.647 -2.033,-2.772 -2.15,-2.849C-2.308,-2.953 -2.497,-3.006 -2.719,-3.006C-2.945,-3.006 -3.111,-2.966 -3.215,-2.885C-3.32,-2.804 -3.369,-2.707 -3.369,-2.594C-3.369,-2.465 -3.304,-2.368 -3.175,-2.304C-3.042,-2.239 -2.756,-2.179 -2.316,-2.126C-1.65,-2.05 -1.154,-1.945 -0.831,-1.812C-0.504,-1.679 -0.254,-1.485 -0.085,-1.235C0.089,-0.985 0.173,-0.714 0.173,-0.416C0.173,-0.113 0.085,0.181 -0.097,0.468C-0.278,0.75 -0.569,0.98 -0.96,1.15C-1.352,1.315 -1.888,1.4 -2.562,1.4C-3.518,1.4 -4.2,1.267 -4.603,0.992C-5.011,0.722 -5.269,0.335 -5.386,-0.17L-3.397,-0.355C-3.312,-0.121 -3.199,0.048 -3.05,0.149C-2.901,0.254 -2.707,0.302 -2.461,0.302C-2.191,0.302 -1.981,0.246 -1.836,0.133C-1.719,0.044 -1.662,-0.061 -1.662,-0.19C-1.662,-0.331 -1.739,-0.444 -1.888,-0.525C-1.997,-0.577 -2.284,-0.646 -2.752,-0.73C-3.445,-0.851 -3.93,-0.964 -4.2,-1.065C-4.47,-1.17 -4.7,-1.344 -4.886,-1.59C-5.071,-1.836 -5.164,-2.118 -5.164,-2.433C-5.164,-2.776 -5.063,-3.074 -4.862,-3.321C-4.664,-3.571 -4.386,-3.756 -4.035,-3.881C-3.684,-4.002 -3.211,-4.067 -2.622,-4.067C-1.997,-4.067 -1.537,-4.019 -1.243,-3.922C-0.944,-3.829 -0.694,-3.68 -0.496,-3.478C-0.299,-3.28 -0.133,-3.006 0,-2.667" style="fill:rgb(247,147,29);fill-rule:nonzero;"/>
            </g>
            <g transform="matrix(1,0,0,1,215.995,16.1869)">
                <path d="M0,-2.877L-0.186,-2.445L-0.371,-2.022C-0.512,-2.078 -0.625,-2.11 -0.71,-2.11C-0.867,-2.11 -0.988,-2.046 -1.073,-1.913C-1.198,-1.731 -1.263,-1.388 -1.263,-0.888L-1.263,0.165L-2.469,0.165L-2.469,-1.239L-2.469,-2.974L-1.343,-2.974L-1.343,-2.457C-1.235,-2.679 -1.122,-2.833 -1.009,-2.917C-0.892,-3.002 -0.75,-3.042 -0.581,-3.042C-0.403,-3.042 -0.21,-2.99 0,-2.877" style="fill:rgb(237,28,36);fill-rule:nonzero;"/>
            </g>
            <g transform="matrix(1,0,0,1,210.536,15.0641)">
                <path d="M0,-0.56L1.186,-0.56C1.162,-0.79 1.097,-0.955 0.997,-1.056C0.896,-1.157 0.763,-1.21 0.597,-1.21C0.407,-1.21 0.254,-1.133 0.137,-0.98C0.065,-0.887 0.02,-0.746 0,-0.56M2.409,-0.116L2.409,0.017L-0.004,0.017C0.02,0.211 0.073,0.356 0.153,0.449C0.27,0.586 0.42,0.654 0.609,0.654C0.726,0.654 0.839,0.622 0.944,0.566C1.009,0.525 1.081,0.461 1.154,0.368L2.34,0.477C2.158,0.792 1.941,1.017 1.682,1.155C1.428,1.292 1.061,1.36 0.581,1.36C0.165,1.36 -0.161,1.3 -0.399,1.183C-0.637,1.066 -0.835,0.88 -0.992,0.626C-1.15,0.372 -1.226,0.069 -1.226,-0.274C-1.226,-0.459 -1.206,-0.629 -1.162,-0.786C-1.085,-1.048 -0.952,-1.274 -0.754,-1.464C-0.44,-1.77 -0.008,-1.92 0.545,-1.92C0.997,-1.92 1.352,-1.851 1.61,-1.718C1.872,-1.581 2.07,-1.383 2.203,-1.125C2.34,-0.867 2.409,-0.532 2.409,-0.116" style="fill:rgb(237,28,36);fill-rule:nonzero;"/>
            </g>
            <g transform="matrix(1,0,0,1,206.538,21.0401)">
                <path d="M0,-0.924L1.977,-0.924C1.937,-1.311 1.832,-1.59 1.662,-1.755C1.493,-1.925 1.271,-2.005 0.997,-2.005C0.678,-2.005 0.424,-1.88 0.234,-1.626C0.113,-1.469 0.036,-1.235 0,-0.924M4.014,-0.19L4.014,0.036L-0.004,0.036C0.032,0.359 0.121,0.597 0.258,0.754C0.452,0.984 0.706,1.097 1.017,1.097C1.214,1.097 1.4,1.045 1.577,0.948C1.686,0.887 1.803,0.775 1.928,0.617L3.901,0.799C3.599,1.327 3.236,1.702 2.808,1.932C2.38,2.158 1.771,2.271 0.972,2.271C0.278,2.271 -0.266,2.174 -0.662,1.981C-1.061,1.783 -1.388,1.472 -1.65,1.049C-1.912,0.625 -2.041,0.125 -2.041,-0.452C-2.041,-0.553 -2.037,-0.654 -2.029,-0.751C-1.973,-1.428 -1.715,-1.993 -1.255,-2.437C-0.734,-2.941 -0.008,-3.195 0.912,-3.195C1.662,-3.195 2.251,-3.078 2.687,-2.852C3.119,-2.627 3.45,-2.3 3.675,-1.868C3.901,-1.44 4.014,-0.88 4.014,-0.19" style="fill:rgb(247,147,29);fill-rule:nonzero;"/>
            </g>
            <g transform="matrix(1,0,0,1,208.64,12.9466)">
                <path d="M0,2.55L0.089,3.381C-0.21,3.446 -0.488,3.478 -0.746,3.478C-1.045,3.478 -1.263,3.438 -1.408,3.361C-1.549,3.284 -1.654,3.167 -1.723,3.014C-1.787,2.857 -1.824,2.602 -1.824,2.251L-1.824,1.15L-2.267,1.15L-2.267,0.291L-2.267,0.266L-1.824,0.266L-1.824,-0.306L-0.617,-0.928L-0.617,0.266L0.044,0.266L0.044,1.15L-0.617,1.15L-0.617,2.26C-0.617,2.393 -0.605,2.481 -0.581,2.526C-0.541,2.594 -0.472,2.627 -0.371,2.627C-0.282,2.627 -0.161,2.598 0,2.55" style="fill:rgb(237,28,36);fill-rule:nonzero;"/>
            </g>
            <g transform="matrix(1,0,0,1,205.618,14.0724)">
                <path d="M0,0.23C0.117,0.42 0.173,0.633 0.173,0.871C0.173,1.15 0.097,1.404 -0.056,1.638C-0.21,1.872 -0.424,2.05 -0.702,2.171C-0.976,2.296 -1.323,2.356 -1.743,2.356C-2.296,2.356 -2.719,2.275 -3.018,2.114C-3.115,2.062 -3.203,2.001 -3.272,1.929C-3.558,1.646 -3.72,1.283 -3.756,0.847L-2.481,0.767C-2.453,0.972 -2.396,1.134 -2.312,1.239C-2.175,1.416 -1.977,1.505 -1.723,1.505C-1.533,1.505 -1.384,1.456 -1.279,1.368C-1.178,1.279 -1.126,1.174 -1.126,1.057C-1.126,0.944 -1.174,0.843 -1.275,0.754C-1.372,0.666 -1.602,0.585 -1.961,0.504C-2.546,0.371 -2.965,0.198 -3.216,-0.02C-3.466,-0.242 -3.595,-0.52 -3.595,-0.859C-3.595,-1.081 -3.53,-1.291 -3.401,-1.489C-3.272,-1.686 -3.078,-1.844 -2.816,-1.957C-2.558,-2.07 -2.203,-2.126 -1.751,-2.126C-1.198,-2.126 -0.775,-2.021 -0.484,-1.816C-0.194,-1.61 -0.024,-1.283 0.032,-0.835L-1.231,-0.758C-1.263,-0.956 -1.331,-1.097 -1.44,-1.186C-1.549,-1.275 -1.695,-1.319 -1.884,-1.319C-2.041,-1.319 -2.158,-1.287 -2.235,-1.218C-2.316,-1.154 -2.356,-1.073 -2.356,-0.98C-2.356,-0.912 -2.324,-0.847 -2.259,-0.795C-2.195,-0.734 -2.046,-0.682 -1.807,-0.633C-1.222,-0.508 -0.803,-0.379 -0.553,-0.25C-0.299,-0.121 -0.113,0.04 0,0.23" style="fill:rgb(237,28,36);fill-rule:nonzero;"/>
            </g>
            <g transform="matrix(1,0,0,1,201.507,18.3124)">
                <path d="M0,2.546C0.113,2.288 0.165,1.868 0.165,1.291C0.165,0.529 0.04,0.004 -0.206,-0.278C-0.456,-0.561 -0.871,-0.702 -1.448,-0.702L-2.005,-0.702L-2.005,3.244L-1.456,3.244C-0.992,3.244 -0.662,3.192 -0.464,3.087C-0.266,2.986 -0.113,2.804 0,2.546M2.409,1.247C2.409,1.489 2.401,1.715 2.38,1.925C2.344,2.381 2.263,2.752 2.146,3.042C1.969,3.47 1.727,3.825 1.412,4.111C1.101,4.398 0.767,4.592 0.407,4.684C-0.081,4.817 -0.524,4.882 -0.92,4.882L-4.236,4.882L-4.236,-2.336L-0.92,-2.336C-0.266,-2.336 0.258,-2.247 0.662,-2.074C0.763,-2.029 0.863,-1.977 0.956,-1.92C1.231,-1.759 1.465,-1.553 1.658,-1.307C1.92,-0.976 2.114,-0.589 2.231,-0.149C2.348,0.291 2.409,0.755 2.409,1.247" style="fill:rgb(247,147,29);fill-rule:nonzero;"/>
            </g>
        </g>
        <g>
            <g transform="matrix(1,0,0,1,261.413,144.582)">
                <path d="M0,-4.255L-27.5,13.79L-45.57,-13.748L-39.022,-18.045L-25.273,2.906L-4.322,-10.842L0,-4.255Z" style="fill:rgb(247,147,29);fill-rule:nonzero;"/>
            </g>
            <g transform="matrix(-0.836068,0.548626,0.548626,0.836068,223.26,136.646)">
                <rect x="-29.879" y="-8.928" width="25.059" height="25.059" style="fill:rgb(248,237,47);"/>
            </g>
            <g transform="matrix(1,0,0,1,263.639,106.605)">
                <path d="M0,22.838L-6.548,27.135L-20.297,6.184L-41.248,19.932L-45.306,13.749L-17.806,-4.297L0,22.838Z" style="fill:rgb(239,63,54);fill-rule:nonzero;"/>
            </g>
        </g>
        <g>
            <g transform="matrix(1,0,0,1,15.4119,98.5556)">
                <path d="M0,-2.765L0,0L-2.769,0L-2.769,-0.659L-0.662,-0.659L-0.662,-2.765L0,-2.765Z" style="fill:rgb(247,147,29);fill-rule:nonzero;"/>
            </g>
            <g transform="matrix(-1,0,0,1,27.394,49.688)">
                <rect x="12.644" y="46.103" width="2.106" height="2.106" style="fill:rgb(248,237,47);"/>
            </g>
            <g transform="matrix(1,0,0,1,14.7497,97.8972)">
                <path d="M0,-2.765L0,-2.107L-2.106,-2.107L-2.106,0L-2.728,0L-2.728,-2.765L0,-2.765Z" style="fill:rgb(239,63,54);fill-rule:nonzero;"/>
            </g>
        </g>
        <g>
            <g transform="matrix(1,0,0,1,15.4119,118.835)">
                <path d="M0,-2.765L0,0L-2.769,0L-2.769,-0.659L-0.662,-0.659L-0.662,-2.765L0,-2.765Z" style="fill:rgb(247,147,29);fill-rule:nonzero;"/>
            </g>
            <g transform="matrix(-1,0,0,1,27.394,90.246)">
                <rect x="12.644" y="25.824" width="2.106" height="2.106" style="fill:rgb(248,237,47);"/>
            </g>
            <g transform="matrix(1,0,0,1,14.7497,118.176)">
                <path d="M0,-2.765L0,-2.107L-2.106,-2.107L-2.106,0L-2.728,0L-2.728,-2.765L0,-2.765Z" style="fill:rgb(239,63,54);fill-rule:nonzero;"/>
            </g>
        </g>
        <g>
            <g transform="matrix(1,0,0,1,15.4119,108.543)">
                <path d="M0,-2.765L0,0L-2.769,0L-2.769,-0.659L-0.662,-0.659L-0.662,-2.765L0,-2.765Z" style="fill:rgb(247,147,29);fill-rule:nonzero;"/>
            </g>
            <g transform="matrix(-1,0,0,1,27.394,69.664)">
                <rect x="12.644" y="36.115" width="2.106" height="2.106" style="fill:rgb(248,237,47);"/>
            </g>
            <g transform="matrix(1,0,0,1,14.7497,107.885)">
                <path d="M0,-2.765L0,-2.107L-2.106,-2.107L-2.106,0L-2.728,0L-2.728,-2.765L0,-2.765Z" style="fill:rgb(239,63,54);fill-rule:nonzero;"/>
            </g>
        </g>
        <g>
            <g transform="matrix(1,0,0,1,15.4119,129.473)">
                <path d="M0,-2.765L0,0L-2.769,0L-2.769,-0.659L-0.662,-0.659L-0.662,-2.765L0,-2.765Z" style="fill:rgb(247,147,29);fill-rule:nonzero;"/>
            </g>
            <g transform="matrix(-1,0,0,1,27.394,111.522)">
                <rect x="12.644" y="15.186" width="2.106" height="2.106" style="fill:rgb(248,237,47);"/>
            </g>
            <g transform="matrix(1,0,0,1,14.7497,128.814)">
                <path d="M0,-2.765L0,-2.107L-2.106,-2.107L-2.106,0L-2.728,0L-2.728,-2.765L0,-2.765Z" style="fill:rgb(239,63,54);fill-rule:nonzero;"/>
            </g>
        </g>
        <g transform="matrix(1,0,0,1,19.5701,94.8738)">
            <path d="M0,2.887L0.773,2.784C0.863,3.222 1.013,3.538 1.227,3.731C1.441,3.925 1.701,4.021 2.007,4.021C2.371,4.021 2.678,3.895 2.928,3.643C3.179,3.391 3.304,3.079 3.304,2.707C3.304,2.352 3.188,2.058 2.956,1.828C2.724,1.597 2.429,1.482 2.071,1.482C1.925,1.482 1.743,1.51 1.525,1.568L1.611,0.889C1.663,0.895 1.705,0.898 1.736,0.898C2.066,0.898 2.362,0.812 2.625,0.64C2.889,0.468 3.021,0.203 3.021,-0.155C3.021,-0.439 2.925,-0.673 2.733,-0.86C2.541,-1.046 2.293,-1.139 1.989,-1.139C1.689,-1.139 1.438,-1.045 1.238,-0.856C1.037,-0.667 0.908,-0.383 0.851,-0.005L0.077,-0.142C0.172,-0.661 0.387,-1.062 0.722,-1.348C1.057,-1.633 1.474,-1.775 1.972,-1.775C2.316,-1.775 2.633,-1.702 2.922,-1.554C3.211,-1.406 3.432,-1.205 3.586,-0.95C3.739,-0.695 3.816,-0.424 3.816,-0.138C3.816,0.134 3.743,0.382 3.596,0.605C3.45,0.829 3.234,1.007 2.948,1.138C3.32,1.224 3.609,1.402 3.816,1.673C4.022,1.944 4.125,2.283 4.125,2.689C4.125,3.239 3.924,3.706 3.523,4.088C3.123,4.47 2.616,4.662 2.002,4.662C1.449,4.662 0.99,4.497 0.625,4.167C0.26,3.838 0.052,3.411 0,2.887" style="fill:rgb(255,221,24);fill-rule:nonzero;"/>
        </g>
        <g transform="matrix(1,0,0,1,27.7428,97.4429)">
            <path d="M0,-2.256C0,-2.7 -0.118,-3.053 -0.354,-3.313C-0.591,-3.574 -0.875,-3.704 -1.207,-3.704C-1.551,-3.704 -1.851,-3.564 -2.105,-3.283C-2.36,-3.002 -2.488,-2.638 -2.488,-2.192C-2.488,-1.79 -2.367,-1.465 -2.125,-1.214C-1.883,-0.963 -1.584,-0.838 -1.229,-0.838C-0.871,-0.838 -0.577,-0.963 -0.346,-1.214C-0.115,-1.465 0,-1.812 0,-2.256M-3.167,0.524L-2.423,0.455C-2.36,0.805 -2.24,1.058 -2.063,1.216C-1.885,1.373 -1.658,1.452 -1.379,1.452C-1.142,1.452 -0.934,1.398 -0.754,1.289C-0.575,1.18 -0.429,1.035 -0.314,0.853C-0.199,0.671 -0.103,0.425 -0.026,0.116C0.052,-0.193 0.09,-0.509 0.09,-0.829C0.09,-0.864 0.089,-0.915 0.086,-0.984C-0.069,-0.738 -0.28,-0.538 -0.548,-0.385C-0.815,-0.232 -1.105,-0.155 -1.418,-0.155C-1.939,-0.155 -2.38,-0.344 -2.741,-0.722C-3.102,-1.1 -3.283,-1.599 -3.283,-2.217C-3.283,-2.856 -3.095,-3.371 -2.718,-3.76C-2.341,-4.149 -1.869,-4.344 -1.302,-4.344C-0.893,-4.344 -0.518,-4.234 -0.178,-4.013C0.161,-3.793 0.419,-3.478 0.595,-3.07C0.771,-2.662 0.859,-2.071 0.859,-1.298C0.859,-0.493 0.772,0.148 0.597,0.625C0.422,1.102 0.162,1.465 -0.183,1.714C-0.527,1.964 -0.932,2.088 -1.396,2.088C-1.89,2.088 -2.291,1.951 -2.604,1.678C-2.917,1.404 -3.103,1.02 -3.167,0.524" style="fill:rgb(255,221,24);fill-rule:nonzero;"/>
        </g>
        <g transform="matrix(1,0,0,1,31.6873,95.0192)">
            <path d="M0,2.617L0.752,2.514C0.772,2.995 0.863,3.324 1.023,3.502C1.183,3.68 1.405,3.769 1.689,3.769C1.898,3.769 2.079,3.721 2.23,3.625C2.382,3.528 2.487,3.398 2.544,3.234C2.601,3.069 2.63,2.806 2.63,2.445L2.63,-1.895L3.463,-1.895L3.463,2.398C3.463,2.925 3.4,3.333 3.272,3.622C3.144,3.912 2.942,4.132 2.666,4.284C2.39,4.436 2.066,4.512 1.693,4.512C1.14,4.512 0.717,4.353 0.423,4.035C0.13,3.717 -0.012,3.244 0,2.617" style="fill:rgb(255,221,24);fill-rule:nonzero;"/>
        </g>
        <g transform="matrix(1,0,0,1,39.3272,97.1504)">
            <path d="M0,-0.017C-0.28,0.097 -0.701,0.195 -1.263,0.275C-1.581,0.321 -1.806,0.372 -1.938,0.43C-2.07,0.487 -2.171,0.571 -2.243,0.681C-2.315,0.791 -2.35,0.914 -2.35,1.049C-2.35,1.255 -2.272,1.427 -2.116,1.564C-1.96,1.702 -1.732,1.77 -1.431,1.77C-1.133,1.77 -0.868,1.706 -0.636,1.575C-0.404,1.444 -0.233,1.266 -0.125,1.04C-0.042,0.865 0,0.608 0,0.267L0,-0.017ZM0.064,1.71C-0.222,1.954 -0.497,2.126 -0.763,2.226C-1.028,2.326 -1.312,2.376 -1.616,2.376C-2.117,2.376 -2.502,2.254 -2.771,2.009C-3.041,1.764 -3.175,1.451 -3.175,1.07C-3.175,0.847 -3.125,0.643 -3.023,0.458C-2.921,0.273 -2.788,0.125 -2.623,0.013C-2.459,-0.099 -2.273,-0.183 -2.067,-0.24C-1.915,-0.281 -1.685,-0.319 -1.379,-0.356C-0.755,-0.431 -0.295,-0.52 0,-0.623C0.003,-0.729 0.004,-0.796 0.004,-0.825C0.004,-1.14 -0.069,-1.362 -0.215,-1.491C-0.412,-1.665 -0.706,-1.753 -1.096,-1.753C-1.46,-1.753 -1.728,-1.689 -1.901,-1.562C-2.074,-1.434 -2.203,-1.209 -2.286,-0.885L-3.042,-0.988C-2.973,-1.312 -2.861,-1.573 -2.703,-1.772C-2.545,-1.972 -2.317,-2.125 -2.02,-2.232C-1.722,-2.339 -1.376,-2.393 -0.984,-2.393C-0.594,-2.393 -0.278,-2.348 -0.034,-2.256C0.209,-2.164 0.388,-2.049 0.503,-1.91C0.618,-1.771 0.697,-1.596 0.743,-1.383C0.769,-1.252 0.782,-1.014 0.782,-0.67L0.782,0.361C0.782,1.08 0.798,1.535 0.831,1.725C0.865,1.916 0.929,2.099 1.027,2.273L0.219,2.273C0.139,2.113 0.087,1.925 0.064,1.71" style="fill:rgb(255,221,24);fill-rule:nonzero;"/>
        </g>
        <g transform="matrix(1,0,0,1,41.308,94.7577)">
            <path d="M0,4.666L0,0.103L0.696,0.103L0.696,0.752C1.031,0.25 1.516,0 2.148,0C2.423,0 2.676,0.049 2.907,0.148C3.138,0.247 3.31,0.376 3.425,0.537C3.54,0.697 3.619,0.887 3.665,1.108C3.694,1.252 3.708,1.502 3.708,1.86L3.708,4.666L2.935,4.666L2.935,1.89C2.935,1.575 2.905,1.34 2.845,1.183C2.784,1.027 2.678,0.902 2.524,0.81C2.371,0.717 2.191,0.67 1.985,0.67C1.655,0.67 1.372,0.775 1.132,0.984C0.893,1.193 0.773,1.589 0.773,2.174L0.773,4.666L0,4.666Z" style="fill:rgb(255,221,24);fill-rule:nonzero;"/>
        </g>
        <g transform="matrix(1,0,0,1,46.7865,97.5807)">
            <path d="M0,-0.877L2.548,-0.877C2.514,-1.261 2.416,-1.549 2.256,-1.741C2.01,-2.039 1.69,-2.188 1.298,-2.188C0.942,-2.188 0.643,-2.069 0.402,-1.831C0.16,-1.593 0.026,-1.275 0,-0.877M2.539,0.373L3.339,0.472C3.213,0.939 2.979,1.302 2.638,1.559C2.298,1.817 1.862,1.946 1.332,1.946C0.665,1.946 0.135,1.74 -0.256,1.329C-0.647,0.919 -0.842,0.342 -0.842,-0.4C-0.842,-1.168 -0.645,-1.764 -0.249,-2.188C0.146,-2.611 0.658,-2.823 1.289,-2.823C1.899,-2.823 2.398,-2.616 2.784,-2.2C3.171,-1.785 3.364,-1.201 3.364,-0.447C3.364,-0.402 3.363,-0.333 3.36,-0.241L-0.043,-0.241C-0.014,0.26 0.128,0.644 0.382,0.91C0.637,1.177 0.955,1.31 1.336,1.31C1.62,1.31 1.862,1.235 2.063,1.087C2.263,0.938 2.422,0.7 2.539,0.373" style="fill:rgb(255,221,24);fill-rule:nonzero;"/>
        </g>
        <g transform="matrix(1,0,0,1,53.3565,95.1478)">
            <path d="M0,2.252L0.786,2.183C0.824,2.499 0.91,2.757 1.046,2.959C1.183,3.161 1.393,3.324 1.68,3.449C1.967,3.573 2.289,3.636 2.647,3.636C2.965,3.636 3.245,3.588 3.489,3.494C3.733,3.399 3.913,3.27 4.033,3.105C4.152,2.94 4.211,2.761 4.211,2.566C4.211,2.368 4.154,2.196 4.039,2.048C3.924,1.9 3.735,1.777 3.472,1.676C3.303,1.61 2.929,1.508 2.35,1.369C1.771,1.23 1.366,1.099 1.134,0.976C0.834,0.818 0.609,0.623 0.462,0.389C0.315,0.156 0.241,-0.105 0.241,-0.395C0.241,-0.713 0.331,-1.01 0.511,-1.286C0.692,-1.563 0.955,-1.773 1.302,-1.916C1.649,-2.059 2.033,-2.131 2.458,-2.131C2.925,-2.131 3.337,-2.056 3.693,-1.905C4.05,-1.755 4.324,-1.534 4.516,-1.241C4.708,-0.949 4.811,-0.618 4.825,-0.249L4.026,-0.189C3.983,-0.587 3.838,-0.887 3.59,-1.091C3.342,-1.295 2.977,-1.396 2.492,-1.396C1.988,-1.396 1.621,-1.304 1.39,-1.119C1.159,-0.934 1.044,-0.711 1.044,-0.451C1.044,-0.225 1.126,-0.038 1.289,0.108C1.449,0.254 1.868,0.404 2.546,0.557C3.224,0.71 3.688,0.844 3.94,0.959C4.307,1.128 4.577,1.342 4.752,1.601C4.927,1.86 5.014,2.159 5.014,2.497C5.014,2.832 4.919,3.148 4.727,3.444C4.534,3.741 4.259,3.971 3.899,4.136C3.54,4.301 3.136,4.383 2.686,4.383C2.115,4.383 1.638,4.301 1.253,4.134C0.867,3.968 0.565,3.718 0.346,3.384C0.127,3.051 0.012,2.673 0,2.252" style="fill:rgb(255,221,24);fill-rule:nonzero;"/>
        </g>
        <g transform="matrix(1,0,0,1,61.0994,94.0179)">
            <path d="M0,4.714L0.112,5.397C-0.106,5.443 -0.301,5.466 -0.473,5.466C-0.753,5.466 -0.971,5.422 -1.126,5.333C-1.28,5.244 -1.389,5.127 -1.452,4.983C-1.516,4.838 -1.547,4.534 -1.547,4.069L-1.547,1.444L-2.114,1.444L-2.114,0.843L-1.547,0.843L-1.547,-0.288L-0.778,-0.752L-0.778,0.843L0,0.843L0,1.444L-0.778,1.444L-0.778,4.112C-0.778,4.333 -0.764,4.475 -0.737,4.538C-0.71,4.601 -0.665,4.651 -0.604,4.688C-0.542,4.725 -0.454,4.744 -0.339,4.744C-0.254,4.744 -0.141,4.734 0,4.714" style="fill:rgb(255,221,24);fill-rule:nonzero;"/>
        </g>
        <g transform="matrix(1,0,0,1,61.8471,94.7577)">
            <path d="M0,4.666L0,0.103L0.696,0.103L0.696,0.795C0.873,0.471 1.038,0.257 1.188,0.154C1.338,0.051 1.504,0 1.684,0C1.945,0 2.21,0.083 2.479,0.249L2.213,0.966C2.024,0.855 1.835,0.799 1.646,0.799C1.477,0.799 1.325,0.85 1.19,0.951C1.056,1.053 0.959,1.194 0.902,1.375C0.816,1.65 0.773,1.95 0.773,2.277L0.773,4.666L0,4.666Z" style="fill:rgb(255,221,24);fill-rule:nonzero;"/>
        </g>
        <g transform="matrix(1,0,0,1,65.3705,97.5807)">
            <path d="M0,-0.877L2.548,-0.877C2.514,-1.261 2.416,-1.549 2.256,-1.741C2.01,-2.039 1.69,-2.188 1.298,-2.188C0.942,-2.188 0.643,-2.069 0.402,-1.831C0.16,-1.593 0.026,-1.275 0,-0.877M2.539,0.373L3.339,0.472C3.213,0.939 2.979,1.302 2.638,1.559C2.298,1.817 1.862,1.946 1.332,1.946C0.665,1.946 0.135,1.74 -0.256,1.329C-0.647,0.919 -0.842,0.342 -0.842,-0.4C-0.842,-1.168 -0.645,-1.764 -0.249,-2.188C0.146,-2.611 0.658,-2.823 1.289,-2.823C1.899,-2.823 2.398,-2.616 2.784,-2.2C3.171,-1.785 3.364,-1.201 3.364,-0.447C3.364,-0.402 3.363,-0.333 3.36,-0.241L-0.043,-0.241C-0.014,0.26 0.128,0.644 0.382,0.91C0.637,1.177 0.955,1.31 1.336,1.31C1.62,1.31 1.862,1.235 2.063,1.087C2.263,0.938 2.422,0.7 2.539,0.373" style="fill:rgb(255,221,24);fill-rule:nonzero;"/>
        </g>
        <g transform="matrix(1,0,0,1,70.2647,97.5807)">
            <path d="M0,-0.877L2.548,-0.877C2.514,-1.261 2.416,-1.549 2.256,-1.741C2.01,-2.039 1.69,-2.188 1.298,-2.188C0.942,-2.188 0.643,-2.069 0.402,-1.831C0.16,-1.593 0.026,-1.275 0,-0.877M2.539,0.373L3.339,0.472C3.213,0.939 2.979,1.302 2.638,1.559C2.298,1.817 1.862,1.946 1.332,1.946C0.665,1.946 0.135,1.74 -0.256,1.329C-0.647,0.919 -0.842,0.342 -0.842,-0.4C-0.842,-1.168 -0.645,-1.764 -0.249,-2.188C0.146,-2.611 0.659,-2.823 1.289,-2.823C1.899,-2.823 2.398,-2.616 2.784,-2.2C3.171,-1.785 3.364,-1.201 3.364,-0.447C3.364,-0.402 3.363,-0.333 3.36,-0.241L-0.043,-0.241C-0.014,0.26 0.128,0.644 0.382,0.91C0.637,1.177 0.955,1.31 1.336,1.31C1.62,1.31 1.862,1.235 2.063,1.087C2.263,0.938 2.422,0.7 2.539,0.373" style="fill:rgb(255,221,24);fill-rule:nonzero;"/>
        </g>
        <g transform="matrix(1,0,0,1,76.2631,94.0179)">
            <path d="M0,4.714L0.112,5.397C-0.106,5.443 -0.301,5.466 -0.473,5.466C-0.753,5.466 -0.971,5.422 -1.126,5.333C-1.28,5.244 -1.389,5.127 -1.452,4.983C-1.516,4.838 -1.547,4.534 -1.547,4.069L-1.547,1.444L-2.114,1.444L-2.114,0.843L-1.547,0.843L-1.547,-0.288L-0.778,-0.752L-0.778,0.843L0,0.843L0,1.444L-0.778,1.444L-0.778,4.112C-0.778,4.333 -0.764,4.475 -0.737,4.538C-0.71,4.601 -0.665,4.651 -0.604,4.688C-0.542,4.725 -0.454,4.744 -0.339,4.744C-0.254,4.744 -0.141,4.734 0,4.714" style="fill:rgb(255,221,24);fill-rule:nonzero;"/>
        </g>
        <g transform="matrix(1,0,0,1,77.2213,99.7887)">
            <path d="M0,-0.365L0,-1.246L0.881,-1.246L0.881,-0.365C0.881,-0.042 0.824,0.22 0.709,0.419C0.594,0.618 0.412,0.773 0.163,0.881L-0.052,0.55C0.112,0.478 0.232,0.373 0.309,0.234C0.387,0.096 0.43,-0.104 0.438,-0.365L0,-0.365Z" style="fill:rgb(255,221,24);fill-rule:nonzero;"/>
        </g>
        <g transform="matrix(1,0,0,1,84.1737,95.3415)">
            <path d="M0,1.865L0,-0.975L-1.972,1.865L0,1.865ZM0,4.082L0,2.574L-2.733,2.574L-2.733,1.865L0.142,-2.217L0.773,-2.217L0.773,1.865L1.624,1.865L1.624,2.574L0.773,2.574L0.773,4.082L0,4.082Z" style="fill:rgb(255,221,24);fill-rule:nonzero;"/>
        </g>
        <g transform="matrix(1,0,0,1,89.7166,97.1504)">
            <path d="M0,-0.017C-0.28,0.097 -0.701,0.195 -1.263,0.275C-1.581,0.321 -1.806,0.372 -1.938,0.43C-2.07,0.487 -2.171,0.571 -2.243,0.681C-2.315,0.791 -2.35,0.914 -2.35,1.049C-2.35,1.255 -2.272,1.427 -2.116,1.564C-1.96,1.702 -1.732,1.77 -1.431,1.77C-1.133,1.77 -0.868,1.706 -0.636,1.575C-0.404,1.444 -0.233,1.266 -0.125,1.04C-0.042,0.865 0,0.608 0,0.267L0,-0.017ZM0.064,1.71C-0.222,1.954 -0.497,2.126 -0.763,2.226C-1.028,2.326 -1.312,2.376 -1.616,2.376C-2.117,2.376 -2.502,2.254 -2.771,2.009C-3.041,1.764 -3.175,1.451 -3.175,1.07C-3.175,0.847 -3.125,0.643 -3.023,0.458C-2.921,0.273 -2.788,0.125 -2.623,0.013C-2.459,-0.099 -2.273,-0.183 -2.067,-0.24C-1.915,-0.281 -1.685,-0.319 -1.379,-0.356C-0.755,-0.431 -0.295,-0.52 0,-0.623C0.003,-0.729 0.004,-0.796 0.004,-0.825C0.004,-1.14 -0.069,-1.362 -0.215,-1.491C-0.413,-1.665 -0.706,-1.753 -1.096,-1.753C-1.46,-1.753 -1.728,-1.689 -1.901,-1.562C-2.074,-1.434 -2.203,-1.209 -2.286,-0.885L-3.042,-0.988C-2.973,-1.312 -2.861,-1.573 -2.703,-1.772C-2.545,-1.972 -2.317,-2.125 -2.02,-2.232C-1.722,-2.339 -1.376,-2.393 -0.984,-2.393C-0.594,-2.393 -0.278,-2.348 -0.034,-2.256C0.209,-2.164 0.388,-2.049 0.503,-1.91C0.618,-1.771 0.697,-1.596 0.743,-1.383C0.769,-1.252 0.782,-1.014 0.782,-0.67L0.782,0.361C0.782,1.08 0.798,1.535 0.831,1.725C0.865,1.916 0.929,2.099 1.027,2.273L0.219,2.273C0.139,2.113 0.087,1.925 0.064,1.71" style="fill:rgb(255,221,24);fill-rule:nonzero;"/>
        </g>
        <g transform="matrix(1,0,0,1,19.5701,103.072)">
            <path d="M0,6.299L0,0L0.855,0L4.164,4.945L4.164,0L4.963,0L4.963,6.299L4.108,6.299L0.799,1.349L0.799,6.299L0,6.299Z" style="fill:rgb(255,221,24);fill-rule:nonzero;"/>
        </g>
        <g transform="matrix(1,0,0,1,26.4194,107.528)">
            <path d="M0,-0.877L2.548,-0.877C2.514,-1.26 2.416,-1.548 2.256,-1.741C2.01,-2.038 1.69,-2.188 1.298,-2.188C0.942,-2.188 0.643,-2.068 0.402,-1.831C0.16,-1.594 0.026,-1.276 0,-0.877M2.539,0.373L3.339,0.472C3.213,0.939 2.979,1.302 2.638,1.559C2.298,1.817 1.862,1.946 1.332,1.946C0.665,1.946 0.135,1.741 -0.256,1.329C-0.647,0.918 -0.842,0.342 -0.842,-0.4C-0.842,-1.168 -0.645,-1.763 -0.249,-2.188C0.146,-2.612 0.658,-2.823 1.289,-2.823C1.899,-2.823 2.398,-2.616 2.784,-2.2C3.171,-1.785 3.364,-1.2 3.364,-0.447C3.364,-0.401 3.363,-0.332 3.36,-0.241L-0.043,-0.241C-0.014,0.261 0.128,0.644 0.382,0.91C0.637,1.177 0.955,1.31 1.336,1.31C1.62,1.31 1.862,1.236 2.063,1.087C2.263,0.937 2.422,0.7 2.539,0.373" style="fill:rgb(255,221,24);fill-rule:nonzero;"/>
        </g>
        <g transform="matrix(1,0,0,1,31.5713,104.808)">
            <path d="M0,4.563L-1.396,0L-0.597,0L0.129,2.634L0.4,3.613C0.411,3.565 0.49,3.251 0.636,2.672L1.362,0L2.157,0L2.84,2.647L3.068,3.519L3.33,2.638L4.112,0L4.864,0L3.438,4.563L2.634,4.563L1.908,1.83L1.732,1.052L0.808,4.563L0,4.563Z" style="fill:rgb(255,221,24);fill-rule:nonzero;"/>
        </g>
        <g transform="matrix(1,0,0,1,41.2436,103.072)">
            <path d="M0,6.299L0,3.631L-2.428,0L-1.414,0L-0.172,1.899C0.057,2.255 0.271,2.609 0.468,2.965C0.657,2.635 0.886,2.264 1.156,1.852L2.376,0L3.347,0L0.834,3.631L0.834,6.299L0,6.299Z" style="fill:rgb(255,221,24);fill-rule:nonzero;"/>
        </g>
        <g transform="matrix(1,0,0,1,44.9389,107.089)">
            <path d="M0,0C0,0.584 0.128,1.022 0.382,1.313C0.637,1.604 0.958,1.749 1.345,1.749C1.728,1.749 2.049,1.603 2.303,1.311C2.558,1.018 2.686,0.573 2.686,-0.026C2.686,-0.59 2.558,-1.017 2.301,-1.308C2.044,-1.6 1.726,-1.745 1.345,-1.745C0.958,-1.745 0.637,-1.6 0.382,-1.311C0.128,-1.022 0,-0.584 0,0M-0.795,0C-0.795,-0.845 -0.56,-1.471 -0.09,-1.878C0.302,-2.216 0.781,-2.385 1.345,-2.385C1.972,-2.385 2.485,-2.18 2.883,-1.768C3.282,-1.357 3.48,-0.79 3.48,-0.064C3.48,0.523 3.392,0.985 3.216,1.321C3.04,1.658 2.783,1.92 2.447,2.105C2.111,2.291 1.743,2.385 1.345,2.385C0.706,2.385 0.19,2.18 -0.204,1.77C-0.598,1.361 -0.795,0.77 -0.795,0" style="fill:rgb(255,221,24);fill-rule:nonzero;"/>
        </g>
        <g transform="matrix(1,0,0,1,49.3174,104.705)">
            <path d="M0,4.666L0,0.103L0.696,0.103L0.696,0.795C0.873,0.471 1.038,0.257 1.188,0.154C1.338,0.051 1.504,0 1.684,0C1.945,0 2.21,0.082 2.479,0.249L2.213,0.966C2.024,0.855 1.835,0.799 1.646,0.799C1.477,0.799 1.325,0.849 1.19,0.951C1.056,1.053 0.959,1.194 0.902,1.375C0.816,1.65 0.773,1.95 0.773,2.277L0.773,4.666L0,4.666Z" style="fill:rgb(255,221,24);fill-rule:nonzero;"/>
        </g>
        <g transform="matrix(1,0,0,1,52.2608,103.072)">
            <path d="M0,6.299L0,0L0.773,0L0.773,3.592L2.604,1.736L3.605,1.736L1.861,3.429L3.781,6.299L2.827,6.299L1.319,3.966L0.773,4.49L0.773,6.299L0,6.299Z" style="fill:rgb(255,221,24);fill-rule:nonzero;"/>
        </g>
        <g transform="matrix(1,0,0,1,56.8584,109.736)">
            <path d="M0,-0.365L0,-1.246L0.881,-1.246L0.881,-0.365C0.881,-0.042 0.824,0.22 0.709,0.419C0.594,0.618 0.413,0.773 0.163,0.881L-0.052,0.55C0.112,0.478 0.232,0.373 0.309,0.234C0.387,0.096 0.43,-0.104 0.438,-0.365L0,-0.365Z" style="fill:rgb(255,221,24);fill-rule:nonzero;"/>
        </g>
        <g transform="matrix(1,0,0,1,61.6365,103.072)">
            <path d="M0,6.299L0,0L0.855,0L4.164,4.945L4.164,0L4.963,0L4.963,6.299L4.108,6.299L0.799,1.349L0.799,6.299L0,6.299Z" style="fill:rgb(255,221,24);fill-rule:nonzero;"/>
        </g>
        <g transform="matrix(1,0,0,1,68.4858,107.528)">
            <path d="M0,-0.877L2.548,-0.877C2.514,-1.26 2.416,-1.548 2.256,-1.741C2.01,-2.038 1.69,-2.188 1.298,-2.188C0.942,-2.188 0.643,-2.068 0.402,-1.831C0.16,-1.594 0.026,-1.276 0,-0.877M2.539,0.373L3.339,0.472C3.213,0.939 2.979,1.302 2.638,1.559C2.298,1.817 1.862,1.946 1.332,1.946C0.665,1.946 0.135,1.741 -0.256,1.329C-0.647,0.918 -0.842,0.342 -0.842,-0.4C-0.842,-1.168 -0.645,-1.763 -0.249,-2.188C0.146,-2.612 0.658,-2.823 1.289,-2.823C1.899,-2.823 2.398,-2.616 2.784,-2.2C3.171,-1.785 3.364,-1.2 3.364,-0.447C3.364,-0.401 3.363,-0.332 3.36,-0.241L-0.043,-0.241C-0.014,0.261 0.128,0.644 0.382,0.91C0.637,1.177 0.955,1.31 1.336,1.31C1.62,1.31 1.862,1.236 2.063,1.087C2.263,0.937 2.422,0.7 2.539,0.373" style="fill:rgb(255,221,24);fill-rule:nonzero;"/>
        </g>
        <g transform="matrix(1,0,0,1,73.6377,104.808)">
            <path d="M0,4.563L-1.396,0L-0.597,0L0.129,2.634L0.4,3.613C0.411,3.565 0.49,3.251 0.636,2.672L1.362,0L2.157,0L2.84,2.647L3.068,3.519L3.33,2.638L4.112,0L4.864,0L3.438,4.563L2.634,4.563L1.908,1.83L1.732,1.052L0.808,4.563L0,4.563Z" style="fill:rgb(255,221,24);fill-rule:nonzero;"/>
        </g>
        <g transform="matrix(1,0,0,1,83.31,103.072)">
            <path d="M0,6.299L0,3.631L-2.428,0L-1.414,0L-0.172,1.899C0.057,2.255 0.271,2.609 0.468,2.965C0.657,2.635 0.886,2.264 1.156,1.852L2.376,0L3.347,0L0.834,3.631L0.834,6.299L0,6.299Z" style="fill:rgb(255,221,24);fill-rule:nonzero;"/>
        </g>
        <g transform="matrix(1,0,0,1,87.0053,107.089)">
            <path d="M0,0C0,0.584 0.128,1.022 0.382,1.313C0.637,1.604 0.958,1.749 1.345,1.749C1.728,1.749 2.049,1.603 2.303,1.311C2.558,1.018 2.686,0.573 2.686,-0.026C2.686,-0.59 2.558,-1.017 2.301,-1.308C2.044,-1.6 1.726,-1.745 1.345,-1.745C0.958,-1.745 0.637,-1.6 0.382,-1.311C0.128,-1.022 0,-0.584 0,0M-0.795,0C-0.795,-0.845 -0.56,-1.471 -0.09,-1.878C0.302,-2.216 0.781,-2.385 1.345,-2.385C1.972,-2.385 2.485,-2.18 2.883,-1.768C3.282,-1.357 3.48,-0.79 3.48,-0.064C3.48,0.523 3.392,0.985 3.216,1.321C3.04,1.658 2.783,1.92 2.447,2.105C2.111,2.291 1.743,2.385 1.345,2.385C0.706,2.385 0.19,2.18 -0.204,1.77C-0.598,1.361 -0.795,0.77 -0.795,0" style="fill:rgb(255,221,24);fill-rule:nonzero;"/>
        </g>
        <g transform="matrix(1,0,0,1,91.3838,104.705)">
            <path d="M0,4.666L0,0.103L0.696,0.103L0.696,0.795C0.873,0.471 1.038,0.257 1.188,0.154C1.338,0.051 1.504,0 1.684,0C1.945,0 2.21,0.082 2.479,0.249L2.213,0.966C2.024,0.855 1.835,0.799 1.646,0.799C1.477,0.799 1.325,0.849 1.19,0.951C1.056,1.053 0.959,1.194 0.902,1.375C0.816,1.65 0.773,1.95 0.773,2.277L0.773,4.666L0,4.666Z" style="fill:rgb(255,221,24);fill-rule:nonzero;"/>
        </g>
        <g transform="matrix(1,0,0,1,94.3272,103.072)">
            <path d="M0,6.299L0,0L0.773,0L0.773,3.592L2.604,1.736L3.605,1.736L1.861,3.429L3.781,6.299L2.827,6.299L1.319,3.966L0.773,4.49L0.773,6.299L0,6.299Z" style="fill:rgb(255,221,24);fill-rule:nonzero;"/>
        </g>
        <g transform="matrix(1,0,0,1,103.866,103.046)">
            <path d="M0,6.325L-0.773,6.325L-0.773,1.396C-0.959,1.574 -1.204,1.752 -1.506,1.929C-1.808,2.107 -2.08,2.24 -2.32,2.329L-2.32,1.581C-1.887,1.378 -1.509,1.131 -1.186,0.842C-0.863,0.553 -0.633,0.272 -0.498,0L0,0L0,6.325Z" style="fill:rgb(255,221,24);fill-rule:nonzero;"/>
        </g>
        <g transform="matrix(1,0,0,1,106.642,106.26)">
            <path d="M0,0.004C0,1.038 0.121,1.726 0.363,2.069C0.605,2.411 0.903,2.582 1.259,2.582C1.615,2.582 1.913,2.41 2.155,2.067C2.397,1.723 2.518,1.035 2.518,0.004C2.518,-1.033 2.397,-1.722 2.155,-2.063C1.913,-2.403 1.611,-2.574 1.25,-2.574C0.895,-2.574 0.611,-2.424 0.4,-2.123C0.133,-1.739 0,-1.03 0,0.004M-0.795,0.004C-0.795,-0.74 -0.719,-1.34 -0.565,-1.794C-0.411,-2.249 -0.184,-2.599 0.118,-2.845C0.42,-3.091 0.8,-3.214 1.259,-3.214C1.597,-3.214 1.894,-3.147 2.148,-3.01C2.403,-2.874 2.614,-2.678 2.78,-2.422C2.947,-2.165 3.077,-1.853 3.171,-1.485C3.266,-1.116 3.313,-0.62 3.313,0.004C3.313,0.743 3.237,1.339 3.085,1.794C2.934,2.248 2.706,2.598 2.404,2.846C2.102,3.095 1.72,3.218 1.259,3.218C0.652,3.218 0.175,3 -0.172,2.565C-0.588,2.041 -0.795,1.187 -0.795,0.004" style="fill:rgb(255,221,24);fill-rule:nonzero;"/>
        </g>
        <g transform="matrix(1,0,0,1,111.536,106.26)">
            <path d="M0,0.004C0,1.038 0.121,1.726 0.363,2.069C0.605,2.411 0.903,2.582 1.259,2.582C1.615,2.582 1.913,2.41 2.155,2.067C2.397,1.723 2.518,1.035 2.518,0.004C2.518,-1.033 2.397,-1.722 2.155,-2.063C1.913,-2.403 1.611,-2.574 1.25,-2.574C0.895,-2.574 0.611,-2.424 0.4,-2.123C0.133,-1.739 0,-1.03 0,0.004M-0.795,0.004C-0.795,-0.74 -0.719,-1.34 -0.565,-1.794C-0.411,-2.249 -0.184,-2.599 0.118,-2.845C0.42,-3.091 0.8,-3.214 1.259,-3.214C1.597,-3.214 1.894,-3.147 2.148,-3.01C2.403,-2.874 2.614,-2.678 2.78,-2.422C2.947,-2.165 3.077,-1.853 3.171,-1.485C3.266,-1.116 3.313,-0.62 3.313,0.004C3.313,0.743 3.237,1.339 3.085,1.794C2.934,2.248 2.706,2.598 2.404,2.846C2.102,3.095 1.72,3.218 1.259,3.218C0.652,3.218 0.175,3 -0.172,2.565C-0.588,2.041 -0.795,1.187 -0.795,0.004" style="fill:rgb(255,221,24);fill-rule:nonzero;"/>
        </g>
        <g transform="matrix(1,0,0,1,118.549,103.046)">
            <path d="M0,6.325L-0.773,6.325L-0.773,1.396C-0.959,1.574 -1.204,1.752 -1.506,1.929C-1.808,2.107 -2.08,2.24 -2.32,2.329L-2.32,1.581C-1.887,1.378 -1.509,1.131 -1.186,0.842C-0.863,0.553 -0.633,0.272 -0.498,0L0,0L0,6.325Z" style="fill:rgb(255,221,24);fill-rule:nonzero;"/>
        </g>
        <g transform="matrix(1,0,0,1,123.009,105.289)">
            <path d="M0,1.865L0,-0.975L-1.972,1.865L0,1.865ZM0,4.082L0,2.574L-2.733,2.574L-2.733,1.865L0.142,-2.217L0.773,-2.217L0.773,1.865L1.624,1.865L1.624,2.574L0.773,2.574L0.773,4.082L0,4.082Z" style="fill:rgb(255,221,24);fill-rule:nonzero;"/>
        </g>
        <g transform="matrix(1,0,0,1,21.0955,112.992)">
            <path d="M0,8.259C-0.427,7.72 -0.788,7.09 -1.083,6.368C-1.378,5.646 -1.525,4.899 -1.525,4.125C-1.525,3.444 -1.415,2.791 -1.195,2.166C-0.937,1.441 -0.539,0.72 0,0L0.554,0C0.208,0.596 -0.021,1.021 -0.133,1.277C-0.308,1.672 -0.445,2.084 -0.546,2.514C-0.669,3.05 -0.73,3.588 -0.73,4.13C-0.73,5.507 -0.302,6.884 0.554,8.259L0,8.259Z" style="fill:rgb(255,221,24);fill-rule:nonzero;"/>
        </g>
        <g transform="matrix(1,0,0,1,26.3979,113.817)">
            <path d="M0,4.839L0,5.582L-4.164,5.582C-4.17,5.396 -4.14,5.217 -4.073,5.045C-3.968,4.762 -3.798,4.482 -3.564,4.207C-3.331,3.932 -2.993,3.614 -2.552,3.253C-1.868,2.692 -1.405,2.247 -1.164,1.919C-0.924,1.591 -0.804,1.281 -0.804,0.989C-0.804,0.682 -0.913,0.424 -1.132,0.213C-1.351,0.003 -1.637,-0.102 -1.989,-0.102C-2.362,-0.102 -2.66,0.009 -2.883,0.233C-3.107,0.456 -3.22,0.766 -3.223,1.161L-4.018,1.079C-3.963,0.486 -3.758,0.035 -3.403,-0.276C-3.048,-0.587 -2.571,-0.743 -1.972,-0.743C-1.368,-0.743 -0.889,-0.575 -0.537,-0.24C-0.185,0.095 -0.009,0.51 -0.009,1.006C-0.009,1.258 -0.06,1.506 -0.163,1.75C-0.266,1.993 -0.438,2.25 -0.677,2.519C-0.916,2.788 -1.313,3.157 -1.869,3.627C-2.333,4.017 -2.631,4.281 -2.763,4.42C-2.894,4.559 -3.004,4.699 -3.089,4.839L0,4.839Z" style="fill:rgb(255,221,24);fill-rule:nonzero;"/>
        </g>
        <g transform="matrix(1,0,0,1,30.1404,113.075)">
            <path d="M0,6.325L-0.773,6.325L-0.773,1.396C-0.96,1.574 -1.204,1.752 -1.506,1.929C-1.808,2.107 -2.08,2.24 -2.32,2.329L-2.32,1.581C-1.888,1.378 -1.51,1.132 -1.186,0.842C-0.862,0.553 -0.633,0.272 -0.498,0L0,0L0,6.325Z" style="fill:rgb(255,221,24);fill-rule:nonzero;"/>
        </g>
        <g transform="matrix(1,0,0,1,36.1862,113.817)">
            <path d="M0,4.839L0,5.582L-4.164,5.582C-4.17,5.396 -4.14,5.217 -4.073,5.045C-3.968,4.762 -3.798,4.482 -3.564,4.207C-3.331,3.932 -2.993,3.614 -2.552,3.253C-1.868,2.692 -1.405,2.247 -1.164,1.919C-0.924,1.591 -0.804,1.281 -0.804,0.989C-0.804,0.682 -0.913,0.424 -1.132,0.213C-1.351,0.003 -1.637,-0.102 -1.989,-0.102C-2.362,-0.102 -2.66,0.009 -2.883,0.233C-3.107,0.456 -3.22,0.766 -3.223,1.161L-4.018,1.079C-3.963,0.486 -3.758,0.035 -3.403,-0.276C-3.048,-0.587 -2.571,-0.743 -1.972,-0.743C-1.368,-0.743 -0.889,-0.575 -0.537,-0.24C-0.185,0.095 -0.009,0.51 -0.009,1.006C-0.009,1.258 -0.06,1.506 -0.163,1.75C-0.266,1.993 -0.438,2.25 -0.677,2.519C-0.916,2.788 -1.313,3.157 -1.869,3.627C-2.333,4.017 -2.631,4.281 -2.763,4.42C-2.894,4.559 -3.004,4.699 -3.089,4.839L0,4.839Z" style="fill:rgb(255,221,24);fill-rule:nonzero;"/>
        </g>
        <g transform="matrix(1,0,0,1,37.7373,112.992)">
            <path d="M0,8.259L-0.554,8.259C0.302,6.884 0.73,5.507 0.73,4.13C0.73,3.591 0.669,3.057 0.546,2.527C0.448,2.097 0.312,1.685 0.137,1.289C0.026,1.032 -0.205,0.602 -0.554,0L0,0C0.539,0.72 0.937,1.441 1.195,2.166C1.415,2.791 1.525,3.444 1.525,4.125C1.525,4.899 1.377,5.646 1.081,6.368C0.784,7.09 0.424,7.72 0,8.259" style="fill:rgb(255,221,24);fill-rule:nonzero;"/>
        </g>
        <g transform="matrix(1,0,0,1,44.8701,115.317)">
            <path d="M0,1.865L0,-0.975L-1.972,1.865L0,1.865ZM0,4.082L0,2.574L-2.733,2.574L-2.733,1.865L0.142,-2.217L0.773,-2.217L0.773,1.865L1.624,1.865L1.624,2.574L0.773,2.574L0.773,4.082L0,4.082Z" style="fill:rgb(255,221,24);fill-rule:nonzero;"/>
        </g>
        <g transform="matrix(1,0,0,1,50.1983,113.075)">
            <path d="M0,6.325L-0.773,6.325L-0.773,1.396C-0.96,1.574 -1.204,1.752 -1.506,1.929C-1.808,2.107 -2.08,2.24 -2.32,2.329L-2.32,1.581C-1.888,1.378 -1.51,1.132 -1.186,0.842C-0.862,0.553 -0.633,0.272 -0.498,0L0,0L0,6.325Z" style="fill:rgb(255,221,24);fill-rule:nonzero;"/>
        </g>
        <g transform="matrix(1,0,0,1,54.6584,115.317)">
            <path d="M0,1.865L0,-0.975L-1.972,1.865L0,1.865ZM0,4.082L0,2.574L-2.733,2.574L-2.733,1.865L0.142,-2.217L0.773,-2.217L0.773,1.865L1.624,1.865L1.624,2.574L0.773,2.574L0.773,4.082L0,4.082Z" style="fill:rgb(255,221,24);fill-rule:nonzero;"/>
        </g>
        <g transform="matrix(1,0,0,1,0,90.24)">
            <rect x="59.432" y="26.491" width="2.376" height="0.778" style="fill:rgb(255,221,24);"/>
        </g>
        <g transform="matrix(1,0,0,1,68.9584,113.817)">
            <path d="M0,4.839L0,5.582L-4.164,5.582C-4.17,5.396 -4.139,5.217 -4.073,5.045C-3.968,4.762 -3.798,4.482 -3.564,4.207C-3.331,3.932 -2.993,3.614 -2.552,3.253C-1.868,2.692 -1.405,2.247 -1.164,1.919C-0.924,1.591 -0.804,1.281 -0.804,0.989C-0.804,0.682 -0.913,0.424 -1.132,0.213C-1.351,0.003 -1.637,-0.102 -1.989,-0.102C-2.362,-0.102 -2.66,0.009 -2.883,0.233C-3.107,0.456 -3.22,0.766 -3.223,1.161L-4.018,1.079C-3.963,0.486 -3.758,0.035 -3.403,-0.276C-3.048,-0.587 -2.571,-0.743 -1.972,-0.743C-1.368,-0.743 -0.889,-0.575 -0.537,-0.24C-0.185,0.095 -0.009,0.51 -0.009,1.006C-0.009,1.258 -0.06,1.506 -0.163,1.75C-0.266,1.993 -0.438,2.25 -0.677,2.519C-0.916,2.788 -1.313,3.157 -1.869,3.627C-2.333,4.017 -2.631,4.281 -2.763,4.42C-2.894,4.559 -3.004,4.699 -3.089,4.839L0,4.839Z" style="fill:rgb(255,221,24);fill-rule:nonzero;"/>
        </g>
        <g transform="matrix(1,0,0,1,69.8393,118.656)">
            <path d="M0,-4.731L0,-5.474L4.078,-5.474L4.078,-4.873C3.677,-4.446 3.279,-3.879 2.885,-3.171C2.492,-2.464 2.187,-1.736 1.972,-0.988C1.818,-0.462 1.719,0.116 1.676,0.743L0.881,0.743C0.889,0.247 0.987,-0.351 1.173,-1.053C1.359,-1.755 1.626,-2.432 1.974,-3.083C2.322,-3.735 2.693,-4.284 3.085,-4.731L0,-4.731Z" style="fill:rgb(255,221,24);fill-rule:nonzero;"/>
        </g>
        <g transform="matrix(1,0,0,1,77.1611,115.317)">
            <path d="M0,1.865L0,-0.975L-1.972,1.865L0,1.865ZM0,4.082L0,2.574L-2.733,2.574L-2.733,1.865L0.142,-2.217L0.773,-2.217L0.773,1.865L1.624,1.865L1.624,2.574L0.773,2.574L0.773,4.082L0,4.082Z" style="fill:rgb(255,221,24);fill-rule:nonzero;"/>
        </g>
        <g transform="matrix(1,0,0,1,82.0553,115.317)">
            <path d="M0,1.865L0,-0.975L-1.972,1.865L0,1.865ZM0,4.082L0,2.574L-2.733,2.574L-2.733,1.865L0.142,-2.217L0.773,-2.217L0.773,1.865L1.624,1.865L1.624,2.574L0.773,2.574L0.773,4.082L0,4.082Z" style="fill:rgb(255,221,24);fill-rule:nonzero;"/>
        </g>
        <g transform="matrix(1,0,0,1,19.5701,125.377)">
            <path d="M0,4.666L0,0.103L0.692,0.103L0.692,0.743C0.835,0.52 1.025,0.34 1.263,0.204C1.501,0.068 1.772,0 2.075,0C2.413,0 2.69,0.07 2.907,0.21C3.123,0.35 3.276,0.547 3.364,0.799C3.725,0.266 4.195,0 4.774,0C5.227,0 5.575,0.125 5.818,0.376C6.061,0.626 6.183,1.012 6.183,1.534L6.183,4.666L5.414,4.666L5.414,1.791C5.414,1.482 5.389,1.259 5.339,1.123C5.289,0.987 5.198,0.878 5.066,0.795C4.934,0.711 4.78,0.67 4.602,0.67C4.281,0.67 4.015,0.777 3.803,0.99C3.591,1.203 3.485,1.545 3.485,2.015L3.485,4.666L2.711,4.666L2.711,1.701C2.711,1.357 2.648,1.1 2.522,0.928C2.396,0.756 2.19,0.67 1.904,0.67C1.686,0.67 1.485,0.727 1.3,0.842C1.115,0.956 0.981,1.124 0.898,1.345C0.815,1.565 0.773,1.883 0.773,2.298L0.773,4.666L0,4.666Z" style="fill:rgb(255,221,24);fill-rule:nonzero;"/>
        </g>
        <g transform="matrix(1,0,0,1,0,109.785)">
            <path d="M26.905,15.694L27.678,15.694L27.678,20.257L26.905,20.257L26.905,15.694ZM26.905,13.958L27.678,13.958L27.678,14.847L26.905,14.847L26.905,13.958Z" style="fill:rgb(255,221,24);fill-rule:nonzero;"/>
        </g>
        <g transform="matrix(1,0,0,1,28.86,123.744)">
            <path d="M0,6.299L0,0L0.773,0L0.773,3.592L2.604,1.736L3.605,1.736L1.861,3.429L3.781,6.299L2.827,6.299L1.319,3.966L0.773,4.49L0.773,6.299L0,6.299Z" style="fill:rgb(255,221,24);fill-rule:nonzero;"/>
        </g>
        <g transform="matrix(1,0,0,1,33.8401,128.2)">
            <path d="M0,-0.877L2.548,-0.877C2.514,-1.261 2.416,-1.549 2.256,-1.741C2.009,-2.039 1.69,-2.188 1.298,-2.188C0.943,-2.188 0.644,-2.069 0.402,-1.831C0.16,-1.593 0.026,-1.275 0,-0.877M2.539,0.373L3.339,0.472C3.212,0.939 2.979,1.302 2.638,1.559C2.297,1.817 1.862,1.946 1.332,1.946C0.664,1.946 0.135,1.74 -0.256,1.329C-0.647,0.919 -0.842,0.342 -0.842,-0.4C-0.842,-1.168 -0.645,-1.764 -0.249,-2.188C0.146,-2.611 0.659,-2.823 1.289,-2.823C1.899,-2.823 2.398,-2.616 2.784,-2.2C3.171,-1.785 3.364,-1.201 3.364,-0.447C3.364,-0.402 3.363,-0.333 3.36,-0.241L-0.043,-0.241C-0.014,0.26 0.127,0.644 0.382,0.91C0.638,1.177 0.956,1.31 1.336,1.31C1.62,1.31 1.862,1.235 2.063,1.087C2.263,0.938 2.422,0.7 2.539,0.373" style="fill:rgb(255,221,24);fill-rule:nonzero;"/>
        </g>
        <g transform="matrix(1,0,0,1,0,115.205)">
            <rect x="38.369" y="13.957" width="0.881" height="0.881" style="fill:rgb(255,221,24);"/>
        </g>
        <g transform="matrix(1,0,0,1,0,111.638)">
            <path d="M40.59,12.105L41.363,12.105L41.363,13.003L40.59,13.003L40.59,12.105ZM39.611,20.175L39.757,19.518C39.912,19.558 40.033,19.578 40.122,19.578C40.279,19.578 40.397,19.526 40.474,19.421C40.552,19.316 40.59,19.055 40.59,18.637L40.59,13.841L41.364,13.841L41.364,18.654C41.364,19.215 41.291,19.606 41.145,19.827C40.958,20.113 40.649,20.257 40.217,20.257C40.008,20.257 39.806,20.229 39.611,20.175" style="fill:rgb(255,221,24);fill-rule:nonzero;"/>
        </g>
        <g transform="matrix(1,0,0,1,43.0569,127.761)">
            <path d="M0,0C0,0.584 0.127,1.022 0.382,1.313C0.638,1.603 0.958,1.749 1.345,1.749C1.729,1.749 2.048,1.603 2.303,1.311C2.558,1.018 2.686,0.573 2.686,-0.026C2.686,-0.59 2.557,-1.018 2.301,-1.308C2.045,-1.599 1.726,-1.745 1.345,-1.745C0.958,-1.745 0.638,-1.6 0.382,-1.311C0.127,-1.021 0,-0.584 0,0M-0.795,0C-0.795,-0.845 -0.56,-1.471 -0.09,-1.878C0.302,-2.216 0.78,-2.385 1.345,-2.385C1.972,-2.385 2.485,-2.179 2.883,-1.768C3.281,-1.357 3.48,-0.789 3.48,-0.064C3.48,0.523 3.392,0.985 3.216,1.321C3.04,1.658 2.784,1.919 2.447,2.105C2.11,2.292 1.743,2.385 1.345,2.385C0.706,2.385 0.19,2.18 -0.204,1.77C-0.598,1.361 -0.795,0.771 -0.795,0" style="fill:rgb(255,221,24);fill-rule:nonzero;"/>
        </g>
        <g transform="matrix(1,0,0,1,47.4096,125.574)">
            <path d="M0,6.226L-0.086,5.5C0.083,5.545 0.23,5.569 0.357,5.569C0.529,5.569 0.666,5.54 0.769,5.483C0.872,5.425 0.957,5.345 1.023,5.242C1.072,5.165 1.15,4.973 1.259,4.666C1.273,4.623 1.296,4.56 1.328,4.477L-0.404,-0.095L0.43,-0.095L1.379,2.548C1.502,2.883 1.613,3.235 1.71,3.605C1.799,3.25 1.905,2.903 2.028,2.565L3.004,-0.095L3.777,-0.095L2.041,4.546C1.855,5.047 1.71,5.392 1.607,5.581C1.47,5.837 1.312,6.024 1.134,6.142C0.957,6.261 0.745,6.321 0.498,6.321C0.35,6.321 0.183,6.289 0,6.226" style="fill:rgb(255,221,24);fill-rule:nonzero;"/>
        </g>
        <g transform="matrix(1,0,0,1,54.8217,127.151)">
            <path d="M0,1.22L0.761,1.319C0.677,1.843 0.465,2.253 0.122,2.55C-0.22,2.846 -0.64,2.995 -1.139,2.995C-1.763,2.995 -2.265,2.791 -2.645,2.382C-3.024,1.974 -3.214,1.389 -3.214,0.627C-3.214,0.135 -3.132,-0.297 -2.969,-0.666C-2.806,-1.036 -2.557,-1.313 -2.224,-1.498C-1.89,-1.683 -1.527,-1.775 -1.134,-1.775C-0.639,-1.775 -0.234,-1.65 0.082,-1.399C0.397,-1.148 0.599,-0.793 0.687,-0.331L-0.064,-0.215C-0.136,-0.522 -0.263,-0.752 -0.445,-0.907C-0.627,-1.062 -0.846,-1.139 -1.104,-1.139C-1.494,-1.139 -1.811,-0.999 -2.054,-0.72C-2.297,-0.441 -2.419,0.001 -2.419,0.606C-2.419,1.218 -2.302,1.664 -2.067,1.942C-1.832,2.22 -1.525,2.359 -1.147,2.359C-0.844,2.359 -0.59,2.266 -0.387,2.079C-0.183,1.893 -0.054,1.607 0,1.22" style="fill:rgb(255,221,24);fill-rule:nonzero;"/>
        </g>
        <g transform="matrix(1,0,0,1,56.8283,128.2)">
            <path d="M0,-0.877L2.548,-0.877C2.514,-1.261 2.416,-1.549 2.256,-1.741C2.009,-2.039 1.69,-2.188 1.298,-2.188C0.943,-2.188 0.644,-2.069 0.402,-1.831C0.16,-1.593 0.026,-1.275 0,-0.877M2.539,0.373L3.339,0.472C3.212,0.939 2.979,1.302 2.638,1.559C2.297,1.817 1.862,1.946 1.332,1.946C0.664,1.946 0.135,1.74 -0.256,1.329C-0.647,0.919 -0.842,0.342 -0.842,-0.4C-0.842,-1.168 -0.645,-1.764 -0.249,-2.188C0.146,-2.611 0.659,-2.823 1.289,-2.823C1.899,-2.823 2.398,-2.616 2.784,-2.2C3.171,-1.785 3.364,-1.201 3.364,-0.447C3.364,-0.402 3.363,-0.333 3.36,-0.241L-0.043,-0.241C-0.014,0.26 0.127,0.644 0.382,0.91C0.638,1.177 0.956,1.31 1.336,1.31C1.62,1.31 1.862,1.235 2.063,1.087C2.263,0.938 2.422,0.7 2.539,0.373" style="fill:rgb(255,221,24);fill-rule:nonzero;"/>
        </g>
        <g transform="matrix(1,0,0,1,63.467,127.345)">
            <path d="M0,0.833C0,1.226 0.093,1.531 0.279,1.748C0.466,1.966 0.679,2.075 0.92,2.075C1.08,2.075 1.249,2.027 1.427,1.931C1.604,1.835 1.774,1.692 1.936,1.503C2.097,1.314 2.23,1.074 2.333,0.784C2.436,0.493 2.488,0.201 2.488,-0.091C2.488,-0.48 2.391,-0.783 2.198,-0.997C2.005,-1.212 1.769,-1.32 1.491,-1.32C1.308,-1.32 1.135,-1.273 0.973,-1.18C0.812,-1.087 0.655,-0.937 0.503,-0.731C0.351,-0.525 0.229,-0.274 0.137,0.021C0.046,0.316 0,0.586 0,0.833M2.08,1.997C1.893,2.212 1.685,2.385 1.454,2.515C1.224,2.646 0.993,2.711 0.761,2.711C0.505,2.711 0.258,2.636 0.017,2.487C-0.223,2.339 -0.419,2.109 -0.569,1.8C-0.72,1.49 -0.795,1.151 -0.795,0.781C-0.795,0.326 -0.678,-0.13 -0.445,-0.587C-0.211,-1.044 0.079,-1.387 0.425,-1.616C0.772,-1.846 1.109,-1.96 1.435,-1.96C1.684,-1.96 1.922,-1.895 2.148,-1.764C2.375,-1.634 2.57,-1.436 2.733,-1.169L2.879,-1.835L3.648,-1.835L3.029,1.048C2.943,1.449 2.9,1.671 2.9,1.714C2.9,1.791 2.93,1.858 2.988,1.914C3.047,1.97 3.118,1.997 3.201,1.997C3.353,1.997 3.552,1.91 3.798,1.735C4.125,1.506 4.383,1.199 4.574,0.814C4.765,0.429 4.86,0.031 4.86,-0.379C4.86,-0.857 4.737,-1.304 4.492,-1.719C4.247,-2.135 3.882,-2.467 3.397,-2.716C2.911,-2.965 2.375,-3.09 1.788,-3.09C1.117,-3.09 0.505,-2.933 -0.049,-2.62C-0.604,-2.306 -1.033,-1.856 -1.338,-1.27C-1.644,-0.684 -1.796,-0.056 -1.796,0.614C-1.796,1.316 -1.644,1.92 -1.338,2.427C-1.033,2.934 -0.592,3.309 -0.015,3.551C0.562,3.793 1.202,3.914 1.904,3.914C2.654,3.914 3.283,3.788 3.79,3.536C4.297,3.284 4.677,2.977 4.929,2.616L5.706,2.616C5.56,2.917 5.309,3.224 4.954,3.536C4.599,3.848 4.177,4.095 3.687,4.277C3.197,4.459 2.607,4.55 1.916,4.55C1.28,4.55 0.694,4.468 0.157,4.305C-0.38,4.142 -0.838,3.896 -1.216,3.568C-1.594,3.24 -1.879,2.863 -2.071,2.436C-2.312,1.894 -2.432,1.31 -2.432,0.683C-2.432,-0.016 -2.289,-0.682 -2.002,-1.315C-1.653,-2.092 -1.156,-2.686 -0.513,-3.099C0.129,-3.511 0.909,-3.717 1.826,-3.717C2.537,-3.717 3.175,-3.572 3.74,-3.281C4.306,-2.991 4.752,-2.557 5.079,-1.981C5.357,-1.486 5.496,-0.948 5.496,-0.366C5.496,0.465 5.204,1.203 4.619,1.847C4.098,2.426 3.528,2.715 2.909,2.715C2.711,2.715 2.552,2.685 2.43,2.625C2.308,2.565 2.219,2.479 2.161,2.367C2.124,2.296 2.097,2.172 2.08,1.997" style="fill:rgb(255,221,24);fill-rule:nonzero;"/>
        </g>
        <g transform="matrix(1,0,0,1,69.7619,126.842)">
            <path d="M0,1.839L0.765,1.719C0.808,2.025 0.928,2.26 1.124,2.423C1.32,2.587 1.594,2.668 1.946,2.668C2.302,2.668 2.565,2.596 2.737,2.451C2.909,2.307 2.995,2.137 2.995,1.942C2.995,1.768 2.919,1.63 2.767,1.53C2.661,1.461 2.398,1.373 1.977,1.268C1.409,1.124 1.016,1.001 0.797,0.896C0.578,0.791 0.412,0.647 0.299,0.462C0.185,0.277 0.129,0.073 0.129,-0.15C0.129,-0.354 0.176,-0.542 0.269,-0.715C0.361,-0.889 0.488,-1.033 0.649,-1.147C0.769,-1.236 0.933,-1.311 1.141,-1.373C1.349,-1.435 1.571,-1.465 1.809,-1.465C2.167,-1.465 2.481,-1.414 2.752,-1.311C3.023,-1.207 3.223,-1.068 3.352,-0.892C3.48,-0.715 3.569,-0.48 3.618,-0.185L2.862,-0.082C2.827,-0.316 2.728,-0.5 2.563,-0.632C2.398,-0.763 2.166,-0.829 1.865,-0.829C1.51,-0.829 1.256,-0.771 1.104,-0.653C0.952,-0.536 0.877,-0.398 0.877,-0.241C0.877,-0.14 0.908,-0.05 0.971,0.03C1.034,0.113 1.133,0.182 1.268,0.236C1.345,0.265 1.573,0.331 1.951,0.434C2.498,0.58 2.879,0.7 3.096,0.793C3.312,0.886 3.482,1.021 3.605,1.199C3.728,1.377 3.79,1.597 3.79,1.86C3.79,2.118 3.715,2.361 3.564,2.589C3.414,2.817 3.197,2.993 2.913,3.117C2.63,3.242 2.309,3.304 1.951,3.304C1.358,3.304 0.906,3.181 0.595,2.935C0.284,2.688 0.086,2.323 0,1.839" style="fill:rgb(255,221,24);fill-rule:nonzero;"/>
        </g>
        <g transform="matrix(1,0,0,1,76.16,124.637)">
            <path d="M0,4.714L0.112,5.397C-0.106,5.443 -0.301,5.466 -0.473,5.466C-0.754,5.466 -0.971,5.421 -1.126,5.333C-1.28,5.244 -1.39,5.127 -1.452,4.983C-1.515,4.838 -1.547,4.534 -1.547,4.069L-1.547,1.444L-2.114,1.444L-2.114,0.843L-1.547,0.843L-1.547,-0.288L-0.778,-0.752L-0.778,0.843L0,0.843L0,1.444L-0.778,1.444L-0.778,4.112C-0.778,4.333 -0.764,4.475 -0.737,4.538C-0.71,4.601 -0.665,4.651 -0.604,4.688C-0.542,4.725 -0.454,4.744 -0.339,4.744C-0.254,4.744 -0.14,4.734 0,4.714" style="fill:rgb(255,221,24);fill-rule:nonzero;"/>
        </g>
        <g transform="matrix(1,0,0,1,77.5006,128.2)">
            <path d="M0,-0.877L2.548,-0.877C2.514,-1.261 2.416,-1.549 2.256,-1.741C2.009,-2.039 1.69,-2.188 1.298,-2.188C0.943,-2.188 0.644,-2.069 0.402,-1.831C0.16,-1.593 0.026,-1.275 0,-0.877M2.539,0.373L3.339,0.472C3.212,0.939 2.979,1.302 2.638,1.559C2.297,1.817 1.862,1.946 1.332,1.946C0.664,1.946 0.135,1.74 -0.256,1.329C-0.647,0.919 -0.842,0.342 -0.842,-0.4C-0.842,-1.168 -0.645,-1.764 -0.249,-2.188C0.146,-2.611 0.659,-2.823 1.289,-2.823C1.899,-2.823 2.398,-2.616 2.784,-2.2C3.171,-1.785 3.364,-1.201 3.364,-0.447C3.364,-0.402 3.363,-0.333 3.36,-0.241L-0.043,-0.241C-0.015,0.26 0.127,0.644 0.382,0.91C0.638,1.177 0.956,1.31 1.336,1.31C1.62,1.31 1.862,1.235 2.063,1.087C2.263,0.938 2.422,0.7 2.539,0.373" style="fill:rgb(255,221,24);fill-rule:nonzero;"/>
        </g>
        <g transform="matrix(1,0,0,1,81.8018,125.377)">
            <path d="M0,4.666L0,0.103L0.696,0.103L0.696,0.795C0.874,0.471 1.038,0.257 1.188,0.154C1.338,0.051 1.504,0 1.684,0C1.945,0 2.21,0.083 2.479,0.249L2.213,0.966C2.024,0.855 1.835,0.799 1.646,0.799C1.477,0.799 1.325,0.85 1.19,0.951C1.055,1.053 0.96,1.194 0.902,1.375C0.816,1.65 0.773,1.95 0.773,2.277L0.773,4.666L0,4.666Z" style="fill:rgb(255,221,24);fill-rule:nonzero;"/>
        </g>
        <g transform="matrix(1,0,0,1,85.3252,128.2)">
            <path d="M0,-0.877L2.548,-0.877C2.514,-1.261 2.416,-1.549 2.256,-1.741C2.009,-2.039 1.69,-2.188 1.298,-2.188C0.943,-2.188 0.644,-2.069 0.402,-1.831C0.16,-1.593 0.026,-1.275 0,-0.877M2.539,0.373L3.339,0.472C3.212,0.939 2.979,1.302 2.638,1.559C2.297,1.817 1.862,1.946 1.332,1.946C0.664,1.946 0.135,1.74 -0.256,1.329C-0.647,0.919 -0.842,0.342 -0.842,-0.4C-0.842,-1.168 -0.645,-1.764 -0.249,-2.188C0.146,-2.611 0.659,-2.823 1.289,-2.823C1.899,-2.823 2.398,-2.616 2.784,-2.2C3.171,-1.785 3.364,-1.201 3.364,-0.447C3.364,-0.402 3.363,-0.333 3.36,-0.241L-0.043,-0.241C-0.014,0.26 0.127,0.644 0.382,0.91C0.638,1.177 0.956,1.31 1.336,1.31C1.62,1.31 1.862,1.235 2.063,1.087C2.263,0.938 2.422,0.7 2.539,0.373" style="fill:rgb(255,221,24);fill-rule:nonzero;"/>
        </g>
        <g transform="matrix(1,0,0,1,90.142,127.761)">
            <path d="M0,0C0,0.584 0.127,1.022 0.382,1.313C0.638,1.603 0.958,1.749 1.345,1.749C1.729,1.749 2.048,1.603 2.303,1.311C2.558,1.018 2.686,0.573 2.686,-0.026C2.686,-0.59 2.557,-1.018 2.301,-1.308C2.045,-1.599 1.726,-1.745 1.345,-1.745C0.958,-1.745 0.638,-1.6 0.382,-1.311C0.127,-1.021 0,-0.584 0,0M-0.795,0C-0.795,-0.845 -0.56,-1.471 -0.09,-1.878C0.302,-2.216 0.78,-2.385 1.345,-2.385C1.972,-2.385 2.485,-2.179 2.883,-1.768C3.281,-1.357 3.48,-0.789 3.48,-0.064C3.48,0.523 3.392,0.985 3.216,1.321C3.04,1.658 2.784,1.919 2.447,2.105C2.11,2.292 1.743,2.385 1.345,2.385C0.706,2.385 0.19,2.18 -0.204,1.77C-0.598,1.361 -0.795,0.771 -0.795,0" style="fill:rgb(255,221,24);fill-rule:nonzero;"/>
        </g>
        <g transform="matrix(1,0,0,1,96.2178,124.637)">
            <path d="M0,4.714L0.112,5.397C-0.106,5.443 -0.301,5.466 -0.473,5.466C-0.754,5.466 -0.971,5.421 -1.126,5.333C-1.28,5.244 -1.389,5.127 -1.452,4.983C-1.515,4.838 -1.547,4.534 -1.547,4.069L-1.547,1.444L-2.114,1.444L-2.114,0.843L-1.547,0.843L-1.547,-0.288L-0.778,-0.752L-0.778,0.843L0,0.843L0,1.444L-0.778,1.444L-0.778,4.112C-0.778,4.333 -0.764,4.475 -0.737,4.538C-0.71,4.601 -0.665,4.651 -0.604,4.688C-0.542,4.725 -0.454,4.744 -0.339,4.744C-0.254,4.744 -0.14,4.734 0,4.714" style="fill:rgb(255,221,24);fill-rule:nonzero;"/>
        </g>
        <g transform="matrix(1,0,0,1,96.9397,125.574)">
            <path d="M0,6.226L-0.086,5.5C0.083,5.545 0.23,5.569 0.357,5.569C0.529,5.569 0.666,5.54 0.769,5.483C0.872,5.425 0.957,5.345 1.023,5.242C1.072,5.165 1.15,4.973 1.259,4.666C1.273,4.623 1.296,4.56 1.328,4.477L-0.404,-0.095L0.43,-0.095L1.379,2.548C1.502,2.883 1.613,3.235 1.71,3.605C1.799,3.25 1.905,2.903 2.028,2.565L3.004,-0.095L3.777,-0.095L2.041,4.546C1.855,5.047 1.71,5.392 1.607,5.581C1.47,5.837 1.312,6.024 1.134,6.142C0.957,6.261 0.745,6.321 0.498,6.321C0.35,6.321 0.183,6.289 0,6.226" style="fill:rgb(255,221,24);fill-rule:nonzero;"/>
        </g>
        <g transform="matrix(1,0,0,1,102.074,129.381)">
            <path d="M0,-1.594C0,-1.007 0.119,-0.573 0.357,-0.292C0.595,-0.011 0.882,0.129 1.22,0.129C1.564,0.129 1.858,-0.017 2.103,-0.307C2.348,-0.598 2.471,-1.048 2.471,-1.658C2.471,-2.24 2.351,-2.675 2.112,-2.965C1.873,-3.254 1.587,-3.399 1.255,-3.399C0.925,-3.399 0.634,-3.245 0.38,-2.937C0.127,-2.629 0,-2.181 0,-1.594M-0.7,2.411L-0.7,-3.901L0.004,-3.901L0.004,-3.308C0.17,-3.54 0.358,-3.714 0.567,-3.831C0.776,-3.947 1.03,-4.005 1.328,-4.005C1.717,-4.005 2.061,-3.904 2.359,-3.704C2.657,-3.503 2.882,-3.22 3.034,-2.855C3.186,-2.49 3.261,-2.09 3.261,-1.654C3.261,-1.187 3.178,-0.767 3.01,-0.393C2.842,-0.019 2.599,0.267 2.279,0.466C1.96,0.666 1.624,0.765 1.272,0.765C1.014,0.765 0.783,0.711 0.578,0.602C0.373,0.493 0.205,0.355 0.073,0.189L0.073,2.411L-0.7,2.411Z" style="fill:rgb(255,221,24);fill-rule:nonzero;"/>
        </g>
        <g transform="matrix(1,0,0,1,106.853,128.2)">
            <path d="M0,-0.877L2.548,-0.877C2.514,-1.261 2.416,-1.549 2.256,-1.741C2.009,-2.039 1.69,-2.188 1.298,-2.188C0.943,-2.188 0.644,-2.069 0.402,-1.831C0.16,-1.593 0.026,-1.275 0,-0.877M2.539,0.373L3.339,0.472C3.212,0.939 2.979,1.302 2.638,1.559C2.297,1.817 1.862,1.946 1.332,1.946C0.664,1.946 0.135,1.74 -0.256,1.329C-0.647,0.919 -0.842,0.342 -0.842,-0.4C-0.842,-1.168 -0.645,-1.764 -0.249,-2.188C0.146,-2.611 0.659,-2.823 1.289,-2.823C1.899,-2.823 2.398,-2.616 2.784,-2.2C3.171,-1.785 3.364,-1.201 3.364,-0.447C3.364,-0.402 3.363,-0.333 3.36,-0.241L-0.043,-0.241C-0.014,0.26 0.127,0.644 0.382,0.91C0.638,1.177 0.956,1.31 1.336,1.31C1.62,1.31 1.862,1.235 2.063,1.087C2.263,0.938 2.422,0.7 2.539,0.373" style="fill:rgb(255,221,24);fill-rule:nonzero;"/>
        </g>
        <g transform="matrix(1,0,0,1,111.678,126.123)">
            <path d="M0,1.642C0,2.226 0.123,2.663 0.37,2.953C0.616,3.242 0.907,3.387 1.242,3.387C1.58,3.387 1.867,3.249 2.103,2.972C2.34,2.695 2.458,2.274 2.458,1.706C2.458,1.082 2.338,0.624 2.097,0.331C1.856,0.039 1.56,-0.107 1.207,-0.107C0.864,-0.107 0.576,0.033 0.346,0.314C0.115,0.595 0,1.038 0,1.642M2.445,3.919L2.445,3.344C2.155,3.796 1.73,4.022 1.169,4.022C0.805,4.022 0.471,3.922 0.165,3.722C-0.14,3.521 -0.376,3.241 -0.544,2.882C-0.711,2.522 -0.795,2.109 -0.795,1.642C-0.795,1.187 -0.719,0.774 -0.567,0.402C-0.415,0.031 -0.187,-0.253 0.116,-0.451C0.419,-0.648 0.759,-0.747 1.134,-0.747C1.409,-0.747 1.654,-0.689 1.869,-0.573C2.084,-0.457 2.259,-0.306 2.393,-0.12L2.393,-2.38L3.163,-2.38L3.163,3.919L2.445,3.919Z" style="fill:rgb(255,221,24);fill-rule:nonzero;"/>
        </g>
        <g transform="matrix(1,0,0,1,116.641,128.2)">
            <path d="M0,-0.877L2.548,-0.877C2.514,-1.261 2.416,-1.549 2.256,-1.741C2.009,-2.039 1.69,-2.188 1.298,-2.188C0.943,-2.188 0.644,-2.069 0.402,-1.831C0.16,-1.593 0.026,-1.275 0,-0.877M2.539,0.373L3.339,0.472C3.212,0.939 2.979,1.302 2.638,1.559C2.297,1.817 1.862,1.946 1.332,1.946C0.664,1.946 0.135,1.74 -0.256,1.329C-0.647,0.919 -0.842,0.342 -0.842,-0.4C-0.842,-1.168 -0.645,-1.764 -0.249,-2.188C0.146,-2.611 0.659,-2.823 1.289,-2.823C1.899,-2.823 2.398,-2.616 2.784,-2.2C3.171,-1.785 3.364,-1.201 3.364,-0.447C3.364,-0.402 3.363,-0.333 3.36,-0.241L-0.043,-0.241C-0.014,0.26 0.127,0.644 0.382,0.91C0.638,1.177 0.956,1.31 1.336,1.31C1.62,1.31 1.862,1.235 2.063,1.087C2.263,0.938 2.422,0.7 2.539,0.373" style="fill:rgb(255,221,24);fill-rule:nonzero;"/>
        </g>
        <g transform="matrix(1,0,0,1,120.641,126.842)">
            <path d="M0,1.839L0.765,1.719C0.808,2.025 0.928,2.26 1.124,2.423C1.32,2.587 1.594,2.668 1.946,2.668C2.302,2.668 2.565,2.596 2.737,2.451C2.909,2.307 2.995,2.137 2.995,1.942C2.995,1.768 2.919,1.63 2.767,1.53C2.661,1.461 2.398,1.373 1.977,1.268C1.409,1.124 1.016,1.001 0.797,0.896C0.578,0.791 0.412,0.647 0.299,0.462C0.185,0.277 0.129,0.073 0.129,-0.15C0.129,-0.354 0.176,-0.542 0.269,-0.715C0.361,-0.889 0.488,-1.033 0.649,-1.147C0.769,-1.236 0.933,-1.311 1.141,-1.373C1.349,-1.435 1.571,-1.465 1.809,-1.465C2.167,-1.465 2.481,-1.414 2.752,-1.311C3.023,-1.207 3.223,-1.068 3.352,-0.892C3.48,-0.715 3.569,-0.48 3.618,-0.185L2.862,-0.082C2.827,-0.316 2.728,-0.5 2.563,-0.632C2.398,-0.763 2.166,-0.829 1.865,-0.829C1.51,-0.829 1.256,-0.771 1.104,-0.653C0.952,-0.536 0.877,-0.398 0.877,-0.241C0.877,-0.14 0.908,-0.05 0.971,0.03C1.034,0.113 1.133,0.182 1.268,0.236C1.345,0.265 1.573,0.331 1.951,0.434C2.498,0.58 2.879,0.7 3.096,0.793C3.312,0.886 3.482,1.021 3.605,1.199C3.728,1.377 3.79,1.597 3.79,1.86C3.79,2.118 3.715,2.361 3.564,2.589C3.414,2.817 3.197,2.993 2.913,3.117C2.63,3.242 2.309,3.304 1.951,3.304C1.358,3.304 0.906,3.181 0.595,2.935C0.284,2.688 0.086,2.323 0,1.839" style="fill:rgb(255,221,24);fill-rule:nonzero;"/>
        </g>
        <g transform="matrix(1,0,0,1,0,109.785)">
            <path d="M125.355,15.694L126.128,15.694L126.128,20.257L125.355,20.257L125.355,15.694ZM125.355,13.958L126.128,13.958L126.128,14.847L125.355,14.847L125.355,13.958Z" style="fill:rgb(255,221,24);fill-rule:nonzero;"/>
        </g>
        <g transform="matrix(1,0,0,1,127.804,129.591)">
            <path d="M0,-1.912C0,-1.313 0.119,-0.876 0.357,-0.601C0.595,-0.326 0.892,-0.189 1.25,-0.189C1.606,-0.189 1.903,-0.326 2.144,-0.599C2.384,-0.873 2.505,-1.302 2.505,-1.886C2.505,-2.445 2.382,-2.866 2.133,-3.149C1.886,-3.433 1.587,-3.575 1.237,-3.575C0.894,-3.575 0.602,-3.435 0.361,-3.156C0.12,-2.877 0,-2.462 0,-1.912M-0.64,0.829L0.112,0.941C0.143,1.173 0.23,1.342 0.374,1.448C0.566,1.592 0.828,1.663 1.16,1.663C1.518,1.663 1.796,1.592 1.989,1.448C2.184,1.305 2.315,1.104 2.384,0.847C2.425,0.689 2.444,0.358 2.44,-0.146C2.103,0.252 1.682,0.451 1.177,0.451C0.55,0.451 0.064,0.225 -0.279,-0.228C-0.623,-0.68 -0.795,-1.223 -0.795,-1.856C-0.795,-2.292 -0.716,-2.693 -0.559,-3.061C-0.401,-3.429 -0.172,-3.714 0.127,-3.914C0.426,-4.115 0.778,-4.215 1.181,-4.215C1.72,-4.215 2.165,-3.998 2.513,-3.562L2.513,-4.112L3.226,-4.112L3.226,-0.167C3.226,0.543 3.156,1.046 3.009,1.343C2.865,1.639 2.636,1.874 2.322,2.045C2.008,2.217 1.624,2.303 1.164,2.303C0.62,2.303 0.18,2.181 -0.155,1.936C-0.49,1.691 -0.652,1.322 -0.64,0.829" style="fill:rgb(255,221,24);fill-rule:nonzero;"/>
        </g>
        <g transform="matrix(1,0,0,1,132.199,125.377)">
            <path d="M0,4.666L0,0.103L0.696,0.103L0.696,0.752C1.031,0.25 1.516,0 2.148,0C2.423,0 2.676,0.049 2.907,0.148C3.138,0.247 3.31,0.376 3.425,0.537C3.54,0.697 3.619,0.887 3.665,1.108C3.694,1.252 3.708,1.502 3.708,1.86L3.708,4.666L2.935,4.666L2.935,1.89C2.935,1.575 2.905,1.34 2.845,1.183C2.784,1.027 2.678,0.902 2.524,0.81C2.371,0.717 2.191,0.67 1.985,0.67C1.655,0.67 1.372,0.775 1.132,0.984C0.893,1.193 0.773,1.589 0.773,2.174L0.773,4.666L0,4.666Z" style="fill:rgb(255,221,24);fill-rule:nonzero;"/>
        </g>
        <g transform="matrix(1,0,0,1,0,115.205)">
            <rect x="137.313" y="13.957" width="0.881" height="0.881" style="fill:rgb(255,221,24);"/>
        </g>
        <g transform="matrix(1,0,0,1,142.516,127.151)">
            <path d="M0,1.22L0.761,1.319C0.678,1.843 0.465,2.253 0.122,2.55C-0.22,2.846 -0.64,2.995 -1.139,2.995C-1.763,2.995 -2.266,2.791 -2.645,2.382C-3.024,1.974 -3.214,1.389 -3.214,0.627C-3.214,0.135 -3.132,-0.297 -2.969,-0.666C-2.806,-1.036 -2.558,-1.313 -2.224,-1.498C-1.89,-1.683 -1.526,-1.775 -1.134,-1.775C-0.639,-1.775 -0.233,-1.65 0.082,-1.399C0.396,-1.148 0.598,-0.793 0.687,-0.331L-0.064,-0.215C-0.136,-0.522 -0.263,-0.752 -0.445,-0.907C-0.626,-1.062 -0.846,-1.139 -1.104,-1.139C-1.494,-1.139 -1.81,-0.999 -2.054,-0.72C-2.298,-0.441 -2.419,0.001 -2.419,0.606C-2.419,1.218 -2.302,1.664 -2.067,1.942C-1.832,2.22 -1.525,2.359 -1.147,2.359C-0.843,2.359 -0.59,2.266 -0.387,2.079C-0.184,1.893 -0.055,1.607 0,1.22" style="fill:rgb(255,221,24);fill-rule:nonzero;"/>
        </g>
        <g transform="matrix(1,0,0,1,144.445,127.761)">
            <path d="M0,0C0,0.584 0.128,1.022 0.382,1.313C0.637,1.603 0.958,1.749 1.345,1.749C1.728,1.749 2.049,1.603 2.303,1.311C2.558,1.018 2.686,0.573 2.686,-0.026C2.686,-0.59 2.558,-1.018 2.301,-1.308C2.044,-1.599 1.726,-1.745 1.345,-1.745C0.958,-1.745 0.637,-1.6 0.382,-1.311C0.128,-1.021 0,-0.584 0,0M-0.795,0C-0.795,-0.845 -0.56,-1.471 -0.09,-1.878C0.302,-2.216 0.781,-2.385 1.345,-2.385C1.972,-2.385 2.485,-2.179 2.883,-1.768C3.282,-1.357 3.48,-0.789 3.48,-0.064C3.48,0.523 3.392,0.985 3.216,1.321C3.04,1.658 2.783,1.919 2.447,2.105C2.111,2.292 1.743,2.385 1.345,2.385C0.706,2.385 0.19,2.18 -0.204,1.77C-0.598,1.361 -0.795,0.771 -0.795,0" style="fill:rgb(255,221,24);fill-rule:nonzero;"/>
        </g>
        <g transform="matrix(1,0,0,1,148.833,125.377)">
            <path d="M0,4.666L0,0.103L0.692,0.103L0.692,0.743C0.835,0.52 1.026,0.34 1.263,0.204C1.501,0.068 1.771,0 2.075,0C2.414,0 2.691,0.07 2.907,0.21C3.123,0.35 3.275,0.547 3.364,0.799C3.725,0.266 4.195,0 4.774,0C5.226,0 5.574,0.125 5.818,0.376C6.062,0.626 6.183,1.012 6.183,1.534L6.183,4.666L5.414,4.666L5.414,1.791C5.414,1.482 5.389,1.259 5.339,1.123C5.288,0.987 5.198,0.878 5.066,0.795C4.934,0.711 4.779,0.67 4.602,0.67C4.281,0.67 4.014,0.777 3.803,0.99C3.591,1.203 3.485,1.545 3.485,2.015L3.485,4.666L2.711,4.666L2.711,1.701C2.711,1.357 2.648,1.1 2.522,0.928C2.397,0.756 2.19,0.67 1.904,0.67C1.685,0.67 1.485,0.727 1.3,0.842C1.115,0.956 0.981,1.124 0.898,1.345C0.815,1.565 0.773,1.883 0.773,2.298L0.773,4.666L0,4.666Z" style="fill:rgb(255,221,24);fill-rule:nonzero;"/>
        </g>
        <g>
            <g transform="matrix(1,0,0,1,52.3227,73.849)">
                <path d="M0,-1.095L2.351,-1.095C2.311,-1.563 2.177,-1.896 1.977,-2.097C1.777,-2.297 1.509,-2.391 1.189,-2.391C0.801,-2.391 0.508,-2.244 0.281,-1.937C0.134,-1.75 0.04,-1.469 0,-1.095M4.782,-0.227L4.782,0.04L0,0.04C0.04,0.428 0.147,0.708 0.307,0.895C0.534,1.176 0.842,1.309 1.216,1.309C1.443,1.309 1.67,1.243 1.883,1.136C2.004,1.056 2.151,0.922 2.298,0.735L4.649,0.949C4.288,1.577 3.86,2.031 3.353,2.298C2.832,2.578 2.111,2.712 1.162,2.712C0.334,2.712 -0.321,2.592 -0.788,2.365C-1.269,2.124 -1.656,1.764 -1.964,1.256C-2.284,0.748 -2.431,0.147 -2.431,-0.534C-2.431,-1.509 -2.124,-2.297 -1.496,-2.898C-0.882,-3.499 -0.013,-3.807 1.082,-3.807C1.977,-3.807 2.685,-3.673 3.206,-3.406C3.714,-3.125 4.114,-2.738 4.381,-2.23C4.649,-1.709 4.782,-1.042 4.782,-0.227" style="fill:rgb(237,28,36);fill-rule:nonzero;"/>
            </g>
            <g transform="matrix(1,0,0,1,45.3498,78.9919)">
                <path d="M0,-1.095L2.351,-1.095C2.311,-1.563 2.177,-1.883 1.977,-2.083C1.777,-2.284 1.509,-2.391 1.189,-2.391C0.801,-2.391 0.508,-2.23 0.281,-1.937C0.134,-1.75 0.04,-1.469 0,-1.095M4.782,-0.227L4.782,0.054L0,0.054C0.04,0.428 0.134,0.722 0.307,0.909C0.534,1.176 0.842,1.309 1.202,1.309C1.443,1.309 1.67,1.256 1.883,1.136C2.004,1.056 2.151,0.935 2.298,0.748L4.649,0.962C4.288,1.59 3.86,2.031 3.34,2.311C2.832,2.578 2.111,2.712 1.162,2.712C0.334,2.712 -0.321,2.592 -0.788,2.365C-1.269,2.138 -1.656,1.764 -1.964,1.256C-2.284,0.748 -2.431,0.147 -2.431,-0.534C-2.431,-1.349 -2.204,-2.017 -1.777,-2.578L-0.334,-2.578L-0.334,-3.593C0.094,-3.727 0.561,-3.807 1.082,-3.807C1.135,-3.807 1.176,-3.793 1.216,-3.793L1.83,-2.578L4.114,-2.578C4.208,-2.458 4.315,-2.351 4.381,-2.217C4.649,-1.709 4.782,-1.042 4.782,-0.227" style="fill:rgb(247,147,29);fill-rule:nonzero;"/>
            </g>
            <g transform="matrix(1,0,0,1,47.5138,71.8587)">
                <path d="M0,0.508L2.364,4.555L1.95,4.555C1.71,4.222 1.416,3.941 1.029,3.741C0.548,3.487 -0.12,3.353 -0.948,3.34L-1.59,2.058L-2.498,2.939L-2.498,3.54C-2.952,3.701 -3.34,3.928 -3.66,4.235C-3.767,4.342 -3.847,4.449 -3.941,4.555L-4.929,4.555L-4.929,-4.047L-2.498,-4.047L-2.498,0.401L-0.708,-1.669L2.231,-1.669L0,0.508Z" style="fill:rgb(237,28,36);fill-rule:nonzero;"/>
            </g>
            <g transform="matrix(-1,0,0,1,46.5651,75.1981)">
                <path d="M-2.899,1.216L-0.615,1.216L0,0C-0.829,0.014 -1.496,0.147 -1.977,0.401C-2.365,0.602 -2.659,0.882 -2.899,1.216" style="fill:rgb(255,242,0);fill-rule:nonzero;"/>
            </g>
            <g transform="matrix(0,1,1,0,44.8018,76.6279)">
                <path d="M-1.229,0.214L-0.214,0.214L-0.214,-1.229C-0.321,-1.135 -0.428,-1.055 -0.534,-0.948C-0.842,-0.628 -1.069,-0.24 -1.229,0.214" style="fill:rgb(255,242,0);fill-rule:nonzero;"/>
            </g>
            <g transform="matrix(1,0,0,1,39.8463,77.7628)">
                <path d="M0,1.363L2.271,1.617C2.137,2.098 1.937,2.498 1.656,2.846C1.363,3.193 1.002,3.46 0.561,3.661C0.107,3.848 -0.454,3.941 -1.135,3.941C-1.803,3.941 -2.351,3.888 -2.792,3.754C-3.233,3.634 -3.607,3.433 -3.927,3.166C-4.248,2.886 -4.488,2.565 -4.675,2.191C-4.849,1.817 -4.942,1.323 -4.942,0.708C-4.942,0.067 -4.836,-0.467 -4.609,-0.895C-4.528,-1.055 -4.435,-1.202 -4.315,-1.349L-2.805,-1.349L-2.805,-2.364C-2.391,-2.497 -1.897,-2.578 -1.309,-2.578C-1.269,-2.578 -1.229,-2.564 -1.189,-2.564L-1.189,-1.349L1.202,-1.349L1.202,-1.843C1.63,-1.496 1.964,-1.041 2.151,-0.427L-0.107,-0.133C-0.174,-0.4 -0.307,-0.601 -0.494,-0.734C-0.668,-0.868 -0.922,-0.935 -1.242,-0.935C-1.63,-0.935 -1.95,-0.788 -2.191,-0.507C-2.445,-0.227 -2.565,0.201 -2.565,0.775C-2.565,1.283 -2.445,1.684 -2.204,1.937C-1.95,2.205 -1.643,2.338 -1.269,2.338C-0.962,2.338 -0.695,2.258 -0.481,2.098C-0.267,1.937 -0.107,1.697 0,1.363" style="fill:rgb(247,147,29);fill-rule:nonzero;"/>
            </g>
            <g transform="matrix(1,0,0,1,41.0485,75.6929)">
                <path d="M0,0.227L0,0.721L-2.391,0.721L-2.391,-0.494C-1.429,-0.481 -0.695,-0.307 -0.187,0.04C-0.107,0.093 -0.067,0.174 0,0.227" style="fill:rgb(255,242,0);fill-rule:nonzero;"/>
            </g>
            <g transform="matrix(1,0,0,1,41.0485,75.9203)">
                <path d="M0,-5.731L0,0C-0.067,-0.054 -0.107,-0.134 -0.187,-0.187C-0.695,-0.535 -1.429,-0.708 -2.391,-0.722L-2.391,-5.731L0,-5.731Z" style="fill:rgb(237,28,36);fill-rule:nonzero;"/>
            </g>
            <g transform="matrix(-1,0,0,1,79.705,-6.748)">
                <rect x="38.657" y="74.559" width="2.391" height="1.63" style="fill:rgb(237,28,36);"/>
            </g>
            <g transform="matrix(1,0,0,1,37.0411,76.4139)">
                <path d="M0,-1.015L0,0L-1.509,0C-1.403,-0.133 -1.282,-0.267 -1.149,-0.387C-0.868,-0.628 -0.588,-0.815 -0.294,-0.935C-0.214,-0.975 -0.094,-0.988 0,-1.015" style="fill:rgb(255,242,0);fill-rule:nonzero;"/>
            </g>
            <g transform="matrix(1,0,0,1,37.0411,76.4146)">
                <path d="M0,-8.603L0,-1.016C-0.094,-0.989 -0.214,-0.976 -0.294,-0.936C-0.588,-0.815 -0.868,-0.628 -1.149,-0.388C-1.282,-0.268 -1.403,-0.134 -1.509,0L-2.177,0L-2.177,-6.559L-3.58,-1.082L-4.675,-1.082L-4.983,0L-5.837,0L-7.507,-6.559L-7.507,-1.082L-9.671,-1.082L-9.217,0L-9.685,0L-9.685,-8.603L-6.185,-8.603L-4.836,-3.367L-3.5,-8.603L0,-8.603Z" style="fill:rgb(237,28,36);fill-rule:nonzero;"/>
            </g>
            <g transform="matrix(1,0,0,1,34.7301,84.0951)">
                <path d="M0,-8.763L-2.485,-2.097C-2.765,-1.349 -3.046,-0.828 -3.34,-0.561C-3.754,-0.187 -4.395,0 -5.236,0C-5.584,0 -6.118,-0.04 -6.839,-0.134L-7.026,-1.803C-6.679,-1.697 -6.292,-1.643 -5.878,-1.643C-5.584,-1.643 -5.357,-1.71 -5.183,-1.83C-5.009,-1.964 -4.862,-2.191 -4.742,-2.525L-6.906,-7.681L-5.196,-7.681L-5.196,-8.763L-4.836,-8.763L-3.553,-4.609L-2.672,-7.681L-1.55,-7.681L-1.269,-8.763L0,-8.763Z" style="fill:rgb(247,147,29);fill-rule:nonzero;"/>
            </g>
            <g transform="matrix(-0.251366,0.967892,0.967892,0.251366,33.1069,76.6881)">
                <path d="M-1.401,0.002L-0.284,0.002L-0.002,-1.084L-1.126,-1.058L-1.401,0.002Z" style="fill:rgb(255,242,0);fill-rule:nonzero;"/>
            </g>
            <g transform="matrix(0,1,1,0,28.9929,76.9551)">
                <path d="M-1.623,0.541L-0.541,0.541L-0.541,-1.169L-1.623,-1.623L-1.623,0.541Z" style="fill:rgb(255,242,0);fill-rule:nonzero;"/>
            </g>
            <g transform="matrix(1,0,0,1,24.7116,78.4582)">
                <path d="M0,-0.027C0,-0.561 -0.12,-0.962 -0.334,-1.229C-0.561,-1.496 -0.842,-1.63 -1.162,-1.63C-1.509,-1.63 -1.803,-1.483 -2.03,-1.216C-2.258,-0.949 -2.364,-0.548 -2.364,0C-2.364,0.561 -2.258,0.975 -2.03,1.229C-1.803,1.496 -1.523,1.629 -1.189,1.629C-0.842,1.629 -0.561,1.509 -0.334,1.242C-0.107,0.975 0,0.561 0,-0.027M1.63,-2.178C2.137,-1.603 2.404,-0.882 2.404,-0.027C2.404,0.935 2.084,1.723 1.443,2.324C0.815,2.938 -0.067,3.246 -1.189,3.246C-2.191,3.246 -3.006,2.992 -3.62,2.484C-4.381,1.856 -4.769,1.028 -4.769,0.013C-4.769,-0.949 -4.448,-1.723 -3.794,-2.338C-3.152,-2.966 -2.298,-3.273 -1.202,-3.273C0.053,-3.273 0.988,-2.899 1.63,-2.178" style="fill:rgb(247,147,29);fill-rule:nonzero;"/>
            </g>
            <g transform="matrix(1,0,0,1,18.941,81.7174)">
                <path d="M0,-8.763L0,-4.088C0,-3.099 -0.094,-2.351 -0.267,-1.844C-0.441,-1.323 -0.788,-0.895 -1.309,-0.534C-1.843,-0.187 -2.511,0 -3.34,0C-4.208,0 -4.876,-0.12 -5.357,-0.361C-5.837,-0.588 -6.198,-0.935 -6.465,-1.389C-6.719,-1.844 -6.879,-2.405 -6.919,-3.059L-4.381,-3.406C-4.381,-3.032 -4.341,-2.752 -4.288,-2.565C-4.221,-2.378 -4.114,-2.231 -3.967,-2.124C-3.86,-2.044 -3.714,-2.004 -3.527,-2.004C-3.233,-2.004 -3.019,-2.111 -2.872,-2.338C-2.738,-2.565 -2.672,-2.926 -2.672,-3.46L-2.672,-8.763L0,-8.763Z" style="fill:rgb(247,147,29);fill-rule:nonzero;"/>
            </g>
        </g>
    </g>
</svg>
