<?xml version="1.0" encoding="UTF-8" standalone="no"?>
<!DOCTYPE svg PUBLIC "-//W3C//DTD SVG 1.1//EN" "http://www.w3.org/Graphics/SVG/1.1/DTD/svg11.dtd">
<svg width="100%" height="100%" viewBox="0 0 2550 3300" version="1.1" xmlns="http://www.w3.org/2000/svg" xmlns:xlink="http://www.w3.org/1999/xlink" xml:space="preserve" xmlns:serif="http://www.serif.com/" style="fill-rule:evenodd;clip-rule:evenodd;stroke-linejoin:round;stroke-miterlimit:1.41421;">
    <rect id="Artboard1" x="0" y="0" width="2550" height="3300" style="fill:none;"/>
    <clipPath id="_clip1">
        <rect id="Artboard11" serif:id="Artboard1" x="0" y="0" width="2550" height="3300"/>
    </clipPath>
    <g clip-path="url(#_clip1)">
        <g id="Layer-1" serif:id="Layer 1" transform="matrix(4.16667,0,0,4.16667,0,0)">
            <g transform="matrix(0.24,0,0,0.24,0,0)">
                <rect x="-305.951" y="-358.664" width="3739.75" height="4261.38" style="fill:white;"/>
            </g>
            <g>
                <text x="103.417px" y="63.878px" style="font-family:'Arial-Black', 'Arial Black', sans-serif;font-weight:900;font-size:20.34px;fill:rgb(35,31,32);">Mik<tspan x="142.261px " y="63.878px ">e</tspan></text>
                <text x="103.417px" y="80.882px" style="font-family:'Arial-Black', 'Arial Black', sans-serif;font-weight:900;font-size:20.34px;fill:rgb(35,31,32);">J<tspan x="116.458px 129.679px 141.757px 155.326px " y="80.882px 80.882px 80.882px 80.882px ">oyce</tspan></text>
            </g>
            <g>
                <text x="103.417px" y="23.14px" style="font-family:'ArialMT', 'Arial', sans-serif;font-size:11.058px;fill:rgb(35,31,32);">Stereotype</text>
                <text x="103.417px" y="38.476px" style="font-family:'ArialMT', 'Arial', sans-serif;font-size:18.429px;fill:rgb(35,31,32);">Design</text>
            </g>
            <g transform="matrix(1,0,0,1,60.173,60.7551)">
                <path d="M0,-49.07L-11.754,-49.07L-11.754,-11.685L-49.139,-11.685L-49.139,-0.145L-35.963,-0.145L-35.963,0L-30.086,0L-30.086,-0.145L-5.877,-0.145L-5.877,0L0,0L0,-49.07Z" style="fill:rgb(253,198,137);fill-rule:nonzero;"/>
            </g>
            <g transform="matrix(-1,0,0,1,59.453,-731.245)">
                <rect x="11.034" y="742.93" width="37.385" height="37.385" style="fill:rgb(249,245,163);"/>
            </g>
            <g transform="matrix(1,0,0,1,0,49.071)">
                <path d="M0,-49.071L0,0L11.034,0L11.034,-37.386L48.419,-37.386L48.419,-49.071L0,-49.071Z" style="fill:rgb(247,160,135);fill-rule:nonzero;"/>
            </g>
            <g transform="matrix(1,0,0,1,90.2594,30.3775)">
                <path d="M0,-24.535L-5.877,-24.535L-5.877,-5.842L-24.569,-5.842L-24.569,0L0,0L0,-24.535Z" style="fill:rgb(253,198,137);fill-rule:nonzero;"/>
            </g>
            <g transform="matrix(-1,0,0,1,150.073,-761.621)">
                <rect x="65.69" y="767.464" width="18.693" height="18.693" style="fill:rgb(249,245,163);"/>
            </g>
            <g transform="matrix(1,0,0,1,60.1731,24.535)">
                <path d="M0,-24.535L0,0L5.517,0L5.517,-18.692L24.21,-18.692L24.21,-24.535L0,-24.535Z" style="fill:rgb(247,160,135);fill-rule:nonzero;"/>
            </g>
            <g transform="matrix(1,0,0,1,90.2594,60.7553)">
                <path d="M0,-24.535L-5.877,-24.535L-5.877,-5.842L-24.569,-5.842L-24.569,-0.145L-5.877,-0.145L-5.877,0L0,0L0,-24.535Z" style="fill:rgb(253,198,137);fill-rule:nonzero;"/>
            </g>
            <g transform="matrix(-1,0,0,1,150.073,-700.867)">
                <rect x="65.69" y="737.087" width="18.693" height="18.693" style="fill:rgb(249,245,163);"/>
            </g>
            <g transform="matrix(1,0,0,1,84.3827,54.9127)">
                <path d="M0,-24.535L-18.693,-24.535L-24.21,-24.535L-24.21,0L-18.693,0L-18.693,-18.692L0,-18.692L0,-24.535Z" style="fill:rgb(247,160,135);fill-rule:nonzero;"/>
            </g>
            <g transform="matrix(1,0,0,1,30.0865,90.9878)">
                <path d="M0,-24.535L-5.877,-24.535L-5.877,-5.842L-24.57,-5.842L-24.57,0L0,0L0,-24.535Z" style="fill:rgb(253,198,137);fill-rule:nonzero;"/>
            </g>
            <g transform="matrix(-1,0,0,1,29.727,-640.401)">
                <rect x="5.517" y="706.854" width="18.693" height="18.693" style="fill:rgb(249,245,163);"/>
            </g>
            <g transform="matrix(1,0,0,1,0,85.1455)">
                <path d="M0,-24.535L0,0L5.517,0L5.517,-18.693L24.21,-18.693L24.21,-24.39L11.034,-24.39L11.034,-24.535L0,-24.535Z" style="fill:rgb(247,160,135);fill-rule:nonzero;"/>
            </g>
            <g transform="matrix(1,0,0,1,0,-670.635)">
                <rect x="11.034" y="731.245" width="13.176" height="0.145" style="fill:rgb(245,136,91);"/>
            </g>
            <g transform="matrix(1,0,0,1,60.173,90.9878)">
                <path d="M0,-24.535L-5.877,-24.535L-5.877,-5.842L-24.57,-5.842L-24.57,0L0,0L0,-24.535Z" style="fill:rgb(253,198,137);fill-rule:nonzero;"/>
            </g>
            <g transform="matrix(-1,0,0,1,89.899,-640.401)">
                <rect x="35.603" y="706.854" width="18.693" height="18.693" style="fill:rgb(249,245,163);"/>
            </g>
            <g transform="matrix(1,0,0,1,54.2962,85.1455)">
                <path d="M0,-24.39L-24.21,-24.39L-24.21,0L-18.693,0L-18.693,-18.693L0,-18.693L0,-24.39Z" style="fill:rgb(247,160,135);fill-rule:nonzero;"/>
            </g>
            <g transform="matrix(1,0,0,1,0,-670.635)">
                <rect x="30.086" y="731.245" width="24.21" height="0.145" style="fill:rgb(245,136,91);"/>
            </g>
            <g transform="matrix(1,0,0,1,90.2594,90.9878)">
                <path d="M0,-24.535L-5.877,-24.535L-5.877,-5.842L-24.569,-5.842L-24.569,0L0,0L0,-24.535Z" style="fill:rgb(253,198,137);fill-rule:nonzero;"/>
            </g>
            <g transform="matrix(-1,0,0,1,150.073,-640.401)">
                <rect x="65.69" y="706.854" width="18.693" height="18.693" style="fill:rgb(249,245,163);"/>
            </g>
            <g transform="matrix(1,0,0,1,65.6899,85.1453)">
                <path d="M0,-24.535L-5.517,-24.535L-5.517,0L0,0L0,-18.692L18.693,-18.692L18.693,-24.39L0,-24.39L0,-24.535Z" style="fill:rgb(247,160,135);fill-rule:nonzero;"/>
            </g>
            <g transform="matrix(1,0,0,1,0,-670.635)">
                <rect x="65.69" y="731.245" width="18.693" height="0.145" style="fill:rgb(245,136,91);"/>
            </g>
            <g transform="matrix(1,0,0,1,551.494,731.245)">
                <path d="M0,49.07L11.754,49.07L11.754,11.685L49.139,11.685L49.139,0.145L35.963,0.145L35.963,0L30.086,0L30.086,0.145L5.877,0.145L5.877,0L0,0L0,49.07Z" style="fill:rgb(253,198,137);fill-rule:nonzero;"/>
            </g>
            <g transform="matrix(1,0,0,1,0,731.245)">
                <rect x="563.247" y="11.685" width="37.385" height="37.385" style="fill:rgb(249,245,163);"/>
            </g>
            <g transform="matrix(1,0,0,1,600.633,792)">
                <path d="M0,-49.071L0,-11.685L-37.386,-11.685L-37.386,0L11.034,0L11.034,-49.071L0,-49.071Z" style="fill:rgb(247,160,135);fill-rule:nonzero;"/>
            </g>
            <g transform="matrix(1,0,0,1,521.407,761.622)">
                <path d="M0,24.535L5.877,24.535L5.877,5.842L24.57,5.842L24.57,0L5.877,0L0,0L0,24.535Z" style="fill:rgb(253,198,137);fill-rule:nonzero;"/>
            </g>
            <g transform="matrix(1,0,0,1,0,761.621)">
                <rect x="527.284" y="5.843" width="18.693" height="18.693" style="fill:rgb(249,245,163);"/>
            </g>
            <g transform="matrix(1,0,0,1,545.977,792)">
                <path d="M0,-24.535L0,-5.843L-18.693,-5.843L-18.693,0L5.517,0L5.517,-24.535L0,-24.535Z" style="fill:rgb(247,160,135);fill-rule:nonzero;"/>
            </g>
            <g transform="matrix(1,0,0,1,521.407,731.245)">
                <path d="M0,24.535L5.877,24.535L5.877,5.842L24.57,5.842L24.57,0.145L5.877,0.145L5.877,0L0,0L0,24.535Z" style="fill:rgb(253,198,137);fill-rule:nonzero;"/>
            </g>
            <g transform="matrix(1,0,0,1,0,700.867)">
                <rect x="527.284" y="36.22" width="18.693" height="18.693" style="fill:rgb(249,245,163);"/>
            </g>
            <g transform="matrix(1,0,0,1,527.284,737.087)">
                <path d="M0,24.535L24.21,24.535L24.21,0L18.693,0L18.693,18.692L0,18.692L0,24.535Z" style="fill:rgb(247,160,135);fill-rule:nonzero;"/>
            </g>
            <g transform="matrix(1,0,0,1,581.58,701.012)">
                <path d="M0,24.535L5.877,24.535L5.877,5.842L24.57,5.842L24.57,0L0,0L0,24.535Z" style="fill:rgb(253,198,137);fill-rule:nonzero;"/>
            </g>
            <g transform="matrix(1,0,0,1,0,640.401)">
                <rect x="587.457" y="66.453" width="18.693" height="18.693" style="fill:rgb(249,245,163);"/>
            </g>
            <g transform="matrix(1,0,0,1,606.15,731.39)">
                <path d="M0,-24.535L0,-5.843L-18.693,-5.843L-18.693,-0.145L-5.517,-0.145L-5.517,0L5.517,0L5.517,-24.535L0,-24.535Z" style="fill:rgb(247,160,135);fill-rule:nonzero;"/>
            </g>
            <g transform="matrix(1,0,0,1,0,670.633)">
                <rect x="587.457" y="60.611" width="13.176" height="0.145" style="fill:rgb(245,136,91);"/>
            </g>
            <g transform="matrix(1,0,0,1,551.494,701.012)">
                <path d="M0,24.535L5.877,24.535L5.877,5.842L24.57,5.842L24.57,0L0,0L0,24.535Z" style="fill:rgb(253,198,137);fill-rule:nonzero;"/>
            </g>
            <g transform="matrix(1,0,0,1,0,640.401)">
                <rect x="557.37" y="66.453" width="18.693" height="18.693" style="fill:rgb(249,245,163);"/>
            </g>
            <g transform="matrix(1,0,0,1,557.37,706.855)">
                <path d="M0,24.39L24.21,24.39L24.21,0L18.693,0L18.693,18.693L0,18.693L0,24.39Z" style="fill:rgb(247,160,135);fill-rule:nonzero;"/>
            </g>
            <g transform="matrix(1,0,0,1,0,670.633)">
                <rect x="557.371" y="60.611" width="24.209" height="0.145" style="fill:rgb(245,136,91);"/>
            </g>
            <g transform="matrix(1,0,0,1,521.407,701.012)">
                <path d="M0,24.535L5.877,24.535L5.877,5.842L24.57,5.842L24.57,0L0,0L0,24.535Z" style="fill:rgb(253,198,137);fill-rule:nonzero;"/>
            </g>
            <g transform="matrix(1,0,0,1,0,640.401)">
                <rect x="527.284" y="66.453" width="18.693" height="18.693" style="fill:rgb(249,245,163);"/>
            </g>
            <g transform="matrix(1,0,0,1,545.977,706.855)">
                <path d="M0,24.535L5.517,24.535L5.517,0L0,0L0,18.692L-18.693,18.692L-18.693,24.39L0,24.39L0,24.535Z" style="fill:rgb(247,160,135);fill-rule:nonzero;"/>
            </g>
            <g transform="matrix(1,0,0,1,0,670.633)">
                <rect x="527.284" y="60.611" width="18.693" height="0.145" style="fill:rgb(245,136,91);"/>
            </g>
            <g transform="matrix(1,0,0,1,490.123,727.545)">
                <path d="M0,-0.498L0,-1.699L1.201,-1.699L1.201,-0.498C1.201,-0.057 1.123,0.299 0.967,0.57C0.811,0.842 0.562,1.053 0.223,1.201L-0.07,0.75C0.152,0.652 0.316,0.508 0.422,0.318C0.527,0.129 0.586,-0.143 0.598,-0.498L0,-0.498Z" style="fill:rgb(35,31,32);fill-rule:nonzero;"/>
            </g>
            <g transform="matrix(1,0,0,1,411.507,720.842)">
                <path d="M0,3.937L1.055,3.796C1.176,4.394 1.382,4.824 1.673,5.087C1.964,5.351 2.318,5.484 2.736,5.484C3.232,5.484 3.651,5.312 3.993,4.968C4.335,4.624 4.506,4.199 4.506,3.691C4.506,3.207 4.348,2.806 4.031,2.492C3.715,2.177 3.313,2.021 2.824,2.021C2.625,2.021 2.377,2.06 2.08,2.138L2.197,1.212C2.268,1.22 2.324,1.224 2.367,1.224C2.816,1.224 3.221,1.107 3.58,0.873C3.939,0.638 4.119,0.277 4.119,-0.211C4.119,-0.598 3.988,-0.918 3.727,-1.172C3.465,-1.426 3.127,-1.553 2.713,-1.553C2.303,-1.553 1.961,-1.424 1.687,-1.167C1.414,-0.909 1.238,-0.522 1.16,-0.006L0.105,-0.194C0.234,-0.901 0.527,-1.45 0.984,-1.838C1.441,-2.227 2.01,-2.42 2.689,-2.42C3.158,-2.42 3.59,-2.321 3.984,-2.12C4.379,-1.918 4.681,-1.643 4.89,-1.295C5.099,-0.948 5.203,-0.579 5.203,-0.188C5.203,0.183 5.104,0.521 4.904,0.826C4.705,1.13 4.41,1.373 4.02,1.552C4.527,1.669 4.922,1.912 5.203,2.281C5.484,2.65 5.625,3.113 5.625,3.667C5.625,4.417 5.352,5.052 4.805,5.574C4.258,6.095 3.566,6.357 2.73,6.357C1.977,6.357 1.351,6.132 0.853,5.683C0.354,5.234 0.07,4.652 0,3.937" style="fill:rgb(35,31,32);fill-rule:nonzero;"/>
            </g>
            <g transform="matrix(1,0,0,1,422.652,724.346)">
                <path d="M0,-3.076C0,-3.681 -0.161,-4.162 -0.483,-4.517C-0.806,-4.873 -1.193,-5.051 -1.646,-5.051C-2.115,-5.051 -2.523,-4.859 -2.871,-4.476C-3.219,-4.094 -3.393,-3.597 -3.393,-2.988C-3.393,-2.441 -3.228,-1.998 -2.897,-1.656C-2.567,-1.314 -2.16,-1.142 -1.676,-1.142C-1.187,-1.142 -0.786,-1.314 -0.472,-1.656C-0.157,-1.998 0,-2.471 0,-3.076M-4.318,0.715L-3.305,0.621C-3.219,1.098 -3.055,1.444 -2.813,1.658C-2.57,1.873 -2.26,1.981 -1.881,1.981C-1.557,1.981 -1.272,1.906 -1.028,1.758C-0.784,1.61 -0.584,1.41 -0.428,1.162C-0.271,0.914 -0.141,0.58 -0.035,0.158C0.07,-0.263 0.123,-0.693 0.123,-1.131C0.123,-1.178 0.121,-1.248 0.117,-1.342C-0.094,-1.006 -0.382,-0.734 -0.747,-0.525C-1.112,-0.316 -1.508,-0.211 -1.934,-0.211C-2.645,-0.211 -3.246,-0.469 -3.738,-0.984C-4.23,-1.5 -4.477,-2.18 -4.477,-3.023C-4.477,-3.894 -4.22,-4.596 -3.706,-5.127C-3.192,-5.658 -2.549,-5.924 -1.775,-5.924C-1.217,-5.924 -0.706,-5.773 -0.243,-5.472C0.22,-5.172 0.571,-4.744 0.812,-4.187C1.052,-3.631 1.172,-2.824 1.172,-1.769C1.172,-0.672 1.053,0.201 0.814,0.852C0.576,1.502 0.222,1.998 -0.249,2.338C-0.72,2.678 -1.271,2.848 -1.904,2.848C-2.576,2.848 -3.125,2.66 -3.551,2.287C-3.977,1.914 -4.232,1.391 -4.318,0.715" style="fill:rgb(35,31,32);fill-rule:nonzero;"/>
            </g>
            <g transform="matrix(1,0,0,1,428.031,721.042)">
                <path d="M0,3.568L1.025,3.427C1.053,4.084 1.176,4.533 1.395,4.775C1.613,5.017 1.916,5.138 2.303,5.138C2.588,5.138 2.834,5.072 3.041,4.941C3.248,4.81 3.391,4.632 3.469,4.408C3.547,4.183 3.586,3.826 3.586,3.334L3.586,-2.584L4.723,-2.584L4.723,3.269C4.723,3.988 4.636,4.545 4.462,4.939C4.288,5.334 4.013,5.634 3.636,5.841C3.259,6.048 2.816,6.152 2.309,6.152C1.555,6.152 0.978,5.935 0.577,5.502C0.177,5.068 -0.016,4.423 0,3.568" style="fill:rgb(35,31,32);fill-rule:nonzero;"/>
            </g>
            <g transform="matrix(1,0,0,1,438.449,723.948)">
                <path d="M0,-0.024C-0.383,0.132 -0.957,0.265 -1.723,0.374C-2.156,0.437 -2.463,0.507 -2.643,0.585C-2.822,0.663 -2.961,0.777 -3.059,0.927C-3.156,1.078 -3.205,1.246 -3.205,1.429C-3.205,1.71 -3.099,1.945 -2.886,2.132C-2.673,2.32 -2.361,2.414 -1.951,2.414C-1.545,2.414 -1.184,2.324 -0.867,2.146C-0.551,1.968 -0.318,1.726 -0.17,1.417C-0.057,1.179 0,0.828 0,0.363L0,-0.024ZM0.088,2.331C-0.303,2.664 -0.679,2.898 -1.04,3.035C-1.401,3.171 -1.789,3.24 -2.203,3.24C-2.887,3.24 -3.412,3.072 -3.779,2.738C-4.146,2.404 -4.33,1.978 -4.33,1.458C-4.33,1.154 -4.261,0.874 -4.122,0.622C-3.983,0.371 -3.802,0.169 -3.577,0.017C-3.353,-0.135 -3.1,-0.251 -2.818,-0.329C-2.611,-0.383 -2.299,-0.436 -1.881,-0.487C-1.029,-0.588 -0.402,-0.71 0,-0.85C0.004,-0.995 0.006,-1.086 0.006,-1.126C0.006,-1.555 -0.094,-1.858 -0.293,-2.034C-0.562,-2.272 -0.963,-2.391 -1.494,-2.391C-1.99,-2.391 -2.356,-2.305 -2.593,-2.131C-2.829,-1.958 -3.004,-1.649 -3.117,-1.208L-4.148,-1.348C-4.055,-1.79 -3.9,-2.147 -3.686,-2.419C-3.471,-2.69 -3.16,-2.899 -2.754,-3.045C-2.348,-3.192 -1.877,-3.264 -1.342,-3.264C-0.811,-3.264 -0.379,-3.202 -0.047,-3.077C0.285,-2.952 0.529,-2.795 0.686,-2.606C0.842,-2.417 0.951,-2.176 1.014,-1.887C1.049,-1.708 1.066,-1.383 1.066,-0.915L1.066,0.492C1.066,1.472 1.089,2.091 1.134,2.351C1.179,2.611 1.268,2.861 1.4,3.099L0.299,3.099C0.189,2.88 0.119,2.624 0.088,2.331" style="fill:rgb(35,31,32);fill-rule:nonzero;"/>
            </g>
            <g transform="matrix(1,0,0,1,441.15,720.684)">
                <path d="M0,6.363L0,0.14L0.949,0.14L0.949,1.025C1.406,0.342 2.066,0 2.93,0C3.305,0 3.649,0.066 3.964,0.201C4.278,0.336 4.514,0.513 4.67,0.732C4.826,0.951 4.936,1.211 4.998,1.511C5.037,1.707 5.057,2.049 5.057,2.537L5.057,6.363L4.002,6.363L4.002,2.578C4.002,2.148 3.961,1.826 3.879,1.613C3.797,1.4 3.651,1.23 3.442,1.103C3.233,0.976 2.988,0.914 2.707,0.914C2.258,0.914 1.87,1.056 1.544,1.342C1.218,1.627 1.055,2.168 1.055,2.965L1.055,6.363L0,6.363Z" style="fill:rgb(35,31,32);fill-rule:nonzero;"/>
            </g>
            <g transform="matrix(1,0,0,1,448.621,724.534)">
                <path d="M0,-1.196L3.475,-1.196C3.428,-1.719 3.295,-2.112 3.076,-2.374C2.74,-2.78 2.305,-2.983 1.77,-2.983C1.285,-2.983 0.878,-2.821 0.548,-2.497C0.218,-2.173 0.035,-1.739 0,-1.196M3.463,0.509L4.553,0.644C4.381,1.281 4.062,1.775 3.598,2.126C3.133,2.478 2.539,2.654 1.816,2.654C0.906,2.654 0.185,2.372 -0.349,1.812C-0.882,1.251 -1.148,0.466 -1.148,-0.546C-1.148,-1.592 -0.879,-2.405 -0.34,-2.983C0.199,-3.561 0.898,-3.85 1.758,-3.85C2.59,-3.85 3.27,-3.567 3.797,-3.001C4.324,-2.434 4.588,-1.637 4.588,-0.61C4.588,-0.548 4.586,-0.454 4.582,-0.329L-0.059,-0.329C-0.02,0.355 0.174,0.878 0.521,1.242C0.869,1.605 1.303,1.786 1.822,1.786C2.209,1.786 2.539,1.685 2.813,1.482C3.086,1.279 3.303,0.954 3.463,0.509" style="fill:rgb(35,31,32);fill-rule:nonzero;"/>
            </g>
            <g transform="matrix(1,0,0,1,457.58,721.216)">
                <path d="M0,3.071L1.072,2.977C1.123,3.407 1.241,3.758 1.427,4.034C1.612,4.309 1.9,4.532 2.291,4.702C2.682,4.872 3.121,4.958 3.609,4.958C4.043,4.958 4.426,4.893 4.758,4.764C5.09,4.635 5.337,4.458 5.499,4.233C5.661,4.008 5.742,3.764 5.742,3.499C5.742,3.229 5.664,2.993 5.508,2.792C5.352,2.591 5.094,2.423 4.734,2.286C4.504,2.196 3.994,2.055 3.205,1.866C2.416,1.676 1.863,1.499 1.547,1.331C1.137,1.116 0.831,0.848 0.63,0.53C0.429,0.212 0.328,-0.144 0.328,-0.538C0.328,-0.972 0.451,-1.378 0.697,-1.755C0.943,-2.132 1.303,-2.417 1.775,-2.613C2.248,-2.808 2.773,-2.906 3.352,-2.906C3.988,-2.906 4.55,-2.804 5.036,-2.599C5.522,-2.394 5.896,-2.091 6.158,-1.693C6.42,-1.294 6.561,-0.843 6.58,-0.339L5.49,-0.257C5.432,-0.8 5.233,-1.21 4.896,-1.488C4.558,-1.765 4.059,-1.904 3.398,-1.904C2.711,-1.904 2.21,-1.779 1.896,-1.527C1.581,-1.275 1.424,-0.97 1.424,-0.615C1.424,-0.306 1.535,-0.052 1.758,0.147C1.977,0.346 2.548,0.55 3.472,0.758C4.396,0.967 5.029,1.151 5.373,1.307C5.873,1.538 6.242,1.829 6.48,2.182C6.719,2.536 6.838,2.944 6.838,3.405C6.838,3.862 6.707,4.292 6.445,4.696C6.184,5.1 5.808,5.415 5.317,5.639C4.827,5.864 4.275,5.977 3.662,5.977C2.885,5.977 2.233,5.864 1.708,5.637C1.183,5.411 0.771,5.069 0.472,4.614C0.173,4.159 0.016,3.645 0,3.071" style="fill:rgb(35,31,32);fill-rule:nonzero;"/>
            </g>
            <g transform="matrix(1,0,0,1,468.138,719.676)">
                <path d="M0,6.428L0.152,7.36C-0.145,7.422 -0.41,7.453 -0.645,7.453C-1.027,7.453 -1.324,7.393 -1.535,7.272C-1.746,7.151 -1.895,6.99 -1.98,6.793C-2.066,6.596 -2.109,6.182 -2.109,5.549L-2.109,1.969L-2.883,1.969L-2.883,1.149L-2.109,1.149L-2.109,-0.392L-1.061,-1.025L-1.061,1.149L0,1.149L0,1.969L-1.061,1.969L-1.061,5.608C-1.061,5.908 -1.042,6.102 -1.005,6.188C-0.968,6.274 -0.907,6.342 -0.823,6.393C-0.739,6.444 -0.619,6.469 -0.463,6.469C-0.346,6.469 -0.191,6.455 0,6.428" style="fill:rgb(35,31,32);fill-rule:nonzero;"/>
            </g>
            <g transform="matrix(1,0,0,1,469.158,720.684)">
                <path d="M0,6.363L0,0.14L0.949,0.14L0.949,1.084C1.191,0.642 1.415,0.351 1.62,0.211C1.825,0.07 2.051,0 2.297,0C2.652,0 3.014,0.113 3.381,0.34L3.018,1.318C2.76,1.166 2.502,1.09 2.244,1.09C2.014,1.09 1.807,1.158 1.623,1.297C1.439,1.435 1.309,1.629 1.23,1.875C1.113,2.25 1.055,2.66 1.055,3.105L1.055,6.363L0,6.363Z" style="fill:rgb(35,31,32);fill-rule:nonzero;"/>
            </g>
            <g transform="matrix(1,0,0,1,473.962,724.534)">
                <path d="M0,-1.196L3.475,-1.196C3.428,-1.719 3.295,-2.112 3.076,-2.374C2.74,-2.78 2.305,-2.983 1.77,-2.983C1.285,-2.983 0.878,-2.821 0.548,-2.497C0.218,-2.173 0.035,-1.739 0,-1.196M3.463,0.509L4.553,0.644C4.381,1.281 4.062,1.775 3.598,2.126C3.133,2.478 2.539,2.654 1.816,2.654C0.906,2.654 0.185,2.372 -0.349,1.812C-0.882,1.251 -1.148,0.466 -1.148,-0.546C-1.148,-1.592 -0.879,-2.405 -0.34,-2.983C0.199,-3.561 0.898,-3.85 1.758,-3.85C2.59,-3.85 3.27,-3.567 3.797,-3.001C4.324,-2.434 4.588,-1.637 4.588,-0.61C4.588,-0.548 4.586,-0.454 4.582,-0.329L-0.059,-0.329C-0.02,0.355 0.174,0.878 0.521,1.242C0.869,1.605 1.303,1.786 1.822,1.786C2.209,1.786 2.539,1.685 2.813,1.482C3.086,1.279 3.303,0.954 3.463,0.509" style="fill:rgb(35,31,32);fill-rule:nonzero;"/>
            </g>
            <g transform="matrix(1,0,0,1,480.636,724.534)">
                <path d="M0,-1.196L3.475,-1.196C3.428,-1.719 3.295,-2.112 3.076,-2.374C2.74,-2.78 2.305,-2.983 1.77,-2.983C1.285,-2.983 0.878,-2.821 0.548,-2.497C0.218,-2.173 0.035,-1.739 0,-1.196M3.463,0.509L4.553,0.644C4.381,1.281 4.062,1.775 3.598,2.126C3.133,2.478 2.539,2.654 1.816,2.654C0.906,2.654 0.185,2.372 -0.349,1.812C-0.882,1.251 -1.148,0.466 -1.148,-0.546C-1.148,-1.592 -0.879,-2.405 -0.34,-2.983C0.199,-3.561 0.898,-3.85 1.758,-3.85C2.59,-3.85 3.27,-3.567 3.797,-3.001C4.324,-2.434 4.588,-1.637 4.588,-0.61C4.588,-0.548 4.586,-0.454 4.582,-0.329L-0.059,-0.329C-0.02,0.355 0.174,0.878 0.521,1.242C0.869,1.605 1.303,1.786 1.822,1.786C2.209,1.786 2.539,1.685 2.813,1.482C3.086,1.279 3.303,0.954 3.463,0.509" style="fill:rgb(35,31,32);fill-rule:nonzero;"/>
            </g>
            <g transform="matrix(1,0,0,1,488.816,719.676)">
                <path d="M0,6.428L0.152,7.36C-0.145,7.422 -0.41,7.453 -0.645,7.453C-1.027,7.453 -1.324,7.393 -1.535,7.272C-1.746,7.151 -1.895,6.99 -1.98,6.793C-2.066,6.596 -2.109,6.182 -2.109,5.549L-2.109,1.969L-2.883,1.969L-2.883,1.149L-2.109,1.149L-2.109,-0.392L-1.061,-1.025L-1.061,1.149L0,1.149L0,1.969L-1.061,1.969L-1.061,5.608C-1.061,5.908 -1.042,6.102 -1.005,6.188C-0.968,6.274 -0.907,6.342 -0.823,6.393C-0.739,6.444 -0.619,6.469 -0.463,6.469C-0.346,6.469 -0.191,6.455 0,6.428" style="fill:rgb(35,31,32);fill-rule:nonzero;"/>
            </g>
            <g transform="matrix(1,0,0,1,499.603,721.481)">
                <path d="M0,2.543L0,-1.33L-2.689,2.543L0,2.543ZM0,5.566L0,3.51L-3.727,3.51L-3.727,2.543L0.193,-3.023L1.055,-3.023L1.055,2.543L2.215,2.543L2.215,3.51L1.055,3.51L1.055,5.566L0,5.566Z" style="fill:rgb(35,31,32);fill-rule:nonzero;"/>
            </g>
            <g transform="matrix(1,0,0,1,507.162,723.948)">
                <path d="M0,-0.024C-0.383,0.132 -0.957,0.265 -1.723,0.374C-2.156,0.437 -2.463,0.507 -2.643,0.585C-2.822,0.663 -2.961,0.777 -3.059,0.927C-3.156,1.078 -3.205,1.246 -3.205,1.429C-3.205,1.71 -3.099,1.945 -2.886,2.132C-2.673,2.32 -2.361,2.414 -1.951,2.414C-1.545,2.414 -1.184,2.324 -0.867,2.146C-0.551,1.968 -0.318,1.726 -0.17,1.417C-0.057,1.179 0,0.828 0,0.363L0,-0.024ZM0.088,2.331C-0.303,2.664 -0.679,2.898 -1.04,3.035C-1.401,3.171 -1.789,3.24 -2.203,3.24C-2.887,3.24 -3.412,3.072 -3.779,2.738C-4.146,2.404 -4.33,1.978 -4.33,1.458C-4.33,1.154 -4.261,0.874 -4.122,0.622C-3.983,0.371 -3.802,0.169 -3.577,0.017C-3.353,-0.135 -3.1,-0.251 -2.818,-0.329C-2.611,-0.383 -2.299,-0.436 -1.881,-0.487C-1.029,-0.588 -0.402,-0.71 0,-0.85C0.004,-0.995 0.006,-1.086 0.006,-1.126C0.006,-1.555 -0.094,-1.858 -0.293,-2.034C-0.562,-2.272 -0.963,-2.391 -1.494,-2.391C-1.99,-2.391 -2.356,-2.305 -2.593,-2.131C-2.829,-1.958 -3.004,-1.649 -3.117,-1.208L-4.148,-1.348C-4.055,-1.79 -3.9,-2.147 -3.686,-2.419C-3.471,-2.69 -3.16,-2.899 -2.754,-3.045C-2.348,-3.192 -1.877,-3.264 -1.342,-3.264C-0.811,-3.264 -0.379,-3.202 -0.047,-3.077C0.285,-2.952 0.529,-2.795 0.686,-2.606C0.842,-2.417 0.951,-2.176 1.014,-1.887C1.049,-1.708 1.066,-1.383 1.066,-0.915L1.066,0.492C1.066,1.472 1.089,2.091 1.134,2.351C1.179,2.611 1.268,2.861 1.4,3.099L0.299,3.099C0.189,2.88 0.119,2.624 0.088,2.331" style="fill:rgb(35,31,32);fill-rule:nonzero;"/>
            </g>
            <g transform="matrix(1,0,0,1,365.294,732.381)">
                <path d="M0,8.59L0,0L1.166,0L5.678,6.744L5.678,0L6.768,0L6.768,8.59L5.602,8.59L1.09,1.84L1.09,8.59L0,8.59Z" style="fill:rgb(35,31,32);fill-rule:nonzero;"/>
            </g>
            <g transform="matrix(1,0,0,1,374.634,738.458)">
                <path d="M0,-1.196L3.475,-1.196C3.428,-1.719 3.295,-2.112 3.076,-2.374C2.74,-2.78 2.305,-2.983 1.77,-2.983C1.285,-2.983 0.878,-2.821 0.548,-2.497C0.218,-2.173 0.035,-1.739 0,-1.196M3.463,0.509L4.553,0.644C4.381,1.281 4.062,1.775 3.598,2.126C3.133,2.478 2.539,2.654 1.816,2.654C0.906,2.654 0.185,2.373 -0.349,1.813C-0.882,1.252 -1.148,0.466 -1.148,-0.546C-1.148,-1.592 -0.879,-2.405 -0.34,-2.983C0.199,-3.561 0.898,-3.85 1.758,-3.85C2.59,-3.85 3.27,-3.567 3.797,-3.001C4.324,-2.434 4.588,-1.637 4.588,-0.61C4.588,-0.548 4.586,-0.454 4.582,-0.329L-0.059,-0.329C-0.02,0.355 0.174,0.878 0.521,1.242C0.869,1.605 1.303,1.786 1.822,1.786C2.209,1.786 2.539,1.685 2.813,1.482C3.086,1.279 3.303,0.954 3.463,0.509" style="fill:rgb(35,31,32);fill-rule:nonzero;"/>
            </g>
            <g transform="matrix(1,0,0,1,381.659,734.748)">
                <path d="M0,6.223L-1.904,0L-0.814,0L0.176,3.592L0.545,4.928C0.561,4.862 0.668,4.434 0.867,3.645L1.857,0L2.941,0L3.873,3.61L4.184,4.799L4.541,3.598L5.607,0L6.633,0L4.687,6.223L3.592,6.223L2.602,2.496L2.361,1.436L1.102,6.223L0,6.223Z" style="fill:rgb(35,31,32);fill-rule:nonzero;"/>
            </g>
            <g transform="matrix(1,0,0,1,394.849,732.381)">
                <path d="M0,8.59L0,4.951L-3.311,0L-1.928,0L-0.234,2.59C0.078,3.074 0.369,3.559 0.639,4.043C0.896,3.594 1.209,3.088 1.576,2.526L3.24,0L4.564,0L1.137,4.951L1.137,8.59L0,8.59Z" style="fill:rgb(35,31,32);fill-rule:nonzero;"/>
            </g>
            <g transform="matrix(1,0,0,1,399.888,737.86)">
                <path d="M0,0C0,0.797 0.174,1.394 0.521,1.79C0.869,2.187 1.307,2.385 1.834,2.385C2.357,2.385 2.793,2.186 3.141,1.787C3.488,1.389 3.662,0.781 3.662,-0.035C3.662,-0.805 3.487,-1.388 3.138,-1.784C2.788,-2.181 2.354,-2.379 1.834,-2.379C1.307,-2.379 0.869,-2.182 0.521,-1.787C0.174,-1.393 0,-0.797 0,0M-1.084,0C-1.084,-1.152 -0.764,-2.006 -0.123,-2.561C0.412,-3.021 1.064,-3.252 1.834,-3.252C2.689,-3.252 3.389,-2.972 3.932,-2.411C4.475,-1.851 4.746,-1.076 4.746,-0.088C4.746,0.713 4.626,1.343 4.386,1.802C4.146,2.261 3.796,2.617 3.337,2.871C2.878,3.125 2.377,3.252 1.834,3.252C0.963,3.252 0.259,2.973 -0.278,2.414C-0.815,1.855 -1.084,1.051 -1.084,0" style="fill:rgb(35,31,32);fill-rule:nonzero;"/>
            </g>
            <g transform="matrix(1,0,0,1,405.858,734.608)">
                <path d="M0,6.363L0,0.14L0.949,0.14L0.949,1.084C1.191,0.642 1.415,0.351 1.62,0.211C1.825,0.07 2.051,0 2.297,0C2.652,0 3.014,0.113 3.381,0.34L3.018,1.318C2.76,1.166 2.502,1.09 2.244,1.09C2.014,1.09 1.807,1.159 1.623,1.298C1.439,1.436 1.309,1.629 1.23,1.875C1.113,2.25 1.055,2.66 1.055,3.105L1.055,6.363L0,6.363Z" style="fill:rgb(35,31,32);fill-rule:nonzero;"/>
            </g>
            <g transform="matrix(1,0,0,1,409.872,732.381)">
                <path d="M0,8.59L0,0L1.055,0L1.055,4.899L3.551,2.367L4.916,2.367L2.537,4.676L5.156,8.59L3.855,8.59L1.799,5.408L1.055,6.123L1.055,8.59L0,8.59Z" style="fill:rgb(35,31,32);fill-rule:nonzero;"/>
            </g>
            <g transform="matrix(1,0,0,1,416.142,741.469)">
                <path d="M0,-0.498L0,-1.699L1.201,-1.699L1.201,-0.498C1.201,-0.057 1.123,0.3 0.967,0.571C0.811,0.843 0.562,1.053 0.223,1.201L-0.07,0.75C0.152,0.652 0.316,0.509 0.422,0.319C0.527,0.13 0.586,-0.143 0.598,-0.498L0,-0.498Z" style="fill:rgb(35,31,32);fill-rule:nonzero;"/>
            </g>
            <g transform="matrix(1,0,0,1,422.657,732.381)">
                <path d="M0,8.59L0,0L1.166,0L5.678,6.744L5.678,0L6.768,0L6.768,8.59L5.602,8.59L1.09,1.84L1.09,8.59L0,8.59Z" style="fill:rgb(35,31,32);fill-rule:nonzero;"/>
            </g>
            <g transform="matrix(1,0,0,1,431.997,738.458)">
                <path d="M0,-1.196L3.475,-1.196C3.428,-1.719 3.295,-2.112 3.076,-2.374C2.74,-2.78 2.305,-2.983 1.77,-2.983C1.285,-2.983 0.878,-2.821 0.548,-2.497C0.218,-2.173 0.035,-1.739 0,-1.196M3.463,0.509L4.553,0.644C4.381,1.281 4.062,1.775 3.598,2.126C3.133,2.478 2.539,2.654 1.816,2.654C0.906,2.654 0.185,2.373 -0.349,1.813C-0.882,1.252 -1.148,0.466 -1.148,-0.546C-1.148,-1.592 -0.879,-2.405 -0.34,-2.983C0.199,-3.561 0.898,-3.85 1.758,-3.85C2.59,-3.85 3.27,-3.567 3.797,-3.001C4.324,-2.434 4.588,-1.637 4.588,-0.61C4.588,-0.548 4.586,-0.454 4.582,-0.329L-0.059,-0.329C-0.02,0.355 0.174,0.878 0.521,1.242C0.869,1.605 1.303,1.786 1.822,1.786C2.209,1.786 2.539,1.685 2.813,1.482C3.086,1.279 3.303,0.954 3.463,0.509" style="fill:rgb(35,31,32);fill-rule:nonzero;"/>
            </g>
            <g transform="matrix(1,0,0,1,439.023,734.748)">
                <path d="M0,6.223L-1.904,0L-0.814,0L0.176,3.592L0.545,4.928C0.561,4.862 0.668,4.434 0.867,3.645L1.857,0L2.941,0L3.873,3.61L4.184,4.799L4.541,3.598L5.607,0L6.633,0L4.687,6.223L3.592,6.223L2.602,2.496L2.361,1.436L1.102,6.223L0,6.223Z" style="fill:rgb(35,31,32);fill-rule:nonzero;"/>
            </g>
            <g transform="matrix(1,0,0,1,452.212,732.381)">
                <path d="M0,8.59L0,4.951L-3.311,0L-1.928,0L-0.234,2.59C0.078,3.074 0.369,3.559 0.639,4.043C0.896,3.594 1.209,3.088 1.576,2.526L3.24,0L4.564,0L1.137,4.951L1.137,8.59L0,8.59Z" style="fill:rgb(35,31,32);fill-rule:nonzero;"/>
            </g>
            <g transform="matrix(1,0,0,1,457.251,737.86)">
                <path d="M0,0C0,0.797 0.174,1.394 0.521,1.79C0.869,2.187 1.307,2.385 1.834,2.385C2.357,2.385 2.793,2.186 3.141,1.787C3.488,1.389 3.662,0.781 3.662,-0.035C3.662,-0.805 3.487,-1.388 3.138,-1.784C2.788,-2.181 2.354,-2.379 1.834,-2.379C1.307,-2.379 0.869,-2.182 0.521,-1.787C0.174,-1.393 0,-0.797 0,0M-1.084,0C-1.084,-1.152 -0.764,-2.006 -0.123,-2.561C0.412,-3.021 1.064,-3.252 1.834,-3.252C2.689,-3.252 3.389,-2.972 3.932,-2.411C4.475,-1.851 4.746,-1.076 4.746,-0.088C4.746,0.713 4.626,1.343 4.386,1.802C4.146,2.261 3.796,2.617 3.337,2.871C2.878,3.125 2.377,3.252 1.834,3.252C0.963,3.252 0.259,2.973 -0.278,2.414C-0.815,1.855 -1.084,1.051 -1.084,0" style="fill:rgb(35,31,32);fill-rule:nonzero;"/>
            </g>
            <g transform="matrix(1,0,0,1,463.222,734.608)">
                <path d="M0,6.363L0,0.14L0.949,0.14L0.949,1.084C1.191,0.642 1.415,0.351 1.62,0.211C1.825,0.07 2.051,0 2.297,0C2.652,0 3.014,0.113 3.381,0.34L3.018,1.318C2.76,1.166 2.502,1.09 2.244,1.09C2.014,1.09 1.807,1.159 1.623,1.298C1.439,1.436 1.309,1.629 1.23,1.875C1.113,2.25 1.055,2.66 1.055,3.105L1.055,6.363L0,6.363Z" style="fill:rgb(35,31,32);fill-rule:nonzero;"/>
            </g>
            <g transform="matrix(1,0,0,1,467.235,732.381)">
                <path d="M0,8.59L0,0L1.055,0L1.055,4.899L3.551,2.367L4.917,2.367L2.538,4.676L5.157,8.59L3.856,8.59L1.799,5.408L1.055,6.123L1.055,8.59L0,8.59Z" style="fill:rgb(35,31,32);fill-rule:nonzero;"/>
            </g>
            <g transform="matrix(1,0,0,1,480.244,732.346)">
                <path d="M0,8.625L-1.055,8.625L-1.055,1.904C-1.309,2.146 -1.642,2.389 -2.054,2.631C-2.466,2.873 -2.836,3.055 -3.164,3.176L-3.164,2.156C-2.574,1.879 -2.059,1.543 -1.617,1.148C-1.176,0.754 -0.863,0.371 -0.68,0L0,0L0,8.625Z" style="fill:rgb(35,31,32);fill-rule:nonzero;"/>
            </g>
            <g transform="matrix(1,0,0,1,484.029,736.729)">
                <path d="M0,0.006C0,1.416 0.165,2.355 0.495,2.821C0.825,3.288 1.232,3.522 1.717,3.522C2.201,3.522 2.608,3.287 2.938,2.819C3.269,2.35 3.434,1.412 3.434,0.006C3.434,-1.408 3.269,-2.348 2.938,-2.812C2.608,-3.277 2.197,-3.51 1.705,-3.51C1.221,-3.51 0.834,-3.305 0.545,-2.894C0.182,-2.371 0,-1.404 0,0.006M-1.084,0.006C-1.084,-1.01 -0.979,-1.827 -0.771,-2.446C-0.562,-3.065 -0.251,-3.543 0.161,-3.879C0.573,-4.215 1.092,-4.383 1.717,-4.383C2.178,-4.383 2.582,-4.29 2.93,-4.104C3.277,-3.919 3.564,-3.651 3.791,-3.302C4.018,-2.952 4.195,-2.526 4.324,-2.024C4.453,-1.522 4.518,-0.846 4.518,0.006C4.518,1.014 4.414,1.827 4.207,2.446C4,3.066 3.69,3.544 3.278,3.882C2.866,4.22 2.346,4.389 1.717,4.389C0.889,4.389 0.238,4.092 -0.234,3.498C-0.801,2.783 -1.084,1.619 -1.084,0.006" style="fill:rgb(35,31,32);fill-rule:nonzero;"/>
            </g>
            <g transform="matrix(1,0,0,1,490.703,736.729)">
                <path d="M0,0.006C0,1.416 0.165,2.355 0.495,2.821C0.825,3.288 1.232,3.522 1.717,3.522C2.201,3.522 2.608,3.287 2.938,2.819C3.269,2.35 3.434,1.412 3.434,0.006C3.434,-1.408 3.269,-2.348 2.938,-2.812C2.608,-3.277 2.197,-3.51 1.705,-3.51C1.221,-3.51 0.834,-3.305 0.545,-2.894C0.182,-2.371 0,-1.404 0,0.006M-1.084,0.006C-1.084,-1.01 -0.979,-1.827 -0.771,-2.446C-0.562,-3.065 -0.251,-3.543 0.161,-3.879C0.573,-4.215 1.092,-4.383 1.717,-4.383C2.178,-4.383 2.582,-4.29 2.93,-4.104C3.277,-3.919 3.564,-3.651 3.791,-3.302C4.018,-2.952 4.195,-2.526 4.324,-2.024C4.453,-1.522 4.518,-0.846 4.518,0.006C4.518,1.014 4.414,1.827 4.207,2.446C4,3.066 3.69,3.544 3.278,3.882C2.866,4.22 2.346,4.389 1.717,4.389C0.889,4.389 0.238,4.092 -0.234,3.498C-0.801,2.783 -1.084,1.619 -1.084,0.006" style="fill:rgb(35,31,32);fill-rule:nonzero;"/>
            </g>
            <g transform="matrix(1,0,0,1,500.265,732.346)">
                <path d="M0,8.625L-1.055,8.625L-1.055,1.904C-1.309,2.146 -1.642,2.389 -2.054,2.631C-2.466,2.873 -2.836,3.055 -3.164,3.176L-3.164,2.156C-2.574,1.879 -2.059,1.543 -1.617,1.148C-1.176,0.754 -0.863,0.371 -0.68,0L0,0L0,8.625Z" style="fill:rgb(35,31,32);fill-rule:nonzero;"/>
            </g>
            <g transform="matrix(1,0,0,1,506.347,735.405)">
                <path d="M0,2.543L0,-1.33L-2.689,2.543L0,2.543ZM0,5.566L0,3.51L-3.727,3.51L-3.727,2.543L0.193,-3.023L1.055,-3.023L1.055,2.543L2.215,2.543L2.215,3.51L1.055,3.51L1.055,5.566L0,5.566Z" style="fill:rgb(35,31,32);fill-rule:nonzero;"/>
            </g>
            <g transform="matrix(1,0,0,1,423.653,746.27)">
                <path d="M0,11.262C-0.582,10.528 -1.074,9.668 -1.477,8.684C-1.879,7.699 -2.08,6.68 -2.08,5.625C-2.08,4.696 -1.93,3.805 -1.629,2.953C-1.277,1.965 -0.734,0.981 0,0L0.756,0C0.283,0.813 -0.029,1.393 -0.182,1.741C-0.42,2.28 -0.607,2.842 -0.744,3.428C-0.912,4.158 -0.996,4.893 -0.996,5.631C-0.996,7.51 -0.412,9.387 0.756,11.262L0,11.262Z" style="fill:rgb(35,31,32);fill-rule:nonzero;"/>
            </g>
            <g transform="matrix(1,0,0,1,430.884,747.396)">
                <path d="M0,6.597L0,7.611L-5.678,7.611C-5.686,7.357 -5.645,7.113 -5.555,6.878C-5.41,6.492 -5.179,6.111 -4.86,5.736C-4.542,5.361 -4.082,4.927 -3.48,4.435C-2.547,3.669 -1.916,3.063 -1.588,2.616C-1.26,2.168 -1.096,1.745 -1.096,1.347C-1.096,0.929 -1.245,0.576 -1.544,0.289C-1.843,0.002 -2.232,-0.141 -2.713,-0.141C-3.221,-0.141 -3.627,0.011 -3.932,0.316C-4.236,0.62 -4.391,1.042 -4.395,1.581L-5.479,1.47C-5.404,0.661 -5.125,0.045 -4.641,-0.379C-4.156,-0.802 -3.506,-1.014 -2.689,-1.014C-1.865,-1.014 -1.213,-0.786 -0.732,-0.329C-0.252,0.128 -0.012,0.695 -0.012,1.37C-0.012,1.714 -0.082,2.052 -0.223,2.384C-0.363,2.716 -0.597,3.066 -0.923,3.433C-1.249,3.8 -1.791,4.304 -2.549,4.945C-3.182,5.476 -3.588,5.836 -3.768,6.026C-3.947,6.215 -4.096,6.406 -4.213,6.597L0,6.597Z" style="fill:rgb(35,31,32);fill-rule:nonzero;"/>
            </g>
            <g transform="matrix(1,0,0,1,435.987,746.382)">
                <path d="M0,8.625L-1.055,8.625L-1.055,1.904C-1.309,2.146 -1.642,2.389 -2.054,2.631C-2.466,2.873 -2.836,3.055 -3.164,3.176L-3.164,2.156C-2.574,1.879 -2.059,1.543 -1.617,1.148C-1.176,0.754 -0.863,0.371 -0.68,0L0,0L0,8.625Z" style="fill:rgb(35,31,32);fill-rule:nonzero;"/>
            </g>
            <g transform="matrix(1,0,0,1,444.231,747.396)">
                <path d="M0,6.597L0,7.611L-5.678,7.611C-5.686,7.357 -5.645,7.113 -5.555,6.878C-5.41,6.492 -5.179,6.111 -4.86,5.736C-4.542,5.361 -4.082,4.927 -3.48,4.435C-2.547,3.669 -1.916,3.063 -1.588,2.616C-1.26,2.168 -1.096,1.745 -1.096,1.347C-1.096,0.929 -1.245,0.576 -1.544,0.289C-1.843,0.002 -2.232,-0.141 -2.713,-0.141C-3.221,-0.141 -3.627,0.011 -3.932,0.316C-4.236,0.62 -4.391,1.042 -4.395,1.581L-5.479,1.47C-5.404,0.661 -5.125,0.045 -4.641,-0.379C-4.156,-0.802 -3.506,-1.014 -2.689,-1.014C-1.865,-1.014 -1.213,-0.786 -0.732,-0.329C-0.252,0.128 -0.012,0.695 -0.012,1.37C-0.012,1.714 -0.082,2.052 -0.223,2.384C-0.363,2.716 -0.597,3.066 -0.923,3.433C-1.249,3.8 -1.791,4.304 -2.549,4.945C-3.182,5.476 -3.588,5.836 -3.768,6.026C-3.947,6.215 -4.096,6.406 -4.213,6.597L0,6.597Z" style="fill:rgb(35,31,32);fill-rule:nonzero;"/>
            </g>
            <g transform="matrix(1,0,0,1,446.347,746.27)">
                <path d="M0,11.262L-0.756,11.262C0.412,9.387 0.996,7.51 0.996,5.631C0.996,4.897 0.912,4.168 0.744,3.446C0.611,2.86 0.426,2.297 0.187,1.758C0.035,1.407 -0.279,0.821 -0.756,0L0,0C0.734,0.981 1.277,1.965 1.629,2.953C1.93,3.805 2.08,4.696 2.08,5.625C2.08,6.68 1.878,7.699 1.474,8.684C1.069,9.668 0.578,10.528 0,11.262" style="fill:rgb(35,31,32);fill-rule:nonzero;"/>
            </g>
            <g transform="matrix(1,0,0,1,456.073,749.44)">
                <path d="M0,2.543L0,-1.33L-2.689,2.543L0,2.543ZM0,5.566L0,3.51L-3.727,3.51L-3.727,2.543L0.193,-3.023L1.055,-3.023L1.055,2.543L2.215,2.543L2.215,3.51L1.055,3.51L1.055,5.566L0,5.566Z" style="fill:rgb(35,31,32);fill-rule:nonzero;"/>
            </g>
            <g transform="matrix(1,0,0,1,463.339,746.382)">
                <path d="M0,8.625L-1.055,8.625L-1.055,1.904C-1.309,2.146 -1.642,2.389 -2.054,2.631C-2.466,2.873 -2.836,3.055 -3.164,3.176L-3.164,2.156C-2.574,1.879 -2.059,1.543 -1.617,1.148C-1.176,0.754 -0.863,0.371 -0.68,0L0,0L0,8.625Z" style="fill:rgb(35,31,32);fill-rule:nonzero;"/>
            </g>
            <g transform="matrix(1,0,0,1,469.421,749.44)">
                <path d="M0,2.543L0,-1.33L-2.689,2.543L0,2.543ZM0,5.566L0,3.51L-3.727,3.51L-3.727,2.543L0.193,-3.023L1.055,-3.023L1.055,2.543L2.215,2.543L2.215,3.51L1.055,3.51L1.055,5.566L0,5.566Z" style="fill:rgb(35,31,32);fill-rule:nonzero;"/>
            </g>
            <g transform="matrix(1,0,0,1,0,711.797)">
                <rect x="475.931" y="39.571" width="3.24" height="1.061" style="fill:rgb(35,31,32);"/>
            </g>
            <g transform="matrix(1,0,0,1,488.921,747.396)">
                <path d="M0,6.597L0,7.611L-5.678,7.611C-5.686,7.357 -5.645,7.113 -5.555,6.878C-5.41,6.492 -5.179,6.111 -4.86,5.736C-4.542,5.361 -4.082,4.927 -3.48,4.435C-2.547,3.669 -1.916,3.063 -1.588,2.616C-1.26,2.168 -1.096,1.745 -1.096,1.347C-1.096,0.929 -1.245,0.576 -1.544,0.289C-1.843,0.002 -2.232,-0.141 -2.713,-0.141C-3.221,-0.141 -3.627,0.011 -3.932,0.316C-4.236,0.62 -4.391,1.042 -4.395,1.581L-5.479,1.47C-5.404,0.661 -5.125,0.045 -4.641,-0.379C-4.156,-0.802 -3.506,-1.014 -2.689,-1.014C-1.865,-1.014 -1.213,-0.786 -0.732,-0.329C-0.252,0.128 -0.012,0.695 -0.012,1.37C-0.012,1.714 -0.082,2.052 -0.223,2.384C-0.363,2.716 -0.597,3.066 -0.923,3.433C-1.249,3.8 -1.791,4.304 -2.549,4.945C-3.182,5.476 -3.588,5.836 -3.768,6.026C-3.947,6.215 -4.096,6.406 -4.213,6.597L0,6.597Z" style="fill:rgb(35,31,32);fill-rule:nonzero;"/>
            </g>
            <g transform="matrix(1,0,0,1,490.122,753.993)">
                <path d="M0,-6.451L0,-7.465L5.561,-7.465L5.561,-6.644C5.014,-6.062 4.472,-5.289 3.935,-4.324C3.397,-3.359 2.982,-2.367 2.689,-1.347C2.479,-0.629 2.344,0.158 2.285,1.014L1.201,1.014C1.213,0.338 1.346,-0.478 1.6,-1.435C1.854,-2.392 2.218,-3.315 2.692,-4.204C3.167,-5.093 3.672,-5.842 4.207,-6.451L0,-6.451Z" style="fill:rgb(35,31,32);fill-rule:nonzero;"/>
            </g>
            <g transform="matrix(1,0,0,1,500.106,749.44)">
                <path d="M0,2.543L0,-1.33L-2.689,2.543L0,2.543ZM0,5.566L0,3.51L-3.727,3.51L-3.727,2.543L0.193,-3.023L1.055,-3.023L1.055,2.543L2.215,2.543L2.215,3.51L1.055,3.51L1.055,5.566L0,5.566Z" style="fill:rgb(35,31,32);fill-rule:nonzero;"/>
            </g>
            <g transform="matrix(1,0,0,1,506.78,749.44)">
                <path d="M0,2.543L0,-1.33L-2.689,2.543L0,2.543ZM0,5.566L0,3.51L-3.727,3.51L-3.727,2.543L0.193,-3.023L1.055,-3.023L1.055,2.543L2.215,2.543L2.215,3.51L1.055,3.51L1.055,5.566L0,5.566Z" style="fill:rgb(35,31,32);fill-rule:nonzero;"/>
            </g>
            <g transform="matrix(1,0,0,1,324.783,763.517)">
                <path d="M0,6.363L0,0.14L0.943,0.14L0.943,1.013C1.139,0.709 1.398,0.464 1.723,0.278C2.047,0.092 2.416,0 2.83,0C3.291,0 3.669,0.095 3.964,0.287C4.259,0.478 4.467,0.746 4.588,1.09C5.08,0.363 5.721,0 6.51,0C7.127,0 7.602,0.171 7.934,0.512C8.266,0.854 8.432,1.381 8.432,2.092L8.432,6.363L7.383,6.363L7.383,2.443C7.383,2.021 7.349,1.717 7.28,1.532C7.212,1.346 7.088,1.197 6.908,1.084C6.729,0.97 6.518,0.914 6.275,0.914C5.838,0.914 5.475,1.059 5.186,1.35C4.896,1.641 4.752,2.107 4.752,2.748L4.752,6.363L3.697,6.363L3.697,2.32C3.697,1.851 3.611,1.5 3.439,1.265C3.268,1.031 2.986,0.914 2.596,0.914C2.299,0.914 2.024,0.992 1.772,1.148C1.521,1.304 1.338,1.533 1.225,1.834C1.111,2.134 1.055,2.568 1.055,3.134L1.055,6.363L0,6.363Z" style="fill:rgb(35,31,32);fill-rule:nonzero;"/>
            </g>
            <g transform="matrix(1,0,0,1,0,739.171)">
                <path d="M334.785,24.487L335.84,24.487L335.84,30.71L334.785,30.71L334.785,24.487ZM334.785,22.119L335.84,22.119L335.84,23.332L334.785,23.332L334.785,22.119Z" style="fill:rgb(35,31,32);fill-rule:nonzero;"/>
            </g>
            <g transform="matrix(1,0,0,1,337.451,761.29)">
                <path d="M0,8.59L0,0L1.055,0L1.055,4.899L3.551,2.367L4.916,2.367L2.537,4.676L5.156,8.59L3.855,8.59L1.799,5.408L1.055,6.123L1.055,8.59L0,8.59Z" style="fill:rgb(35,31,32);fill-rule:nonzero;"/>
            </g>
            <g transform="matrix(1,0,0,1,344.242,767.367)">
                <path d="M0,-1.196L3.475,-1.196C3.428,-1.719 3.295,-2.112 3.076,-2.374C2.74,-2.78 2.305,-2.983 1.77,-2.983C1.285,-2.983 0.878,-2.821 0.548,-2.497C0.218,-2.173 0.035,-1.739 0,-1.196M3.463,0.509L4.553,0.644C4.381,1.281 4.062,1.775 3.598,2.126C3.133,2.478 2.539,2.654 1.816,2.654C0.906,2.654 0.185,2.373 -0.349,1.813C-0.882,1.252 -1.148,0.466 -1.148,-0.546C-1.148,-1.592 -0.879,-2.405 -0.34,-2.983C0.199,-3.561 0.898,-3.85 1.758,-3.85C2.59,-3.85 3.27,-3.567 3.797,-3.001C4.324,-2.434 4.588,-1.637 4.588,-0.61C4.588,-0.548 4.586,-0.454 4.582,-0.329L-0.059,-0.329C-0.02,0.355 0.174,0.878 0.521,1.242C0.869,1.605 1.303,1.786 1.822,1.786C2.209,1.786 2.539,1.685 2.813,1.482C3.086,1.279 3.303,0.954 3.463,0.509" style="fill:white;fill-rule:nonzero;"/>
            </g>
            <g transform="matrix(1,0,0,1,0,746.559)">
                <rect x="350.418" y="22.12" width="1.201" height="1.201" style="fill:rgb(35,31,32);"/>
            </g>
            <g transform="matrix(1,0,0,1,0,741.696)">
                <path d="M353.447,19.594L354.502,19.594L354.502,20.819L353.447,20.819L353.447,19.594ZM352.111,30.598L352.31,29.702C352.521,29.756 352.687,29.784 352.808,29.784C353.023,29.784 353.183,29.713 353.289,29.57C353.394,29.427 353.447,29.071 353.447,28.501L353.447,21.962L354.502,21.962L354.502,28.524C354.502,29.29 354.402,29.823 354.203,30.124C353.949,30.514 353.527,30.71 352.937,30.71C352.652,30.71 352.377,30.672 352.111,30.598" style="fill:rgb(35,31,32);fill-rule:nonzero;"/>
            </g>
            <g transform="matrix(1,0,0,1,356.81,766.769)">
                <path d="M0,0C0,0.797 0.174,1.394 0.521,1.79C0.869,2.187 1.307,2.385 1.834,2.385C2.357,2.385 2.793,2.186 3.141,1.787C3.488,1.389 3.662,0.781 3.662,-0.035C3.662,-0.805 3.487,-1.388 3.138,-1.784C2.788,-2.181 2.354,-2.379 1.834,-2.379C1.307,-2.379 0.869,-2.182 0.521,-1.787C0.174,-1.393 0,-0.797 0,0M-1.084,0C-1.084,-1.152 -0.764,-2.006 -0.123,-2.561C0.412,-3.021 1.064,-3.252 1.834,-3.252C2.689,-3.252 3.389,-2.972 3.932,-2.411C4.475,-1.851 4.746,-1.076 4.746,-0.088C4.746,0.713 4.626,1.343 4.386,1.802C4.146,2.261 3.796,2.617 3.337,2.871C2.878,3.125 2.377,3.252 1.834,3.252C0.963,3.252 0.259,2.973 -0.278,2.414C-0.815,1.855 -1.084,1.051 -1.084,0" style="fill:rgb(35,31,32);fill-rule:nonzero;"/>
            </g>
            <g transform="matrix(1,0,0,1,362.746,763.787)">
                <path d="M0,8.49L-0.117,7.5C0.113,7.562 0.314,7.594 0.486,7.594C0.721,7.594 0.908,7.554 1.049,7.476C1.189,7.398 1.305,7.289 1.395,7.148C1.461,7.043 1.568,6.781 1.717,6.363C1.736,6.304 1.768,6.219 1.811,6.105L-0.551,-0.129L0.586,-0.129L1.881,3.474C2.049,3.931 2.199,4.412 2.332,4.916C2.453,4.431 2.598,3.959 2.766,3.498L4.096,-0.129L5.15,-0.129L2.783,6.199C2.529,6.883 2.332,7.353 2.191,7.611C2.004,7.959 1.789,8.214 1.547,8.376C1.305,8.538 1.016,8.619 0.68,8.619C0.477,8.619 0.25,8.576 0,8.49" style="fill:rgb(35,31,32);fill-rule:nonzero;"/>
            </g>
            <g transform="matrix(1,0,0,1,372.853,765.937)">
                <path d="M0,1.664L1.037,1.799C0.924,2.514 0.634,3.073 0.167,3.477C-0.3,3.882 -0.873,4.084 -1.553,4.084C-2.404,4.084 -3.089,3.806 -3.606,3.249C-4.124,2.692 -4.383,1.894 -4.383,0.855C-4.383,0.184 -4.271,-0.404 -4.049,-0.908C-3.826,-1.412 -3.487,-1.79 -3.032,-2.042C-2.577,-2.294 -2.082,-2.42 -1.547,-2.42C-0.871,-2.42 -0.318,-2.249 0.111,-1.907C0.541,-1.565 0.816,-1.08 0.937,-0.451L-0.088,-0.293C-0.186,-0.711 -0.358,-1.025 -0.606,-1.236C-0.854,-1.447 -1.154,-1.553 -1.506,-1.553C-2.037,-1.553 -2.469,-1.362 -2.801,-0.982C-3.133,-0.601 -3.299,0.002 -3.299,0.826C-3.299,1.662 -3.139,2.269 -2.818,2.648C-2.498,3.027 -2.08,3.217 -1.564,3.217C-1.15,3.217 -0.805,3.09 -0.527,2.836C-0.25,2.582 -0.074,2.191 0,1.664" style="fill:rgb(35,31,32);fill-rule:nonzero;"/>
            </g>
            <g transform="matrix(1,0,0,1,375.59,767.367)">
                <path d="M0,-1.196L3.475,-1.196C3.428,-1.719 3.295,-2.112 3.076,-2.374C2.74,-2.78 2.305,-2.983 1.77,-2.983C1.285,-2.983 0.878,-2.821 0.548,-2.497C0.218,-2.173 0.035,-1.739 0,-1.196M3.463,0.509L4.553,0.644C4.381,1.281 4.062,1.775 3.598,2.126C3.133,2.478 2.539,2.654 1.816,2.654C0.906,2.654 0.185,2.373 -0.349,1.813C-0.882,1.252 -1.148,0.466 -1.148,-0.546C-1.148,-1.592 -0.879,-2.405 -0.34,-2.983C0.199,-3.561 0.898,-3.85 1.758,-3.85C2.59,-3.85 3.27,-3.567 3.797,-3.001C4.324,-2.434 4.588,-1.637 4.588,-0.61C4.588,-0.548 4.586,-0.454 4.582,-0.329L-0.059,-0.329C-0.02,0.355 0.174,0.878 0.521,1.242C0.869,1.605 1.303,1.786 1.822,1.786C2.209,1.786 2.539,1.685 2.813,1.482C3.086,1.279 3.303,0.954 3.463,0.509" style="fill:rgb(35,31,32);fill-rule:nonzero;"/>
            </g>
            <g transform="matrix(1,0,0,1,384.642,766.2)">
                <path d="M0,1.137C0,1.672 0.127,2.088 0.381,2.385C0.635,2.682 0.926,2.83 1.254,2.83C1.473,2.83 1.703,2.765 1.945,2.634C2.188,2.503 2.419,2.309 2.64,2.051C2.86,1.793 3.041,1.466 3.182,1.07C3.322,0.673 3.393,0.276 3.393,-0.123C3.393,-0.654 3.261,-1.066 2.997,-1.359C2.733,-1.652 2.412,-1.799 2.033,-1.799C1.783,-1.799 1.548,-1.735 1.327,-1.608C1.106,-1.481 0.893,-1.277 0.686,-0.996C0.479,-0.715 0.312,-0.373 0.187,0.03C0.062,0.432 0,0.801 0,1.137M2.836,2.725C2.582,3.018 2.298,3.253 1.983,3.431C1.669,3.609 1.354,3.698 1.037,3.698C0.689,3.698 0.352,3.596 0.023,3.393C-0.305,3.19 -0.571,2.877 -0.776,2.455C-0.981,2.033 -1.084,1.571 -1.084,1.067C-1.084,0.446 -0.925,-0.176 -0.606,-0.8C-0.288,-1.423 0.107,-1.89 0.58,-2.203C1.053,-2.515 1.512,-2.672 1.957,-2.672C2.297,-2.672 2.621,-2.583 2.93,-2.405C3.238,-2.227 3.504,-1.957 3.727,-1.593L3.926,-2.502L4.975,-2.502L4.131,1.43C4.014,1.977 3.955,2.28 3.955,2.338C3.955,2.444 3.995,2.534 4.075,2.611C4.155,2.687 4.252,2.725 4.365,2.725C4.572,2.725 4.844,2.606 5.18,2.367C5.625,2.055 5.978,1.636 6.237,1.111C6.497,0.585 6.627,0.043 6.627,-0.515C6.627,-1.168 6.46,-1.777 6.126,-2.343C5.792,-2.91 5.294,-3.363 4.632,-3.703C3.97,-4.043 3.238,-4.213 2.438,-4.213C1.523,-4.213 0.688,-3.999 -0.067,-3.571C-0.823,-3.143 -1.409,-2.53 -1.825,-1.731C-2.241,-0.932 -2.449,-0.076 -2.449,0.838C-2.449,1.795 -2.241,2.619 -1.825,3.311C-1.409,4.002 -0.808,4.513 -0.021,4.843C0.767,5.173 1.639,5.338 2.596,5.338C3.619,5.338 4.477,5.166 5.168,4.823C5.859,4.479 6.377,4.061 6.721,3.569L7.781,3.569C7.582,3.979 7.24,4.397 6.756,4.823C6.271,5.248 5.695,5.585 5.027,5.833C4.359,6.081 3.555,6.205 2.613,6.205C1.746,6.205 0.946,6.094 0.214,5.871C-0.519,5.649 -1.143,5.314 -1.658,4.866C-2.174,4.419 -2.563,3.905 -2.824,3.323C-3.152,2.584 -3.316,1.787 -3.316,0.932C-3.316,-0.021 -3.121,-0.929 -2.73,-1.793C-2.254,-2.851 -1.577,-3.662 -0.7,-4.224C0.177,-4.787 1.24,-5.068 2.49,-5.068C3.459,-5.068 4.329,-4.87 5.101,-4.473C5.872,-4.077 6.48,-3.486 6.926,-2.701C7.305,-2.025 7.494,-1.291 7.494,-0.498C7.494,0.635 7.096,1.641 6.299,2.52C5.588,3.309 4.811,3.703 3.967,3.703C3.697,3.703 3.479,3.662 3.313,3.58C3.147,3.498 3.025,3.381 2.947,3.229C2.896,3.131 2.859,2.963 2.836,2.725" style="fill:rgb(35,31,32);fill-rule:nonzero;"/>
            </g>
            <g transform="matrix(1,0,0,1,393.226,765.515)">
                <path d="M0,2.508L1.043,2.344C1.102,2.762 1.265,3.082 1.532,3.305C1.8,3.528 2.174,3.639 2.654,3.639C3.139,3.639 3.498,3.54 3.732,3.343C3.967,3.146 4.084,2.914 4.084,2.649C4.084,2.41 3.98,2.223 3.773,2.086C3.629,1.992 3.27,1.873 2.695,1.729C1.922,1.533 1.386,1.364 1.087,1.222C0.788,1.079 0.562,0.882 0.407,0.63C0.253,0.378 0.176,0.1 0.176,-0.205C0.176,-0.482 0.239,-0.739 0.366,-0.975C0.493,-1.212 0.666,-1.408 0.885,-1.564C1.049,-1.685 1.272,-1.788 1.556,-1.872C1.839,-1.956 2.143,-1.998 2.467,-1.998C2.955,-1.998 3.384,-1.928 3.753,-1.787C4.122,-1.646 4.395,-1.456 4.57,-1.216C4.746,-0.975 4.867,-0.654 4.934,-0.252L3.902,-0.111C3.855,-0.431 3.72,-0.681 3.495,-0.861C3.271,-1.041 2.953,-1.131 2.543,-1.131C2.059,-1.131 1.713,-1.051 1.506,-0.89C1.299,-0.73 1.195,-0.543 1.195,-0.328C1.195,-0.191 1.238,-0.068 1.324,0.041C1.41,0.154 1.545,0.248 1.729,0.322C1.834,0.362 2.145,0.451 2.66,0.592C3.406,0.791 3.927,0.954 4.222,1.081C4.517,1.208 4.748,1.393 4.916,1.635C5.084,1.877 5.168,2.178 5.168,2.537C5.168,2.889 5.065,3.22 4.86,3.53C4.655,3.841 4.359,4.081 3.973,4.251C3.586,4.421 3.148,4.506 2.66,4.506C1.852,4.506 1.235,4.338 0.812,4.002C0.388,3.666 0.117,3.168 0,2.508" style="fill:rgb(35,31,32);fill-rule:nonzero;"/>
            </g>
            <g transform="matrix(1,0,0,1,401.951,762.509)">
                <path d="M0,6.428L0.152,7.36C-0.145,7.422 -0.41,7.453 -0.645,7.453C-1.027,7.453 -1.324,7.393 -1.535,7.272C-1.746,7.151 -1.895,6.991 -1.98,6.794C-2.066,6.597 -2.109,6.182 -2.109,5.549L-2.109,1.969L-2.883,1.969L-2.883,1.149L-2.109,1.149L-2.109,-0.392L-1.061,-1.025L-1.061,1.149L0,1.149L0,1.969L-1.061,1.969L-1.061,5.608C-1.061,5.908 -1.042,6.102 -1.005,6.188C-0.968,6.274 -0.907,6.342 -0.823,6.393C-0.739,6.444 -0.619,6.469 -0.463,6.469C-0.346,6.469 -0.191,6.455 0,6.428" style="fill:rgb(35,31,32);fill-rule:nonzero;"/>
            </g>
            <g transform="matrix(1,0,0,1,403.779,767.367)">
                <path d="M0,-1.196L3.475,-1.196C3.428,-1.719 3.295,-2.112 3.076,-2.374C2.74,-2.78 2.305,-2.983 1.77,-2.983C1.285,-2.983 0.878,-2.821 0.548,-2.497C0.218,-2.173 0.035,-1.739 0,-1.196M3.463,0.509L4.553,0.644C4.381,1.281 4.062,1.775 3.598,2.126C3.133,2.478 2.539,2.654 1.816,2.654C0.906,2.654 0.185,2.373 -0.349,1.813C-0.882,1.252 -1.148,0.466 -1.148,-0.546C-1.148,-1.592 -0.879,-2.405 -0.34,-2.983C0.199,-3.561 0.898,-3.85 1.758,-3.85C2.59,-3.85 3.27,-3.567 3.797,-3.001C4.324,-2.434 4.588,-1.637 4.588,-0.61C4.588,-0.548 4.586,-0.454 4.582,-0.329L-0.059,-0.329C-0.02,0.355 0.174,0.878 0.521,1.242C0.869,1.605 1.303,1.786 1.822,1.786C2.209,1.786 2.539,1.685 2.813,1.482C3.086,1.279 3.303,0.954 3.463,0.509" style="fill:rgb(35,31,32);fill-rule:nonzero;"/>
            </g>
            <g transform="matrix(1,0,0,1,409.644,763.517)">
                <path d="M0,6.363L0,0.14L0.949,0.14L0.949,1.084C1.191,0.642 1.415,0.351 1.62,0.211C1.825,0.07 2.051,0 2.297,0C2.652,0 3.014,0.113 3.381,0.34L3.018,1.318C2.76,1.166 2.502,1.09 2.244,1.09C2.014,1.09 1.807,1.159 1.623,1.298C1.439,1.436 1.309,1.629 1.23,1.875C1.113,2.25 1.055,2.66 1.055,3.105L1.055,6.363L0,6.363Z" style="fill:rgb(35,31,32);fill-rule:nonzero;"/>
            </g>
            <g transform="matrix(1,0,0,1,414.449,767.367)">
                <path d="M0,-1.196L3.475,-1.196C3.428,-1.719 3.295,-2.112 3.076,-2.374C2.74,-2.78 2.305,-2.983 1.77,-2.983C1.285,-2.983 0.878,-2.821 0.548,-2.497C0.218,-2.173 0.035,-1.739 0,-1.196M3.463,0.509L4.553,0.644C4.381,1.281 4.062,1.775 3.598,2.126C3.133,2.478 2.539,2.654 1.816,2.654C0.906,2.654 0.185,2.373 -0.349,1.813C-0.882,1.252 -1.148,0.466 -1.148,-0.546C-1.148,-1.592 -0.879,-2.405 -0.34,-2.983C0.199,-3.561 0.898,-3.85 1.758,-3.85C2.59,-3.85 3.27,-3.567 3.797,-3.001C4.324,-2.434 4.588,-1.637 4.588,-0.61C4.588,-0.548 4.586,-0.454 4.582,-0.329L-0.059,-0.329C-0.02,0.355 0.174,0.878 0.521,1.242C0.869,1.605 1.303,1.786 1.822,1.786C2.209,1.786 2.539,1.685 2.813,1.482C3.086,1.279 3.303,0.954 3.463,0.509" style="fill:rgb(35,31,32);fill-rule:nonzero;"/>
            </g>
            <g transform="matrix(1,0,0,1,421.017,766.769)">
                <path d="M0,0C0,0.797 0.174,1.394 0.521,1.79C0.869,2.187 1.307,2.385 1.834,2.385C2.357,2.385 2.793,2.186 3.14,1.787C3.488,1.389 3.662,0.781 3.662,-0.035C3.662,-0.805 3.488,-1.388 3.138,-1.784C2.788,-2.181 2.354,-2.379 1.834,-2.379C1.307,-2.379 0.869,-2.182 0.521,-1.787C0.174,-1.393 0,-0.797 0,0M-1.084,0C-1.084,-1.152 -0.764,-2.006 -0.123,-2.561C0.412,-3.021 1.064,-3.252 1.834,-3.252C2.689,-3.252 3.388,-2.972 3.931,-2.411C4.474,-1.851 4.746,-1.076 4.746,-0.088C4.746,0.713 4.626,1.343 4.386,1.802C4.146,2.261 3.796,2.617 3.337,2.871C2.878,3.125 2.377,3.252 1.834,3.252C0.963,3.252 0.259,2.973 -0.278,2.414C-0.815,1.855 -1.084,1.051 -1.084,0" style="fill:rgb(35,31,32);fill-rule:nonzero;"/>
            </g>
            <g transform="matrix(1,0,0,1,429.302,762.509)">
                <path d="M0,6.428L0.152,7.36C-0.145,7.422 -0.41,7.453 -0.645,7.453C-1.027,7.453 -1.324,7.393 -1.535,7.272C-1.746,7.151 -1.895,6.991 -1.98,6.794C-2.066,6.597 -2.109,6.182 -2.109,5.549L-2.109,1.969L-2.883,1.969L-2.883,1.149L-2.109,1.149L-2.109,-0.392L-1.061,-1.025L-1.061,1.149L0,1.149L0,1.969L-1.061,1.969L-1.061,5.608C-1.061,5.908 -1.042,6.102 -1.005,6.188C-0.968,6.274 -0.907,6.342 -0.823,6.393C-0.739,6.444 -0.619,6.469 -0.463,6.469C-0.346,6.469 -0.191,6.455 0,6.428" style="fill:rgb(35,31,32);fill-rule:nonzero;"/>
            </g>
            <g transform="matrix(1,0,0,1,430.286,763.787)">
                <path d="M0,8.49L-0.117,7.5C0.113,7.562 0.314,7.594 0.486,7.594C0.721,7.594 0.908,7.554 1.049,7.476C1.189,7.398 1.305,7.289 1.395,7.148C1.461,7.043 1.568,6.781 1.717,6.363C1.736,6.304 1.768,6.219 1.811,6.105L-0.551,-0.129L0.586,-0.129L1.881,3.474C2.049,3.931 2.199,4.412 2.332,4.916C2.453,4.431 2.598,3.959 2.766,3.498L4.096,-0.129L5.15,-0.129L2.783,6.199C2.529,6.883 2.332,7.353 2.191,7.611C2.004,7.959 1.789,8.214 1.547,8.376C1.305,8.538 1.016,8.619 0.68,8.619C0.477,8.619 0.25,8.576 0,8.49" style="fill:rgb(35,31,32);fill-rule:nonzero;"/>
            </g>
            <g transform="matrix(1,0,0,1,437.288,768.978)">
                <path d="M0,-2.174C0,-1.373 0.162,-0.781 0.486,-0.399C0.811,-0.016 1.203,0.176 1.664,0.176C2.133,0.176 2.534,-0.023 2.868,-0.419C3.202,-0.816 3.369,-1.43 3.369,-2.262C3.369,-3.055 3.206,-3.649 2.88,-4.043C2.554,-4.438 2.164,-4.635 1.711,-4.635C1.262,-4.635 0.864,-4.425 0.519,-4.005C0.173,-3.585 0,-2.975 0,-2.174M-0.955,3.287L-0.955,-5.32L0.006,-5.32L0.006,-4.512C0.232,-4.828 0.488,-5.066 0.773,-5.224C1.059,-5.382 1.404,-5.461 1.811,-5.461C2.342,-5.461 2.811,-5.324 3.217,-5.051C3.623,-4.778 3.93,-4.392 4.137,-3.894C4.344,-3.396 4.447,-2.85 4.447,-2.256C4.447,-1.619 4.333,-1.046 4.104,-0.536C3.876,-0.027 3.544,0.364 3.108,0.636C2.673,0.907 2.215,1.043 1.734,1.043C1.383,1.043 1.067,0.969 0.788,0.82C0.509,0.672 0.279,0.484 0.1,0.258L0.1,3.287L-0.955,3.287Z" style="fill:rgb(35,31,32);fill-rule:nonzero;"/>
            </g>
            <g transform="matrix(1,0,0,1,443.804,767.367)">
                <path d="M0,-1.196L3.475,-1.196C3.428,-1.719 3.295,-2.112 3.076,-2.374C2.74,-2.78 2.305,-2.983 1.77,-2.983C1.285,-2.983 0.878,-2.821 0.548,-2.497C0.218,-2.173 0.035,-1.739 0,-1.196M3.463,0.509L4.553,0.644C4.381,1.281 4.062,1.775 3.598,2.126C3.133,2.478 2.539,2.654 1.816,2.654C0.906,2.654 0.185,2.373 -0.349,1.813C-0.882,1.252 -1.148,0.466 -1.148,-0.546C-1.148,-1.592 -0.879,-2.405 -0.34,-2.983C0.199,-3.561 0.898,-3.85 1.758,-3.85C2.59,-3.85 3.27,-3.567 3.797,-3.001C4.324,-2.434 4.588,-1.637 4.588,-0.61C4.588,-0.548 4.586,-0.454 4.582,-0.329L-0.059,-0.329C-0.02,0.355 0.174,0.878 0.521,1.242C0.869,1.605 1.303,1.786 1.822,1.786C2.209,1.786 2.539,1.685 2.813,1.482C3.086,1.279 3.303,0.954 3.463,0.509" style="fill:rgb(35,31,32);fill-rule:nonzero;"/>
            </g>
            <g transform="matrix(1,0,0,1,450.384,764.537)">
                <path d="M0,2.238C0,3.035 0.168,3.631 0.504,4.025C0.84,4.42 1.236,4.617 1.693,4.617C2.154,4.617 2.546,4.428 2.868,4.051C3.19,3.675 3.352,3.099 3.352,2.326C3.352,1.474 3.188,0.849 2.859,0.451C2.531,0.052 2.127,-0.147 1.646,-0.147C1.178,-0.147 0.786,0.045 0.472,0.427C0.157,0.81 0,1.414 0,2.238M3.334,5.343L3.334,4.558C2.939,5.176 2.359,5.484 1.594,5.484C1.098,5.484 0.642,5.347 0.226,5.074C-0.19,4.801 -0.513,4.419 -0.741,3.928C-0.97,3.438 -1.084,2.875 -1.084,2.238C-1.084,1.617 -0.98,1.053 -0.773,0.548C-0.566,0.042 -0.256,-0.346 0.158,-0.616C0.572,-0.885 1.035,-1.02 1.547,-1.02C1.922,-1.02 2.256,-0.941 2.549,-0.783C2.842,-0.624 3.08,-0.418 3.264,-0.164L3.264,-3.246L4.312,-3.246L4.312,5.343L3.334,5.343Z" style="fill:rgb(35,31,32);fill-rule:nonzero;"/>
            </g>
            <g transform="matrix(1,0,0,1,457.152,767.367)">
                <path d="M0,-1.196L3.475,-1.196C3.428,-1.719 3.295,-2.112 3.076,-2.374C2.74,-2.78 2.305,-2.983 1.77,-2.983C1.285,-2.983 0.878,-2.821 0.548,-2.497C0.218,-2.173 0.035,-1.739 0,-1.196M3.463,0.509L4.553,0.644C4.381,1.281 4.062,1.775 3.598,2.126C3.133,2.478 2.539,2.654 1.816,2.654C0.906,2.654 0.185,2.373 -0.349,1.813C-0.882,1.252 -1.148,0.466 -1.148,-0.546C-1.148,-1.592 -0.879,-2.405 -0.34,-2.983C0.199,-3.561 0.898,-3.85 1.758,-3.85C2.59,-3.85 3.27,-3.567 3.797,-3.001C4.324,-2.434 4.588,-1.637 4.588,-0.61C4.588,-0.548 4.586,-0.454 4.582,-0.329L-0.059,-0.329C-0.02,0.355 0.174,0.878 0.521,1.242C0.869,1.605 1.303,1.786 1.822,1.786C2.209,1.786 2.539,1.685 2.813,1.482C3.086,1.279 3.303,0.954 3.463,0.509" style="fill:rgb(35,31,32);fill-rule:nonzero;"/>
            </g>
            <g transform="matrix(1,0,0,1,462.607,765.515)">
                <path d="M0,2.508L1.043,2.344C1.102,2.762 1.265,3.082 1.532,3.305C1.8,3.528 2.174,3.639 2.654,3.639C3.139,3.639 3.498,3.54 3.732,3.343C3.967,3.146 4.084,2.914 4.084,2.649C4.084,2.41 3.98,2.223 3.773,2.086C3.629,1.992 3.27,1.873 2.695,1.729C1.922,1.533 1.386,1.364 1.087,1.222C0.788,1.079 0.562,0.882 0.407,0.63C0.253,0.378 0.176,0.1 0.176,-0.205C0.176,-0.482 0.239,-0.739 0.366,-0.975C0.493,-1.212 0.666,-1.408 0.885,-1.564C1.049,-1.685 1.272,-1.788 1.556,-1.872C1.839,-1.956 2.143,-1.998 2.467,-1.998C2.955,-1.998 3.384,-1.928 3.753,-1.787C4.122,-1.646 4.395,-1.456 4.57,-1.216C4.746,-0.975 4.867,-0.654 4.934,-0.252L3.902,-0.111C3.855,-0.431 3.72,-0.681 3.495,-0.861C3.271,-1.041 2.953,-1.131 2.543,-1.131C2.059,-1.131 1.713,-1.051 1.506,-0.89C1.299,-0.73 1.195,-0.543 1.195,-0.328C1.195,-0.191 1.238,-0.068 1.324,0.041C1.41,0.154 1.545,0.248 1.729,0.322C1.834,0.362 2.145,0.451 2.66,0.592C3.406,0.791 3.927,0.954 4.222,1.081C4.517,1.208 4.748,1.393 4.916,1.635C5.084,1.877 5.168,2.178 5.168,2.537C5.168,2.889 5.065,3.22 4.86,3.53C4.655,3.841 4.359,4.081 3.973,4.251C3.586,4.421 3.148,4.506 2.66,4.506C1.852,4.506 1.235,4.338 0.812,4.002C0.388,3.666 0.117,3.168 0,2.508" style="fill:rgb(35,31,32);fill-rule:nonzero;"/>
            </g>
            <g transform="matrix(1,0,0,1,0,739.171)">
                <path d="M469.035,24.487L470.09,24.487L470.09,30.71L469.035,30.71L469.035,24.487ZM469.035,22.119L470.09,22.119L470.09,23.332L469.035,23.332L469.035,22.119Z" style="fill:rgb(35,31,32);fill-rule:nonzero;"/>
            </g>
            <g transform="matrix(1,0,0,1,472.374,769.265)">
                <path d="M0,-2.607C0,-1.791 0.162,-1.195 0.486,-0.82C0.811,-0.445 1.217,-0.257 1.705,-0.257C2.189,-0.257 2.596,-0.444 2.924,-0.817C3.252,-1.19 3.416,-1.775 3.416,-2.572C3.416,-3.334 3.247,-3.908 2.909,-4.294C2.571,-4.681 2.164,-4.875 1.687,-4.875C1.219,-4.875 0.82,-4.684 0.492,-4.303C0.164,-3.922 0,-3.357 0,-2.607M-0.873,1.131L0.152,1.284C0.195,1.6 0.314,1.83 0.51,1.975C0.771,2.17 1.129,2.268 1.582,2.268C2.07,2.268 2.447,2.17 2.713,1.975C2.979,1.78 3.158,1.506 3.252,1.155C3.307,0.94 3.332,0.489 3.328,-0.199C2.867,0.344 2.293,0.616 1.605,0.616C0.75,0.616 0.088,0.307 -0.381,-0.31C-0.85,-0.927 -1.084,-1.668 -1.084,-2.531C-1.084,-3.125 -0.977,-3.672 -0.762,-4.174C-0.547,-4.676 -0.235,-5.064 0.173,-5.337C0.581,-5.611 1.061,-5.748 1.611,-5.748C2.346,-5.748 2.951,-5.451 3.428,-4.857L3.428,-5.607L4.4,-5.607L4.4,-0.228C4.4,0.741 4.302,1.427 4.104,1.831C3.907,2.236 3.595,2.555 3.167,2.789C2.739,3.024 2.213,3.141 1.588,3.141C0.846,3.141 0.246,2.974 -0.211,2.64C-0.668,2.306 -0.889,1.803 -0.873,1.131" style="fill:rgb(35,31,32);fill-rule:nonzero;"/>
            </g>
            <g transform="matrix(1,0,0,1,478.368,763.517)">
                <path d="M0,6.363L0,0.14L0.949,0.14L0.949,1.025C1.406,0.342 2.066,0 2.93,0C3.305,0 3.649,0.067 3.964,0.202C4.278,0.337 4.514,0.513 4.67,0.732C4.826,0.951 4.936,1.211 4.998,1.511C5.037,1.707 5.057,2.049 5.057,2.537L5.057,6.363L4.002,6.363L4.002,2.578C4.002,2.148 3.961,1.827 3.879,1.614C3.797,1.401 3.651,1.231 3.442,1.104C3.233,0.977 2.988,0.914 2.707,0.914C2.258,0.914 1.87,1.056 1.544,1.342C1.218,1.627 1.055,2.168 1.055,2.965L1.055,6.363L0,6.363Z" style="fill:rgb(35,31,32);fill-rule:nonzero;"/>
            </g>
            <g transform="matrix(1,0,0,1,0,746.559)">
                <rect x="485.341" y="22.12" width="1.201" height="1.201" style="fill:rgb(35,31,32);"/>
            </g>
            <g transform="matrix(1,0,0,1,492.437,765.937)">
                <path d="M0,1.664L1.037,1.799C0.924,2.514 0.634,3.073 0.167,3.477C-0.3,3.882 -0.873,4.084 -1.553,4.084C-2.404,4.084 -3.089,3.806 -3.606,3.249C-4.124,2.692 -4.383,1.894 -4.383,0.855C-4.383,0.184 -4.271,-0.404 -4.049,-0.908C-3.826,-1.412 -3.487,-1.79 -3.032,-2.042C-2.577,-2.294 -2.082,-2.42 -1.547,-2.42C-0.871,-2.42 -0.318,-2.249 0.111,-1.907C0.541,-1.565 0.816,-1.08 0.937,-0.451L-0.088,-0.293C-0.186,-0.711 -0.358,-1.025 -0.606,-1.236C-0.854,-1.447 -1.154,-1.553 -1.506,-1.553C-2.037,-1.553 -2.469,-1.362 -2.801,-0.982C-3.133,-0.601 -3.299,0.002 -3.299,0.826C-3.299,1.662 -3.139,2.269 -2.818,2.648C-2.498,3.027 -2.08,3.217 -1.564,3.217C-1.15,3.217 -0.805,3.09 -0.527,2.836C-0.25,2.582 -0.074,2.191 0,1.664" style="fill:rgb(35,31,32);fill-rule:nonzero;"/>
            </g>
            <g transform="matrix(1,0,0,1,495.068,766.769)">
                <path d="M0,0C0,0.797 0.174,1.394 0.521,1.79C0.869,2.187 1.307,2.385 1.834,2.385C2.357,2.385 2.793,2.186 3.141,1.787C3.488,1.389 3.662,0.781 3.662,-0.035C3.662,-0.805 3.487,-1.388 3.138,-1.784C2.788,-2.181 2.354,-2.379 1.834,-2.379C1.307,-2.379 0.869,-2.182 0.521,-1.787C0.174,-1.393 0,-0.797 0,0M-1.084,0C-1.084,-1.152 -0.764,-2.006 -0.123,-2.561C0.412,-3.021 1.064,-3.252 1.834,-3.252C2.689,-3.252 3.389,-2.972 3.932,-2.411C4.475,-1.851 4.746,-1.076 4.746,-0.088C4.746,0.713 4.626,1.343 4.386,1.802C4.146,2.261 3.796,2.617 3.337,2.871C2.878,3.125 2.377,3.252 1.834,3.252C0.963,3.252 0.259,2.973 -0.278,2.414C-0.815,1.855 -1.084,1.051 -1.084,0" style="fill:rgb(35,31,32);fill-rule:nonzero;"/>
            </g>
            <g transform="matrix(1,0,0,1,501.05,763.517)">
                <path d="M0,6.363L0,0.14L0.943,0.14L0.943,1.013C1.139,0.709 1.398,0.464 1.723,0.278C2.047,0.092 2.416,0 2.83,0C3.291,0 3.669,0.095 3.964,0.287C4.259,0.478 4.467,0.746 4.588,1.09C5.08,0.363 5.721,0 6.51,0C7.127,0 7.602,0.171 7.934,0.512C8.266,0.854 8.432,1.381 8.432,2.092L8.432,6.363L7.383,6.363L7.383,2.443C7.383,2.021 7.349,1.717 7.28,1.532C7.212,1.346 7.088,1.197 6.908,1.084C6.729,0.97 6.518,0.914 6.275,0.914C5.838,0.914 5.475,1.059 5.186,1.35C4.896,1.641 4.752,2.107 4.752,2.748L4.752,6.363L3.697,6.363L3.697,2.32C3.697,1.851 3.611,1.5 3.439,1.265C3.268,1.031 2.986,0.914 2.596,0.914C2.299,0.914 2.024,0.992 1.772,1.148C1.521,1.304 1.338,1.533 1.225,1.834C1.111,2.134 1.055,2.568 1.055,3.134L1.055,6.363L0,6.363Z" style="fill:rgb(35,31,32);fill-rule:nonzero;"/>
            </g>
        </g>
    </g>
</svg>
