<?xml version="1.0" encoding="UTF-8" standalone="no"?>
<!DOCTYPE svg PUBLIC "-//W3C//DTD SVG 1.1//EN" "http://www.w3.org/Graphics/SVG/1.1/DTD/svg11.dtd">
<svg width="100%" height="100%" viewBox="0 0 312 146" version="1.1" xmlns="http://www.w3.org/2000/svg" xmlns:xlink="http://www.w3.org/1999/xlink" xml:space="preserve" xmlns:serif="http://www.serif.com/" style="fill-rule:evenodd;clip-rule:evenodd;stroke-linejoin:round;stroke-miterlimit:1.41421;">
    <g transform="matrix(1,0,0,1,-2020.54,-501.078)">
        <g transform="matrix(1,0,0,1,-0.333333,0)">
            <g id="Slash" transform="matrix(1,0,0,1,24.3594,363.918)">
                <g transform="matrix(50,0,0,50,2222.91,223.684)">
                    <path d="M0,0.012L0.208,-0.728L0.278,-0.728L0.071,0.012L0,0.012Z" style="fill:rgb(198,200,202);fill-rule:nonzero;"/>
                </g>
            </g>
        </g>
        <g transform="matrix(1,0,0,1,-0.333333,0)">
            <g id="Levi" transform="matrix(69.0304,3.55271e-15,-3.55271e-15,61.5795,-123104,-22716.3)">
                <g transform="matrix(1.35326,0,0,1.35326,1813.35,378.795)">
                    <path d="M0.159,-0.714L0.005,0L0.467,0L0.481,-0.058L0.086,-0.058L0.227,-0.714L0.159,-0.714Z" style="fill:rgb(78,201,176);fill-rule:nonzero;"/>
                </g>
            </g>
            <g id="left_L" transform="matrix(46.4198,2.49885e-15,-2.38904e-15,43.3128,-82079.9,-15812.9)">
                <path d="M1813.53,377.971L1813.35,378.795L1813.89,378.795L1813.9,378.728L1813.45,378.728L1813.61,377.971L1813.53,377.971Z" style="fill:rgb(212,212,212);fill-rule:nonzero;stroke:rgb(212,212,212);stroke-width:0.02px;"/>
            </g>
            <g id="App" transform="matrix(0.899811,0,0,0.899811,240.359,-45.7423)">
                <g transform="matrix(1.11134,0,0,1.11134,-259.93,40.6812)">
                    <path d="M2147.69,587.555L2147.68,587.553L2151.33,570.024L2172.56,570.024C2173.24,570.839 2173.93,571.655 2174.61,572.471L2171.49,590.061L2151.42,590.061L2149.08,601.255L2144.86,601.074L2147.69,587.555ZM2170.07,574.19L2154.72,574.19L2154.27,576.359L2154.28,576.362L2152.29,585.894L2168,585.894L2170.07,574.19Z" style="fill:rgb(78,201,176);"/>
                </g>
                <g transform="matrix(1.11134,0,0,1.11134,-259.93,40.6812)">
                    <path d="M2177.45,587.575L2177.44,587.553L2181.08,570.024L2202.31,570.024C2202.99,570.839 2203.68,571.655 2204.36,572.471L2201.24,590.061L2181.19,590.061L2178.72,601.148L2174.64,601.026L2177.45,587.575ZM2199.83,574.19L2184.47,574.19L2184.03,576.306L2184.06,576.313L2182.06,585.894L2197.75,585.894L2199.83,574.19Z" style="fill:rgb(78,201,176);"/>
                </g>
                <g transform="matrix(1.11134,0,0,1.11134,-259.93,40.6812)">
                    <path d="M2122.12,563.972L2124.52,552.431L2146.63,552.431C2147.32,553.246 2148,554.062 2148.68,554.878L2146.94,564.705L2146.98,564.712L2145.99,570.081L2145.44,573.189L2145.41,573.189L2142.05,590.758L2137.95,590.615L2141.18,573.189L2124.42,573.189L2120.79,590.547L2116.55,590.508L2122.09,563.967L2122.12,563.972ZM2144.15,556.597L2127.91,556.597L2125.32,569.022L2141.95,569.022L2144.15,556.597Z" style="fill:rgb(78,201,176);"/>
                </g>
            </g>
            <g id="right_L" transform="matrix(-69.0304,-3.55271e-15,3.55271e-15,-61.5795,127457,23865.3)">
                <g transform="matrix(1.35326,0,0,1.35326,1813.35,378.795)">
                    <path d="M0.159,-0.714L0.005,0L0.467,0L0.481,-0.058L0.086,-0.058L0.227,-0.714L0.159,-0.714Z" style="fill:rgb(212,212,212);fill-rule:nonzero;"/>
                </g>
            </g>
        </g>
        <g transform="matrix(1,0,0,1,-0.333333,0)">
            <g id="bottom_outer_bracket" transform="matrix(1.21789,0,0,1.21789,-475.446,-117.991)">
                <path d="M2065.85,579.048L2054.33,623.414L2271.49,623.414L2281.68,588.258" style="fill:none;stroke:rgb(156,221,254);stroke-width:5.13px;stroke-linecap:square;stroke-linejoin:miter;stroke-miterlimit:1.5;"/>
            </g>
        </g>
        <g transform="matrix(1,0,0,1,-0.333333,0)">
            <g id="left_inner_bracket" transform="matrix(1,0,0,1,0.333333,0)">
                <path d="M2169.24,524.556L2081.43,524.556L2071.24,559.713L2065.85,579.048L2054.33,623.414L2155.11,623.414" style="fill:none;stroke:rgb(156,221,254);stroke-width:6.25px;stroke-linecap:square;stroke-linejoin:miter;stroke-miterlimit:1.5;"/>
            </g>
        </g>
        <g transform="matrix(1,0,0,1,-0.333333,0)">
            <g id="right_inner_bracket" transform="matrix(1,0,0,1,0.333333,0)">
                <path d="M2184.74,623.414L2271.49,623.414L2281.68,588.258L2287.07,568.922L2298.58,524.556L2196.36,524.556" style="fill:none;stroke:rgb(156,221,254);stroke-width:6.25px;stroke-linecap:square;stroke-linejoin:miter;stroke-miterlimit:1.5;"/>
            </g>
        </g>
        <g transform="matrix(1,0,0,1,-0.333333,0)">
            <g id="top_outer_bracket" transform="matrix(-1.21789,0,0,-1.21789,4829.03,1265.96)">
                <path d="M2065.85,579.048L2054.33,623.414L2271.49,623.414L2281.68,588.258" style="fill:none;stroke:rgb(156,221,254);stroke-width:5.13px;stroke-linecap:square;stroke-linejoin:miter;stroke-miterlimit:1.5;"/>
            </g>
        </g>
    </g>
</svg>
