<?xml version="1.0" encoding="UTF-8" standalone="no"?>
<!DOCTYPE svg PUBLIC "-//W3C//DTD SVG 1.1//EN" "http://www.w3.org/Graphics/SVG/1.1/DTD/svg11.dtd">
<svg width="100%" height="100%" viewBox="0 0 513 673" version="1.1" xmlns="http://www.w3.org/2000/svg" xmlns:xlink="http://www.w3.org/1999/xlink" xml:space="preserve" xmlns:serif="http://www.serif.com/" style="fill-rule:evenodd;clip-rule:evenodd;stroke-linecap:round;stroke-linejoin:round;stroke-miterlimit:1.5;">
    <g transform="matrix(1,0,0,1,-263.662,1072.69)">
        <g>
            <g transform="matrix(0.520319,0,0,0.520319,-69.1001,-1929.94)">
                <g transform="matrix(9.93205e-17,0.56415,-0.535792,-3.31068e-17,1856.59,1572.73)">
                    <path d="M2171.51,899.104L2401.78,1039.08L2401.78,1319.04L2171.51,1459.02L1941.25,1319.04L1941.25,1039.08L2171.51,899.104Z" style="fill:rgb(192,192,192);"/>
                    <path d="M1919.19,1036.87L1919.49,1034.67L1919.99,1032.51L1920.68,1030.41L1921.55,1028.39L1922.61,1026.47L1923.83,1024.66L1925.21,1022.98L1926.74,1021.45L1928.4,1020.08L1930.17,1018.88L2160.43,878.899L2162.31,877.882L2164.27,877.057L2166.29,876.431L2168.36,876.011L2170.46,875.8L2172.57,875.8L2174.67,876.011L2176.74,876.431L2178.76,877.057L2180.72,877.882L2182.59,878.899L2412.86,1018.88L2414.63,1020.08L2416.29,1021.45L2417.81,1022.98L2419.19,1024.66L2420.42,1026.47L2421.47,1028.39L2422.35,1030.41L2423.04,1032.51L2423.53,1034.67L2423.83,1036.87L2423.93,1039.08L2423.93,1319.04L2423.83,1321.26L2423.53,1323.46L2423.04,1325.62L2422.35,1327.71L2421.47,1329.73L2420.42,1331.66L2419.19,1333.46L2417.81,1335.14L2416.29,1336.67L2414.63,1338.05L2412.86,1339.25L2182.59,1479.23L2180.72,1480.24L2178.76,1481.07L2176.74,1481.69L2174.67,1482.12L2172.57,1482.33L2170.46,1482.33L2168.36,1482.12L2166.29,1481.69L2164.27,1481.07L2162.31,1480.24L2160.43,1479.23L1930.17,1339.25L1928.4,1338.05L1926.74,1336.67L1925.21,1335.14L1923.83,1333.46L1922.61,1331.66L1921.55,1329.73L1920.68,1327.71L1919.99,1325.62L1919.49,1323.46L1919.19,1321.26L1919.09,1319.04L1919.09,1039.08L1919.19,1036.87ZM1941.25,1319.04L2171.51,1459.02L2401.78,1319.04L2401.78,1039.08L2171.51,899.104L1941.25,1039.08L1941.25,1319.04Z" style="fill:rgb(0,0,255);"/>
                </g>
                <g transform="matrix(7.19569e-17,0.408723,-0.388177,-2.39856e-17,1682.54,1910.25)">
                    <path d="M2171.51,899.104L2401.78,1039.08L2401.78,1319.04L2171.51,1459.02L1941.25,1319.04L1941.25,1039.08L2171.51,899.104Z" style="fill:rgb(192,192,192);"/>
                    <path d="M1910.76,1036.49L1911.06,1033.92L1911.55,1031.38L1912.24,1028.89L1913.11,1026.46L1914.17,1024.12L1915.4,1021.87L1916.8,1019.74L1918.36,1017.73L1920.06,1015.86L1921.91,1014.14L1923.88,1012.58L1925.96,1011.2L2156.22,871.216L2158.4,870.011L2160.67,868.994L2163,868.173L2165.39,867.553L2167.83,867.137L2170.28,866.928L2172.74,866.928L2175.2,867.137L2177.63,867.553L2180.02,868.173L2182.36,868.995L2184.62,870.011L2186.8,871.216L2417.07,1011.2L2419.15,1012.58L2421.12,1014.14L2422.96,1015.86L2424.67,1017.73L2426.23,1019.74L2427.63,1021.87L2428.86,1024.12L2429.91,1026.46L2430.79,1028.89L2431.47,1031.38L2431.96,1033.92L2432.26,1036.49L2432.36,1039.08L2432.36,1319.04L2432.26,1321.63L2431.96,1324.21L2431.47,1326.75L2430.79,1329.24L2429.91,1331.66L2428.86,1334.01L2427.63,1336.25L2426.23,1338.39L2424.67,1340.4L2422.96,1342.27L2421.12,1343.99L2419.15,1345.54L2417.07,1346.93L2186.8,1486.91L2184.62,1488.12L2182.36,1489.13L2180.02,1489.95L2177.63,1490.57L2175.2,1490.99L2172.74,1491.2L2170.28,1491.2L2167.83,1490.99L2165.39,1490.57L2163,1489.95L2160.67,1489.13L2158.4,1488.12L2156.22,1486.91L1925.96,1346.93L1923.88,1345.54L1921.91,1343.99L1920.06,1342.27L1918.36,1340.4L1916.8,1338.39L1915.4,1336.25L1914.17,1334.01L1913.11,1331.66L1912.24,1329.24L1911.55,1326.75L1911.06,1324.21L1910.76,1321.63L1910.66,1319.04L1910.66,1039.08L1910.76,1036.49ZM1941.25,1319.04L2171.51,1459.02L2401.78,1319.04L2401.78,1039.08L2171.51,899.104L1941.25,1039.08L1941.25,1319.04Z" style="fill:rgb(0,0,255);"/>
                </g>
            </g>
            <g transform="matrix(1.04064,0,0,1.04064,-667.248,-3604.07)">
                <g transform="matrix(9.93205e-17,0.56415,-0.535792,-3.31068e-17,1856.59,1572.73)">
                    <path d="M2171.51,899.104L2401.78,1039.08L2401.78,1319.04L2171.51,1459.02L1941.25,1319.04L1941.25,1039.08L2171.51,899.104Z" style="fill:rgb(192,192,192);"/>
                    <path d="M1919.85,1033.05L1922.06,1027.42L1925.58,1022.59L1930.17,1018.88L2160.43,878.899L2165.78,876.569L2171.51,875.774L2177.25,876.569L2182.59,878.899L2412.86,1018.88L2417.45,1022.59L2420.97,1027.42L2423.18,1033.05L2423.93,1039.08L2423.93,1319.04L2423.18,1325.08L2420.97,1330.71L2417.45,1335.54L2412.86,1339.25L2182.59,1479.23L2177.25,1481.56L2171.51,1482.35L2165.78,1481.56L2160.43,1479.23L1930.17,1339.25L1925.58,1335.54L1922.06,1330.71L1919.85,1325.08L1919.09,1319.04L1919.09,1039.08L1919.85,1033.05ZM1941.25,1319.04L2171.51,1459.02L2401.78,1319.04L2401.78,1039.08L2171.51,899.104L1941.25,1039.08L1941.25,1319.04Z" style="fill:rgb(0,0,255);"/>
                </g>
                <g transform="matrix(7.19569e-17,0.408723,-0.388177,-2.39856e-17,1682.54,1910.25)">
                    <path d="M2171.51,899.104L2401.78,1039.08L2401.78,1319.04L2171.51,1459.02L1941.25,1319.04L1941.25,1039.08L2171.51,899.104Z" style="fill:rgb(187,189,192);"/>
                    <path d="M1910.76,1036.49L1911.06,1033.92L1911.55,1031.38L1912.24,1028.89L1913.11,1026.46L1914.17,1024.12L1915.4,1021.87L1916.8,1019.74L1918.36,1017.73L1920.06,1015.86L1921.91,1014.14L1923.88,1012.58L1925.96,1011.2L2156.22,871.216L2158.4,870.011L2160.67,868.994L2163,868.173L2165.39,867.553L2167.83,867.137L2170.28,866.928L2172.74,866.928L2175.2,867.137L2177.63,867.553L2180.02,868.173L2182.36,868.994L2184.62,870.011L2186.8,871.216L2417.07,1011.2L2419.15,1012.58L2421.12,1014.14L2422.96,1015.86L2424.67,1017.73L2426.23,1019.74L2427.63,1021.87L2428.86,1024.12L2429.91,1026.46L2430.79,1028.89L2431.47,1031.38L2431.96,1033.92L2432.26,1036.49L2432.36,1039.08L2432.36,1319.04L2432.26,1321.63L2431.96,1324.21L2431.47,1326.75L2430.79,1329.24L2429.91,1331.66L2428.86,1334.01L2427.63,1336.25L2426.23,1338.39L2424.67,1340.4L2422.96,1342.27L2421.12,1343.99L2419.15,1345.54L2417.07,1346.93L2186.8,1486.91L2184.62,1488.12L2182.36,1489.13L2180.02,1489.95L2177.63,1490.57L2175.2,1490.99L2172.74,1491.2L2170.28,1491.2L2167.83,1490.99L2165.39,1490.57L2163,1489.95L2160.67,1489.13L2158.4,1488.12L2156.22,1486.91L1925.96,1346.93L1923.88,1345.54L1921.91,1343.99L1920.06,1342.27L1918.36,1340.4L1916.8,1338.39L1915.4,1336.25L1914.17,1334.01L1913.11,1331.66L1912.24,1329.24L1911.55,1326.75L1911.06,1324.21L1910.76,1321.63L1910.66,1319.04L1910.66,1039.08L1910.76,1036.49ZM1941.25,1319.04L2171.51,1459.02L2401.78,1319.04L2401.78,1039.08L2171.51,899.104L1941.25,1039.08L1941.25,1319.04Z" style="fill:rgb(0,0,255);"/>
                </g>
            </g>
            <g transform="matrix(1.04064,0,0,1.04064,-667.248,-3604.07)">
                <g transform="matrix(9.93205e-17,0.56415,-0.535792,-3.31068e-17,1856.59,1572.73)">
                    <path d="M2171.51,899.104L2401.78,1039.08L2401.78,1319.04L2171.51,1459.02L1941.25,1319.04L1941.25,1039.08L2171.51,899.104Z" style="fill:rgb(192,192,192);"/>
                    <path d="M1919.85,1033.05L1922.06,1027.42L1925.58,1022.59L1930.17,1018.88L2160.43,878.899L2165.78,876.569L2171.51,875.774L2177.25,876.569L2182.59,878.899L2412.86,1018.88L2417.45,1022.59L2420.97,1027.42L2423.18,1033.05L2423.93,1039.08L2423.93,1319.04L2423.18,1325.08L2420.97,1330.71L2417.45,1335.54L2412.86,1339.25L2182.59,1479.23L2177.25,1481.56L2171.51,1482.35L2165.78,1481.56L2160.43,1479.23L1930.17,1339.25L1925.58,1335.54L1922.06,1330.71L1919.85,1325.08L1919.09,1319.04L1919.09,1039.08L1919.85,1033.05ZM1941.25,1319.04L2171.51,1459.02L2401.78,1319.04L2401.78,1039.08L2171.51,899.104L1941.25,1039.08L1941.25,1319.04Z" style="fill:rgb(0,0,255);"/>
                </g>
                <g transform="matrix(7.19569e-17,0.408723,-0.388177,-2.39856e-17,1682.54,1910.25)">
                    <path d="M2171.51,899.104L2401.78,1039.08L2401.78,1319.04L2171.51,1459.02L1941.25,1319.04L1941.25,1039.08L2171.51,899.104Z" style="fill:rgb(187,189,192);"/>
                    <path d="M1910.76,1036.49L1911.06,1033.92L1911.55,1031.38L1912.24,1028.89L1913.11,1026.46L1914.17,1024.12L1915.4,1021.87L1916.8,1019.74L1918.36,1017.73L1920.06,1015.86L1921.91,1014.14L1923.88,1012.58L1925.96,1011.2L2156.22,871.216L2158.4,870.011L2160.67,868.994L2163,868.173L2165.39,867.553L2167.83,867.137L2170.28,866.928L2172.74,866.928L2175.2,867.137L2177.63,867.553L2180.02,868.173L2182.36,868.994L2184.62,870.011L2186.8,871.216L2417.07,1011.2L2419.15,1012.58L2421.12,1014.14L2422.96,1015.86L2424.67,1017.73L2426.23,1019.74L2427.63,1021.87L2428.86,1024.12L2429.91,1026.46L2430.79,1028.89L2431.47,1031.38L2431.96,1033.92L2432.26,1036.49L2432.36,1039.08L2432.36,1319.04L2432.26,1321.63L2431.96,1324.21L2431.47,1326.75L2430.79,1329.24L2429.91,1331.66L2428.86,1334.01L2427.63,1336.25L2426.23,1338.39L2424.67,1340.4L2422.96,1342.27L2421.12,1343.99L2419.15,1345.54L2417.07,1346.93L2186.8,1486.91L2184.62,1488.12L2182.36,1489.13L2180.02,1489.95L2177.63,1490.57L2175.2,1490.99L2172.74,1491.2L2170.28,1491.2L2167.83,1490.99L2165.39,1490.57L2163,1489.95L2160.67,1489.13L2158.4,1488.12L2156.22,1486.91L1925.96,1346.93L1923.88,1345.54L1921.91,1343.99L1920.06,1342.27L1918.36,1340.4L1916.8,1338.39L1915.4,1336.25L1914.17,1334.01L1913.11,1331.66L1912.24,1329.24L1911.55,1326.75L1911.06,1324.21L1910.76,1321.63L1910.66,1319.04L1910.66,1039.08L1910.76,1036.49ZM1941.25,1319.04L2171.51,1459.02L2401.78,1319.04L2401.78,1039.08L2171.51,899.104L1941.25,1039.08L1941.25,1319.04Z" style="fill:rgb(0,0,255);"/>
                </g>
            </g>
            <g transform="matrix(0.818876,0.742548,-0.742548,0.818876,160.189,-2123.32)">
                <g transform="matrix(1,0,0,1,-120.264,-1034.06)">
                    <path d="M1183.29,1867.29L1038.42,1871.35L1025.37,1807.8L957.162,1738.59L925.237,1644.32L1000.41,1534.25L1102.33,1538.28L1145.74,1612.97L1068.63,1699.63L1016.62,1695.98L1114.33,1776.9L1183.29,1867.29Z" style="fill:rgb(192,192,192);"/>
                    <path d="M995.32,1524.13L998.012,1523.18L1000.86,1522.94L1102.78,1526.96L1105.58,1527.43L1108.17,1528.58L1110.4,1530.34L1112.12,1532.59L1155.53,1607.28L1156.64,1609.89L1157.06,1612.69L1156.78,1615.51L1155.81,1618.16L1154.2,1620.5L1077.09,1707.15L1075.17,1708.88L1072.91,1710.12L1070.42,1710.81L1067.84,1710.92L1050.99,1709.74L1121.55,1768.18L1123.33,1770.03L1192.29,1860.42L1193.82,1863.12L1194.55,1866.12L1194.45,1869.22L1193.51,1872.17L1191.8,1874.76L1189.46,1876.78L1186.66,1878.1L1183.61,1878.61L1038.74,1882.67L1035.61,1882.32L1032.69,1881.12L1030.22,1879.16L1028.39,1876.6L1027.33,1873.63L1014.95,1813.36L949.096,1746.54L947.521,1744.54L946.435,1742.23L914.51,1647.95L913.963,1645.39L914.017,1642.78L914.669,1640.24L915.885,1637.93L991.057,1527.87L992.952,1525.73L995.32,1524.13ZM925.237,1644.32L957.162,1738.59L1025.37,1807.8L1038.42,1871.35L1183.29,1867.29L1114.33,1776.9L1016.62,1695.98L1068.63,1699.63L1145.74,1612.97L1102.33,1538.28L1000.41,1534.25L925.237,1644.32Z" style="fill:rgb(0,0,255);"/>
                </g>
                <g transform="matrix(1,0,0,1,-120.264,-1034.06)">
                    <path d="M1126.03,1574.04L1144.98,1564.26L1157.49,1585.82L1139.88,1596.1L1126.03,1574.04Z" style="fill:rgb(192,192,192);"/>
                    <path d="M1120.65,1567.68L1120.89,1567.48L1121.14,1567.29L1121.4,1567.11L1121.66,1566.94L1121.93,1566.79L1122.21,1566.64L1141.16,1556.85L1141.44,1556.72L1141.72,1556.59L1142.01,1556.47L1142.3,1556.37L1142.59,1556.27L1142.89,1556.19L1143.19,1556.12L1143.5,1556.06L1143.8,1556.01L1144.11,1555.97L1144.41,1555.94L1144.72,1555.93L1145.03,1555.92L1145.34,1555.93L1145.65,1555.95L1145.96,1555.98L1146.27,1556.02L1146.57,1556.08L1146.87,1556.14L1147.17,1556.22L1147.47,1556.3L1147.76,1556.4L1148.05,1556.51L1148.34,1556.63L1148.62,1556.76L1148.89,1556.9L1149.16,1557.05L1149.43,1557.21L1149.69,1557.38L1149.94,1557.56L1150.19,1557.75L1150.42,1557.94L1150.65,1558.15L1150.88,1558.37L1151.09,1558.59L1151.3,1558.82L1151.5,1559.06L1151.68,1559.3L1151.86,1559.55L1152.03,1559.81L1152.19,1560.08L1164.69,1581.64L1164.85,1581.91L1164.99,1582.19L1165.12,1582.47L1165.24,1582.76L1165.35,1583.05L1165.44,1583.35L1165.53,1583.65L1165.61,1583.95L1165.67,1584.25L1165.72,1584.56L1165.76,1584.87L1165.79,1585.18L1165.81,1585.49L1165.82,1585.8L1165.81,1586.11L1165.8,1586.42L1165.77,1586.73L1165.73,1587.04L1165.68,1587.35L1165.62,1587.65L1165.54,1587.95L1165.46,1588.25L1165.36,1588.55L1165.25,1588.84L1165.13,1589.13L1165.01,1589.41L1164.87,1589.69L1164.72,1589.96L1164.56,1590.23L1164.39,1590.49L1164.21,1590.74L1164.02,1590.99L1163.82,1591.23L1163.62,1591.46L1163.4,1591.69L1163.18,1591.91L1162.95,1592.11L1162.71,1592.31L1162.46,1592.5L1162.21,1592.68L1161.95,1592.86L1161.69,1593.02L1144.08,1603.29L1143.81,1603.44L1143.53,1603.59L1143.25,1603.72L1142.96,1603.84L1142.67,1603.95L1142.37,1604.05L1142.07,1604.14L1141.77,1604.21L1141.46,1604.28L1141.15,1604.33L1140.84,1604.37L1140.53,1604.4L1140.22,1604.42L1139.91,1604.43L1139.6,1604.42L1139.28,1604.41L1138.97,1604.38L1138.66,1604.34L1138.35,1604.29L1138.05,1604.22L1137.74,1604.15L1137.44,1604.06L1137.15,1603.97L1136.85,1603.86L1136.56,1603.74L1136.28,1603.61L1136,1603.47L1135.73,1603.32L1135.46,1603.16L1135.2,1602.99L1134.94,1602.81L1134.69,1602.62L1134.45,1602.42L1134.22,1602.21L1133.99,1601.99L1133.78,1601.77L1133.57,1601.53L1133.37,1601.29L1133.18,1601.04L1133,1600.79L1132.83,1600.53L1118.97,1578.47L1118.81,1578.2L1118.66,1577.93L1118.52,1577.65L1118.39,1577.37L1118.27,1577.08L1118.16,1576.78L1118.06,1576.48L1117.98,1576.18L1117.9,1575.88L1117.84,1575.57L1117.79,1575.26L1117.75,1574.95L1117.72,1574.64L1117.7,1574.33L1117.69,1574.01L1117.7,1573.7L1117.72,1573.39L1117.75,1573.08L1117.79,1572.76L1117.85,1572.45L1117.91,1572.15L1117.99,1571.85L1118.08,1571.54L1118.18,1571.25L1118.29,1570.95L1118.41,1570.66L1118.54,1570.38L1118.68,1570.1L1118.84,1569.83L1119,1569.56L1119.18,1569.3L1119.36,1569.05L1119.55,1568.8L1119.75,1568.56L1119.96,1568.33L1120.18,1568.1L1120.41,1567.89L1120.65,1567.68ZM1139.88,1596.1L1157.49,1585.82L1144.98,1564.26L1126.03,1574.04L1139.88,1596.1Z" style="fill:rgb(0,0,255);"/>
                </g>
                <g transform="matrix(0.780479,0,0,0.780479,86.6825,-1294.26)">
                    <g transform="matrix(7.19569e-17,0.408723,-0.388177,-2.39856e-17,1533.14,1537.16)">
                        <path d="M1933.06,1193.16L1941.25,1039.08L2171.51,899.104L2236.24,944.577" style="fill:rgb(192,192,192);stroke:rgb(0,0,255);stroke-width:26.79px;"/>
                    </g>
                    <g transform="matrix(7.19569e-17,0.408723,-0.388177,-2.39856e-17,1516.46,1561.25)">
                        <path d="M1942.58,1202.87L1941.25,1039.08L2171.51,899.104L2236.24,944.577" style="fill:rgb(192,192,192);stroke:rgb(0,0,255);stroke-width:26.79px;"/>
                    </g>
                    <g transform="matrix(7.19569e-17,0.408723,-0.388177,-2.39856e-17,1500.43,1585.64)">
                        <path d="M1940.5,1187.96L1941.25,1039.08L2171.51,899.104L2236.24,944.577L2157.76,990.051L2095.39,1026.2L2010.95,1075.13L2008.93,1208.02" style="fill:rgb(192,192,192);stroke:rgb(0,0,255);stroke-width:26.79px;"/>
                    </g>
                </g>
            </g>
            <g transform="matrix(0.654617,0,0,0.654617,-431.775,-2578.52)">
                <g transform="matrix(9.93205e-17,0.56415,-0.535792,-3.31068e-17,1856.59,1572.73)">
                    <path d="M2171.51,899.104L2401.78,1039.08L2401.78,1319.04L2171.51,1459.02L1941.25,1319.04L1941.25,1039.08L2171.51,899.104Z" style="fill:rgb(192,192,192);"/>
                    <path d="M1919.19,1036.87L1919.49,1034.67L1919.99,1032.51L1920.68,1030.41L1921.55,1028.39L1922.61,1026.47L1923.83,1024.66L1925.21,1022.98L1926.74,1021.45L1928.4,1020.08L1930.17,1018.88L2160.43,878.899L2162.31,877.882L2164.27,877.057L2166.29,876.431L2168.36,876.011L2170.46,875.8L2172.57,875.8L2174.67,876.011L2176.74,876.431L2178.76,877.057L2180.72,877.882L2182.59,878.899L2412.86,1018.88L2414.63,1020.08L2416.29,1021.45L2417.81,1022.98L2419.19,1024.66L2420.42,1026.47L2421.47,1028.39L2422.35,1030.41L2423.04,1032.51L2423.53,1034.67L2423.83,1036.87L2423.93,1039.08L2423.93,1319.04L2423.83,1321.26L2423.53,1323.46L2423.04,1325.62L2422.35,1327.71L2421.47,1329.73L2420.42,1331.66L2419.19,1333.46L2417.81,1335.14L2416.29,1336.67L2414.63,1338.05L2412.86,1339.25L2182.59,1479.23L2180.72,1480.24L2178.76,1481.07L2176.74,1481.69L2174.67,1482.12L2172.57,1482.33L2170.46,1482.33L2168.36,1482.12L2166.29,1481.69L2164.27,1481.07L2162.31,1480.24L2160.43,1479.23L1930.17,1339.25L1928.4,1338.05L1926.74,1336.67L1925.21,1335.14L1923.83,1333.46L1922.61,1331.66L1921.55,1329.73L1920.68,1327.71L1919.99,1325.62L1919.49,1323.46L1919.19,1321.26L1919.09,1319.04L1919.09,1039.08L1919.19,1036.87ZM1941.25,1319.04L2171.51,1459.02L2401.78,1319.04L2401.78,1039.08L2171.51,899.104L1941.25,1039.08L1941.25,1319.04Z" style="fill:rgb(0,0,255);"/>
                </g>
                <g transform="matrix(7.19569e-17,0.408723,-0.388177,-2.39856e-17,1682.54,1910.25)">
                    <path d="M2171.51,899.104L2401.78,1039.08L2401.78,1319.04L2171.51,1459.02L1941.25,1319.04L1941.25,1039.08L2171.51,899.104Z" style="fill:rgb(192,192,192);"/>
                    <path d="M1910.76,1036.49L1911.06,1033.92L1911.55,1031.38L1912.24,1028.89L1913.11,1026.46L1914.17,1024.12L1915.4,1021.87L1916.8,1019.74L1918.36,1017.73L1920.06,1015.86L1921.91,1014.14L1923.88,1012.58L1925.96,1011.2L2156.22,871.216L2158.4,870.011L2160.67,868.994L2163,868.173L2165.39,867.553L2167.83,867.137L2170.28,866.928L2172.74,866.928L2175.2,867.137L2177.63,867.553L2180.02,868.173L2182.36,868.994L2184.62,870.011L2186.8,871.216L2417.07,1011.2L2419.15,1012.58L2421.12,1014.14L2422.96,1015.86L2424.67,1017.73L2426.23,1019.74L2427.63,1021.87L2428.86,1024.12L2429.91,1026.46L2430.79,1028.89L2431.47,1031.38L2431.96,1033.92L2432.26,1036.49L2432.36,1039.08L2432.36,1319.04L2432.26,1321.63L2431.96,1324.21L2431.47,1326.75L2430.79,1329.24L2429.91,1331.66L2428.86,1334.01L2427.63,1336.25L2426.23,1338.39L2424.67,1340.4L2422.96,1342.27L2421.12,1343.99L2419.15,1345.54L2417.07,1346.93L2186.8,1486.91L2184.62,1488.12L2182.36,1489.13L2180.02,1489.95L2177.63,1490.57L2175.2,1490.99L2172.74,1491.2L2170.28,1491.2L2167.83,1490.99L2165.39,1490.57L2163,1489.95L2160.67,1489.13L2158.4,1488.12L2156.22,1486.91L1925.96,1346.93L1923.88,1345.54L1921.91,1343.99L1920.06,1342.27L1918.36,1340.4L1916.8,1338.39L1915.4,1336.25L1914.17,1334.01L1913.11,1331.66L1912.24,1329.24L1911.55,1326.75L1911.06,1324.21L1910.76,1321.63L1910.66,1319.04L1910.66,1039.08L1910.76,1036.49ZM1941.25,1319.04L2171.51,1459.02L2401.78,1319.04L2401.78,1039.08L2171.51,899.104L1941.25,1039.08L1941.25,1319.04Z" style="fill:rgb(0,0,255);"/>
                </g>
            </g>
            <g transform="matrix(0.780479,0,0,0.780479,-557.842,-2733.27)">
                <g transform="matrix(9.93205e-17,0.56415,-0.535792,-3.31068e-17,1856.59,1572.73)">
                    <path d="M2171.51,899.104L2401.78,1039.08L2401.78,1319.04L2171.51,1459.02L1941.25,1319.04L1941.25,1039.08L2171.51,899.104Z" style="fill:rgb(192,192,192);"/>
                    <path d="M1919.19,1036.87L1919.49,1034.67L1919.99,1032.51L1920.68,1030.41L1921.55,1028.39L1922.61,1026.47L1923.83,1024.66L1925.21,1022.98L1926.74,1021.45L1928.4,1020.08L1930.17,1018.88L2160.43,878.899L2162.31,877.882L2164.27,877.057L2166.29,876.431L2168.36,876.011L2170.46,875.8L2172.57,875.8L2174.67,876.011L2176.74,876.431L2178.76,877.057L2180.72,877.882L2182.59,878.899L2412.86,1018.88L2414.63,1020.08L2416.29,1021.45L2417.81,1022.98L2419.19,1024.66L2420.42,1026.47L2421.47,1028.39L2422.35,1030.41L2423.04,1032.51L2423.53,1034.67L2423.83,1036.87L2423.93,1039.08L2423.93,1319.04L2423.83,1321.26L2423.53,1323.46L2423.04,1325.62L2422.35,1327.71L2421.47,1329.73L2420.42,1331.66L2419.19,1333.46L2417.81,1335.14L2416.29,1336.67L2414.63,1338.05L2412.86,1339.25L2182.59,1479.23L2180.72,1480.24L2178.76,1481.07L2176.74,1481.69L2174.67,1482.12L2172.57,1482.33L2170.46,1482.33L2168.36,1482.12L2166.29,1481.69L2164.27,1481.07L2162.31,1480.24L2160.43,1479.23L1930.17,1339.25L1928.4,1338.05L1926.74,1336.67L1925.21,1335.14L1923.83,1333.46L1922.61,1331.66L1921.55,1329.73L1920.68,1327.71L1919.99,1325.62L1919.49,1323.46L1919.19,1321.26L1919.09,1319.04L1919.09,1039.08L1919.19,1036.87ZM1941.25,1319.04L2171.51,1459.02L2401.78,1319.04L2401.78,1039.08L2171.51,899.104L1941.25,1039.08L1941.25,1319.04Z" style="fill:rgb(0,0,255);"/>
                </g>
                <g transform="matrix(7.19569e-17,0.408723,-0.388177,-2.39856e-17,1682.54,1910.25)">
                    <path d="M2171.51,899.104L2401.78,1039.08L2401.78,1319.04L2171.51,1459.02L1941.25,1319.04L1941.25,1039.08L2171.51,899.104Z" style="fill:rgb(192,192,192);"/>
                    <path d="M1910.76,1036.49L1911.06,1033.92L1911.55,1031.38L1912.24,1028.89L1913.11,1026.46L1914.17,1024.12L1915.4,1021.87L1916.8,1019.74L1918.36,1017.73L1920.06,1015.86L1921.91,1014.14L1923.88,1012.58L1925.96,1011.2L2156.22,871.216L2158.4,870.011L2160.67,868.994L2163,868.173L2165.39,867.553L2167.83,867.137L2170.28,866.928L2172.74,866.928L2175.2,867.137L2177.63,867.553L2180.02,868.173L2182.36,868.994L2184.62,870.011L2186.8,871.216L2417.07,1011.2L2419.15,1012.58L2421.12,1014.14L2422.96,1015.86L2424.67,1017.73L2426.23,1019.74L2427.63,1021.87L2428.86,1024.12L2429.91,1026.46L2430.79,1028.89L2431.47,1031.38L2431.96,1033.92L2432.26,1036.49L2432.36,1039.08L2432.36,1319.04L2432.26,1321.63L2431.96,1324.21L2431.47,1326.75L2430.79,1329.24L2429.91,1331.66L2428.86,1334.01L2427.63,1336.25L2426.23,1338.39L2424.67,1340.4L2422.96,1342.27L2421.12,1343.99L2419.15,1345.54L2417.07,1346.93L2186.8,1486.91L2184.62,1488.12L2182.36,1489.13L2180.02,1489.95L2177.63,1490.57L2175.2,1490.99L2172.74,1491.2L2170.28,1491.2L2167.83,1490.99L2165.39,1490.57L2163,1489.95L2160.67,1489.13L2158.4,1488.12L2156.22,1486.91L1925.96,1346.93L1923.88,1345.54L1921.91,1343.99L1920.06,1342.27L1918.36,1340.4L1916.8,1338.39L1915.4,1336.25L1914.17,1334.01L1913.11,1331.66L1912.24,1329.24L1911.55,1326.75L1911.06,1324.21L1910.76,1321.63L1910.66,1319.04L1910.66,1039.08L1910.76,1036.49ZM1941.25,1319.04L2171.51,1459.02L2401.78,1319.04L2401.78,1039.08L2171.51,899.104L1941.25,1039.08L1941.25,1319.04Z" style="fill:rgb(0,0,255);"/>
                </g>
            </g>
        </g>
    </g>
</svg>
