<?xml version="1.0" encoding="UTF-8" standalone="no"?>
<!DOCTYPE svg PUBLIC "-//W3C//DTD SVG 1.1//EN" "http://www.w3.org/Graphics/SVG/1.1/DTD/svg11.dtd">
<svg width="100%" height="100%" viewBox="0 0 354 455" version="1.1" xmlns="http://www.w3.org/2000/svg" xmlnsXlink="http://www.w3.org/1999/xlink" xmlSpace="preserve" xmlnsSerif="http://www.serif.com/" style="fill-rule:evenodd;clip-rule:evenodd;stroke-linecap:round;stroke-linejoin:round;stroke-miterlimit:1.5;">
    <g transform="matrix(1,0,0,1,-3569.4,-2706.63)">
        <g transform="matrix(1.73695,0,0,1.17929,0,0)">
            <g transform="matrix(1,0,0,1,-54.2488,0)">
                <g transform="matrix(0.341286,0.284159,-0.192928,0.502671,1973.91,1800.82)">
                    <g transform="matrix(1,0,0,1,-120.264,-1034.06)">
                        <path d="M1059.06,1967.95L925.237,1644.32L1000.41,1534.25L1106.67,1545.95L1147.19,1615.53L1068.63,1699.63L1030.32,1699.27L1073.03,1768.3C1073.03,1768.3 1158.22,1829.57 1194.58,1854.82C1226.47,1876.97 1294.22,1887.11 1291.22,1919.81C1288.23,1952.5 1205.64,2030.39 1176.6,2051C1160.27,2062.6 1133.35,2055.05 1116.99,2043.5C1097.4,2029.66 1059.06,1967.95 1059.06,1967.95Z" style="fill:rgb(192,192,192);"/>
                        <path d="M998.41,1521.91L1001.78,1521.83L1108.03,1533.53L1111.77,1534.54L1115.02,1536.65L1117.47,1539.66L1157.99,1609.24L1159.42,1612.95L1159.61,1616.92L1158.54,1620.76L1156.32,1624.06L1077.77,1708.16L1075.1,1710.33L1071.93,1711.68L1068.52,1712.12L1052.89,1711.98L1082.35,1759.6L1084.06,1760.83L1088.43,1763.97L1094.2,1768.11L1101.18,1773.12L1109.18,1778.86L1113.5,1781.95L1118,1785.17L1122.66,1788.5L1127.44,1791.92L1132.33,1795.42L1137.31,1798.97L1142.34,1802.56L1147.4,1806.17L1152.47,1809.78L1157.52,1813.38L1162.54,1816.94L1167.48,1820.46L1172.34,1823.9L1174.73,1825.59L1177.08,1827.26L1179.4,1828.9L1181.68,1830.51L1183.92,1832.09L1186.12,1833.64L1188.27,1835.15L1190.36,1836.62L1192.41,1838.06L1194.39,1839.45L1196.32,1840.8L1198.19,1842.1L1199.98,1843.35L1201.7,1844.55L1202.03,1844.77L1202.34,1844.99L1202.66,1845.2L1202.99,1845.42L1203.32,1845.64L1203.65,1845.85L1204,1846.07L1204.34,1846.29L1204.68,1846.5L1205.03,1846.72L1205.38,1846.94L1205.74,1847.15L1206.1,1847.37L1206.47,1847.59L1206.84,1847.8L1207.21,1848.02L1207.59,1848.24L1207.97,1848.45L1208.35,1848.67L1208.74,1848.89L1209.12,1849.1L1209.52,1849.31L1209.91,1849.53L1210.31,1849.75L1210.72,1849.96L1211.12,1850.18L1211.53,1850.39L1211.95,1850.61L1212.36,1850.82L1212.78,1851.03L1213.2,1851.25L1213.62,1851.46L1214.05,1851.67L1214.48,1851.89L1214.91,1852.1L1215.35,1852.32L1215.79,1852.53L1216.23,1852.74L1216.66,1852.95L1217.11,1853.16L1217.56,1853.38L1218.01,1853.59L1218.46,1853.8L1218.92,1854.01L1219.37,1854.22L1219.83,1854.43L1220.76,1854.86L1221.69,1855.28L1222.64,1855.7L1223.59,1856.12L1224.54,1856.54L1225.51,1856.96L1226.48,1857.38L1227.45,1857.79L1228.44,1858.21L1229.42,1858.63L1230.42,1859.05L1231.42,1859.47L1232.42,1859.88L1233.43,1860.3L1234.44,1860.72L1236.48,1861.56L1238.53,1862.4L1240.58,1863.24L1242.65,1864.08L1244.71,1864.93L1245.75,1865.36L1246.79,1865.79L1247.82,1866.22L1248.86,1866.65L1249.9,1867.08L1250.93,1867.51L1251.97,1867.95L1253,1868.39L1254.03,1868.83L1255.06,1869.27L1256.09,1869.72L1257.11,1870.16L1258.13,1870.62L1259.15,1871.07L1260.17,1871.53L1261.17,1871.99L1261.68,1872.22L1262.19,1872.45L1262.69,1872.68L1263.19,1872.92L1263.69,1873.15L1264.19,1873.39L1264.69,1873.63L1265.19,1873.87L1265.69,1874.1L1266.18,1874.34L1266.67,1874.58L1267.17,1874.83L1267.66,1875.07L1268.15,1875.32L1268.64,1875.56L1269.12,1875.81L1269.61,1876.05L1270.09,1876.3L1270.58,1876.55L1271.06,1876.81L1271.54,1877.06L1272.02,1877.31L1272.49,1877.57L1272.97,1877.83L1273.44,1878.09L1273.91,1878.35L1274.38,1878.61L1274.86,1878.87L1275.32,1879.14L1275.78,1879.4L1276.25,1879.67L1276.71,1879.94L1277.17,1880.21L1277.62,1880.49L1278.08,1880.76L1278.54,1881.04L1278.99,1881.32L1279.43,1881.6L1279.88,1881.88L1280.33,1882.17L1280.78,1882.46L1281.22,1882.75L1281.65,1883.04L1282.09,1883.33L1282.53,1883.63L1282.96,1883.92L1283.39,1884.23L1283.82,1884.53L1284.24,1884.84L1284.67,1885.14L1285.09,1885.45L1285.51,1885.77L1285.92,1886.08L1286.34,1886.4L1286.75,1886.72L1287.15,1887.05L1287.56,1887.38L1287.96,1887.71L1288.37,1888.04L1288.76,1888.38L1289.15,1888.72L1289.54,1889.06L1289.93,1889.41L1290.32,1889.76L1290.7,1890.11L1291.08,1890.47L1291.46,1890.83L1291.83,1891.2L1292.2,1891.56L1292.56,1891.93L1292.93,1892.32L1293.29,1892.7L1293.64,1893.08L1294,1893.47L1294.34,1893.86L1294.69,1894.26L1295.02,1894.65L1295.19,1894.86L1295.36,1895.07L1295.53,1895.28L1295.69,1895.48L1295.86,1895.69L1296.02,1895.9L1296.18,1896.1L1296.34,1896.32L1296.5,1896.52L1296.66,1896.74L1296.82,1896.96L1296.97,1897.17L1297.12,1897.38L1297.28,1897.6L1297.44,1897.83L1297.59,1898.05L1297.73,1898.26L1297.88,1898.48L1298.03,1898.71L1298.17,1898.93L1298.32,1899.16L1298.46,1899.38L1298.61,1899.62L1298.75,1899.85L1298.88,1900.08L1299.02,1900.31L1299.15,1900.54L1299.29,1900.78L1299.42,1901.01L1299.55,1901.25L1299.69,1901.5L1299.81,1901.74L1299.94,1901.98L1300.06,1902.21L1300.19,1902.46L1300.31,1902.71L1300.42,1902.94L1300.54,1903.2L1300.66,1903.45L1300.77,1903.69L1300.89,1903.95L1301,1904.21L1301.11,1904.46L1301.21,1904.71L1301.32,1904.96L1301.42,1905.22L1301.53,1905.49L1301.62,1905.74L1301.72,1905.99L1301.82,1906.27L1301.91,1906.53L1302,1906.79L1302.09,1907.05L1302.18,1907.33L1302.26,1907.58L1302.35,1907.85L1302.43,1908.13L1302.51,1908.39L1302.58,1908.66L1302.66,1908.94L1302.73,1909.21L1302.8,1909.49L1302.87,1909.76L1302.93,1910.03L1303,1910.31L1303.06,1910.59L1303.12,1910.88L1303.17,1911.14L1303.23,1911.42L1303.29,1911.72L1303.33,1911.99L1303.38,1912.27L1303.43,1912.56L1303.47,1912.84L1303.51,1913.11L1303.55,1913.4L1303.58,1913.69L1303.61,1913.97L1303.64,1914.26L1303.67,1914.55L1303.7,1914.83L1303.72,1915.13L1303.74,1915.41L1303.76,1915.7L1303.78,1916L1303.79,1916.28L1303.8,1916.57L1303.81,1916.86L1303.82,1917.14L1303.82,1917.44L1303.82,1917.74L1303.82,1918.02L1303.82,1918.32L1303.81,1918.61L1303.8,1918.9L1303.79,1919.19L1303.78,1919.48L1303.76,1919.77L1303.74,1920.07L1303.72,1920.37L1303.7,1920.65L1303.67,1920.95L1303.64,1921.25L1303.61,1921.55L1303.58,1921.85L1303.54,1922.16L1303.5,1922.45L1303.46,1922.76L1303.42,1923.04L1303.37,1923.34L1303.32,1923.65L1303.27,1923.94L1303.22,1924.23L1303.16,1924.53L1303.1,1924.83L1303.04,1925.12L1302.98,1925.42L1302.92,1925.71L1302.85,1925.99L1302.79,1926.29L1302.72,1926.57L1302.64,1926.87L1302.57,1927.16L1302.5,1927.45L1302.42,1927.74L1302.34,1928.02L1302.26,1928.31L1302.17,1928.61L1302.09,1928.89L1302.01,1929.18L1301.92,1929.47L1301.83,1929.76L1301.73,1930.05L1301.64,1930.33L1301.55,1930.62L1301.45,1930.91L1301.35,1931.19L1301.25,1931.48L1301.15,1931.76L1301.05,1932.05L1300.94,1932.34L1300.84,1932.63L1300.73,1932.91L1300.62,1933.19L1300.51,1933.48L1300.4,1933.76L1300.28,1934.05L1300.17,1934.34L1300.05,1934.62L1299.93,1934.93L1299.69,1935.48L1299.45,1936.05L1299.19,1936.63L1298.94,1937.2L1298.67,1937.77L1298.4,1938.35L1298.13,1938.92L1297.85,1939.5L1297.57,1940.07L1297.28,1940.64L1296.98,1941.22L1296.68,1941.8L1296.37,1942.38L1296.06,1942.96L1295.75,1943.54L1295.43,1944.12L1295.1,1944.7L1294.77,1945.29L1294.43,1945.87L1294.09,1946.46L1293.75,1947.05L1293.4,1947.63L1293.05,1948.22L1292.68,1948.81L1292.32,1949.4L1291.95,1949.99L1291.58,1950.59L1291.2,1951.18L1290.82,1951.78L1290.44,1952.38L1290.05,1952.97L1289.65,1953.57L1289.26,1954.17L1288.85,1954.77L1288.44,1955.38L1288.03,1955.98L1287.62,1956.58L1287.2,1957.19L1286.78,1957.8L1286.35,1958.4L1285.92,1959.01L1285.48,1959.62L1285.05,1960.23L1284.6,1960.85L1284.16,1961.46L1283.71,1962.07L1283.26,1962.69L1282.8,1963.3L1282.34,1963.92L1281.87,1964.54L1281.4,1965.16L1280.93,1965.78L1280.46,1966.4L1279.98,1967.02L1279.5,1967.64L1279.02,1968.26L1278.53,1968.88L1278.04,1969.51L1277.54,1970.13L1277.05,1970.76L1276.55,1971.38L1276.05,1972.01L1275.54,1972.64L1275.03,1973.27L1274.52,1973.89L1274,1974.52L1273.49,1975.15L1272.96,1975.78L1272.44,1976.41L1271.92,1977.04L1271.39,1977.67L1270.86,1978.31L1270.32,1978.94L1269.79,1979.57L1269.25,1980.2L1268.71,1980.83L1268.16,1981.47L1267.62,1982.1L1267.07,1982.73L1266.52,1983.37L1265.97,1984L1265.41,1984.63L1264.86,1985.27L1264.3,1985.9L1263.74,1986.53L1263.18,1987.16L1262.61,1987.8L1262.05,1988.43L1261.48,1989.06L1260.91,1989.7L1260.34,1990.33L1259.77,1990.96L1259.19,1991.59L1258.62,1992.22L1258.04,1992.85L1257.46,1993.49L1256.88,1994.12L1256.29,1994.75L1255.71,1995.37L1255.12,1996L1254.54,1996.63L1253.95,1997.26L1253.36,1997.89L1252.77,1998.51L1252.18,1999.14L1251.59,1999.76L1251,2000.39L1250.4,2001.01L1249.81,2001.63L1249.21,2002.26L1248.62,2002.88L1248.02,2003.5L1247.42,2004.12L1246.82,2004.73L1246.22,2005.35L1245.62,2005.97L1245.02,2006.58L1244.42,2007.19L1243.82,2007.81L1243.21,2008.42L1242.61,2009.03L1242.01,2009.64L1240.8,2010.85L1239.6,2012.06L1238.39,2013.26L1237.18,2014.46L1235.98,2015.65L1234.77,2016.83L1233.56,2018.01L1232.36,2019.18L1231.16,2020.34L1229.96,2021.5L1228.76,2022.64L1227.56,2023.78L1226.37,2024.91L1225.18,2026.03L1224,2027.14L1222.82,2028.25L1221.64,2029.34L1220.48,2030.42L1219.31,2031.5L1218.15,2032.56L1217,2033.61L1215.86,2034.66L1214.72,2035.69L1213.58,2036.71L1212.46,2037.71L1211.34,2038.71L1210.24,2039.69L1209.13,2040.66L1208.04,2041.62L1206.96,2042.56L1205.89,2043.49L1204.83,2044.41L1203.78,2045.31L1202.74,2046.2L1201.71,2047.08L1200.69,2047.94L1199.68,2048.78L1198.69,2049.61L1197.7,2050.43L1196.73,2051.22L1195.78,2052.01L1194.83,2052.78L1193.9,2053.53L1192.98,2054.26L1192.08,2054.98L1191.2,2055.67L1190.75,2056.02L1190.32,2056.36L1189.88,2056.7L1189.45,2057.03L1189.03,2057.35L1188.61,2057.68L1188.19,2057.99L1187.77,2058.31L1187.37,2058.62L1186.96,2058.92L1186.56,2059.22L1186.16,2059.52L1185.76,2059.81L1185.37,2060.09L1184.98,2060.38L1184.6,2060.65L1184.22,2060.93L1183.83,2061.2L1183.56,2061.39L1183.28,2061.59L1183.01,2061.77L1182.72,2061.97L1182.43,2062.15L1182.15,2062.33L1181.86,2062.51L1181.58,2062.69L1181.29,2062.86L1181,2063.04L1180.71,2063.21L1180.41,2063.38L1180.13,2063.54L1179.84,2063.7L1179.55,2063.86L1179.25,2064.01L1178.95,2064.17L1178.66,2064.32L1178.37,2064.47L1178.06,2064.62L1177.76,2064.76L1177.47,2064.9L1177.17,2065.04L1176.87,2065.18L1176.57,2065.31L1176.27,2065.44L1175.96,2065.57L1175.66,2065.7L1175.35,2065.82L1175.06,2065.94L1174.74,2066.06L1174.44,2066.18L1174.14,2066.29L1173.82,2066.41L1173.52,2066.51L1173.22,2066.62L1172.91,2066.72L1172.6,2066.83L1172.3,2066.93L1171.98,2067.02L1171.68,2067.12L1171.37,2067.21L1171.06,2067.3L1170.75,2067.39L1170.44,2067.48L1170.12,2067.56L1169.81,2067.65L1169.5,2067.72L1169.2,2067.8L1168.89,2067.88L1168.57,2067.95L1168.26,2068.02L1167.94,2068.09L1167.64,2068.16L1167.32,2068.22L1167.02,2068.28L1166.7,2068.35L1166.38,2068.41L1166.08,2068.46L1165.76,2068.52L1165.44,2068.57L1165.13,2068.62L1164.82,2068.67L1164.51,2068.72L1164.2,2068.76L1163.89,2068.8L1163.58,2068.84L1163.25,2068.88L1162.94,2068.92L1162.63,2068.95L1162.32,2068.99L1162,2069.02L1161.69,2069.05L1161.38,2069.08L1161.06,2069.11L1160.75,2069.13L1160.44,2069.15L1160.12,2069.17L1159.81,2069.19L1159.5,2069.21L1159.19,2069.23L1158.87,2069.24L1158.56,2069.25L1158.25,2069.26L1157.93,2069.27L1157.63,2069.28L1157.32,2069.28L1157.01,2069.29L1156.68,2069.29L1156.37,2069.29L1156.06,2069.29L1155.76,2069.29L1155.44,2069.29L1155.13,2069.28L1154.82,2069.27L1154.51,2069.26L1154.2,2069.26L1153.89,2069.24L1153.58,2069.23L1153.26,2069.22L1152.96,2069.2L1152.65,2069.18L1152.33,2069.16L1152.02,2069.14L1151.72,2069.12L1151.41,2069.1L1151.1,2069.07L1150.79,2069.05L1150.49,2069.02L1150.17,2068.99L1149.86,2068.96L1149.56,2068.93L1149.25,2068.9L1148.94,2068.86L1148.64,2068.83L1148.32,2068.79L1147.72,2068.71L1147.1,2068.63L1146.49,2068.54L1145.88,2068.45L1145.27,2068.35L1144.67,2068.25L1144.06,2068.14L1143.45,2068.03L1142.85,2067.91L1142.25,2067.79L1141.65,2067.66L1141.05,2067.53L1140.45,2067.39L1139.85,2067.25L1139.26,2067.11L1138.66,2066.96L1138.07,2066.8L1137.48,2066.65L1136.89,2066.49L1136.3,2066.32L1135.72,2066.15L1135.13,2065.98L1134.55,2065.8L1133.97,2065.62L1133.39,2065.43L1132.81,2065.24L1132.23,2065.05L1131.66,2064.85L1131.09,2064.65L1130.52,2064.45L1129.95,2064.24L1129.39,2064.03L1128.82,2063.81L1128.26,2063.59L1127.7,2063.37L1127.15,2063.15L1126.59,2062.92L1126.04,2062.69L1125.48,2062.45L1124.94,2062.21L1124.39,2061.97L1123.85,2061.73L1123.31,2061.48L1122.77,2061.23L1122.24,2060.97L1121.7,2060.72L1121.17,2060.46L1120.64,2060.19L1120.12,2059.93L1119.6,2059.66L1119.08,2059.39L1118.56,2059.11L1118.05,2058.83L1117.54,2058.55L1117.03,2058.27L1116.52,2057.99L1116.02,2057.7L1115.52,2057.41L1115.03,2057.11L1114.53,2056.82L1114.04,2056.52L1113.56,2056.21L1113.07,2055.91L1112.59,2055.6L1112.11,2055.29L1111.64,2054.98L1111.17,2054.67L1110.7,2054.35L1110.24,2054.03L1109.78,2053.7L1109.46,2053.48L1109.13,2053.24L1108.82,2053.01L1108.5,2052.77L1108.19,2052.53L1107.87,2052.28L1107.56,2052.04L1107.25,2051.79L1106.93,2051.53L1106.63,2051.28L1106.32,2051.02L1106.01,2050.76L1105.7,2050.5L1105.4,2050.23L1105.09,2049.96L1104.78,2049.69L1104.49,2049.42L1104.18,2049.14L1103.87,2048.86L1103.56,2048.57L1103.26,2048.29L1102.96,2048.01L1102.65,2047.71L1102.35,2047.42L1102.04,2047.13L1101.74,2046.83L1101.44,2046.53L1101.13,2046.22L1100.82,2045.92L1100.52,2045.61L1100.21,2045.3L1099.91,2044.98L1099.6,2044.67L1099.3,2044.35L1098.99,2044.03L1098.68,2043.71L1098.38,2043.38L1098.08,2043.05L1097.77,2042.72L1097.46,2042.39L1097.15,2042.05L1096.85,2041.72L1096.54,2041.38L1096.23,2041.04L1095.92,2040.69L1095.61,2040.35L1095.3,2040L1094.99,2039.64L1094.37,2038.94L1093.76,2038.23L1093.13,2037.51L1092.51,2036.78L1091.89,2036.04L1091.27,2035.3L1090.64,2034.55L1090.02,2033.79L1089.39,2033.03L1088.77,2032.25L1088.14,2031.48L1087.51,2030.7L1086.89,2029.91L1086.26,2029.12L1085.64,2028.32L1085.01,2027.52L1084.39,2026.72L1083.76,2025.91L1083.14,2025.1L1082.52,2024.28L1081.89,2023.46L1081.27,2022.64L1080.65,2021.82L1080.04,2020.99L1079.42,2020.16L1078.8,2019.33L1078.19,2018.5L1077.58,2017.67L1076.97,2016.84L1076.36,2016L1075.76,2015.17L1075.15,2014.34L1074.56,2013.5L1073.96,2012.67L1073.36,2011.84L1072.77,2011.01L1072.19,2010.18L1071.6,2009.36L1071.02,2008.54L1070.44,2007.71L1069.87,2006.9L1069.3,2006.08L1068.74,2005.27L1068.17,2004.46L1067.62,2003.66L1067.07,2002.86L1066.52,2002.07L1065.98,2001.28L1065.44,2000.49L1064.91,1999.71L1064.39,1998.94L1063.87,1998.17L1062.84,1996.66L1061.84,1995.18L1060.87,1993.72L1059.92,1992.3L1059,1990.92L1058.11,1989.57L1057.25,1988.27L1056.43,1987.01L1055.63,1985.79L1054.87,1984.62L1054.15,1983.51L1053.46,1982.44L1052.81,1981.44L1052.2,1980.49L1051.63,1979.6L1051.11,1978.78L1050.62,1978.02L1050.18,1977.32L1049.45,1976.16L1048.9,1975.3L1048.56,1974.75L1048.45,1974.57L1047.5,1972.73L913.686,1649.09L912.761,1645.09L913.186,1641L914.915,1637.27L990.087,1527.2L992.345,1524.7L995.188,1522.89L998.41,1521.91ZM925.237,1644.32L1059.06,1967.95L1059.16,1968.13L1059.49,1968.65L1060.02,1969.49L1060.74,1970.63L1061.17,1971.31L1061.65,1972.06L1062.16,1972.87L1062.72,1973.74L1063.32,1974.67L1063.96,1975.66L1064.64,1976.71L1065.35,1977.81L1066.1,1978.96L1066.88,1980.16L1067.7,1981.4L1068.55,1982.69L1069.42,1984.01L1070.33,1985.38L1071.26,1986.78L1072.22,1988.21L1073.2,1989.67L1074.21,1991.16L1074.72,1991.91L1075.24,1992.67L1075.77,1993.44L1076.29,1994.21L1076.83,1994.99L1077.36,1995.77L1077.9,1996.55L1078.45,1997.34L1079,1998.13L1079.56,1998.93L1080.12,1999.73L1080.68,2000.54L1081.24,2001.34L1081.81,2002.15L1082.38,2002.96L1082.96,2003.77L1083.54,2004.58L1084.12,2005.39L1084.7,2006.21L1085.29,2007.02L1085.88,2007.84L1086.47,2008.65L1087.06,2009.47L1087.66,2010.28L1088.26,2011.09L1088.85,2011.9L1089.45,2012.71L1090.05,2013.51L1090.65,2014.32L1091.26,2015.12L1091.86,2015.91L1092.46,2016.71L1093.06,2017.5L1093.67,2018.28L1094.27,2019.07L1094.87,2019.84L1095.48,2020.62L1096.08,2021.38L1096.68,2022.14L1097.28,2022.9L1097.88,2023.65L1098.48,2024.39L1099.08,2025.13L1099.67,2025.85L1100.27,2026.58L1100.86,2027.29L1101.45,2027.99L1102.04,2028.69L1102.63,2029.38L1103.21,2030.06L1103.79,2030.73L1104.37,2031.39L1104.66,2031.71L1104.95,2032.04L1105.23,2032.36L1105.52,2032.67L1105.8,2032.99L1106.09,2033.3L1106.37,2033.61L1106.65,2033.92L1106.93,2034.23L1107.22,2034.53L1107.5,2034.83L1107.77,2035.12L1108.05,2035.42L1108.33,2035.71L1108.6,2035.99L1108.88,2036.28L1109.15,2036.56L1109.42,2036.84L1109.7,2037.11L1109.97,2037.38L1110.24,2037.65L1110.5,2037.91L1110.77,2038.17L1111.04,2038.43L1111.3,2038.69L1111.56,2038.94L1111.83,2039.19L1112.09,2039.43L1112.34,2039.67L1112.6,2039.91L1112.86,2040.14L1113.11,2040.37L1113.37,2040.59L1113.62,2040.82L1113.87,2041.03L1114.12,2041.25L1114.37,2041.46L1114.62,2041.66L1114.86,2041.87L1115.1,2042.06L1115.35,2042.26L1115.59,2042.45L1115.82,2042.63L1116.06,2042.81L1116.3,2042.99L1116.53,2043.16L1116.76,2043.33L1116.99,2043.5L1117.38,2043.77L1117.77,2044.04L1118.16,2044.3L1118.56,2044.57L1118.96,2044.83L1119.36,2045.1L1119.77,2045.36L1120.18,2045.61L1120.59,2045.87L1121.01,2046.12L1121.43,2046.38L1121.85,2046.63L1122.28,2046.88L1122.71,2047.13L1123.14,2047.37L1123.58,2047.61L1124.02,2047.85L1124.46,2048.09L1124.91,2048.33L1125.35,2048.56L1125.8,2048.8L1126.26,2049.02L1126.71,2049.25L1127.17,2049.47L1127.63,2049.7L1128.09,2049.92L1128.56,2050.13L1129.02,2050.35L1129.49,2050.56L1129.96,2050.77L1130.44,2050.97L1130.91,2051.18L1131.39,2051.38L1131.87,2051.57L1132.35,2051.77L1132.83,2051.96L1133.32,2052.15L1133.8,2052.33L1134.29,2052.51L1134.78,2052.69L1135.27,2052.87L1135.76,2053.04L1136.25,2053.21L1136.75,2053.38L1137.24,2053.54L1137.74,2053.7L1138.24,2053.86L1138.74,2054.01L1139.24,2054.16L1139.74,2054.3L1140.24,2054.44L1140.74,2054.58L1141.24,2054.72L1141.75,2054.85L1142.25,2054.97L1142.76,2055.09L1143.26,2055.21L1143.77,2055.33L1144.27,2055.44L1144.78,2055.55L1145.29,2055.65L1145.79,2055.75L1146.3,2055.84L1146.81,2055.93L1147.32,2056.02L1147.82,2056.1L1148.33,2056.18L1148.84,2056.25L1149.34,2056.32L1149.85,2056.38L1150.1,2056.41L1150.35,2056.44L1150.61,2056.47L1150.86,2056.5L1151.11,2056.52L1151.36,2056.55L1151.62,2056.57L1151.87,2056.59L1152.12,2056.62L1152.37,2056.64L1152.62,2056.65L1152.88,2056.67L1153.13,2056.69L1153.38,2056.7L1153.63,2056.72L1153.88,2056.73L1154.13,2056.74L1154.38,2056.75L1154.63,2056.76L1154.88,2056.77L1155.13,2056.78L1155.38,2056.78L1155.63,2056.79L1155.88,2056.79L1156.12,2056.79L1156.37,2056.79L1156.62,2056.79L1156.87,2056.79L1157.11,2056.79L1157.36,2056.78L1157.61,2056.78L1157.85,2056.77L1158.1,2056.76L1158.35,2056.75L1158.59,2056.74L1158.84,2056.73L1159.08,2056.71L1159.33,2056.7L1159.57,2056.68L1159.81,2056.66L1160.06,2056.65L1160.3,2056.62L1160.54,2056.6L1160.78,2056.58L1161.02,2056.56L1161.26,2056.53L1161.5,2056.5L1161.74,2056.47L1161.98,2056.45L1162.22,2056.41L1162.46,2056.38L1162.7,2056.35L1162.94,2056.31L1163.17,2056.27L1163.41,2056.24L1163.65,2056.2L1163.88,2056.16L1164.12,2056.11L1164.35,2056.07L1164.59,2056.02L1164.82,2055.98L1165.05,2055.93L1165.29,2055.88L1165.52,2055.83L1165.75,2055.77L1165.98,2055.72L1166.21,2055.66L1166.44,2055.61L1166.67,2055.55L1166.9,2055.49L1167.12,2055.43L1167.35,2055.36L1167.58,2055.3L1167.8,2055.23L1168.03,2055.16L1168.25,2055.09L1168.48,2055.02L1168.7,2054.95L1168.92,2054.88L1169.14,2054.8L1169.37,2054.72L1169.59,2054.65L1169.81,2054.57L1170.02,2054.48L1170.24,2054.4L1170.46,2054.32L1170.68,2054.23L1170.89,2054.14L1171.11,2054.05L1171.32,2053.96L1171.54,2053.87L1171.75,2053.77L1171.96,2053.68L1172.17,2053.58L1172.38,2053.48L1172.59,2053.38L1172.8,2053.28L1173.01,2053.17L1173.22,2053.06L1173.42,2052.96L1173.63,2052.85L1173.83,2052.74L1174.04,2052.62L1174.24,2052.51L1174.44,2052.39L1174.64,2052.28L1174.84,2052.16L1175.04,2052.03L1175.24,2051.91L1175.44,2051.79L1175.63,2051.66L1175.83,2051.53L1176.03,2051.4L1176.22,2051.27L1176.41,2051.14L1176.6,2051L1176.95,2050.76L1177.29,2050.51L1177.65,2050.26L1178,2050L1178.37,2049.73L1178.73,2049.46L1179.1,2049.19L1179.48,2048.91L1179.86,2048.62L1180.24,2048.33L1180.63,2048.04L1181.03,2047.74L1181.42,2047.43L1181.83,2047.12L1182.23,2046.81L1182.64,2046.49L1183.06,2046.17L1183.48,2045.84L1184.33,2045.17L1185.19,2044.49L1186.07,2043.78L1186.97,2043.06L1187.88,2042.32L1188.8,2041.56L1189.74,2040.79L1190.69,2040L1191.66,2039.19L1192.64,2038.37L1193.63,2037.54L1194.63,2036.68L1195.65,2035.82L1196.67,2034.94L1197.71,2034.04L1198.75,2033.13L1199.81,2032.21L1200.88,2031.28L1201.95,2030.33L1203.04,2029.36L1204.13,2028.39L1205.23,2027.4L1206.34,2026.4L1207.46,2025.39L1208.58,2024.37L1209.71,2023.34L1210.85,2022.3L1211.99,2021.25L1213.14,2020.18L1214.29,2019.11L1215.45,2018.03L1216.61,2016.93L1217.78,2015.83L1218.95,2014.72L1220.12,2013.6L1221.3,2012.48L1222.48,2011.34L1223.66,2010.2L1224.84,2009.05L1226.03,2007.9L1227.21,2006.74L1228.39,2005.57L1229.58,2004.39L1230.77,2003.21L1231.95,2002.03L1233.13,2000.84L1233.72,2000.24L1234.32,1999.64L1234.91,1999.04L1235.5,1998.44L1236.09,1997.84L1236.67,1997.24L1237.26,1996.63L1237.85,1996.03L1238.44,1995.42L1239.02,1994.82L1239.61,1994.21L1240.19,1993.6L1240.78,1992.99L1241.36,1992.38L1241.94,1991.77L1242.52,1991.16L1243.1,1990.55L1243.68,1989.94L1244.26,1989.32L1244.83,1988.71L1245.41,1988.1L1245.98,1987.48L1246.55,1986.87L1247.12,1986.25L1247.69,1985.64L1248.26,1985.02L1248.83,1984.4L1249.39,1983.79L1249.95,1983.17L1250.51,1982.56L1251.07,1981.94L1251.63,1981.32L1252.18,1980.71L1252.74,1980.09L1253.29,1979.47L1253.84,1978.86L1254.39,1978.24L1254.93,1977.62L1255.48,1977.01L1256.02,1976.39L1256.56,1975.78L1257.09,1975.16L1257.63,1974.54L1258.16,1973.93L1258.69,1973.32L1259.21,1972.7L1259.74,1972.09L1260.26,1971.48L1260.78,1970.86L1261.3,1970.25L1261.81,1969.64L1262.32,1969.03L1262.83,1968.42L1263.34,1967.81L1263.84,1967.2L1264.34,1966.6L1264.83,1965.99L1265.33,1965.38L1265.82,1964.78L1266.31,1964.17L1266.79,1963.57L1267.27,1962.97L1267.75,1962.37L1268.22,1961.77L1268.69,1961.17L1269.16,1960.57L1269.62,1959.98L1270.09,1959.38L1270.54,1958.79L1271,1958.19L1271.44,1957.6L1271.89,1957.01L1272.33,1956.42L1272.77,1955.84L1273.2,1955.25L1273.64,1954.67L1274.06,1954.09L1274.49,1953.51L1274.9,1952.93L1275.32,1952.35L1275.73,1951.78L1276.13,1951.2L1276.54,1950.63L1276.93,1950.06L1277.33,1949.49L1277.71,1948.92L1278.1,1948.36L1278.48,1947.8L1278.86,1947.24L1279.23,1946.68L1279.59,1946.12L1279.95,1945.57L1280.31,1945.02L1280.66,1944.47L1281.01,1943.92L1281.35,1943.37L1281.69,1942.83L1282.02,1942.29L1282.35,1941.75L1282.67,1941.21L1282.99,1940.68L1283.3,1940.15L1283.61,1939.62L1283.91,1939.1L1284.21,1938.57L1284.5,1938.05L1284.78,1937.53L1285.06,1937.02L1285.34,1936.51L1285.61,1936L1285.87,1935.49L1286.13,1934.99L1286.38,1934.48L1286.63,1933.99L1286.87,1933.49L1287.11,1933L1287.34,1932.51L1287.56,1932.02L1287.78,1931.54L1287.99,1931.06L1288.19,1930.58L1288.39,1930.11L1288.49,1929.87L1288.59,1929.64L1288.68,1929.4L1288.77,1929.17L1288.86,1928.94L1288.95,1928.71L1289.04,1928.48L1289.13,1928.25L1289.21,1928.02L1289.3,1927.79L1289.38,1927.56L1289.46,1927.34L1289.54,1927.11L1289.61,1926.89L1289.69,1926.66L1289.76,1926.44L1289.83,1926.22L1289.9,1926L1289.97,1925.78L1290.04,1925.56L1290.11,1925.34L1290.17,1925.12L1290.23,1924.91L1290.29,1924.69L1290.35,1924.48L1290.41,1924.26L1290.46,1924.05L1290.52,1923.84L1290.57,1923.63L1290.62,1923.42L1290.67,1923.21L1290.71,1923L1290.76,1922.79L1290.8,1922.59L1290.84,1922.38L1290.88,1922.18L1290.92,1921.98L1290.96,1921.77L1290.99,1921.57L1291.03,1921.37L1291.06,1921.17L1291.09,1920.97L1291.11,1920.78L1291.14,1920.58L1291.16,1920.39L1291.18,1920.19L1291.21,1920L1291.22,1919.81L1291.24,1919.62L1291.26,1919.42L1291.27,1919.23L1291.28,1919.04L1291.29,1918.86L1291.3,1918.67L1291.31,1918.48L1291.31,1918.29L1291.32,1918.1L1291.32,1917.92L1291.32,1917.73L1291.32,1917.54L1291.32,1917.36L1291.31,1917.17L1291.31,1916.99L1291.3,1916.81L1291.29,1916.62L1291.28,1916.44L1291.27,1916.26L1291.26,1916.08L1291.24,1915.89L1291.23,1915.71L1291.21,1915.53L1291.19,1915.35L1291.17,1915.17L1291.15,1915L1291.12,1914.82L1291.1,1914.64L1291.07,1914.46L1291.04,1914.28L1291.01,1914.11L1290.98,1913.93L1290.95,1913.76L1290.92,1913.58L1290.88,1913.41L1290.84,1913.23L1290.81,1913.06L1290.77,1912.88L1290.72,1912.71L1290.68,1912.54L1290.64,1912.37L1290.59,1912.2L1290.55,1912.03L1290.5,1911.85L1290.45,1911.68L1290.4,1911.52L1290.34,1911.35L1290.29,1911.18L1290.23,1911.01L1290.18,1910.84L1290.12,1910.67L1290.06,1910.51L1290,1910.34L1289.94,1910.17L1289.87,1910.01L1289.81,1909.84L1289.74,1909.68L1289.67,1909.51L1289.61,1909.35L1289.53,1909.18L1289.46,1909.02L1289.39,1908.86L1289.32,1908.7L1289.24,1908.54L1289.16,1908.37L1289.08,1908.21L1289.01,1908.05L1288.92,1907.89L1288.84,1907.73L1288.76,1907.57L1288.67,1907.41L1288.59,1907.25L1288.5,1907.1L1288.41,1906.94L1288.32,1906.78L1288.23,1906.62L1288.14,1906.47L1288.04,1906.31L1287.95,1906.15L1287.85,1906L1287.76,1905.85L1287.66,1905.69L1287.56,1905.54L1287.46,1905.38L1287.35,1905.23L1287.25,1905.08L1287.15,1904.92L1287.04,1904.77L1286.93,1904.62L1286.83,1904.47L1286.72,1904.32L1286.61,1904.16L1286.49,1904.01L1286.38,1903.86L1286.27,1903.71L1286.15,1903.57L1286.03,1903.42L1285.92,1903.27L1285.8,1903.12L1285.68,1902.97L1285.56,1902.82L1285.43,1902.68L1285.19,1902.38L1284.93,1902.09L1284.68,1901.8L1284.42,1901.51L1284.15,1901.23L1283.88,1900.94L1283.61,1900.65L1283.33,1900.37L1283.04,1900.09L1282.76,1899.81L1282.47,1899.53L1282.17,1899.25L1281.87,1898.97L1281.57,1898.7L1281.26,1898.42L1280.95,1898.15L1280.63,1897.88L1280.32,1897.61L1279.99,1897.34L1279.67,1897.07L1279.34,1896.8L1279,1896.54L1278.66,1896.27L1278.32,1896.01L1277.98,1895.75L1277.63,1895.48L1277.28,1895.22L1276.92,1894.96L1276.56,1894.71L1276.2,1894.45L1275.83,1894.19L1275.46,1893.94L1275.09,1893.68L1274.71,1893.43L1274.33,1893.18L1273.95,1892.93L1273.57,1892.68L1273.18,1892.43L1272.78,1892.18L1272.39,1891.93L1271.99,1891.69L1271.59,1891.44L1271.19,1891.2L1270.78,1890.96L1270.37,1890.72L1269.96,1890.47L1269.54,1890.23L1269.12,1889.99L1268.7,1889.75L1268.28,1889.52L1267.86,1889.28L1267.43,1889.04L1267,1888.81L1266.56,1888.57L1266.13,1888.34L1265.69,1888.1L1265.25,1887.87L1264.8,1887.64L1264.36,1887.41L1263.91,1887.18L1263.46,1886.95L1263.01,1886.72L1262.55,1886.49L1262.1,1886.26L1261.64,1886.04L1261.18,1885.81L1260.71,1885.58L1260.25,1885.36L1259.78,1885.13L1259.31,1884.91L1258.84,1884.69L1258.37,1884.46L1257.9,1884.24L1257.42,1884.02L1256.94,1883.8L1256.46,1883.58L1255.98,1883.36L1255.02,1882.92L1254.05,1882.48L1253.07,1882.04L1252.08,1881.61L1251.09,1881.18L1250.1,1880.75L1249.1,1880.32L1248.1,1879.89L1247.09,1879.46L1246.08,1879.04L1245.07,1878.61L1244.05,1878.18L1243.03,1877.76L1242.01,1877.34L1240.99,1876.91L1239.96,1876.49L1237.91,1875.65L1235.85,1874.81L1233.79,1873.96L1231.73,1873.12L1229.67,1872.28L1228.65,1871.85L1227.62,1871.43L1226.6,1871L1225.59,1870.58L1224.57,1870.15L1223.56,1869.72L1222.55,1869.29L1221.54,1868.86L1220.54,1868.43L1219.54,1867.99L1218.55,1867.56L1217.56,1867.12L1216.58,1866.68L1215.6,1866.24L1214.63,1865.8L1214.14,1865.58L1213.66,1865.35L1213.18,1865.13L1212.7,1864.9L1212.22,1864.68L1211.75,1864.45L1211.28,1864.23L1210.8,1864L1210.33,1863.78L1209.87,1863.55L1209.4,1863.32L1208.93,1863.09L1208.47,1862.86L1208.01,1862.63L1207.55,1862.4L1207.1,1862.17L1206.64,1861.94L1206.19,1861.7L1205.74,1861.47L1205.3,1861.23L1204.85,1861L1204.41,1860.76L1203.97,1860.53L1203.53,1860.29L1203.09,1860.05L1202.66,1859.81L1202.23,1859.57L1201.8,1859.33L1201.38,1859.09L1200.95,1858.84L1200.54,1858.6L1200.12,1858.35L1199.7,1858.11L1199.29,1857.86L1198.88,1857.61L1198.48,1857.37L1198.07,1857.12L1197.67,1856.87L1197.28,1856.61L1196.88,1856.36L1196.49,1856.11L1196.1,1855.85L1195.72,1855.6L1195.34,1855.34L1194.96,1855.08L1194.58,1854.82L1192.84,1853.61L1191.03,1852.35L1189.16,1851.05L1187.22,1849.69L1185.23,1848.29L1183.18,1846.85L1181.07,1845.37L1178.92,1843.86L1176.72,1842.3L1174.47,1840.72L1172.19,1839.1L1169.86,1837.46L1167.5,1835.79L1165.11,1834.1L1160.25,1830.65L1155.3,1827.13L1150.28,1823.57L1145.22,1819.97L1140.14,1816.35L1135.08,1812.74L1130.04,1809.14L1125.07,1805.59L1120.17,1802.09L1115.38,1798.67L1110.73,1795.33L1106.23,1792.11L1101.9,1789.02L1093.9,1783.28L1086.91,1778.27L1081.13,1774.12L1076.77,1770.98L1073.03,1768.3L1030.32,1699.27L1068.63,1699.63L1147.19,1615.53L1106.67,1545.95L1000.41,1534.25L925.237,1644.32Z" style="fill:rgb(0,0,255);"/>
                    </g>
                    <g transform="matrix(1,0,0,1,-112.43,-1038.49)">
                        <path d="M1126.03,1574.04L1144.98,1564.26L1157.49,1585.82L1139.88,1596.1L1126.03,1574.04Z" style="fill:rgb(192,192,192);"/>
                        <path d="M1121.82,1565.88L1140.77,1556.1L1141.05,1555.97L1141.32,1555.84L1141.6,1555.72L1141.89,1555.62L1142.17,1555.52L1142.46,1555.43L1142.76,1555.35L1143.05,1555.28L1143.35,1555.23L1143.65,1555.18L1143.95,1555.14L1144.25,1555.11L1144.56,1555.09L1144.86,1555.08L1145.16,1555.08L1145.47,1555.09L1145.77,1555.11L1146.07,1555.14L1146.37,1555.18L1146.67,1555.24L1146.97,1555.3L1147.27,1555.37L1147.56,1555.45L1147.85,1555.54L1148.14,1555.64L1148.42,1555.75L1148.7,1555.86L1148.97,1555.99L1149.25,1556.13L1149.51,1556.27L1149.77,1556.43L1150.03,1556.59L1150.28,1556.76L1150.53,1556.94L1150.77,1557.13L1151,1557.32L1151.22,1557.53L1151.44,1557.74L1151.65,1557.95L1151.86,1558.18L1152.06,1558.41L1152.25,1558.65L1152.43,1558.89L1152.6,1559.14L1152.77,1559.39L1152.92,1559.65L1165.43,1581.22L1165.58,1581.49L1165.71,1581.76L1165.85,1582.04L1165.97,1582.32L1166.08,1582.6L1166.18,1582.89L1166.28,1583.18L1166.36,1583.48L1166.43,1583.77L1166.5,1584.07L1166.55,1584.37L1166.59,1584.68L1166.62,1584.98L1166.65,1585.29L1166.66,1585.59L1166.66,1585.9L1166.66,1586.2L1166.64,1586.51L1166.61,1586.82L1166.57,1587.12L1166.52,1587.42L1166.46,1587.72L1166.4,1588.02L1166.32,1588.32L1166.23,1588.61L1166.13,1588.9L1166.03,1589.19L1165.91,1589.47L1165.78,1589.75L1165.65,1590.02L1165.5,1590.29L1165.35,1590.56L1165.18,1590.82L1165.01,1591.07L1164.84,1591.32L1164.65,1591.56L1164.45,1591.8L1164.25,1592.03L1164.04,1592.25L1163.82,1592.46L1163.6,1592.67L1163.36,1592.87L1163.12,1593.06L1162.88,1593.25L1162.63,1593.42L1162.37,1593.59L1162.11,1593.75L1144.51,1604.02L1144.24,1604.17L1143.97,1604.31L1143.69,1604.45L1143.41,1604.57L1143.12,1604.68L1142.84,1604.79L1142.54,1604.88L1142.25,1604.96L1141.95,1605.04L1141.65,1605.1L1141.35,1605.15L1141.05,1605.2L1140.74,1605.23L1140.43,1605.26L1140.13,1605.27L1139.82,1605.27L1139.51,1605.27L1139.21,1605.25L1138.9,1605.22L1138.6,1605.18L1138.29,1605.13L1137.99,1605.08L1137.69,1605.01L1137.4,1604.93L1137.1,1604.84L1136.81,1604.74L1136.53,1604.64L1136.24,1604.52L1135.96,1604.39L1135.69,1604.26L1135.42,1604.11L1135.15,1603.96L1134.89,1603.8L1134.63,1603.62L1134.39,1603.44L1134.14,1603.26L1133.91,1603.06L1133.68,1602.86L1133.45,1602.65L1133.24,1602.43L1133.03,1602.2L1132.83,1601.97L1132.64,1601.73L1132.45,1601.49L1132.28,1601.23L1132.11,1600.98L1118.26,1578.92L1118.1,1578.66L1117.95,1578.4L1117.81,1578.13L1117.68,1577.85L1117.56,1577.58L1117.45,1577.29L1117.34,1577.01L1117.25,1576.72L1117.17,1576.43L1117.09,1576.13L1117.03,1575.84L1116.97,1575.54L1116.93,1575.24L1116.89,1574.93L1116.87,1574.63L1116.86,1574.33L1116.85,1574.02L1116.86,1573.72L1116.87,1573.42L1116.9,1573.11L1116.93,1572.81L1116.98,1572.51L1117.03,1572.21L1117.1,1571.92L1117.17,1571.62L1117.26,1571.33L1117.35,1571.04L1117.46,1570.76L1117.57,1570.47L1117.69,1570.2L1117.83,1569.92L1117.97,1569.65L1118.12,1569.39L1118.28,1569.13L1118.44,1568.88L1118.62,1568.63L1118.8,1568.38L1118.99,1568.15L1119.19,1567.92L1119.4,1567.7L1119.61,1567.48L1119.83,1567.27L1120.06,1567.07L1120.29,1566.88L1120.53,1566.69L1120.78,1566.51L1121.03,1566.34L1121.29,1566.18L1121.55,1566.03L1121.82,1565.88ZM1139.88,1596.1L1157.49,1585.82L1144.98,1564.26L1126.03,1574.04L1139.88,1596.1Z" style="fill:rgb(0,0,255);"/>
                    </g>
                    <g transform="matrix(0.780479,0,0,0.780479,86.6825,-1294.26)">
                        <g transform="matrix(7.19569e-17,0.408723,-0.388177,-2.39856e-17,1533.14,1537.16)">
                            <path d="M1947.35,1190.23L1965.29,1024.77L2105.23,939.432L2183.53,891.948L2240.24,942.192" style="fill:rgb(192,192,192);stroke:rgb(0,0,255);stroke-width:29.5px;"/>
                        </g>
                        <g transform="matrix(7.19569e-17,0.408723,-0.388177,-2.39856e-17,1513.94,1569.07)">
                            <path d="M1942.06,1192.04L1961.29,1027.16L2171.51,899.104L2228.22,949.348" style="fill:rgb(192,192,192);stroke:rgb(0,0,255);stroke-width:29.5px;"/>
                        </g>
                        <g transform="matrix(7.19569e-17,0.408723,-0.388177,-2.39856e-17,1491.6,1601.37)">
                            <path d="M1934.23,1186.12L1961.29,1027.16L2163.5,903.874L2228.86,968.281L2170.43,1001.83L2108.05,1037.97L2035.64,1079.75L2012.36,1242" style="fill:rgb(192,192,192);stroke:rgb(0,0,255);stroke-width:29.5px;"/>
                        </g>
                    </g>
                </g>
                <g transform="matrix(0.203987,0,0,0.300448,1980.89,1797.17)">
                    <g transform="matrix(9.93205e-17,0.56415,-0.535792,-3.31068e-17,1856.59,1572.73)">
                        <path d="M2171.51,899.104L2401.78,1039.08L2401.78,1319.04L2171.51,1459.02L1941.25,1319.04L1941.25,1039.08L2171.51,899.104Z" style="fill:rgb(192,192,192);"/>
                        <path d="M1920.5,1037L1920.78,1034.93L1921.25,1032.9L1921.9,1030.93L1922.72,1029.03L1923.71,1027.22L1924.86,1025.52L1926.16,1023.94L1927.6,1022.5L1929.16,1021.21L1930.83,1020.08L2161.09,880.096L2162.85,879.139L2164.7,878.362L2166.6,877.774L2168.55,877.379L2170.52,877.18L2172.51,877.18L2174.48,877.379L2176.43,877.774L2178.33,878.362L2180.17,879.139L2181.93,880.096L2412.2,1020.08L2413.87,1021.21L2415.43,1022.5L2416.86,1023.94L2418.16,1025.52L2419.31,1027.22L2420.3,1029.03L2421.13,1030.93L2421.78,1032.9L2422.25,1034.93L2422.53,1037L2422.62,1039.08L2422.62,1319.04L2422.53,1321.13L2422.25,1323.2L2421.78,1325.23L2421.13,1327.2L2420.3,1329.1L2419.31,1330.91L2418.16,1332.61L2416.86,1334.19L2415.43,1335.63L2413.87,1336.92L2412.2,1338.05L2181.93,1478.03L2180.17,1478.99L2178.33,1479.76L2176.43,1480.35L2174.48,1480.75L2172.51,1480.95L2170.52,1480.95L2168.55,1480.75L2166.6,1480.35L2164.7,1479.76L2162.85,1478.99L2161.09,1478.03L1930.83,1338.05L1929.16,1336.92L1927.6,1335.63L1926.16,1334.19L1924.86,1332.61L1923.71,1330.91L1922.72,1329.1L1921.9,1327.2L1921.25,1325.23L1920.78,1323.2L1920.5,1321.13L1920.4,1319.04L1920.4,1039.08L1920.5,1037ZM1941.25,1319.04L2171.51,1459.02L2401.78,1319.04L2401.78,1039.08L2171.51,899.104L1941.25,1039.08L1941.25,1319.04Z" style="fill:rgb(0,0,255);"/>
                    </g>
                    <g transform="matrix(7.19569e-17,0.408723,-0.388177,-2.39856e-17,1682.54,1910.25)">
                        <path d="M2171.51,899.104L2401.78,1039.08L2401.78,1319.04L2171.51,1459.02L1941.25,1319.04L1941.25,1039.08L2171.51,899.104Z" style="fill:rgb(192,192,192);"/>
                        <path d="M1912.57,1036.64L1912.85,1034.22L1913.31,1031.83L1913.96,1029.49L1914.78,1027.21L1915.77,1025L1916.93,1022.89L1918.25,1020.88L1919.71,1018.99L1921.32,1017.23L1923.05,1015.62L1924.9,1014.15L1926.86,1012.85L2157.13,872.867L2159.18,871.734L2161.31,870.777L2163.51,870.005L2165.76,869.421L2168.04,869.029L2170.35,868.833L2172.67,868.833L2174.98,869.029L2177.27,869.421L2179.52,870.005L2181.72,870.777L2183.85,871.734L2185.9,872.867L2416.16,1012.85L2418.12,1014.15L2419.97,1015.62L2421.71,1017.23L2423.31,1018.99L2424.78,1020.88L2426.1,1022.89L2427.25,1025L2428.25,1027.21L2429.07,1029.49L2429.71,1031.83L2430.18,1034.22L2430.46,1036.64L2430.55,1039.08L2430.55,1319.04L2430.46,1321.48L2430.18,1323.9L2429.71,1326.29L2429.07,1328.64L2428.25,1330.92L2427.25,1333.12L2426.1,1335.23L2424.78,1337.24L2423.31,1339.13L2421.71,1340.89L2419.97,1342.51L2418.12,1343.98L2416.16,1345.28L2185.9,1485.26L2183.85,1486.39L2181.72,1487.35L2179.52,1488.12L2177.27,1488.7L2174.98,1489.1L2172.67,1489.29L2170.35,1489.29L2168.04,1489.1L2165.76,1488.7L2163.51,1488.12L2161.31,1487.35L2159.18,1486.39L2157.13,1485.26L1926.86,1345.28L1924.9,1343.98L1923.05,1342.51L1921.32,1340.89L1919.71,1339.13L1918.25,1337.24L1916.93,1335.23L1915.77,1333.12L1914.78,1330.92L1913.96,1328.64L1913.31,1326.29L1912.85,1323.9L1912.57,1321.48L1912.48,1319.04L1912.48,1039.08L1912.57,1036.64ZM1941.25,1319.04L2171.51,1459.02L2401.78,1319.04L2401.78,1039.08L2171.51,899.104L1941.25,1039.08L1941.25,1319.04Z" style="fill:rgb(0,0,255);"/>
                    </g>
                </g>
                <g transform="matrix(0.305981,0,0,0.450671,1789.85,1333.31)">
                    <g transform="matrix(9.93205e-17,0.56415,-0.535792,-3.31068e-17,1856.59,1572.73)">
                        <path d="M2171.51,899.104L2401.78,1039.08L2401.78,1319.04L2171.51,1459.02L1941.25,1319.04L1941.25,1039.08L2171.51,899.104Z" style="fill:rgb(192,192,192);"/>
                        <path d="M1920.5,1037L1920.78,1034.93L1921.25,1032.9L1921.9,1030.93L1922.72,1029.03L1923.71,1027.22L1924.86,1025.52L1926.16,1023.94L1927.6,1022.5L1929.16,1021.21L1930.83,1020.08L2161.09,880.096L2162.85,879.139L2164.7,878.362L2166.6,877.774L2168.55,877.378L2170.52,877.18L2172.5,877.18L2174.48,877.378L2176.43,877.774L2178.33,878.362L2180.17,879.138L2181.93,880.096L2412.2,1020.08L2413.87,1021.21L2415.43,1022.5L2416.86,1023.94L2418.16,1025.52L2419.31,1027.22L2420.31,1029.03L2421.13,1030.93L2421.78,1032.9L2422.25,1034.93L2422.53,1037L2422.62,1039.08L2422.62,1319.04L2422.53,1321.13L2422.25,1323.2L2421.78,1325.23L2421.13,1327.2L2420.31,1329.1L2419.31,1330.91L2418.16,1332.61L2416.86,1334.19L2415.43,1335.63L2413.87,1336.92L2412.2,1338.05L2181.93,1478.03L2180.17,1478.99L2178.33,1479.76L2176.43,1480.35L2174.48,1480.75L2172.5,1480.95L2170.52,1480.95L2168.55,1480.75L2166.6,1480.35L2164.7,1479.76L2162.85,1478.99L2161.09,1478.03L1930.83,1338.05L1929.16,1336.92L1927.6,1335.63L1926.16,1334.19L1924.86,1332.61L1923.71,1330.91L1922.72,1329.1L1921.9,1327.2L1921.25,1325.23L1920.78,1323.2L1920.5,1321.13L1920.4,1319.04L1920.4,1039.08L1920.5,1037ZM1941.25,1319.04L2171.51,1459.02L2401.78,1319.04L2401.78,1039.08L2171.51,899.104L1941.25,1039.08L1941.25,1319.04Z" style="fill:rgb(0,0,255);"/>
                    </g>
                    <g transform="matrix(7.19569e-17,0.408723,-0.388177,-2.39856e-17,1682.54,1910.25)">
                        <path d="M2171.51,899.104L2401.78,1039.08L2401.78,1319.04L2171.51,1459.02L1941.25,1319.04L1941.25,1039.08L2171.51,899.104Z" style="fill:rgb(192,192,192);"/>
                        <path d="M1912.57,1036.65L1912.85,1034.22L1913.31,1031.83L1913.96,1029.49L1914.78,1027.21L1915.77,1025.01L1916.93,1022.89L1918.25,1020.88L1919.71,1018.99L1921.32,1017.24L1923.05,1015.62L1924.9,1014.15L1926.86,1012.85L2157.13,872.868L2159.18,871.734L2161.31,870.778L2163.51,870.005L2165.76,869.421L2168.05,869.03L2170.35,868.833L2172.67,868.833L2174.98,869.03L2177.27,869.421L2179.52,870.005L2181.72,870.778L2183.85,871.734L2185.9,872.868L2416.16,1012.85L2418.12,1014.15L2419.97,1015.62L2421.71,1017.24L2423.31,1018.99L2424.78,1020.88L2426.1,1022.89L2427.25,1025.01L2428.25,1027.21L2429.07,1029.49L2429.71,1031.83L2430.18,1034.22L2430.46,1036.65L2430.55,1039.08L2430.55,1319.04L2430.46,1321.48L2430.18,1323.9L2429.71,1326.29L2429.07,1328.64L2428.25,1330.92L2427.25,1333.12L2426.1,1335.23L2424.78,1337.24L2423.31,1339.13L2421.71,1340.89L2419.97,1342.51L2418.12,1343.98L2416.16,1345.28L2185.9,1485.26L2183.85,1486.39L2181.72,1487.35L2179.52,1488.12L2177.27,1488.7L2174.98,1489.1L2172.67,1489.29L2170.35,1489.29L2168.05,1489.1L2165.76,1488.7L2163.51,1488.12L2161.31,1487.35L2159.18,1486.39L2157.13,1485.26L1926.86,1345.28L1924.9,1343.98L1923.05,1342.51L1921.32,1340.89L1919.71,1339.13L1918.25,1337.24L1916.93,1335.23L1915.77,1333.12L1914.78,1330.92L1913.96,1328.64L1913.31,1326.29L1912.85,1323.9L1912.57,1321.48L1912.48,1319.04L1912.48,1039.08L1912.57,1036.65ZM1941.25,1319.04L2171.51,1459.02L2401.78,1319.04L2401.78,1039.08L2171.51,899.104L1941.25,1039.08L1941.25,1319.04Z" style="fill:rgb(0,0,255);"/>
                    </g>
                </g>
                <g transform="matrix(0.407974,0,0,0.600895,1746.96,830.477)">
                    <g transform="matrix(9.93205e-17,0.56415,-0.535792,-3.31068e-17,1856.59,1572.73)">
                        <path d="M2171.51,899.104L2401.78,1039.08L2401.78,1319.04L2171.51,1459.02L1941.25,1319.04L1941.25,1039.08L2171.51,899.104Z" style="fill:rgb(192,192,192);"/>
                        <path d="M1919.19,1036.87L1919.49,1034.67L1919.99,1032.51L1920.68,1030.41L1921.55,1028.39L1922.61,1026.47L1923.83,1024.66L1925.21,1022.98L1926.74,1021.45L1928.4,1020.08L1930.17,1018.88L2160.43,878.9L2162.31,877.882L2164.27,877.057L2166.29,876.432L2168.36,876.012L2170.46,875.8L2172.57,875.8L2174.67,876.012L2176.74,876.432L2178.76,877.057L2180.72,877.882L2182.59,878.9L2412.86,1018.88L2414.63,1020.08L2416.29,1021.45L2417.81,1022.98L2419.19,1024.66L2420.42,1026.47L2421.47,1028.39L2422.35,1030.41L2423.04,1032.51L2423.53,1034.67L2423.83,1036.87L2423.93,1039.08L2423.93,1319.04L2423.83,1321.26L2423.53,1323.46L2423.04,1325.62L2422.35,1327.71L2421.47,1329.73L2420.42,1331.66L2419.19,1333.46L2417.81,1335.14L2416.29,1336.67L2414.63,1338.05L2412.86,1339.25L2182.59,1479.23L2180.72,1480.24L2178.76,1481.07L2176.74,1481.69L2174.67,1482.12L2172.57,1482.33L2170.46,1482.33L2168.36,1482.12L2166.29,1481.69L2164.27,1481.07L2162.31,1480.24L2160.43,1479.23L1930.17,1339.25L1928.4,1338.05L1926.74,1336.67L1925.21,1335.14L1923.83,1333.46L1922.61,1331.66L1921.55,1329.73L1920.68,1327.71L1919.99,1325.62L1919.49,1323.46L1919.19,1321.26L1919.09,1319.04L1919.09,1039.08L1919.19,1036.87ZM1941.25,1319.04L2171.51,1459.02L2401.78,1319.04L2401.78,1039.08L2171.51,899.104L1941.25,1039.08L1941.25,1319.04Z" style="fill:rgb(0,0,255);"/>
                    </g>
                    <g transform="matrix(7.19569e-17,0.408723,-0.388177,-2.39856e-17,1682.54,1910.25)">
                        <path d="M2171.51,899.104L2401.78,1039.08L2401.78,1319.04L2171.51,1459.02L1941.25,1319.04L1941.25,1039.08L2171.51,899.104Z" style="fill:rgb(187,189,192);"/>
                        <path d="M1910.76,1036.49L1911.06,1033.92L1911.55,1031.38L1912.24,1028.89L1913.11,1026.46L1914.17,1024.12L1915.4,1021.87L1916.8,1019.74L1918.36,1017.73L1920.06,1015.86L1921.91,1014.14L1923.88,1012.58L1925.96,1011.2L2156.22,871.216L2158.4,870.011L2160.67,868.995L2163,868.173L2165.39,867.553L2167.83,867.137L2170.28,866.928L2172.74,866.928L2175.2,867.137L2177.63,867.553L2180.02,868.173L2182.36,868.995L2184.62,870.011L2186.8,871.216L2417.07,1011.2L2419.15,1012.58L2421.12,1014.14L2422.96,1015.86L2424.67,1017.73L2426.23,1019.74L2427.63,1021.87L2428.86,1024.12L2429.91,1026.46L2430.79,1028.89L2431.47,1031.38L2431.96,1033.92L2432.26,1036.49L2432.36,1039.08L2432.36,1319.04L2432.26,1321.63L2431.96,1324.21L2431.47,1326.75L2430.79,1329.24L2429.91,1331.66L2428.86,1334.01L2427.63,1336.25L2426.23,1338.39L2424.67,1340.4L2422.96,1342.27L2421.12,1343.99L2419.15,1345.54L2417.07,1346.93L2186.8,1486.91L2184.62,1488.12L2182.36,1489.13L2180.02,1489.95L2177.63,1490.57L2175.2,1490.99L2172.74,1491.2L2170.28,1491.2L2167.83,1490.99L2165.39,1490.57L2163,1489.95L2160.67,1489.13L2158.4,1488.12L2156.22,1486.91L1925.96,1346.93L1923.88,1345.54L1921.91,1343.99L1920.06,1342.27L1918.36,1340.4L1916.8,1338.39L1915.4,1336.25L1914.17,1334.01L1913.11,1331.66L1912.24,1329.24L1911.55,1326.75L1911.06,1324.21L1910.76,1321.63L1910.66,1319.04L1910.66,1039.08L1910.76,1036.49ZM1941.25,1319.04L2171.51,1459.02L2401.78,1319.04L2401.78,1039.08L2171.51,899.104L1941.25,1039.08L1941.25,1319.04Z" style="fill:rgb(0,0,255);"/>
                    </g>
                </g>
                <g transform="matrix(0.407974,0,0,0.600895,1746.96,830.477)">
                    <g transform="matrix(9.93205e-17,0.56415,-0.535792,-3.31068e-17,1856.59,1572.73)">
                        <path d="M2171.51,899.104L2401.78,1039.08L2401.78,1319.04L2171.51,1459.02L1941.25,1319.04L1941.25,1039.08L2171.51,899.104Z" style="fill:rgb(192,192,192);"/>
                        <path d="M1920.5,1037L1920.78,1034.93L1921.25,1032.9L1921.9,1030.93L1922.72,1029.03L1923.71,1027.22L1924.86,1025.52L1926.16,1023.94L1927.6,1022.5L1929.16,1021.21L1930.83,1020.08L2161.09,880.096L2162.85,879.139L2164.7,878.363L2166.6,877.774L2168.55,877.379L2170.52,877.18L2172.51,877.18L2174.48,877.379L2176.43,877.774L2178.33,878.363L2180.17,879.139L2181.94,880.096L2412.2,1020.08L2413.87,1021.21L2415.43,1022.5L2416.86,1023.94L2418.16,1025.52L2419.31,1027.22L2420.3,1029.03L2421.13,1030.93L2421.78,1032.9L2422.25,1034.93L2422.53,1037L2422.62,1039.08L2422.62,1319.04L2422.53,1321.13L2422.25,1323.2L2421.78,1325.23L2421.13,1327.2L2420.3,1329.1L2419.31,1330.91L2418.16,1332.61L2416.86,1334.19L2415.43,1335.63L2413.87,1336.92L2412.2,1338.05L2181.94,1478.03L2180.17,1478.99L2178.33,1479.76L2176.43,1480.35L2174.48,1480.75L2172.51,1480.95L2170.52,1480.95L2168.55,1480.75L2166.6,1480.35L2164.7,1479.76L2162.85,1478.99L2161.09,1478.03L1930.83,1338.05L1929.16,1336.92L1927.6,1335.63L1926.16,1334.19L1924.86,1332.61L1923.71,1330.91L1922.72,1329.1L1921.9,1327.2L1921.25,1325.23L1920.78,1323.2L1920.5,1321.13L1920.4,1319.04L1920.4,1039.08L1920.5,1037ZM1941.25,1319.04L2171.51,1459.02L2401.78,1319.04L2401.78,1039.08L2171.51,899.104L1941.25,1039.08L1941.25,1319.04Z" style="fill:rgb(0,0,255);"/>
                    </g>
                    <g transform="matrix(7.19569e-17,0.408723,-0.388177,-2.39856e-17,1682.54,1910.25)">
                        <path d="M2171.51,899.104L2401.78,1039.08L2401.78,1319.04L2171.51,1459.02L1941.25,1319.04L1941.25,1039.08L2171.51,899.104Z" style="fill:rgb(187,189,192);"/>
                        <path d="M1912.57,1036.65L1912.85,1034.22L1913.31,1031.83L1913.96,1029.49L1914.78,1027.21L1915.77,1025.01L1916.93,1022.89L1918.25,1020.88L1919.71,1018.99L1921.32,1017.24L1923.05,1015.62L1924.9,1014.15L1926.86,1012.85L2157.13,872.868L2159.18,871.734L2161.31,870.778L2163.51,870.005L2165.76,869.421L2168.05,869.03L2170.35,868.834L2172.67,868.834L2174.98,869.03L2177.27,869.421L2179.52,870.005L2181.72,870.778L2183.85,871.734L2185.9,872.868L2416.16,1012.85L2418.12,1014.15L2419.97,1015.62L2421.71,1017.24L2423.31,1018.99L2424.78,1020.88L2426.1,1022.89L2427.25,1025.01L2428.25,1027.21L2429.07,1029.49L2429.71,1031.83L2430.18,1034.22L2430.46,1036.65L2430.55,1039.08L2430.55,1319.04L2430.46,1321.48L2430.18,1323.9L2429.71,1326.29L2429.07,1328.64L2428.25,1330.92L2427.25,1333.12L2426.1,1335.24L2424.78,1337.24L2423.31,1339.13L2421.71,1340.89L2419.97,1342.51L2418.12,1343.98L2416.16,1345.28L2185.9,1485.26L2183.85,1486.39L2181.72,1487.35L2179.52,1488.12L2177.27,1488.7L2174.98,1489.1L2172.67,1489.29L2170.35,1489.29L2168.05,1489.1L2165.76,1488.7L2163.51,1488.12L2161.31,1487.35L2159.18,1486.39L2157.13,1485.26L1926.86,1345.28L1924.9,1343.98L1923.05,1342.51L1921.32,1340.89L1919.71,1339.13L1918.25,1337.24L1916.93,1335.24L1915.77,1333.12L1914.78,1330.92L1913.96,1328.64L1913.31,1326.29L1912.85,1323.9L1912.57,1321.48L1912.48,1319.04L1912.48,1039.08L1912.57,1036.65ZM1941.25,1319.04L2171.51,1459.02L2401.78,1319.04L2401.78,1039.08L2171.51,899.104L1941.25,1039.08L1941.25,1319.04Z" style="fill:rgb(0,0,255);"/>
                    </g>
                </g>
            </g>
        </g>
    </g>
</svg>
