<?xml version="1.0" encoding="UTF-8" standalone="no"?>
<!DOCTYPE svg PUBLIC "-//W3C//DTD SVG 1.1//EN" "http://www.w3.org/Graphics/SVG/1.1/DTD/svg11.dtd">
<svg width="100%" height="100%" viewBox="0 0 623 545" version="1.1" xmlns="http://www.w3.org/2000/svg" xmlnsXlink="http://www.w3.org/1999/xlink" xmlSpace="preserve" xmlnsSerif="http://www.serif.com/" style="fill-rule:evenodd;clip-rule:evenodd;stroke-linecap:round;stroke-linejoin:round;stroke-miterlimit:1.5;">
    <g transform="matrix(1,0,0,1,-2234.94,-2528.8)">
        <g transform="matrix(1.73695,0,0,1.17929,0,0)">
            <g transform="matrix(0.575723,0,0,0.847968,826.865,1725.49)">
                <g transform="matrix(1,0,0,1,-120.264,-1034.06)">
                    <path d="M1066.72,1968.61L925.237,1644.32L1000.41,1534.25L1102.33,1538.28L1145.74,1612.97L1068.63,1699.63L1030.32,1699.27L1103.44,1813.95" style="fill:rgb(192,192,192);stroke:rgb(0,0,255);stroke-width:12.5px;"/>
                </g>
                <g transform="matrix(1,0,0,1,-120.264,-1034.06)">
                    <path d="M1126.03,1574.04L1144.98,1564.26L1157.49,1585.82L1139.88,1596.1L1126.03,1574.04Z" style="fill:rgb(192,192,192);"/>
                    <path d="M1145.24,1555.93L1145.57,1555.94L1145.89,1555.97L1146.21,1556.01L1146.53,1556.07L1146.85,1556.13L1147.17,1556.21L1147.48,1556.31L1147.79,1556.41L1148.09,1556.52L1148.39,1556.65L1148.68,1556.79L1148.97,1556.94L1149.25,1557.1L1149.53,1557.27L1149.8,1557.45L1150.06,1557.65L1150.32,1557.85L1150.56,1558.07L1150.8,1558.29L1151.03,1558.52L1151.25,1558.76L1151.46,1559.01L1151.65,1559.26L1151.85,1559.53L1152.02,1559.8L1152.19,1560.08L1164.69,1581.64L1164.85,1581.92L1164.99,1582.2L1165.13,1582.5L1165.25,1582.79L1165.36,1583.09L1165.46,1583.39L1165.54,1583.7L1165.62,1584.01L1165.68,1584.32L1165.73,1584.63L1165.77,1584.95L1165.8,1585.27L1165.82,1585.59L1165.82,1585.9L1165.81,1586.22L1165.79,1586.54L1165.75,1586.86L1165.71,1587.17L1165.65,1587.49L1165.58,1587.8L1165.5,1588.11L1165.41,1588.41L1165.3,1588.71L1165.18,1589.01L1165.06,1589.3L1164.92,1589.59L1164.77,1589.87L1164.61,1590.14L1164.44,1590.41L1164.26,1590.68L1164.07,1590.93L1163.87,1591.18L1163.66,1591.42L1163.44,1591.65L1163.21,1591.88L1162.98,1592.09L1162.73,1592.3L1162.48,1592.49L1162.22,1592.68L1161.96,1592.85L1161.69,1593.02L1144.08,1603.29L1143.8,1603.45L1143.52,1603.59L1143.23,1603.73L1142.93,1603.85L1142.63,1603.96L1142.33,1604.06L1142.02,1604.15L1141.71,1604.23L1141.39,1604.29L1141.08,1604.34L1140.76,1604.38L1140.44,1604.41L1140.12,1604.42L1139.8,1604.43L1139.48,1604.42L1139.16,1604.4L1138.84,1604.36L1138.52,1604.32L1138.21,1604.26L1137.9,1604.19L1137.59,1604.11L1137.28,1604.01L1136.98,1603.9L1136.68,1603.79L1136.39,1603.66L1136.1,1603.52L1135.82,1603.37L1135.54,1603.21L1135.27,1603.03L1135.01,1602.85L1134.75,1602.66L1134.5,1602.46L1134.26,1602.25L1134.03,1602.02L1133.8,1601.8L1133.59,1601.56L1133.38,1601.31L1133.19,1601.06L1133,1600.8L1132.83,1600.53L1118.97,1578.47L1118.81,1578.2L1118.65,1577.92L1118.51,1577.63L1118.38,1577.34L1118.25,1577.04L1118.14,1576.74L1118.05,1576.43L1117.96,1576.13L1117.89,1575.81L1117.82,1575.5L1117.77,1575.18L1117.74,1574.87L1117.71,1574.55L1117.7,1574.22L1117.7,1573.9L1117.71,1573.58L1117.73,1573.26L1117.77,1572.94L1117.82,1572.63L1117.88,1572.31L1117.95,1572L1118.03,1571.69L1118.13,1571.38L1118.24,1571.08L1118.36,1570.79L1118.49,1570.49L1118.63,1570.2L1118.78,1569.92L1118.95,1569.65L1119.12,1569.38L1119.31,1569.12L1119.5,1568.86L1119.7,1568.61L1119.92,1568.37L1120.14,1568.14L1120.37,1567.92L1120.61,1567.71L1120.86,1567.5L1121.12,1567.31L1121.38,1567.13L1121.65,1566.95L1121.92,1566.79L1122.21,1566.64L1141.16,1556.85L1141.45,1556.71L1141.75,1556.58L1142.05,1556.46L1142.36,1556.35L1142.67,1556.25L1142.98,1556.17L1143.3,1556.1L1143.62,1556.04L1143.94,1555.99L1144.27,1555.95L1144.59,1555.93L1144.91,1555.92L1145.24,1555.93ZM1126.03,1574.04L1139.88,1596.1L1157.49,1585.82L1144.98,1564.26L1126.03,1574.04Z" style="fill:rgb(0,0,255);"/>
                </g>
                <g transform="matrix(0.780479,0,0,0.780479,86.6825,-1294.26)">
                    <g transform="matrix(7.19569e-17,0.408723,-0.388177,-2.39856e-17,1533.14,1537.16)">
                        <path d="M1933.06,1193.16L1941.25,1039.08L2171.51,899.104L2236.24,944.577" style="fill:rgb(192,192,192);stroke:rgb(0,0,255);stroke-width:26.79px;"/>
                    </g>
                    <g transform="matrix(7.19569e-17,0.408723,-0.388177,-2.39856e-17,1516.46,1561.25)">
                        <path d="M1942.58,1202.87L1941.25,1039.08L2171.51,899.104L2236.24,944.577" style="fill:rgb(192,192,192);stroke:rgb(0,0,255);stroke-width:26.79px;"/>
                    </g>
                    <g transform="matrix(7.19569e-17,0.408723,-0.388177,-2.39856e-17,1500.43,1585.64)">
                        <path d="M1940.5,1187.96L1941.25,1039.08L2171.51,899.104L2236.24,944.577L2157.76,990.051L2095.39,1026.2L2010.95,1075.13L2008.93,1208.02" style="fill:rgb(192,192,192);stroke:rgb(0,0,255);stroke-width:26.79px;"/>
                    </g>
                </g>
            </g>
            <g transform="matrix(0.29956,0,0,0.441214,1158.15,1309.19)">
                <g transform="matrix(9.93205e-17,0.56415,-0.535792,-3.31068e-17,1856.59,1572.73)">
                    <path d="M2171.51,899.104L2401.78,1039.08L2401.78,1319.04L2171.51,1459.02L1941.25,1319.04L1941.25,1039.08L2171.51,899.104Z" style="fill:rgb(192,192,192);"/>
                    <path d="M1919.19,1036.87L1919.49,1034.67L1919.99,1032.51L1920.68,1030.41L1921.55,1028.39L1922.61,1026.47L1923.83,1024.66L1925.21,1022.98L1926.74,1021.45L1928.4,1020.08L1930.17,1018.88L2160.43,878.899L2162.31,877.882L2164.27,877.057L2166.29,876.431L2168.36,876.011L2170.46,875.8L2172.57,875.8L2174.67,876.011L2176.74,876.431L2178.76,877.057L2180.72,877.882L2182.59,878.899L2412.86,1018.88L2414.63,1020.08L2416.29,1021.45L2417.81,1022.98L2419.19,1024.66L2420.42,1026.47L2421.47,1028.39L2422.35,1030.41L2423.04,1032.51L2423.53,1034.67L2423.83,1036.87L2423.93,1039.08L2423.93,1319.04L2423.83,1321.26L2423.53,1323.46L2423.04,1325.62L2422.35,1327.71L2421.47,1329.73L2420.42,1331.66L2419.19,1333.46L2417.81,1335.14L2416.29,1336.67L2414.63,1338.05L2412.86,1339.25L2182.59,1479.23L2180.72,1480.24L2178.76,1481.07L2176.74,1481.69L2174.67,1482.12L2172.57,1482.33L2170.46,1482.33L2168.36,1482.12L2166.29,1481.69L2164.27,1481.07L2162.31,1480.24L2160.43,1479.23L1930.17,1339.25L1928.4,1338.05L1926.74,1336.67L1925.21,1335.14L1923.83,1333.46L1922.61,1331.66L1921.55,1329.73L1920.68,1327.71L1919.99,1325.62L1919.49,1323.46L1919.19,1321.26L1919.09,1319.04L1919.09,1039.08L1919.19,1036.87ZM1941.25,1319.04L2171.51,1459.02L2401.78,1319.04L2401.78,1039.08L2171.51,899.104L1941.25,1039.08L1941.25,1319.04Z" style="fill:rgb(0,0,255);"/>
                </g>
                <g transform="matrix(7.19569e-17,0.408723,-0.388177,-2.39856e-17,1682.54,1910.25)">
                    <path d="M2171.51,899.104L2401.78,1039.08L2401.78,1319.04L2171.51,1459.02L1941.25,1319.04L1941.25,1039.08L2171.51,899.104Z" style="fill:rgb(192,192,192);"/>
                    <path d="M1910.76,1036.49L1911.06,1033.92L1911.55,1031.38L1912.24,1028.89L1913.11,1026.46L1914.17,1024.12L1915.4,1021.87L1916.8,1019.74L1918.36,1017.73L1920.06,1015.86L1921.91,1014.14L1923.88,1012.58L1925.96,1011.2L2156.22,871.216L2158.4,870.011L2160.67,868.995L2163,868.174L2165.39,867.553L2167.83,867.137L2170.28,866.928L2172.74,866.928L2175.2,867.137L2177.63,867.553L2180.02,868.174L2182.36,868.995L2184.62,870.011L2186.8,871.216L2417.07,1011.2L2419.15,1012.58L2421.12,1014.14L2422.96,1015.86L2424.67,1017.73L2426.23,1019.74L2427.63,1021.87L2428.86,1024.12L2429.91,1026.46L2430.79,1028.89L2431.47,1031.38L2431.96,1033.92L2432.26,1036.49L2432.36,1039.08L2432.36,1319.04L2432.26,1321.63L2431.96,1324.21L2431.47,1326.75L2430.79,1329.24L2429.91,1331.66L2428.86,1334.01L2427.63,1336.25L2426.23,1338.39L2424.67,1340.4L2422.96,1342.27L2421.12,1343.99L2419.15,1345.55L2417.07,1346.93L2186.8,1486.91L2184.62,1488.12L2182.36,1489.13L2180.02,1489.95L2177.63,1490.57L2175.2,1490.99L2172.74,1491.2L2170.28,1491.2L2167.83,1490.99L2165.39,1490.57L2163,1489.95L2160.67,1489.13L2158.4,1488.12L2156.22,1486.91L1925.96,1346.93L1923.88,1345.55L1921.91,1343.99L1920.06,1342.27L1918.36,1340.4L1916.8,1338.39L1915.4,1336.25L1914.17,1334.01L1913.11,1331.66L1912.24,1329.24L1911.55,1326.75L1911.06,1324.21L1910.76,1321.63L1910.66,1319.04L1910.66,1039.08L1910.76,1036.49ZM1941.25,1319.04L2171.51,1459.02L2401.78,1319.04L2401.78,1039.08L2171.51,899.104L1941.25,1039.08L1941.25,1319.04Z" style="fill:rgb(0,0,255);"/>
                </g>
            </g>
            <g transform="matrix(0.44934,0,0,0.661821,876.77,628.001)">
                <g transform="matrix(9.93205e-17,0.56415,-0.535792,-3.31068e-17,1856.59,1572.73)">
                    <path d="M2171.51,899.104L2401.78,1039.08L2401.78,1319.04L2171.51,1459.02L1941.25,1319.04L1941.25,1039.08L2171.51,899.104Z" style="fill:rgb(192,192,192);"/>
                    <path d="M1919.19,1036.87L1919.49,1034.67L1919.99,1032.51L1920.68,1030.41L1921.55,1028.39L1922.61,1026.47L1923.83,1024.66L1925.21,1022.98L1926.74,1021.45L1928.4,1020.08L1930.17,1018.88L2160.43,878.899L2162.31,877.882L2164.27,877.057L2166.29,876.431L2168.36,876.011L2170.46,875.8L2172.57,875.8L2174.67,876.011L2176.74,876.431L2178.76,877.057L2180.72,877.882L2182.59,878.899L2412.86,1018.88L2414.63,1020.08L2416.29,1021.45L2417.81,1022.98L2419.19,1024.66L2420.42,1026.47L2421.47,1028.39L2422.35,1030.41L2423.04,1032.51L2423.53,1034.67L2423.83,1036.87L2423.93,1039.08L2423.93,1319.04L2423.83,1321.26L2423.53,1323.46L2423.04,1325.62L2422.35,1327.71L2421.47,1329.73L2420.42,1331.66L2419.19,1333.46L2417.81,1335.14L2416.29,1336.67L2414.63,1338.05L2412.86,1339.25L2182.59,1479.23L2180.72,1480.24L2178.76,1481.07L2176.74,1481.69L2174.67,1482.12L2172.57,1482.33L2170.46,1482.33L2168.36,1482.12L2166.29,1481.69L2164.27,1481.07L2162.31,1480.24L2160.43,1479.23L1930.17,1339.25L1928.4,1338.05L1926.74,1336.67L1925.21,1335.14L1923.83,1333.46L1922.61,1331.66L1921.55,1329.73L1920.68,1327.71L1919.99,1325.62L1919.49,1323.46L1919.19,1321.26L1919.09,1319.04L1919.09,1039.08L1919.19,1036.87ZM1941.25,1319.04L2171.51,1459.02L2401.78,1319.04L2401.78,1039.08L2171.51,899.104L1941.25,1039.08L1941.25,1319.04Z" style="fill:rgb(0,0,255);"/>
                </g>
                <g transform="matrix(7.19569e-17,0.408723,-0.388177,-2.39856e-17,1682.54,1910.25)">
                    <path d="M2171.51,899.104L2401.78,1039.08L2401.78,1319.04L2171.51,1459.02L1941.25,1319.04L1941.25,1039.08L2171.51,899.104Z" style="fill:rgb(192,192,192);"/>
                    <path d="M1910.77,1036.49L1911.06,1033.92L1911.55,1031.38L1912.24,1028.89L1913.11,1026.46L1914.17,1024.12L1915.4,1021.87L1916.8,1019.74L1918.36,1017.73L1920.06,1015.86L1921.91,1014.14L1923.88,1012.58L1925.96,1011.2L2156.22,871.216L2158.4,870.011L2160.67,868.994L2163,868.173L2165.4,867.553L2167.83,867.137L2170.28,866.928L2172.74,866.928L2175.2,867.137L2177.63,867.553L2180.02,868.173L2182.36,868.994L2184.62,870.011L2186.8,871.216L2417.07,1011.2L2419.15,1012.58L2421.12,1014.14L2422.96,1015.86L2424.67,1017.73L2426.23,1019.74L2427.63,1021.87L2428.86,1024.12L2429.91,1026.46L2430.79,1028.89L2431.47,1031.38L2431.96,1033.92L2432.26,1036.49L2432.36,1039.08L2432.36,1319.04L2432.26,1321.63L2431.96,1324.21L2431.47,1326.75L2430.79,1329.24L2429.91,1331.66L2428.86,1334.01L2427.63,1336.25L2426.23,1338.39L2424.67,1340.4L2422.96,1342.27L2421.12,1343.99L2419.15,1345.54L2417.07,1346.93L2186.8,1486.91L2184.62,1488.12L2182.36,1489.13L2180.02,1489.95L2177.63,1490.57L2175.2,1490.99L2172.74,1491.2L2170.28,1491.2L2167.83,1490.99L2165.4,1490.57L2163,1489.95L2160.67,1489.13L2158.4,1488.12L2156.22,1486.91L1925.96,1346.93L1923.88,1345.54L1921.91,1343.99L1920.06,1342.27L1918.36,1340.4L1916.8,1338.39L1915.4,1336.25L1914.17,1334.01L1913.11,1331.66L1912.24,1329.24L1911.55,1326.75L1911.06,1324.21L1910.77,1321.63L1910.66,1319.04L1910.66,1039.08L1910.77,1036.49ZM1941.25,1319.04L2171.51,1459.02L2401.78,1319.04L2401.78,1039.08L2171.51,899.104L1941.25,1039.08L1941.25,1319.04Z" style="fill:rgb(0,0,255);"/>
                </g>
            </g>
            <g transform="matrix(0.599119,0,0,0.882428,813.783,-110.414)">
                <g transform="matrix(9.93205e-17,0.56415,-0.535792,-3.31068e-17,1856.59,1572.73)">
                    <path d="M2171.51,899.104L2401.78,1039.08L2401.78,1319.04L2171.51,1459.02L1941.25,1319.04L1941.25,1039.08L2171.51,899.104Z" style="fill:rgb(192,192,192);"/>
                    <path d="M1919.85,1033.05L1922.06,1027.42L1925.58,1022.59L1930.17,1018.88L2160.43,878.899L2165.78,876.569L2171.51,875.774L2177.25,876.569L2182.59,878.899L2412.86,1018.88L2417.45,1022.59L2420.97,1027.42L2423.18,1033.05L2423.93,1039.08L2423.93,1319.04L2423.18,1325.08L2420.97,1330.71L2417.45,1335.54L2412.86,1339.25L2182.59,1479.23L2177.25,1481.56L2171.51,1482.35L2165.78,1481.56L2160.43,1479.23L1930.17,1339.25L1925.58,1335.54L1922.06,1330.71L1919.85,1325.08L1919.09,1319.04L1919.09,1039.08L1919.85,1033.05ZM1941.25,1319.04L2171.51,1459.02L2401.78,1319.04L2401.78,1039.08L2171.51,899.104L1941.25,1039.08L1941.25,1319.04Z" style="fill:rgb(0,0,255);"/>
                </g>
                <g transform="matrix(7.19569e-17,0.408723,-0.388177,-2.39856e-17,1682.54,1910.25)">
                    <path d="M2171.51,899.104L2401.78,1039.08L2401.78,1319.04L2171.51,1459.02L1941.25,1319.04L1941.25,1039.08L2171.51,899.104Z" style="fill:rgb(187,189,192);"/>
                    <path d="M1910.76,1036.49L1911.06,1033.92L1911.55,1031.38L1912.24,1028.89L1913.11,1026.46L1914.17,1024.12L1915.4,1021.87L1916.8,1019.74L1918.36,1017.73L1920.06,1015.86L1921.91,1014.14L1923.88,1012.58L1925.96,1011.2L2156.22,871.216L2158.4,870.011L2160.67,868.995L2163,868.173L2165.4,867.553L2167.83,867.137L2170.28,866.928L2172.74,866.928L2175.2,867.137L2177.63,867.553L2180.02,868.173L2182.36,868.995L2184.62,870.011L2186.8,871.216L2417.07,1011.2L2419.15,1012.58L2421.12,1014.14L2422.96,1015.86L2424.67,1017.73L2426.23,1019.74L2427.63,1021.87L2428.86,1024.12L2429.91,1026.46L2430.79,1028.89L2431.47,1031.38L2431.96,1033.92L2432.26,1036.49L2432.36,1039.08L2432.36,1319.04L2432.26,1321.63L2431.96,1324.21L2431.47,1326.75L2430.79,1329.24L2429.91,1331.66L2428.86,1334.01L2427.63,1336.25L2426.23,1338.39L2424.67,1340.4L2422.96,1342.27L2421.12,1343.99L2419.15,1345.54L2417.07,1346.93L2186.8,1486.91L2184.62,1488.12L2182.36,1489.13L2180.02,1489.95L2177.63,1490.57L2175.2,1490.99L2172.74,1491.2L2170.28,1491.2L2167.83,1490.99L2165.4,1490.57L2163,1489.95L2160.67,1489.13L2158.4,1488.12L2156.22,1486.91L1925.96,1346.93L1923.88,1345.54L1921.91,1343.99L1920.06,1342.27L1918.36,1340.4L1916.8,1338.39L1915.4,1336.25L1914.17,1334.01L1913.11,1331.66L1912.24,1329.24L1911.55,1326.75L1911.06,1324.21L1910.76,1321.63L1910.66,1319.04L1910.66,1039.08L1910.76,1036.49ZM1941.25,1319.04L2171.51,1459.02L2401.78,1319.04L2401.78,1039.08L2171.51,899.104L1941.25,1039.08L1941.25,1319.04Z" style="fill:rgb(0,0,255);"/>
                </g>
            </g>
            <g transform="matrix(0.599119,0,0,0.882428,813.783,-110.414)">
                <g transform="matrix(9.93205e-17,0.56415,-0.535792,-3.31068e-17,1856.59,1572.73)">
                    <path d="M2171.51,899.104L2401.78,1039.08L2401.78,1319.04L2171.51,1459.02L1941.25,1319.04L1941.25,1039.08L2171.51,899.104Z" style="fill:rgb(192,192,192);"/>
                    <path d="M1919.85,1033.05L1922.06,1027.42L1925.58,1022.59L1930.17,1018.88L2160.43,878.899L2165.78,876.569L2171.51,875.774L2177.25,876.569L2182.59,878.899L2412.86,1018.88L2417.45,1022.59L2420.97,1027.42L2423.18,1033.05L2423.93,1039.08L2423.93,1319.04L2423.18,1325.08L2420.97,1330.71L2417.45,1335.54L2412.86,1339.25L2182.59,1479.23L2177.25,1481.56L2171.51,1482.35L2165.78,1481.56L2160.43,1479.23L1930.17,1339.25L1925.58,1335.54L1922.06,1330.71L1919.85,1325.08L1919.09,1319.04L1919.09,1039.08L1919.85,1033.05ZM1941.25,1319.04L2171.51,1459.02L2401.78,1319.04L2401.78,1039.08L2171.51,899.104L1941.25,1039.08L1941.25,1319.04Z" style="fill:rgb(0,0,255);"/>
                </g>
                <g transform="matrix(7.19569e-17,0.408723,-0.388177,-2.39856e-17,1682.54,1910.25)">
                    <path d="M2171.51,899.104L2401.78,1039.08L2401.78,1319.04L2171.51,1459.02L1941.25,1319.04L1941.25,1039.08L2171.51,899.104Z" style="fill:rgb(187,189,192);"/>
                    <path d="M1910.76,1036.49L1911.06,1033.92L1911.55,1031.38L1912.24,1028.89L1913.11,1026.46L1914.17,1024.12L1915.4,1021.87L1916.8,1019.74L1918.36,1017.73L1920.06,1015.86L1921.91,1014.14L1923.88,1012.58L1925.96,1011.2L2156.22,871.216L2158.4,870.011L2160.67,868.995L2163,868.173L2165.4,867.553L2167.83,867.137L2170.28,866.928L2172.74,866.928L2175.2,867.137L2177.63,867.553L2180.02,868.173L2182.36,868.995L2184.62,870.011L2186.8,871.216L2417.07,1011.2L2419.15,1012.58L2421.12,1014.14L2422.96,1015.86L2424.67,1017.73L2426.23,1019.74L2427.63,1021.87L2428.86,1024.12L2429.91,1026.46L2430.79,1028.89L2431.47,1031.38L2431.96,1033.92L2432.26,1036.49L2432.36,1039.08L2432.36,1319.04L2432.26,1321.63L2431.96,1324.21L2431.47,1326.75L2430.79,1329.24L2429.91,1331.66L2428.86,1334.01L2427.63,1336.25L2426.23,1338.39L2424.67,1340.4L2422.96,1342.27L2421.12,1343.99L2419.15,1345.54L2417.07,1346.93L2186.8,1486.91L2184.62,1488.12L2182.36,1489.13L2180.02,1489.95L2177.63,1490.57L2175.2,1490.99L2172.74,1491.2L2170.28,1491.2L2167.83,1490.99L2165.4,1490.57L2163,1489.95L2160.67,1489.13L2158.4,1488.12L2156.22,1486.91L1925.96,1346.93L1923.88,1345.54L1921.91,1343.99L1920.06,1342.27L1918.36,1340.4L1916.8,1338.39L1915.4,1336.25L1914.17,1334.01L1913.11,1331.66L1912.24,1329.24L1911.55,1326.75L1911.06,1324.21L1910.76,1321.63L1910.66,1319.04L1910.66,1039.08L1910.76,1036.49ZM1941.25,1319.04L2171.51,1459.02L2401.78,1319.04L2401.78,1039.08L2171.51,899.104L1941.25,1039.08L1941.25,1319.04Z" style="fill:rgb(0,0,255);"/>
                </g>
            </g>
        </g>
    </g>
</svg>
