<?xml version="1.0" encoding="UTF-8" standalone="no"?>
<!DOCTYPE svg PUBLIC "-//W3C//DTD SVG 1.1//EN" "http://www.w3.org/Graphics/SVG/1.1/DTD/svg11.dtd">
<svg width="100%" height="100%" viewBox="0 0 506 441" version="1.1" xmlns="http://www.w3.org/2000/svg" xmlnsXlink="http://www.w3.org/1999/xlink" xmlSpace="preserve" xmlnsSerif="http://www.serif.com/" style="fill-rule:evenodd;clip-rule:evenodd;stroke-linejoin:round;stroke-miterlimit:1.41421;">
    <g transform="matrix(1,0,0,1,-1855.72,-1016.15)">
        <g transform="matrix(1.73695,0,0,1.17929,0,0)">
            <g transform="matrix(0.575723,0,0,0.847968,520.363,-522.47)">
                <g>
                    <g transform="matrix(0.520319,0,0,0.520319,611.473,543.12)">
                        <g transform="matrix(9.93205e-17,0.56415,-0.535792,-3.31068e-17,1856.59,1572.73)">
                            <path d="M2171.51,899.104L2401.78,1039.08L2401.78,1319.04L2171.51,1459.02L1941.25,1319.04L1941.25,1039.08L2171.51,899.104Z" style="fill:rgb(192,192,192);"/>
                            <path d="M1919.19,1036.87L1919.49,1034.67L1919.99,1032.51L1920.68,1030.41L1921.55,1028.39L1922.61,1026.47L1923.83,1024.66L1925.21,1022.98L1926.74,1021.45L1928.4,1020.08L1930.17,1018.88L2160.43,878.899L2162.31,877.882L2164.27,877.057L2166.29,876.431L2168.36,876.011L2170.46,875.8L2172.57,875.8L2174.67,876.011L2176.74,876.431L2178.76,877.057L2180.72,877.882L2182.59,878.899L2412.86,1018.88L2414.63,1020.08L2416.29,1021.45L2417.81,1022.98L2419.19,1024.66L2420.42,1026.47L2421.47,1028.39L2422.35,1030.41L2423.04,1032.51L2423.53,1034.67L2423.83,1036.87L2423.93,1039.08L2423.93,1319.04L2423.83,1321.26L2423.53,1323.46L2423.04,1325.62L2422.35,1327.71L2421.47,1329.73L2420.42,1331.66L2419.19,1333.46L2417.81,1335.14L2416.29,1336.67L2414.63,1338.05L2412.86,1339.25L2182.59,1479.23L2180.72,1480.24L2178.76,1481.07L2176.74,1481.69L2174.67,1482.12L2172.57,1482.33L2170.46,1482.33L2168.36,1482.12L2166.29,1481.69L2164.27,1481.07L2162.31,1480.24L2160.43,1479.23L1930.17,1339.25L1928.4,1338.05L1926.74,1336.67L1925.21,1335.14L1923.83,1333.46L1922.61,1331.66L1921.55,1329.73L1920.68,1327.71L1919.99,1325.62L1919.49,1323.46L1919.19,1321.26L1919.09,1319.04L1919.09,1039.08L1919.19,1036.87ZM1941.25,1319.04L2171.51,1459.02L2401.78,1319.04L2401.78,1039.08L2171.51,899.104L1941.25,1039.08L1941.25,1319.04Z" style="fill:rgb(0,0,255);"/>
                        </g>
                        <g transform="matrix(7.19569e-17,0.408723,-0.388177,-2.39856e-17,1682.54,1910.25)">
                            <path d="M2171.51,899.104L2401.78,1039.08L2401.78,1319.04L2171.51,1459.02L1941.25,1319.04L1941.25,1039.08L2171.51,899.104Z" style="fill:rgb(192,192,192);"/>
                            <path d="M1910.76,1036.49L1911.06,1033.92L1911.55,1031.38L1912.24,1028.89L1913.11,1026.46L1914.17,1024.12L1915.4,1021.87L1916.8,1019.74L1918.36,1017.73L1920.06,1015.86L1921.91,1014.14L1923.88,1012.58L1925.96,1011.2L2156.22,871.216L2158.4,870.011L2160.67,868.994L2163,868.173L2165.39,867.553L2167.83,867.137L2170.28,866.928L2172.74,866.928L2175.2,867.137L2177.63,867.553L2180.02,868.173L2182.36,868.994L2184.62,870.011L2186.8,871.216L2417.07,1011.2L2419.15,1012.58L2421.12,1014.14L2422.96,1015.86L2424.67,1017.73L2426.23,1019.74L2427.63,1021.87L2428.86,1024.12L2429.91,1026.46L2430.79,1028.89L2431.47,1031.38L2431.97,1033.92L2432.26,1036.49L2432.36,1039.08L2432.36,1319.04L2432.26,1321.63L2431.97,1324.21L2431.47,1326.75L2430.79,1329.24L2429.91,1331.66L2428.86,1334.01L2427.63,1336.25L2426.23,1338.39L2424.67,1340.4L2422.96,1342.27L2421.12,1343.99L2419.15,1345.54L2417.07,1346.93L2186.8,1486.91L2184.62,1488.12L2182.36,1489.13L2180.02,1489.95L2177.63,1490.57L2175.2,1490.99L2172.74,1491.2L2170.28,1491.2L2167.83,1490.99L2165.39,1490.57L2163,1489.95L2160.67,1489.13L2158.4,1488.12L2156.22,1486.91L1925.96,1346.93L1923.88,1345.54L1921.91,1343.99L1920.06,1342.27L1918.36,1340.4L1916.8,1338.39L1915.4,1336.25L1914.17,1334.01L1913.11,1331.66L1912.24,1329.24L1911.55,1326.75L1911.06,1324.21L1910.76,1321.63L1910.66,1319.04L1910.66,1039.08L1910.76,1036.49ZM1941.25,1319.04L2171.51,1459.02L2401.78,1319.04L2401.78,1039.08L2171.51,899.104L1941.25,1039.08L1941.25,1319.04Z" style="fill:rgb(0,0,255);"/>
                        </g>
                    </g>
                    <g transform="matrix(0.520319,0,0,0.520319,611.473,543.12)">
                        <g transform="matrix(9.93205e-17,0.56415,-0.535792,-3.31068e-17,1856.59,1572.73)">
                            <path d="M2171.51,899.104L2401.78,1039.08L2401.78,1319.04L2171.51,1459.02L1941.25,1319.04L1941.25,1039.08L2171.51,899.104Z" style="fill:rgb(192,192,192);"/>
                            <path d="M1919.19,1036.87L1919.49,1034.67L1919.99,1032.51L1920.68,1030.41L1921.55,1028.39L1922.61,1026.47L1923.83,1024.66L1925.21,1022.98L1926.74,1021.45L1928.4,1020.08L1930.17,1018.88L2160.43,878.899L2162.31,877.882L2164.27,877.057L2166.29,876.431L2168.36,876.011L2170.46,875.8L2172.57,875.8L2174.67,876.011L2176.74,876.431L2178.76,877.057L2180.72,877.882L2182.59,878.899L2412.86,1018.88L2414.63,1020.08L2416.29,1021.45L2417.81,1022.98L2419.19,1024.66L2420.42,1026.47L2421.47,1028.39L2422.35,1030.41L2423.04,1032.51L2423.53,1034.67L2423.83,1036.87L2423.93,1039.08L2423.93,1319.04L2423.83,1321.26L2423.53,1323.46L2423.04,1325.62L2422.35,1327.71L2421.47,1329.73L2420.42,1331.66L2419.19,1333.46L2417.81,1335.14L2416.29,1336.67L2414.63,1338.05L2412.86,1339.25L2182.59,1479.23L2180.72,1480.24L2178.76,1481.07L2176.74,1481.69L2174.67,1482.12L2172.57,1482.33L2170.46,1482.33L2168.36,1482.12L2166.29,1481.69L2164.27,1481.07L2162.31,1480.24L2160.43,1479.23L1930.17,1339.25L1928.4,1338.05L1926.74,1336.67L1925.21,1335.14L1923.83,1333.46L1922.61,1331.66L1921.55,1329.73L1920.68,1327.71L1919.99,1325.62L1919.49,1323.46L1919.19,1321.26L1919.09,1319.04L1919.09,1039.08L1919.19,1036.87ZM1941.25,1319.04L2171.51,1459.02L2401.78,1319.04L2401.78,1039.08L2171.51,899.104L1941.25,1039.08L1941.25,1319.04Z" style="fill:rgb(0,0,255);"/>
                        </g>
                        <g transform="matrix(7.19569e-17,0.408723,-0.388177,-2.39856e-17,1682.54,1910.25)">
                            <path d="M2171.51,899.104L2401.78,1039.08L2401.78,1319.04L2171.51,1459.02L1941.25,1319.04L1941.25,1039.08L2171.51,899.104Z" style="fill:rgb(192,192,192);"/>
                            <path d="M1910.76,1036.49L1911.06,1033.92L1911.55,1031.38L1912.24,1028.89L1913.11,1026.46L1914.17,1024.12L1915.4,1021.87L1916.8,1019.74L1918.36,1017.73L1920.06,1015.86L1921.91,1014.14L1923.88,1012.58L1925.96,1011.2L2156.22,871.216L2158.4,870.011L2160.67,868.994L2163,868.173L2165.39,867.553L2167.83,867.137L2170.28,866.928L2172.74,866.928L2175.2,867.137L2177.63,867.553L2180.02,868.173L2182.36,868.994L2184.62,870.011L2186.8,871.216L2417.07,1011.2L2419.15,1012.58L2421.12,1014.14L2422.96,1015.86L2424.67,1017.73L2426.23,1019.74L2427.63,1021.87L2428.86,1024.12L2429.91,1026.46L2430.79,1028.89L2431.47,1031.38L2431.97,1033.92L2432.26,1036.49L2432.36,1039.08L2432.36,1319.04L2432.26,1321.63L2431.97,1324.21L2431.47,1326.75L2430.79,1329.24L2429.91,1331.66L2428.86,1334.01L2427.63,1336.25L2426.23,1338.39L2424.67,1340.4L2422.96,1342.27L2421.12,1343.99L2419.15,1345.54L2417.07,1346.93L2186.8,1486.91L2184.62,1488.12L2182.36,1489.13L2180.02,1489.95L2177.63,1490.57L2175.2,1490.99L2172.74,1491.2L2170.28,1491.2L2167.83,1490.99L2165.39,1490.57L2163,1489.95L2160.67,1489.13L2158.4,1488.12L2156.22,1486.91L1925.96,1346.93L1923.88,1345.54L1921.91,1343.99L1920.06,1342.27L1918.36,1340.4L1916.8,1338.39L1915.4,1336.25L1914.17,1334.01L1913.11,1331.66L1912.24,1329.24L1911.55,1326.75L1911.06,1324.21L1910.76,1321.63L1910.66,1319.04L1910.66,1039.08L1910.76,1036.49ZM1941.25,1319.04L2171.51,1459.02L2401.78,1319.04L2401.78,1039.08L2171.51,899.104L1941.25,1039.08L1941.25,1319.04Z" style="fill:rgb(0,0,255);"/>
                        </g>
                    </g>
                    <g transform="matrix(0.520319,0,0,0.520319,611.473,543.12)">
                        <g transform="matrix(9.93205e-17,0.56415,-0.535792,-3.31068e-17,1856.59,1572.73)">
                            <path d="M2171.51,899.104L2401.78,1039.08L2401.78,1319.04L2171.51,1459.02L1941.25,1319.04L1941.25,1039.08L2171.51,899.104Z" style="fill:rgb(192,192,192);"/>
                            <path d="M1919.19,1036.87L1919.49,1034.67L1919.99,1032.51L1920.68,1030.41L1921.55,1028.39L1922.61,1026.47L1923.83,1024.66L1925.21,1022.98L1926.74,1021.45L1928.4,1020.08L1930.17,1018.88L2160.43,878.899L2162.31,877.882L2164.27,877.057L2166.29,876.431L2168.36,876.011L2170.46,875.8L2172.57,875.8L2174.67,876.011L2176.74,876.431L2178.76,877.057L2180.72,877.882L2182.59,878.899L2412.86,1018.88L2414.63,1020.08L2416.29,1021.45L2417.81,1022.98L2419.19,1024.66L2420.42,1026.47L2421.47,1028.39L2422.35,1030.41L2423.04,1032.51L2423.53,1034.67L2423.83,1036.87L2423.93,1039.08L2423.93,1319.04L2423.83,1321.26L2423.53,1323.46L2423.04,1325.62L2422.35,1327.71L2421.47,1329.73L2420.42,1331.66L2419.19,1333.46L2417.81,1335.14L2416.29,1336.67L2414.63,1338.05L2412.86,1339.25L2182.59,1479.23L2180.72,1480.24L2178.76,1481.07L2176.74,1481.69L2174.67,1482.12L2172.57,1482.33L2170.46,1482.33L2168.36,1482.12L2166.29,1481.69L2164.27,1481.07L2162.31,1480.24L2160.43,1479.23L1930.17,1339.25L1928.4,1338.05L1926.74,1336.67L1925.21,1335.14L1923.83,1333.46L1922.61,1331.66L1921.55,1329.73L1920.68,1327.71L1919.99,1325.62L1919.49,1323.46L1919.19,1321.26L1919.09,1319.04L1919.09,1039.08L1919.19,1036.87ZM1941.25,1319.04L2171.51,1459.02L2401.78,1319.04L2401.78,1039.08L2171.51,899.104L1941.25,1039.08L1941.25,1319.04Z" style="fill:rgb(254,0,0);"/>
                        </g>
                        <g transform="matrix(7.19569e-17,0.408723,-0.388177,-2.39856e-17,1682.54,1910.25)">
                            <path d="M2171.51,899.104L2401.78,1039.08L2401.78,1319.04L2171.51,1459.02L1941.25,1319.04L1941.25,1039.08L2171.51,899.104Z" style="fill:rgb(192,192,192);"/>
                            <path d="M1910.76,1036.49L1911.06,1033.92L1911.55,1031.38L1912.24,1028.89L1913.11,1026.46L1914.17,1024.12L1915.4,1021.87L1916.8,1019.74L1918.36,1017.73L1920.06,1015.86L1921.91,1014.14L1923.88,1012.58L1925.96,1011.2L2156.22,871.216L2158.4,870.011L2160.67,868.994L2163,868.173L2165.39,867.553L2167.83,867.137L2170.28,866.928L2172.74,866.928L2175.2,867.137L2177.63,867.553L2180.02,868.173L2182.36,868.994L2184.62,870.011L2186.8,871.216L2417.07,1011.2L2419.15,1012.58L2421.12,1014.14L2422.96,1015.86L2424.67,1017.73L2426.23,1019.74L2427.63,1021.87L2428.86,1024.12L2429.91,1026.46L2430.79,1028.89L2431.47,1031.38L2431.97,1033.92L2432.26,1036.49L2432.36,1039.08L2432.36,1319.04L2432.26,1321.63L2431.97,1324.21L2431.47,1326.75L2430.79,1329.24L2429.91,1331.66L2428.86,1334.01L2427.63,1336.25L2426.23,1338.39L2424.67,1340.4L2422.96,1342.27L2421.12,1343.99L2419.15,1345.54L2417.07,1346.93L2186.8,1486.91L2184.62,1488.12L2182.36,1489.13L2180.02,1489.95L2177.63,1490.57L2175.2,1490.99L2172.74,1491.2L2170.28,1491.2L2167.83,1490.99L2165.39,1490.57L2163,1489.95L2160.67,1489.13L2158.4,1488.12L2156.22,1486.91L1925.96,1346.93L1923.88,1345.54L1921.91,1343.99L1920.06,1342.27L1918.36,1340.4L1916.8,1338.39L1915.4,1336.25L1914.17,1334.01L1913.11,1331.66L1912.24,1329.24L1911.55,1326.75L1911.06,1324.21L1910.76,1321.63L1910.66,1319.04L1910.66,1039.08L1910.76,1036.49ZM1941.25,1319.04L2171.51,1459.02L2401.78,1319.04L2401.78,1039.08L2171.51,899.104L1941.25,1039.08L1941.25,1319.04Z" style="fill:rgb(254,0,0);"/>
                        </g>
                    </g>
                    <g transform="matrix(0.780479,0,0,0.780479,122.731,-260.203)">
                        <g transform="matrix(9.93205e-17,0.56415,-0.535792,-3.31068e-17,1856.59,1572.73)">
                            <path d="M2171.51,899.104L2401.78,1039.08L2401.78,1319.04L2171.51,1459.02L1941.25,1319.04L1941.25,1039.08L2171.51,899.104Z" style="fill:rgb(192,192,192);"/>
                            <path d="M1919.19,1036.87L1919.49,1034.67L1919.99,1032.51L1920.68,1030.41L1921.55,1028.39L1922.61,1026.47L1923.83,1024.66L1925.21,1022.98L1926.74,1021.45L1928.4,1020.08L1930.17,1018.88L2160.43,878.899L2162.31,877.882L2164.27,877.057L2166.29,876.431L2168.36,876.011L2170.46,875.8L2172.57,875.8L2174.67,876.011L2176.74,876.431L2178.76,877.057L2180.72,877.882L2182.59,878.899L2412.86,1018.88L2414.63,1020.08L2416.29,1021.45L2417.81,1022.98L2419.19,1024.66L2420.42,1026.47L2421.47,1028.39L2422.35,1030.41L2423.04,1032.51L2423.53,1034.67L2423.83,1036.87L2423.93,1039.08L2423.93,1319.04L2423.83,1321.26L2423.53,1323.46L2423.04,1325.62L2422.35,1327.71L2421.47,1329.73L2420.42,1331.66L2419.19,1333.46L2417.81,1335.14L2416.29,1336.67L2414.63,1338.05L2412.86,1339.25L2182.59,1479.23L2180.72,1480.24L2178.76,1481.07L2176.74,1481.69L2174.67,1482.12L2172.57,1482.33L2170.46,1482.33L2168.36,1482.12L2166.29,1481.69L2164.27,1481.07L2162.31,1480.24L2160.43,1479.23L1930.17,1339.25L1928.4,1338.05L1926.74,1336.67L1925.21,1335.14L1923.83,1333.46L1922.61,1331.66L1921.55,1329.73L1920.68,1327.71L1919.99,1325.62L1919.49,1323.46L1919.19,1321.26L1919.09,1319.04L1919.09,1039.08L1919.19,1036.87ZM1941.25,1319.04L2171.51,1459.02L2401.78,1319.04L2401.78,1039.08L2171.51,899.104L1941.25,1039.08L1941.25,1319.04Z" style="fill:rgb(0,0,255);"/>
                        </g>
                        <g transform="matrix(7.19569e-17,0.408723,-0.388177,-2.39856e-17,1682.54,1910.25)">
                            <path d="M2171.51,899.104L2401.78,1039.08L2401.78,1319.04L2171.51,1459.02L1941.25,1319.04L1941.25,1039.08L2171.51,899.104Z" style="fill:rgb(192,192,192);"/>
                            <path d="M1910.77,1036.49L1911.06,1033.92L1911.55,1031.38L1912.24,1028.89L1913.11,1026.46L1914.17,1024.12L1915.4,1021.87L1916.8,1019.74L1918.36,1017.73L1920.06,1015.86L1921.91,1014.14L1923.88,1012.58L1925.96,1011.2L2156.22,871.216L2158.4,870.011L2160.67,868.994L2163,868.173L2165.39,867.552L2167.83,867.136L2170.28,866.928L2172.74,866.928L2175.2,867.136L2177.63,867.552L2180.02,868.173L2182.36,868.994L2184.62,870.011L2186.8,871.216L2417.07,1011.2L2419.15,1012.58L2421.12,1014.14L2422.96,1015.86L2424.67,1017.73L2426.23,1019.74L2427.63,1021.87L2428.86,1024.12L2429.91,1026.46L2430.79,1028.89L2431.47,1031.38L2431.96,1033.92L2432.26,1036.49L2432.36,1039.08L2432.36,1319.04L2432.26,1321.63L2431.96,1324.21L2431.47,1326.75L2430.79,1329.24L2429.91,1331.66L2428.86,1334.01L2427.63,1336.25L2426.23,1338.39L2424.67,1340.4L2422.96,1342.27L2421.12,1343.99L2419.15,1345.54L2417.07,1346.93L2186.8,1486.91L2184.62,1488.12L2182.36,1489.13L2180.02,1489.95L2177.63,1490.57L2175.2,1490.99L2172.74,1491.2L2170.28,1491.2L2167.83,1490.99L2165.39,1490.57L2163,1489.95L2160.67,1489.13L2158.4,1488.12L2156.22,1486.91L1925.96,1346.93L1923.88,1345.54L1921.91,1343.99L1920.06,1342.27L1918.36,1340.4L1916.8,1338.39L1915.4,1336.25L1914.17,1334.01L1913.11,1331.66L1912.24,1329.24L1911.55,1326.75L1911.06,1324.21L1910.77,1321.63L1910.66,1319.04L1910.66,1039.08L1910.77,1036.49ZM1941.25,1319.04L2171.51,1459.02L2401.78,1319.04L2401.78,1039.08L2171.51,899.104L1941.25,1039.08L1941.25,1319.04Z" style="fill:rgb(0,0,255);"/>
                        </g>
                    </g>
                    <g transform="matrix(0.780479,0,0,0.780479,122.731,-260.203)">
                        <g transform="matrix(9.93205e-17,0.56415,-0.535792,-3.31068e-17,1856.59,1572.73)">
                            <path d="M2171.51,899.104L2401.78,1039.08L2401.78,1319.04L2171.51,1459.02L1941.25,1319.04L1941.25,1039.08L2171.51,899.104Z" style="fill:rgb(192,192,192);"/>
                            <path d="M1919.19,1036.87L1919.49,1034.67L1919.99,1032.51L1920.68,1030.41L1921.55,1028.39L1922.61,1026.47L1923.83,1024.66L1925.21,1022.98L1926.74,1021.45L1928.4,1020.08L1930.17,1018.88L2160.43,878.899L2162.31,877.882L2164.27,877.057L2166.29,876.431L2168.36,876.011L2170.46,875.8L2172.57,875.8L2174.67,876.011L2176.74,876.431L2178.76,877.057L2180.72,877.882L2182.59,878.899L2412.86,1018.88L2414.63,1020.08L2416.29,1021.45L2417.81,1022.98L2419.19,1024.66L2420.42,1026.47L2421.47,1028.39L2422.35,1030.41L2423.04,1032.51L2423.53,1034.67L2423.83,1036.87L2423.93,1039.08L2423.93,1319.04L2423.83,1321.26L2423.53,1323.46L2423.04,1325.62L2422.35,1327.71L2421.47,1329.73L2420.42,1331.66L2419.19,1333.46L2417.81,1335.14L2416.29,1336.67L2414.63,1338.05L2412.86,1339.25L2182.59,1479.23L2180.72,1480.24L2178.76,1481.07L2176.74,1481.69L2174.67,1482.12L2172.57,1482.33L2170.46,1482.33L2168.36,1482.12L2166.29,1481.69L2164.27,1481.07L2162.31,1480.24L2160.43,1479.23L1930.17,1339.25L1928.4,1338.05L1926.74,1336.67L1925.21,1335.14L1923.83,1333.46L1922.61,1331.66L1921.55,1329.73L1920.68,1327.71L1919.99,1325.62L1919.49,1323.46L1919.19,1321.26L1919.09,1319.04L1919.09,1039.08L1919.19,1036.87ZM1941.25,1319.04L2171.51,1459.02L2401.78,1319.04L2401.78,1039.08L2171.51,899.104L1941.25,1039.08L1941.25,1319.04Z" style="fill:rgb(254,0,0);"/>
                        </g>
                        <g transform="matrix(7.19569e-17,0.408723,-0.388177,-2.39856e-17,1682.54,1910.25)">
                            <path d="M2171.51,899.104L2401.78,1039.08L2401.78,1319.04L2171.51,1459.02L1941.25,1319.04L1941.25,1039.08L2171.51,899.104Z" style="fill:rgb(192,192,192);"/>
                            <path d="M1910.77,1036.49L1911.06,1033.92L1911.55,1031.38L1912.24,1028.89L1913.11,1026.46L1914.17,1024.12L1915.4,1021.87L1916.8,1019.74L1918.36,1017.73L1920.06,1015.86L1921.91,1014.14L1923.88,1012.58L1925.96,1011.2L2156.22,871.216L2158.4,870.011L2160.67,868.994L2163,868.173L2165.39,867.552L2167.83,867.136L2170.28,866.928L2172.74,866.928L2175.2,867.136L2177.63,867.552L2180.02,868.173L2182.36,868.994L2184.62,870.011L2186.8,871.216L2417.07,1011.2L2419.15,1012.58L2421.12,1014.14L2422.96,1015.86L2424.67,1017.73L2426.23,1019.74L2427.63,1021.87L2428.86,1024.12L2429.91,1026.46L2430.79,1028.89L2431.47,1031.38L2431.96,1033.92L2432.26,1036.49L2432.36,1039.08L2432.36,1319.04L2432.26,1321.63L2431.96,1324.21L2431.47,1326.75L2430.79,1329.24L2429.91,1331.66L2428.86,1334.01L2427.63,1336.25L2426.23,1338.39L2424.67,1340.4L2422.96,1342.27L2421.12,1343.99L2419.15,1345.54L2417.07,1346.93L2186.8,1486.91L2184.62,1488.12L2182.36,1489.13L2180.02,1489.95L2177.63,1490.57L2175.2,1490.99L2172.74,1491.2L2170.28,1491.2L2167.83,1490.99L2165.39,1490.57L2163,1489.95L2160.67,1489.13L2158.4,1488.12L2156.22,1486.91L1925.96,1346.93L1923.88,1345.54L1921.91,1343.99L1920.06,1342.27L1918.36,1340.4L1916.8,1338.39L1915.4,1336.25L1914.17,1334.01L1913.11,1331.66L1912.24,1329.24L1911.55,1326.75L1911.06,1324.21L1910.77,1321.63L1910.66,1319.04L1910.66,1039.08L1910.77,1036.49ZM1941.25,1319.04L2171.51,1459.02L2401.78,1319.04L2401.78,1039.08L2171.51,899.104L1941.25,1039.08L1941.25,1319.04Z" style="fill:rgb(254,0,0);"/>
                        </g>
                    </g>
                    <g transform="matrix(1.04064,0,0,1.04064,13.3252,-1131.01)">
                        <g transform="matrix(9.93205e-17,0.56415,-0.535792,-3.31068e-17,1856.59,1572.73)">
                            <path d="M2171.51,899.104L2401.78,1039.08L2401.78,1319.04L2171.51,1459.02L1941.25,1319.04L1941.25,1039.08L2171.51,899.104Z" style="fill:rgb(192,192,192);"/>
                            <path d="M1919.85,1033.05L1922.06,1027.42L1925.58,1022.59L1930.17,1018.88L2160.43,878.899L2165.78,876.569L2171.51,875.774L2177.25,876.569L2182.59,878.899L2412.86,1018.88L2417.45,1022.59L2420.97,1027.42L2423.18,1033.05L2423.93,1039.08L2423.93,1319.04L2423.18,1325.08L2420.97,1330.71L2417.45,1335.54L2412.86,1339.25L2182.59,1479.23L2177.25,1481.56L2171.51,1482.35L2165.78,1481.56L2160.43,1479.23L1930.17,1339.25L1925.58,1335.54L1922.06,1330.71L1919.85,1325.08L1919.09,1319.04L1919.09,1039.08L1919.85,1033.05ZM1941.25,1319.04L2171.51,1459.02L2401.78,1319.04L2401.78,1039.08L2171.51,899.104L1941.25,1039.08L1941.25,1319.04Z" style="fill:rgb(254,0,0);"/>
                        </g>
                        <g transform="matrix(7.19569e-17,0.408723,-0.388177,-2.39856e-17,1682.54,1910.25)">
                            <path d="M2171.51,899.104L2401.78,1039.08L2401.78,1319.04L2171.51,1459.02L1941.25,1319.04L1941.25,1039.08L2171.51,899.104Z" style="fill:rgb(187,189,192);"/>
                            <path d="M1910.76,1036.49L1911.06,1033.92L1911.55,1031.38L1912.24,1028.89L1913.11,1026.46L1914.17,1024.12L1915.4,1021.87L1916.8,1019.74L1918.36,1017.73L1920.06,1015.86L1921.91,1014.14L1923.88,1012.58L1925.96,1011.2L2156.22,871.216L2158.4,870.011L2160.67,868.994L2163,868.173L2165.39,867.553L2167.83,867.137L2170.28,866.928L2172.74,866.928L2175.2,867.137L2177.63,867.553L2180.02,868.173L2182.36,868.994L2184.62,870.011L2186.8,871.216L2417.07,1011.2L2419.15,1012.58L2421.12,1014.14L2422.96,1015.86L2424.67,1017.73L2426.23,1019.74L2427.63,1021.87L2428.86,1024.12L2429.91,1026.46L2430.79,1028.89L2431.47,1031.38L2431.96,1033.92L2432.26,1036.49L2432.36,1039.08L2432.36,1319.04L2432.26,1321.63L2431.96,1324.21L2431.47,1326.75L2430.79,1329.24L2429.91,1331.66L2428.86,1334.01L2427.63,1336.25L2426.23,1338.39L2424.67,1340.4L2422.96,1342.27L2421.12,1343.99L2419.15,1345.54L2417.07,1346.93L2186.8,1486.91L2184.62,1488.12L2182.36,1489.13L2180.02,1489.95L2177.63,1490.57L2175.2,1490.99L2172.74,1491.2L2170.28,1491.2L2167.83,1490.99L2165.39,1490.57L2163,1489.95L2160.67,1489.13L2158.4,1488.12L2156.22,1486.91L1925.96,1346.93L1923.88,1345.54L1921.91,1343.99L1920.06,1342.27L1918.36,1340.4L1916.8,1338.39L1915.4,1336.25L1914.17,1334.01L1913.11,1331.66L1912.24,1329.24L1911.55,1326.75L1911.06,1324.21L1910.76,1321.63L1910.66,1319.04L1910.66,1039.08L1910.76,1036.49ZM1941.25,1319.04L2171.51,1459.02L2401.78,1319.04L2401.78,1039.08L2171.51,899.104L1941.25,1039.08L1941.25,1319.04Z" style="fill:rgb(254,0,0);"/>
                        </g>
                    </g>
                </g>
            </g>
        </g>
    </g>
</svg>
